<svg width="22" height="22" viewBox="0 0 22 22" fill="none" xmlns="http://www.w3.org/2000/svg">
<path id="Vector" d="M21.5498 6.13953H15.8605V0.450233L21.5498 6.13953ZM15.093 7.67442C14.6735 7.67442 14.3256 7.32651 14.3256 6.90698V0H6.90698C5.35163 0 4.09302 1.2586 4.09302 2.81395V6.27256C5.12651 5.86326 6.24186 5.62791 7.4186 5.62791C12.3609 5.62791 16.3721 9.63907 16.3721 14.5814C16.3721 17.6614 14.8065 20.3935 12.4223 22H19.186C20.7414 22 22 20.7414 22 19.186V7.67442H15.093ZM14.8372 14.5814C14.8372 18.6744 11.5116 22 7.4186 22C3.32558 22 0 18.6744 0 14.5814C0 10.4884 3.32558 7.16279 7.4186 7.16279C11.5116 7.16279 14.8372 10.4884 14.8372 14.5814ZM10.1405 16.2186L8.18605 14.2642V11.5116C8.18605 11.0921 7.83814 10.7442 7.4186 10.7442C6.99907 10.7442 6.65116 11.0921 6.65116 11.5116V14.5814C6.65116 14.786 6.73302 14.9805 6.87628 15.1237L9.05581 17.3033C9.2093 17.4567 9.40372 17.5284 9.59814 17.5284C9.79256 17.5284 9.98698 17.4567 10.1405 17.3033C10.4372 17.0065 10.4372 16.5154 10.1405 16.2186Z" fill="#333333"/>
</svg>
