<svg width="22" height="22" viewBox="0 0 22 22" fill="none" xmlns="http://www.w3.org/2000/svg">
<path d="M10.8 0.279882C8.832 0.279882 7.02 0.759882 5.364 1.71988C3.708 2.67988 2.4 3.98788 1.44 5.64388C0.48 7.29988 0 9.11188 0 11.0799C0 13.0479 0.48 14.8599 1.44 16.5159C2.4 18.1719 3.708 19.4799 5.364 20.4399C7.02 21.3999 8.832 21.8799 10.8 21.8799C12.768 21.8799 14.58 21.3999 16.236 20.4399C17.892 19.4799 19.2 18.1719 20.16 16.5159C21.12 14.8599 21.6 13.0479 21.6 11.0799C21.6 9.11188 21.12 7.29988 20.16 5.64388C19.2 3.98788 17.892 2.67988 16.236 1.71988C14.58 0.759882 12.768 0.279882 10.8 0.279882ZM10.8 20.5119C9.072 20.5119 7.488 20.0919 6.048 19.2519C4.608 18.4119 3.468 17.2719 2.628 15.8319C1.788 14.3919 1.368 12.8079 1.368 11.0799C1.368 9.35188 1.788 7.76788 2.628 6.32788C3.468 4.88788 4.608 3.74788 6.048 2.90788C7.488 2.06788 9.072 1.64788 10.8 1.64788C12.528 1.64788 14.112 2.06788 15.552 2.90788C16.992 3.74788 18.132 4.88788 18.972 6.32788C19.812 7.76788 20.232 9.35188 20.232 11.0799C20.232 12.8079 19.812 14.3919 18.972 15.8319C18.132 17.2719 16.992 18.4119 15.552 19.2519C14.112 20.0919 12.528 20.5119 10.8 20.5119ZM15.336 10.5759C15.48 10.7199 15.552 10.8879 15.552 11.0799C15.552 11.2719 15.48 11.4399 15.336 11.5839L11.952 14.9679C11.808 15.0639 11.64 15.1119 11.448 15.1119C11.256 15.1119 11.1 15.0519 10.98 14.9319C10.86 14.8119 10.8 14.6559 10.8 14.4639C10.8 14.2719 10.872 14.1039 11.016 13.9599L13.248 11.7279H6.768C6.576 11.7279 6.408 11.6679 6.264 11.5479C6.12 11.4279 6.048 11.2719 6.048 11.0799C6.048 10.8879 6.12 10.7319 6.264 10.6119C6.408 10.4919 6.576 10.4319 6.768 10.4319H13.248L11.016 8.19988C10.872 8.05588 10.8 7.88788 10.8 7.69588C10.8 7.50388 10.86 7.34788 10.98 7.22788C11.1 7.10788 11.256 7.04788 11.448 7.04788C11.64 7.04788 11.808 7.09588 11.952 7.19188L15.336 10.5759Z" fill="#010212"/>
</svg>
