<svg width="34" height="34" viewBox="0 0 34 34" fill="none" xmlns="http://www.w3.org/2000/svg">
<path id="Vector" d="M23.4107 0H10.5893C4.74101 0 0 4.74101 0 10.5893V23.4107C0 29.259 4.74101 34 10.5893 34H23.4107C29.259 34 34 29.259 34 23.4107V10.5893C34 4.74101 29.259 0 23.4107 0ZM23.9036 25.0522C22.2533 26.0252 20.6237 26.0534 20.4433 26.0534H10.3892C9.45034 26.0534 8.68919 25.2923 8.68919 24.3534C8.68919 23.4144 9.45034 22.6534 10.3892 22.6534H20.4296C20.4976 22.6509 21.4155 22.6077 22.2702 22.0663C23.3763 21.3657 23.9371 20.0746 23.9371 18.229C23.9371 16.3699 23.3674 15.0519 22.2439 14.3114C21.416 13.7657 20.5331 13.6808 20.3992 13.6709H15.1187V16.4701C15.1187 16.9209 14.9396 17.3533 14.6209 17.6721C14.3022 17.9909 13.8699 18.17 13.4191 18.1701C12.976 18.1703 12.5503 17.9973 12.2328 17.6881L7.69947 13.274C7.5368 13.1156 7.40751 12.9262 7.31922 12.717C7.23094 12.5078 7.18546 12.2831 7.18546 12.056C7.18546 11.8289 7.23094 11.6042 7.31922 11.395C7.40751 11.1858 7.5368 10.9964 7.69947 10.838L12.2328 6.42381C12.4723 6.1906 12.7753 6.03318 13.1038 5.97124C13.4323 5.9093 13.7718 5.9456 14.0798 6.07559C14.3878 6.20558 14.6506 6.42349 14.8354 6.70207C15.0202 6.98065 15.1188 7.30753 15.1188 7.64183V10.2711L20.4872 10.2713C20.667 10.276 22.2905 10.3457 23.9312 11.3553C25.485 12.3115 27.3372 14.2801 27.3372 18.2288C27.3371 22.1952 25.4699 24.1287 23.9036 25.0522Z" fill="url(#paint0_linear_193_1282)"/>
<defs>
<linearGradient id="paint0_linear_193_1282" x1="17.0471" y1="5.56363" x2="-32.3562" y2="13.1899" gradientUnits="userSpaceOnUse">
<stop stop-color="#1A8C1A"/>
<stop offset="1" stop-color="#1819FF"/>
</linearGradient>
</defs>
</svg>
