<svg width="14" height="14" viewBox="0 0 14 14" fill="none" xmlns="http://www.w3.org/2000/svg">
<path d="M13.3559 12.7177H0.636495C0.467781 12.7177 0.305978 12.7847 0.18668 12.904C0.0673811 13.0233 0.000359876 13.1851 0.000359876 13.3538C0.000359876 13.5226 0.0673811 13.6844 0.18668 13.8037C0.305978 13.923 0.467781 13.99 0.636495 13.99H13.3556C13.5243 13.99 13.6862 13.923 13.8055 13.8038C13.9248 13.6845 13.9919 13.5227 13.9919 13.354C13.9919 13.1853 13.925 13.0235 13.8057 12.9041C13.6864 12.7848 13.5246 12.7177 13.3559 12.7177ZM1.43137 11.0639C1.26261 11.0639 1.10077 11.131 0.981445 11.2503C0.862119 11.3696 0.795082 11.5315 0.795082 11.7002C0.795082 11.869 0.862119 12.0308 0.981445 12.1501C1.10077 12.2695 1.26261 12.3365 1.43137 12.3365H12.5608C12.7295 12.3365 12.8913 12.2695 13.0107 12.1501C13.13 12.0308 13.197 11.869 13.197 11.7002C13.197 11.5315 13.13 11.3696 13.0107 11.2503C12.8913 11.131 12.7295 11.0639 12.5608 11.0639H12.402V5.33991H12.5608C12.645 5.33991 12.7259 5.30643 12.7855 5.24684C12.845 5.18724 12.8785 5.10642 12.8785 5.02214C12.8785 4.93786 12.845 4.85704 12.7855 4.79744C12.7259 4.73785 12.645 4.70437 12.5608 4.70437H1.43137C1.34709 4.70437 1.26626 4.73785 1.20667 4.79744C1.14708 4.85704 1.1136 4.93786 1.1136 5.02214C1.1136 5.10642 1.14708 5.18724 1.20667 5.24684C1.26626 5.30643 1.34709 5.33991 1.43137 5.33991H1.5904V11.0636L1.43137 11.0639ZM11.1297 5.33991V11.0636H9.22194V5.33991H11.1297ZM7.94967 5.33991V11.0636H6.04186V5.33991H7.94967ZM2.86207 5.33991H4.76988V11.0636H2.86207V5.33991ZM0.636495 4.13256H13.3619C13.5128 4.13311 13.659 4.07996 13.7743 3.98263C13.8896 3.8853 13.9665 3.75013 13.9913 3.60129C14.0162 3.45244 13.9872 3.29962 13.9097 3.17015C13.8322 3.04067 13.7112 2.94298 13.5683 2.89454L7.25754 0.0548664C7.17549 0.0180547 7.08658 -0.000976563 6.99666 -0.000976562C6.90673 -0.000976563 6.81782 0.0180547 6.73577 0.0548664L0.375608 2.91658C0.242778 2.97616 0.134417 3.07952 0.0686289 3.20939C0.00284039 3.33926 -0.0163908 3.48777 0.0141483 3.63011C0.0446874 3.77245 0.123147 3.9 0.236419 3.99145C0.349691 4.0829 0.490914 4.13271 0.636495 4.13256Z" fill="#15355E"/>
</svg>
