<svg width="22" height="22" viewBox="0 0 22 22" fill="none" xmlns="http://www.w3.org/2000/svg">
<g id="Group">
<path id="Vector" fill-rule="evenodd" clip-rule="evenodd" d="M19.185 22.0081H9.46045C8.71422 22.0081 7.99767 21.7112 7.46947 21.184C6.94209 20.6556 6.64576 19.9396 6.64545 19.193V13.563C6.64545 12.8168 6.9423 12.1003 7.46947 11.5721C7.9979 11.0447 8.71388 10.7484 9.46045 10.748H19.185C19.9312 10.748 20.6478 11.0449 21.176 11.5721C21.7031 12.1003 22 12.8168 22 13.563V19.193C22 19.9393 21.7031 20.6558 21.176 21.184C20.6475 21.7114 19.9316 22.0077 19.185 22.0081ZM14.8345 18.6812C14.8345 19.105 15.1785 19.449 15.6023 19.449H17.1377C17.7486 19.449 18.3344 19.2063 18.7663 18.7744C19.1982 18.3424 19.4409 17.7566 19.4409 17.1458V15.6103C19.4409 14.9995 19.1982 14.4137 18.7663 13.9817C18.3344 13.5498 17.7486 13.3071 17.1377 13.3071H15.6023C15.3987 13.3071 15.2034 13.388 15.0594 13.532C14.9154 13.676 14.8345 13.8713 14.8345 14.0749V18.6812ZM16.37 17.9135V14.8426H17.1377C17.3413 14.8426 17.5366 14.9235 17.6806 15.0675C17.8246 15.2114 17.9054 15.4067 17.9054 15.6103V17.1458C17.9054 17.3494 17.8246 17.5447 17.6806 17.6886C17.5366 17.8326 17.3413 17.9135 17.1377 17.9135H16.37ZM9.20454 18.6812C9.20454 18.8848 9.28542 19.0801 9.4294 19.2241C9.57338 19.3681 9.76865 19.449 9.97227 19.449C10.1759 19.449 10.3712 19.3681 10.5151 19.2241C10.6591 19.0801 10.74 18.8848 10.74 18.6812V17.4017H12.2754V18.6812C12.2754 18.8848 12.3563 19.0801 12.5003 19.2241C12.6443 19.3681 12.8396 19.449 13.0432 19.449C13.2468 19.449 13.4421 19.3681 13.586 19.2241C13.73 19.0801 13.8109 18.8848 13.8109 18.6812V15.6103C13.8109 14.9995 13.5682 14.4137 13.1363 13.9817C12.7044 13.5498 12.1186 13.3071 11.5077 13.3071H11.5057C10.8956 13.3071 10.3101 13.5497 9.87809 13.9807C9.44698 14.4127 9.20476 14.998 9.20454 15.6083V18.6812ZM12.2754 15.8662H10.74V15.6083C10.7405 15.4054 10.8214 15.2109 10.9649 15.0675C11.1083 14.924 11.3028 14.8431 11.5057 14.8426H11.5077C11.7113 14.8426 11.9066 14.9235 12.0506 15.0675C12.1946 15.2114 12.2754 15.4067 12.2754 15.6103V15.8662Z" fill="#333333"/>
<path id="Vector_2" fill-rule="evenodd" clip-rule="evenodd" d="M5.9719 20.7952C2.54271 19.0304 0.15764 15.5163 0 11.435L5.62181 14.9482V19.1932C5.62181 19.7521 5.74363 20.2977 5.9719 20.7952ZM5.64433 13.1517L0.0716545 9.66928C0.246224 8.22933 0.70554 6.8385 1.42286 5.5778L6.20938 5.10795C6.67718 5.06189 7.13065 5.27583 7.39373 5.66378L9.21785 8.35595C9.61357 8.9407 10.2146 9.35538 10.9017 9.51778L11.4596 9.6488C11.6715 9.69896 11.8875 9.72455 12.1014 9.72455H9.46045C8.51383 9.7251 7.60075 10.0752 6.89646 10.7077C6.19216 11.3402 5.74626 12.2106 5.64433 13.1517ZM12.1117 9.72455C12.8049 9.72258 13.473 9.46518 13.9884 9.00157C14.5037 8.53795 14.8301 7.90065 14.9052 7.21152L15.0464 5.90127C15.0662 5.71796 15.1254 5.5411 15.22 5.38279C15.3145 5.22449 15.4421 5.08848 15.5941 4.98409L18.5196 2.97674C19.6129 3.99875 20.4855 5.23353 21.084 6.60518C21.6826 7.97683 21.9943 9.45638 22 10.9529C21.6405 10.5655 21.205 10.2565 20.7206 10.0451C20.2363 9.83374 19.7135 9.72461 19.185 9.72455H12.1117ZM2.57649 3.92155C3.60817 2.69251 4.89664 1.70447 6.35125 1.02695C7.80585 0.349435 9.39125 -0.00110304 10.9959 2.60739e-06C13.3298 2.60739e-06 15.4938 0.727808 17.2749 1.96846L14.726 3.71785C14.3911 3.94751 14.1098 4.24692 13.9015 4.59554C13.6932 4.94415 13.5627 5.33371 13.5192 5.73749L13.3779 7.04672C13.3585 7.22704 13.301 7.40118 13.2091 7.55758C13.1173 7.71398 12.9933 7.84908 12.8453 7.95391C12.6973 8.05874 12.5287 8.13091 12.3507 8.16563C12.1727 8.20036 11.9893 8.19684 11.8128 8.15532L11.2549 8.02327C10.9423 7.94977 10.6689 7.76117 10.4892 7.49507L8.66508 4.80291C8.38107 4.38349 7.98916 4.04847 7.53065 3.83318C7.07215 3.61789 6.56405 3.53031 6.05993 3.57966L2.57649 3.92155Z" fill="#333333"/>
</g>
</svg>
