<svg width="28" height="29" viewBox="0 0 28 29" fill="none" xmlns="http://www.w3.org/2000/svg">
<path fill-rule="evenodd" clip-rule="evenodd" d="M24.9478 19.0026H24.3767C25.9502 19.0026 27.2171 20.2715 27.2171 21.8368V22.4058C27.2171 23.036 26.709 23.5388 26.0822 23.5388H1.13483C0.50745 23.5388 0 23.0316 0 22.4058V21.8368C0 20.2722 1.27166 19.0026 2.84034 19.0026H2.26927C2.8928 19.0026 3.40213 18.4945 3.40213 17.8676V11.0639C3.40213 5.42487 7.9717 0.85791 13.6085 0.85791C19.2466 0.85791 23.8149 5.42728 23.8149 11.0639V17.8676C23.8149 18.4984 24.3221 19.0026 24.9478 19.0026ZM9.63938 24.6729H17.5777C17.5777 26.865 15.8006 28.642 13.6085 28.642C11.4164 28.642 9.63938 26.865 9.63938 24.6729Z" fill="#002C9C"/>
</svg>
