<svg width="48" height="72" viewBox="0 0 48 72" fill="none" xmlns="http://www.w3.org/2000/svg">
<rect width="48" height="48" rx="12" fill="#181A1C"/>
<path fill-rule="evenodd" clip-rule="evenodd" d="M23.4422 16H18.5579H18.5578C17.6135 16 16.8443 16 16.2198 16.051C15.5743 16.1037 14.9959 16.2159 14.457 16.4905C13.6103 16.9219 12.9219 17.6103 12.4905 18.457C12.2159 18.9959 12.1037 19.5743 12.051 20.2198C12 20.8443 12 21.6135 12 22.5578V22.5579V25.4422V25.4422C12 26.3865 12 27.1557 12.051 27.7802C12.1037 28.4257 12.2159 29.0041 12.4905 29.543C12.9219 30.3897 13.6103 31.0781 14.457 31.5095C14.9959 31.7841 15.5743 31.8963 16.2198 31.949C16.8443 32 17.6135 32 18.5578 32H18.5579H23.4421H23.4422C24.3865 32 25.1557 32 25.7802 31.949C26.4257 31.8963 27.0041 31.7841 27.543 31.5095C28.3897 31.0781 29.0781 30.3897 29.5095 29.543C29.7841 29.0041 29.8963 28.4257 29.949 27.7802C29.9516 27.7482 29.9541 27.7159 29.9564 27.6831L34.4188 30.8705C35.0806 31.3433 36 30.8702 36 30.0568V17.9432C36 17.1298 35.0806 16.6567 34.4188 17.1294L29.9564 20.3168C29.9541 20.2841 29.9516 20.2517 29.949 20.2198C29.8963 19.5743 29.7841 18.9959 29.5095 18.457C29.0781 17.6103 28.3897 16.9219 27.543 16.4905C27.0041 16.2159 26.4257 16.1037 25.7802 16.051C25.1557 16 24.3865 16 23.4422 16H23.4422ZM15.365 18.2725C15.5749 18.1655 15.8608 18.087 16.3826 18.0444C16.9161 18.0008 17.6034 18 18.6 18H23.4C24.3966 18 25.0839 18.0008 25.6174 18.0444C26.1392 18.087 26.4251 18.1655 26.635 18.2725C27.1054 18.5122 27.4878 18.8946 27.7275 19.365C27.8345 19.5749 27.913 19.8608 27.9556 20.3826C27.9992 20.9161 28 21.6034 28 22.6V25.4C28 26.3966 27.9992 27.0839 27.9556 27.6174C27.913 28.1392 27.8345 28.4251 27.7275 28.635C27.4878 29.1054 27.1054 29.4878 26.635 29.7275C26.4251 29.8345 26.1392 29.913 25.6174 29.9556C25.0839 29.9992 24.3966 30 23.4 30H18.6C17.6034 30 16.9161 29.9992 16.3826 29.9556C15.8608 29.913 15.5749 29.8345 15.365 29.7275C14.8946 29.4878 14.5122 29.1054 14.2725 28.635C14.1655 28.4251 14.087 28.1392 14.0444 27.6174C14.0008 27.0839 14 26.3966 14 25.4V22.6C14 21.6034 14.0008 20.9161 14.0444 20.3826C14.087 19.8608 14.1655 19.5749 14.2725 19.365C14.5122 18.8946 14.8946 18.5122 15.365 18.2725Z" fill="white"/>
<path d="M14.7988 67.1641C12.0303 67.1641 10.2803 65.209 10.2803 62.0645C10.2803 58.9404 12.0439 56.9717 14.7988 56.9717C17.0342 56.9717 18.7227 58.3457 18.9824 60.4033H17.4648C17.1914 59.1387 16.1387 58.3115 14.7988 58.3115C13.0078 58.3115 11.8457 59.7812 11.8457 62.0645C11.8457 64.3682 12.9941 65.8242 14.8057 65.8242C16.1797 65.8242 17.1572 65.1201 17.4648 63.9307H18.9893C18.6133 65.9678 17.0684 67.1641 14.7988 67.1641ZM22.708 65.9541C23.7402 65.9541 24.5469 65.2432 24.5469 64.3066V63.7393L22.7764 63.8486C21.8945 63.9102 21.3955 64.2998 21.3955 64.915C21.3955 65.5439 21.915 65.9541 22.708 65.9541ZM22.2979 67.123C20.8896 67.123 19.9053 66.248 19.9053 64.9561C19.9053 63.6982 20.8691 62.9258 22.5781 62.8301L24.5469 62.7139V62.1602C24.5469 61.3604 24.0068 60.8818 23.1045 60.8818C22.25 60.8818 21.7168 61.292 21.5869 61.9346H20.1924C20.2744 60.6357 21.3818 59.6787 23.1592 59.6787C24.9023 59.6787 26.0166 60.6016 26.0166 62.0439V67H24.6016V65.8174H24.5674C24.1504 66.6172 23.2412 67.123 22.2979 67.123ZM27.4521 67V59.8086H28.8604V61.0186H28.8945C29.2158 60.2188 29.9678 59.6855 30.9385 59.6855C31.9365 59.6855 32.6611 60.1982 32.9482 61.0938H32.9824C33.3516 60.2188 34.1992 59.6855 35.2246 59.6855C36.6465 59.6855 37.5762 60.6289 37.5762 62.0576V67H36.0928V62.4131C36.0928 61.4834 35.5938 60.9502 34.7188 60.9502C33.8438 60.9502 33.2354 61.5996 33.2354 62.5088V67H31.7861V62.3037C31.7861 61.4766 31.2598 60.9502 30.4258 60.9502C29.5508 60.9502 28.9287 61.6338 28.9287 62.5566V67H27.4521Z" fill="#333333"/>
</svg>
