<svg width="30" height="30" viewBox="0 0 30 30" fill="none" xmlns="http://www.w3.org/2000/svg">
<path d="M24.94 4.27889H22.9987C21.6789 4.32167 21.0362 3.20881 20.4441 2.22149C20.0606 1.61745 19.5305 1.12032 18.9031 0.776445C18.2756 0.432571 17.5714 0.253146 16.8559 0.254895H13.2799C12.5643 0.25319 11.86 0.432632 11.2324 0.776506C10.6048 1.12038 10.0745 1.6175 9.69083 2.22155L9.0434 3.23462C8.27791 4.58439 6.47457 4.24581 5.19489 4.27884C3.88561 4.27859 2.6297 4.79769 1.70267 5.72226C0.775649 6.64683 0.25322 7.90137 0.25 9.21064V24.1482C0.253012 25.4577 0.775348 26.7124 1.7024 27.6372C2.62945 28.562 3.88549 29.0812 5.19492 29.081H24.94C26.2495 29.0813 27.5056 28.5621 28.4328 27.6373C29.3599 26.7126 29.8823 25.4578 29.8854 24.1482V9.21064C29.8821 7.90129 29.3596 6.6467 28.4325 5.72213C27.5053 4.79755 26.2493 4.27852 24.94 4.27889ZM27.8885 24.1482C27.8858 24.9283 27.5739 25.6754 27.0211 26.2257C26.4684 26.7761 25.72 27.0848 24.94 27.0841H5.19492C4.41496 27.0848 3.66658 26.776 3.11392 26.2257C2.56127 25.6753 2.24946 24.9282 2.24688 24.1482V9.21064C2.24949 8.43079 2.56135 7.68381 3.11402 7.13361C3.6667 6.5834 4.41506 6.27489 5.19492 6.27577H7.13719C7.85263 6.27755 8.55688 6.09824 9.18435 5.75454C9.81183 5.41085 10.3421 4.91394 10.7258 4.31011C11.3143 3.32465 11.9633 2.20802 13.28 2.25187L16.8559 2.2518C18.1719 2.21065 18.8186 3.32113 19.4095 4.31017C19.7934 4.91398 20.3237 5.41085 20.9513 5.75453C21.5789 6.09821 22.2832 6.27753 22.9987 6.27579H24.94C25.7199 6.2749 26.4683 6.58338 27.021 7.13358C27.5738 7.68378 27.8858 8.43076 27.8885 9.21066V24.1482ZM15.0321 8.64024C13.9761 8.62594 12.9281 8.82471 11.9507 9.22467C10.9733 9.62462 10.0865 10.2176 9.34351 10.968C8.60047 11.7185 8.01637 12.611 7.62615 13.5924C7.23592 14.5737 7.04757 15.6237 7.07236 16.6794C7.10321 26.8807 22.4735 27.7941 23.108 16.6794C23.1059 15.6212 22.8952 14.5738 22.4882 13.597C22.0811 12.6202 21.4856 11.7332 20.7356 10.9866C19.9856 10.2401 19.0959 9.6486 18.1173 9.246C17.1387 8.8434 16.0903 8.63756 15.0321 8.64024ZM15.1047 22.7237C14.305 22.7474 13.5088 22.6072 12.7652 22.3118C12.0217 22.0163 11.3464 21.5718 10.7811 21.0056C10.2157 20.4394 9.77218 19.7635 9.47779 19.0195C9.1834 18.2755 9.04436 17.4792 9.06924 16.6794C9.01832 8.97863 20.6913 8.37305 21.1111 16.6795C21.1113 18.2761 20.4798 19.8078 19.3544 20.9403C18.229 22.0728 16.7012 22.7139 15.1047 22.7237ZM16.0661 13.5271C16.0662 13.6583 16.0404 13.7881 15.9902 13.9093C15.94 14.0304 15.8665 14.1405 15.7738 14.2332C15.681 14.3259 15.571 14.3995 15.4498 14.4496C15.3287 14.4998 15.1988 14.5256 15.0677 14.5256C14.4966 14.5262 13.9492 14.7534 13.5454 15.1572C13.1416 15.5609 12.9145 16.1084 12.9138 16.6794C12.9101 16.9418 12.8033 17.1922 12.6164 17.3764C12.4296 17.5606 12.1778 17.6639 11.9154 17.6639C11.653 17.6639 11.4011 17.5606 11.2143 17.3764C11.0275 17.1922 10.9206 16.9418 10.9169 16.6794C10.9182 15.579 11.3559 14.524 12.1341 13.7458C12.9122 12.9677 13.9672 12.53 15.0677 12.5287C15.1988 12.5287 15.3287 12.5545 15.4498 12.6046C15.571 12.6548 15.681 12.7283 15.7738 12.8211C15.8665 12.9138 15.94 13.0239 15.9902 13.145C16.0404 13.2662 16.0662 13.396 16.0661 13.5271ZM24.9833 10.1794C24.7245 10.1704 24.4792 10.0613 24.2993 9.87502C24.1194 9.68875 24.0188 9.4399 24.0188 9.18093C24.0188 8.92195 24.1194 8.6731 24.2993 8.48684C24.4792 8.30057 24.7245 8.19145 24.9833 8.18248C25.242 8.19156 25.4871 8.30073 25.667 8.48698C25.8468 8.67323 25.9473 8.92201 25.9473 9.18091C25.9473 9.43981 25.8468 9.6886 25.667 9.87485C25.4871 10.0611 25.242 10.1703 24.9833 10.1794Z" fill="white"/>
</svg>
