<svg width="34" height="34" viewBox="0 0 34 34" fill="none" xmlns="http://www.w3.org/2000/svg">
<g id="Frame" clip-path="url(#clip0_1004_8493)">
<g id="Group">
<g id="Layer 11">
<path id="Vector" d="M14.2843 29.4551C14.4131 29.4552 14.539 29.4935 14.646 29.5652C14.753 29.6369 14.8364 29.7386 14.8856 29.8577C14.9348 29.9767 14.9477 30.1077 14.9224 30.234C14.8972 30.3603 14.8351 30.4764 14.744 30.5674C14.6529 30.6584 14.5368 30.7204 14.4104 30.7455C14.2841 30.7706 14.1531 30.7576 14.0341 30.7083C13.9151 30.659 13.8134 30.5755 13.7419 30.4684C13.6703 30.3613 13.6321 30.2353 13.6321 30.1065C13.6323 29.9337 13.7011 29.768 13.8234 29.6458C13.9457 29.5237 14.1114 29.4551 14.2843 29.4551ZM14.2843 26.9316C13.6563 26.9316 13.0425 27.1178 12.5204 27.4667C11.9983 27.8156 11.5913 28.3114 11.351 28.8915C11.1108 29.4717 11.0479 30.11 11.1704 30.7259C11.2929 31.3418 11.5953 31.9075 12.0393 32.3515C12.4833 32.7955 13.049 33.0979 13.6649 33.2204C14.2807 33.3429 14.9191 33.28 15.4992 33.0397C16.0794 32.7994 16.5752 32.3925 16.9241 31.8704C17.2729 31.3483 17.4591 30.7345 17.4591 30.1065C17.4591 29.2645 17.1246 28.4569 16.5292 27.8615C15.9338 27.2661 15.1263 26.9316 14.2843 26.9316ZM23.9251 29.4551C24.054 29.4551 24.1799 29.4933 24.287 29.5649C24.3942 29.6364 24.4777 29.7382 24.527 29.8572C24.5763 29.9763 24.5892 30.1072 24.564 30.2336C24.5389 30.36 24.4769 30.4761 24.3858 30.5672C24.2947 30.6583 24.1786 30.7203 24.0522 30.7455C23.9258 30.7706 23.7949 30.7577 23.6758 30.7084C23.5568 30.6591 23.455 30.5756 23.3835 30.4684C23.3119 30.3613 23.2737 30.2354 23.2737 30.1065C23.2738 29.9338 23.3425 29.7682 23.4647 29.6461C23.5868 29.5239 23.7524 29.4553 23.9251 29.4551ZM23.9251 26.9316C23.2972 26.9318 22.6834 27.1181 22.1614 27.467C21.6394 27.816 21.2326 28.3119 20.9924 28.892C20.7522 29.4722 20.6894 30.1105 20.812 30.7263C20.9346 31.3421 21.237 31.9078 21.681 32.3517C22.1251 32.7957 22.6908 33.098 23.3066 33.2205C23.9225 33.3429 24.5608 33.28 25.1409 33.0397C25.721 32.7994 26.2168 32.3924 26.5656 31.8703C26.9145 31.3482 27.1007 30.7344 27.1007 30.1065C27.1007 29.2645 26.7662 28.4569 26.1708 27.8615C25.5754 27.2661 24.7678 26.9316 23.9258 26.9316H23.9251Z" fill="white"/>
<path id="Vector_2" d="M19.1338 9.80051C23.8692 9.80051 28.1252 10.282 30.8611 10.6857C30.961 10.7001 31.0569 10.735 31.1427 10.7882C31.2285 10.8413 31.3024 10.9115 31.3599 10.9945C31.4181 11.0763 31.4585 11.1694 31.4784 11.2678C31.4983 11.3661 31.4973 11.4676 31.4754 11.5656C30.7575 14.9603 29.8983 18.865 29.5881 19.9746C29.0781 21.6607 27.485 22.9981 25.874 23.0897C24.3533 23.1734 22.2722 23.2126 19.325 23.2126H18.9392C15.9941 23.2126 13.9136 23.1734 12.3929 23.0897C10.7825 22.9974 9.1888 21.66 8.67946 19.9746C8.33813 18.7534 7.31282 14.2331 6.57305 10.7846C6.68247 10.7823 6.79161 10.7728 6.89977 10.7561C9.75524 10.3205 14.1912 9.80051 19.1338 9.80051ZM2.7029 0.718789H1.55009C0.737273 0.718789 0.0453199 1.35031 0.0167652 2.16246C0.00889765 2.364 0.0418082 2.56506 0.113524 2.75358C0.185239 2.94209 0.294283 3.11418 0.434118 3.25954C0.573952 3.40489 0.741698 3.52051 0.927298 3.59947C1.1129 3.67842 1.31253 3.71909 1.51423 3.71902H2.46052L3.7468 9.62453C4.44473 12.9761 5.8313 19.1718 6.25563 20.6785C7.06579 23.3972 9.57594 25.4598 12.2515 25.6092C13.8452 25.6968 16.0034 25.736 18.9392 25.736H19.3277C22.2655 25.736 24.425 25.6968 26.0188 25.6092C28.695 25.4571 31.2045 23.3972 32.014 20.6785C32.346 19.4938 33.2445 15.4098 33.947 12.0875C34.039 11.6521 34.0408 11.2024 33.9524 10.7662C33.8639 10.3301 33.6871 9.91664 33.4327 9.55142C33.1784 9.1862 32.8519 8.87695 32.4735 8.64272C32.0951 8.40849 31.6727 8.25424 31.2323 8.18949C28.3842 7.76914 24.01 7.27707 19.1365 7.27707C13.9807 7.27707 9.36145 7.82758 6.51927 8.26188L5.3379 2.8418C5.20487 2.24122 4.87158 1.70372 4.39276 1.31757C3.91393 0.931421 3.31803 0.719567 2.7029 0.716797V0.718789Z" fill="white"/>
</g>
</g>
</g>
<defs>
<clipPath id="clip0_1004_8493">
<rect width="34" height="34" fill="white"/>
</clipPath>
</defs>
</svg>
