<svg width="19" height="23" viewBox="0 0 19 23" fill="none" xmlns="http://www.w3.org/2000/svg">
<path id="Vector" fill-rule="evenodd" clip-rule="evenodd" d="M15.8994 13.6155C15.4855 13.4582 15.0526 13.3562 14.611 13.3133V2.47852H14.9032C15.456 2.48043 15.9032 2.92844 15.9042 3.48128L15.8994 13.6155ZM18.9958 14.7231C18.9805 14.6726 18.9368 14.6354 18.8835 14.6287L17.9091 14.4676L17.7511 13.4916C17.7426 13.4392 17.7064 13.3953 17.656 13.3791C17.6056 13.3629 17.5504 13.3762 17.5123 13.4134L16.5598 14.3647C16.5056 14.4181 16.4818 14.4953 16.496 14.5696L16.635 15.4189L13.9774 18.0641C13.9288 18.106 13.9003 18.166 13.8974 18.2299C13.8955 18.2938 13.9203 18.3557 13.965 18.4015C14.0107 18.4463 14.0725 18.4701 14.1372 18.4673C14.201 18.4644 14.2609 18.4348 14.3018 18.3862L16.947 15.743L17.7968 15.8822C17.8719 15.8956 17.949 15.8717 18.0023 15.8164L18.95 14.8652H18.9491C18.9909 14.8309 19.0091 14.7755 18.9958 14.7231ZM17.734 16.334L17.1155 16.2339L16.6502 16.7C17.42 17.9659 17.1241 19.6092 15.9613 20.5262C14.7976 21.4422 13.1334 21.3431 12.0867 20.2946C11.0399 19.2461 10.941 17.5799 11.8564 16.4142C12.7718 15.2485 14.4112 14.952 15.676 15.7241L16.1441 15.258L16.0337 14.648C16.009 14.4983 16.0347 14.3449 16.107 14.2114C14.8272 13.5842 13.3257 13.6042 12.0629 14.2657C10.8011 14.9272 9.92856 16.1511 9.71257 17.5619C9.49752 18.9726 9.96569 20.4025 10.9724 21.4108C11.9801 22.4202 13.4074 22.8892 14.8156 22.6728C16.2239 22.4574 17.4457 21.5833 18.1061 20.3184C18.7664 19.0545 18.7864 17.5503 18.1603 16.2683C18.0261 16.3388 17.8729 16.3617 17.7245 16.334L17.734 16.334ZM14.5139 16.8954C14.395 16.863 14.2732 16.8459 14.1504 16.8468C13.5586 16.8478 13.0334 17.2262 12.844 17.7886C12.6546 18.35 12.8449 18.9705 13.315 19.3299C13.786 19.6902 14.433 19.7092 14.9241 19.3775C15.415 19.0468 15.6415 18.4386 15.4855 17.8667L14.6357 18.7179C14.3664 18.9877 13.9297 18.9877 13.6614 18.7179C13.3921 18.4482 13.3921 18.0116 13.6614 17.7419L14.5139 16.8954ZM1.75181 19.9647V20.2601C1.75181 20.813 2.19807 21.2619 2.74998 21.2629H10.2434C9.93608 20.8702 9.68963 20.4317 9.51264 19.9647H1.75181ZM2.57203 3.30396C2.71762 3.15907 2.79945 2.96177 2.79945 2.75682V0.953401L0.238791 3.5307H2.041C2.24082 3.52688 2.43216 3.44598 2.57203 3.30396ZM9.37364 19.5062H0.999125C0.448189 19.5052 0.00190003 19.0572 0 18.5053V3.98927H2.02963C2.70236 3.97974 3.24475 3.43165 3.2476 2.7568V0.724609H13.1492C13.7011 0.726516 14.1464 1.17453 14.1483 1.72737V13.2915C12.6144 13.2896 11.1672 14.0026 10.2318 15.2198C9.29647 16.438 8.9797 18.0211 9.37364 19.5062ZM7.36114 3.97502C7.36114 4.10084 7.46391 4.20379 7.59047 4.20379H12.2721C12.3987 4.20379 12.5014 4.10084 12.5014 3.97502C12.5014 3.84825 12.3987 3.74531 12.2721 3.74531H7.59047C7.46391 3.74531 7.36114 3.84825 7.36114 3.97502ZM1.64716 6.02151C1.64716 6.14829 1.74897 6.25123 1.87553 6.25123H12.2721C12.3987 6.25123 12.5014 6.14829 12.5014 6.02151C12.5014 5.89474 12.3987 5.79275 12.2721 5.79275H1.87553C1.74897 5.79275 1.64716 5.89474 1.64716 6.02151ZM1.64716 8.06895C1.64716 8.19573 1.74897 8.29867 1.87553 8.29867H12.2721C12.3987 8.29867 12.5014 8.19573 12.5014 8.06895C12.5014 7.94218 12.3987 7.84019 12.2721 7.84019H1.87553C1.75278 7.83924 1.65192 7.93646 1.64716 8.05942V8.06895ZM1.64716 10.1164C1.65382 10.2403 1.75278 10.3385 1.87553 10.3461H12.2721C12.3987 10.3461 12.5014 10.2432 12.5014 10.1164C12.5014 9.98962 12.3987 9.88667 12.2721 9.88667H1.87553C1.81463 9.88667 1.75659 9.91146 1.71377 9.95435C1.67095 9.99724 1.64716 10.0554 1.64716 10.1164ZM1.64716 12.1638C1.64811 12.2897 1.74993 12.3907 1.87553 12.3907H12.2721C12.3892 12.3783 12.4777 12.2801 12.4777 12.1629C12.4777 12.0447 12.3892 11.9465 12.2721 11.9341H1.87553C1.74897 11.9341 1.64716 12.0371 1.64716 12.1638ZM1.64716 14.2084C1.64716 14.3352 1.74897 14.4381 1.87553 14.4381H9.70951C9.77421 14.4448 9.83892 14.4238 9.8865 14.38C9.93503 14.3371 9.96262 14.2751 9.96262 14.2094C9.96262 14.1446 9.93503 14.0826 9.8865 14.0397C9.83892 13.9959 9.77421 13.9749 9.70951 13.9816H1.87553C1.74993 13.9816 1.64811 14.0826 1.64716 14.2084ZM8.66486 16.2559C8.66486 16.1949 8.64107 16.1367 8.59825 16.0938C8.55448 16.0509 8.49643 16.0261 8.43554 16.0261H1.87555C1.749 16.0261 1.64718 16.1291 1.64718 16.2559C1.64718 16.3826 1.749 16.4856 1.87555 16.4856H8.43554C8.49643 16.4856 8.55448 16.4608 8.59825 16.4179C8.64107 16.375 8.66486 16.3169 8.66486 16.2559Z" fill="#333333"/>
</svg>
