<svg width="38" height="27" viewBox="0 0 38 27" fill="none" xmlns="http://www.w3.org/2000/svg">
<path d="M36.3769 0.150146H14.9746C14.3728 0.150146 13.8848 0.638121 13.8848 1.23996V16.7218C13.8848 17.3269 14.3695 17.8181 14.9746 17.8213H30.0884L33.0357 21.8422L33.039 21.8455C33.2114 22.0829 33.5205 22.1805 33.8002 22.0862C34.0833 21.9951 34.2719 21.7316 34.2687 21.4356V17.8214H36.3767C36.6695 17.8214 36.9492 17.7042 37.1542 17.4993C37.3591 17.2943 37.4762 17.0146 37.4762 16.7218V1.23996C37.473 0.634879 36.9819 0.150146 36.3769 0.150146Z" fill="#002C9C"/>
<path d="M11.5842 16.7223V7.40234H0.940153C0.426155 7.40234 0.00324794 7.81875 0 8.336V21.5701C0.00325293 22.0873 0.426163 22.5038 0.940153 22.5038H2.73918V25.6008C2.73592 25.8578 2.89859 26.0855 3.13932 26.1668C3.3833 26.2449 3.65006 26.1603 3.79645 25.9521L6.29486 22.5038H19.2391C19.7531 22.5038 20.1695 22.0842 20.1695 21.5702V20.1128H14.9743C13.1037 20.1095 11.5875 18.5928 11.5842 16.7223Z" fill="#002C9C"/>
</svg>
