<svg width="23" height="22" viewBox="0 0 23 22" fill="none" xmlns="http://www.w3.org/2000/svg">
<g id="Group">
<path id="Vector" d="M16.5919 3.44926C16.5918 3.39378 16.6081 3.3395 16.6388 3.29329C16.6695 3.24709 16.7133 3.21102 16.7645 3.18967C16.8157 3.16831 16.8721 3.16261 16.9265 3.1733C16.981 3.18399 17.031 3.21059 17.0703 3.24972C17.1097 3.28885 17.1365 3.33877 17.1475 3.39316C17.1584 3.44755 17.153 3.50396 17.1319 3.55527C17.1108 3.60659 17.0749 3.65048 17.0289 3.68142C16.9828 3.71236 16.9286 3.72895 16.8732 3.72908C16.7988 3.72919 16.7274 3.69979 16.6747 3.64733C16.622 3.59487 16.5922 3.52363 16.5919 3.44926ZM18.83 5.68593C18.8299 5.74129 18.8463 5.7954 18.8771 5.84144C18.9078 5.88748 18.9515 5.92336 19.0027 5.94456C19.0538 5.96576 19.1101 5.97131 19.1644 5.96053C19.2187 5.94974 19.2685 5.92309 19.3077 5.88395C19.3468 5.84482 19.3735 5.79495 19.3843 5.74065C19.3951 5.68636 19.3896 5.63008 19.3684 5.57894C19.3472 5.52779 19.3114 5.48408 19.2653 5.45332C19.2193 5.42256 19.1652 5.40615 19.1098 5.40615C19.0357 5.40641 18.9647 5.43598 18.9123 5.48838C18.8598 5.54079 18.8302 5.6118 18.83 5.68593ZM21.0124 15.9127C20.9784 15.8104 20.9243 15.716 20.8532 15.635C20.7822 15.554 20.6956 15.488 20.5987 15.4409C20.5068 15.3956 20.4068 15.3691 20.3046 15.363C20.2024 15.3569 20.1 15.3714 20.0034 15.4055L19.521 15.5763C19.4881 15.7183 19.4499 15.8564 19.4049 15.9893C19.3067 16.2826 19.1715 16.5623 19.0026 16.8214L21.0539 16.1138C21.0486 16.0452 21.0347 15.9777 21.0124 15.9127ZM0 21.8458H2.32976V13.8879H0V21.8458ZM12.5058 4.84599C12.4642 4.68788 12.4585 4.52248 12.4891 4.36189C12.5197 4.2013 12.5858 4.04958 12.6826 3.91785L13.2444 3.14422C13.2914 3.08286 13.3158 3.00718 13.3136 2.92992V1.97213C13.3139 1.93024 13.3164 1.88839 13.3212 1.84677C13.1632 1.86955 13.0033 1.87574 12.844 1.86524C12.2603 1.90638 11.7569 1.70104 11.3116 1.51947C10.5297 1.20063 9.99853 0.98383 9.18287 1.92711L10.5594 4.84608L12.5058 4.84599ZM10.2269 14.3681C9.23454 13.563 8.13219 13.1667 6.85921 13.1557C7.09746 11.7565 7.63902 10.4264 8.44586 9.25879C9.34892 7.97538 10.4268 7.23933 11.403 7.23933H13.3165C13.3309 7.45928 13.411 7.66982 13.5467 7.84358C13.6823 8.01734 13.867 8.14629 14.0769 8.21365L14.9865 8.5094C15.0608 8.53172 15.1254 8.57847 15.1698 8.64207L15.7327 9.41778C15.8331 9.55881 15.9657 9.67386 16.1195 9.75337C16.2732 9.83288 16.4438 9.87455 16.6169 9.87492C16.7359 9.87468 16.8542 9.85566 16.9674 9.81854L17.4977 9.6469C18.7381 11.6281 19.2462 14.1551 18.7051 15.7527C18.4661 16.4584 18.0388 16.9619 17.4337 17.2545C17.2791 16.9969 17.0605 16.7837 16.7991 16.6356C16.5377 16.4876 16.2424 16.4097 15.9419 16.4095H14.2665C13.2401 16.4095 12.3535 16.0949 11.5562 15.4478L10.2269 14.3681ZM13.6667 13.7139C13.6667 14.0915 13.2976 14.3986 12.8438 14.3986C12.39 14.3986 12.0208 14.0915 12.0208 13.7139C12.0208 13.616 11.9819 13.522 11.9127 13.4527C11.8434 13.3835 11.7494 13.3445 11.6514 13.3445C11.5535 13.3445 11.4595 13.3835 11.3902 13.4527C11.321 13.522 11.282 13.616 11.282 13.7139C11.282 14.3828 11.791 14.9452 12.4744 15.0969V15.416C12.4744 15.514 12.5133 15.608 12.5826 15.6772C12.6519 15.7465 12.7458 15.7854 12.8438 15.7854C12.9418 15.7854 13.0357 15.7465 13.105 15.6772C13.1743 15.608 13.2132 15.514 13.2132 15.416V15.097C13.8966 14.9453 14.4055 14.383 14.4055 13.7141C14.4055 12.6124 13.5117 12.4243 12.9203 12.2998C12.254 12.1596 12.0208 12.0693 12.0208 11.6072C12.0208 11.2304 12.3903 10.9238 12.8438 10.9238C13.2973 10.9238 13.6667 11.2303 13.6667 11.6072C13.6667 11.7051 13.7056 11.7991 13.7749 11.8684C13.8442 11.9377 13.9381 11.9766 14.0361 11.9766C14.1341 11.9766 14.228 11.9377 14.2973 11.8684C14.3666 11.7991 14.4055 11.7051 14.4055 11.6072C14.4055 10.9389 13.8966 10.3771 13.2132 10.2256V9.90659C13.2132 9.80862 13.1743 9.71466 13.105 9.64538C13.0357 9.57611 12.9418 9.53719 12.8438 9.53719C12.7458 9.53719 12.6519 9.57611 12.5826 9.64538C12.5133 9.71466 12.4744 9.80862 12.4744 9.90659V10.2256C11.791 10.3771 11.282 10.9389 11.282 11.6072C11.282 12.7099 12.1763 12.8981 12.7681 13.0227C13.4337 13.1626 13.6667 13.2529 13.6667 13.7139ZM21.7324 16.6614L17.68 18.0595C17.6815 18.0893 17.6823 18.1194 17.6823 18.1496C17.6818 18.611 17.4983 19.0534 17.172 19.3797C16.8457 19.706 16.4034 19.8895 15.9419 19.89H10.1255C10.0275 19.89 9.93353 19.8511 9.86425 19.7818C9.79498 19.7125 9.75606 19.6186 9.75606 19.5206C9.75606 19.4226 9.79498 19.3287 9.86425 19.2594C9.93353 19.1901 10.0275 19.1512 10.1255 19.1512H15.9419C16.2064 19.1494 16.4594 19.0431 16.6458 18.8554C16.8322 18.6678 16.9368 18.4141 16.9368 18.1496C16.9368 17.8851 16.8322 17.6314 16.6458 17.4437C16.4594 17.2561 16.2064 17.1497 15.9419 17.148H14.2665C13.0637 17.148 12.0249 16.7793 11.0906 16.021L9.76132 14.9417C8.89192 14.2364 7.92495 13.8935 6.80532 13.8935C5.9211 13.8935 5.50713 14.1042 5.10678 14.3079C4.74633 14.4913 4.37365 14.681 3.76306 14.681H3.06858V21.0541H3.25901C3.72712 21.0498 4.19086 21.1445 4.61977 21.3321L5.12488 21.5492C5.46166 21.6987 5.82675 21.7737 6.1952 21.7691C6.43462 21.7691 6.79258 21.775 7.20705 21.7817C8.90924 21.8094 12.0773 21.8611 12.8812 21.584L22.308 18.331C22.4176 18.2932 22.5187 18.2342 22.6056 18.1573C22.6924 18.0804 22.7632 17.9872 22.814 17.883C22.8648 17.7787 22.8945 17.6655 22.9016 17.5498C22.9086 17.434 22.8928 17.318 22.855 17.2084C22.8172 17.0988 22.7582 16.9977 22.6813 16.9109C22.6044 16.824 22.5112 16.7532 22.407 16.7024C22.3027 16.6516 22.1895 16.6219 22.0738 16.6148C21.958 16.6078 21.842 16.6236 21.7324 16.6614V16.6614ZM13.2795 4.35324L13.8426 3.57781C13.9812 3.39048 14.0548 3.16304 14.0523 2.93005V1.97213C14.0508 1.89446 14.0747 1.81841 14.1204 1.75556C14.166 1.69271 14.231 1.64649 14.3053 1.62392L15.2164 1.32775C15.4388 1.25797 15.6323 1.11732 15.7673 0.927265L16.3298 0.154048C16.3741 0.0900764 16.4381 0.0423331 16.512 0.018085C16.586 -0.00616307 16.6658 -0.00558811 16.7394 0.0197224L17.6491 0.315249C17.8706 0.389499 18.1102 0.389661 18.3319 0.31571L19.2424 0.0196763C19.3158 -0.00585528 19.3957 -0.00655839 19.4696 0.017675C19.5435 0.0419083 19.6074 0.089738 19.6515 0.153817L20.2137 0.926526C20.3492 1.11737 20.5436 1.25836 20.7672 1.32775L21.676 1.62369C21.7504 1.64622 21.8154 1.69243 21.8611 1.75529C21.9068 1.81815 21.9308 1.89423 21.9293 1.97195V2.93005C21.9273 3.16347 22.0015 3.39117 22.1408 3.5785L22.7036 4.35366C22.7503 4.4155 22.7756 4.49088 22.7756 4.56838C22.7756 4.64587 22.7503 4.72125 22.7036 4.7831L22.1403 5.55742C22.002 5.74556 21.928 5.97322 21.9292 6.2067V7.1631C21.931 7.24087 21.9072 7.31707 21.8614 7.37999C21.8157 7.4429 21.7505 7.48904 21.676 7.51131L20.7675 7.80716C20.5447 7.87791 20.3506 8.01853 20.2139 8.2082L19.651 8.98372C19.6066 9.04744 19.5425 9.09483 19.4685 9.11862C19.3946 9.14241 19.3149 9.14128 19.2417 9.11542L18.3325 8.82118C18.111 8.74715 17.8713 8.74715 17.6497 8.82118L16.7392 9.11588C16.6659 9.14133 16.5863 9.14216 16.5125 9.11825C16.4386 9.09434 16.3746 9.047 16.3302 8.9834L15.7668 8.20764C15.6305 8.01887 15.4374 7.87872 15.2156 7.80771L14.3041 7.51071C14.2298 7.48827 14.165 7.44211 14.1195 7.37929C14.0741 7.31648 14.0505 7.24048 14.0523 7.16296V6.2067C14.0549 5.97287 13.9811 5.74459 13.842 5.55659L13.2791 4.78287C13.232 4.72115 13.2065 4.64564 13.2066 4.56799C13.2066 4.49034 13.2323 4.41487 13.2795 4.35324ZM19.1098 4.66724C18.9082 4.6671 18.711 4.72679 18.5432 4.83874C18.3755 4.9507 18.2448 5.10989 18.1675 5.29618C18.0903 5.48247 18.07 5.68749 18.1094 5.88528C18.1487 6.08308 18.2458 6.26477 18.3884 6.40737C18.531 6.54996 18.7127 6.64706 18.9105 6.68636C19.1083 6.72567 19.3133 6.70541 19.4996 6.62817C19.6859 6.55093 19.845 6.42016 19.957 6.25242C20.0689 6.08468 20.1286 5.8875 20.1285 5.68584C20.1281 5.4158 20.0207 5.15692 19.8297 4.96599C19.6388 4.77505 19.3799 4.66765 19.1098 4.66733V4.66724ZM16.4187 6.09034C16.3897 6.12946 16.3687 6.17393 16.3569 6.2212C16.3451 6.26846 16.3428 6.31759 16.3501 6.36575C16.3574 6.41391 16.3742 6.46016 16.3994 6.50182C16.4246 6.54349 16.4578 6.57975 16.4972 6.60852C16.5365 6.63729 16.5811 6.65801 16.6284 6.66948C16.6757 6.68094 16.7249 6.68293 16.773 6.67533C16.8211 6.66773 16.8673 6.65069 16.9088 6.62519C16.9503 6.59969 16.9863 6.56623 17.0148 6.52675L19.5629 3.04609C19.6207 2.96704 19.6448 2.86823 19.6298 2.7714C19.6149 2.67458 19.562 2.58767 19.483 2.5298C19.4039 2.47193 19.3051 2.44783 19.2083 2.46282C19.1115 2.4778 19.0246 2.53063 18.9667 2.60969L16.4187 6.09034ZM15.8531 3.44907C15.853 3.65068 15.9126 3.8478 16.0245 4.01551C16.1364 4.18322 16.2955 4.31399 16.4817 4.39127C16.6679 4.46856 16.8729 4.48889 17.0706 4.4497C17.2684 4.41051 17.4501 4.31355 17.5927 4.17109C17.7354 4.02864 17.8326 3.84708 17.8721 3.64937C17.9115 3.45166 17.8915 3.24669 17.8145 3.06038C17.7375 2.87407 17.6069 2.71478 17.4394 2.60265C17.2718 2.49053 17.0748 2.43061 16.8732 2.43048C16.6029 2.4306 16.3437 2.53793 16.1525 2.72893C15.9612 2.91993 15.8536 3.17898 15.8531 3.44926V3.44907ZM12.9489 5.58462H10.3249C10.2644 5.58401 10.2044 5.5954 10.1483 5.61814C10.0922 5.64088 10.0412 5.67451 9.99821 5.71708C9.9552 5.75966 9.92106 5.81034 9.89776 5.86619C9.87446 5.92204 9.86246 5.98196 9.86246 6.04248C9.86246 6.10299 9.87446 6.16291 9.89776 6.21876C9.92106 6.27461 9.9552 6.32529 9.99821 6.36787C10.0412 6.41044 10.0922 6.44407 10.1483 6.46681C10.2044 6.48955 10.2644 6.50094 10.3249 6.50033H13.3134V6.2067C13.3154 6.12879 13.2909 6.05251 13.2438 5.99037L12.9489 5.58462Z" fill="#333333"/>
</g>
</svg>
