<svg width="22" height="23" viewBox="0 0 22 23" fill="none" xmlns="http://www.w3.org/2000/svg">
<g id="Group">
<path id="Vector" d="M9.04146 15.4224H9.91789V16.8935H8.02642L9.04146 15.4224ZM5.57602 15.4224H3.63537L2.62033 16.8935H4.56098L5.57602 15.4224ZM6.06341 13.3386L7.94146 12.8333L6.58211 11.6752L4.70406 12.1805L6.06341 13.3386ZM8.2813 15.4224H6.34065L5.32114 16.889H7.26179L8.2813 15.4224ZM8.77764 11.1073C8.73293 11.1073 8.68821 11.1118 8.6435 11.1252L7.31098 11.4829L8.67032 12.6411L9.51545 12.413L9.26951 11.4874C9.21138 11.2593 9.00122 11.1073 8.77764 11.1073ZM14.461 19.4959C14.1972 19.4959 13.9825 19.7106 13.9825 19.9744C13.9825 20.2382 14.1972 20.4528 14.461 20.4528C14.7248 20.4528 14.9394 20.2382 14.9394 19.9744C14.9394 19.7106 14.7248 19.4959 14.461 19.4959ZM1.35488 13.0793L1.0061 13.1732C0.871951 13.2089 0.764634 13.2939 0.693089 13.4146C0.621545 13.5354 0.603658 13.674 0.639431 13.8037L0.885366 14.7293L2.70976 14.2419L1.35488 13.0793ZM3.96626 12.3772L2.08821 12.8825L3.44756 14.0406L5.32561 13.5354L3.96626 12.3772ZM3.25976 8.31707C3.86341 8.31707 4.35081 7.82967 4.35081 7.22602C4.35081 6.62236 3.86341 6.13496 3.25976 6.13496C2.6561 6.13496 2.1687 6.62236 2.1687 7.22602C2.1687 7.82967 2.6561 8.31707 3.25976 8.31707ZM16.6386 12.6276C16.6386 12.5606 16.6163 12.4398 16.4553 12.4398H12.8065C12.65 12.4398 12.6232 12.5561 12.6232 12.6276C12.6232 12.6947 12.6455 12.8154 12.8065 12.8154H16.4553C16.6163 12.8154 16.6386 12.6992 16.6386 12.6276ZM16.4598 11.4427H12.811C12.6545 11.4427 12.6276 11.5589 12.6276 11.6305C12.6276 11.6976 12.65 11.8183 12.811 11.8183H16.4598C16.6163 11.8183 16.6431 11.702 16.6431 11.6305C16.6386 11.5589 16.6163 11.4427 16.4598 11.4427ZM13.9065 6.78333V9.06829L15.8829 7.92805L13.9065 6.78333ZM14.072 13.665H15.1988C15.3508 13.665 15.476 13.598 15.561 13.4728L15.5833 13.437H13.6829L13.7053 13.4728C13.7947 13.598 13.9199 13.665 14.072 13.665ZM7.42724 17.515H9.91341V21.2175C9.91341 21.4992 9.68537 21.7317 9.39919 21.7317H1.4935C1.21179 21.7317 0.979268 21.5037 0.979268 21.2175V17.515H4.71748H7.42724ZM7.08293 19.6793C7.08293 19.5675 7.0248 19.4646 6.92642 19.4065L4.69065 18.1142C4.59228 18.0561 4.47602 18.0561 4.37764 18.1142C4.27927 18.1724 4.22114 18.2752 4.22114 18.387V20.9715C4.22114 21.0833 4.27927 21.1862 4.37764 21.2443C4.42683 21.2711 4.48049 21.2846 4.53415 21.2846C4.5878 21.2846 4.64146 21.2711 4.69065 21.2443L6.92642 19.952C7.02032 19.8984 7.08293 19.7911 7.08293 19.6793ZM0.98374 16.889H1.86016L2.8752 15.4179H0.98374V16.889ZM12.6276 10.5707C11.9211 9.56911 11.1878 8.53618 11.1878 7.36016C11.1878 5.45976 12.735 3.9126 14.6354 3.9126C16.5358 3.9126 18.0829 5.45976 18.0829 7.36016C18.0829 8.54512 17.3406 9.59593 16.6252 10.6154C16.576 10.6825 16.5313 10.7541 16.4821 10.8211H12.802C12.7439 10.7362 12.6858 10.6512 12.6276 10.5707ZM13.2805 9.60935C13.2805 9.72114 13.3386 9.82398 13.437 9.88211C13.4862 9.90894 13.5398 9.92236 13.5935 9.92236C13.6472 9.92236 13.7008 9.90894 13.75 9.88211L16.6654 8.19634C16.7638 8.13821 16.822 8.03537 16.822 7.92358C16.822 7.81179 16.7638 7.70894 16.6654 7.65081L13.75 5.96504C13.6516 5.90691 13.5354 5.90691 13.437 5.96504C13.3386 6.02317 13.2805 6.12602 13.2805 6.2378V9.60935ZM4.84268 20.4305L6.13943 19.6837L4.84268 18.937C4.84715 18.9325 4.84715 20.4305 4.84268 20.4305ZM21.687 7.05163H20.1756C20.0012 7.05163 19.8626 7.19024 19.8626 7.36463C19.8626 7.53902 20.0012 7.67764 20.1756 7.67764H21.687C21.8614 7.67764 22 7.53902 22 7.36463C22 7.19024 21.8614 7.05163 21.687 7.05163ZM18.852 16.2183V21.0744C18.852 21.7809 18.2752 22.3577 17.5687 22.3577H12.7126C12.0061 22.3577 11.4293 21.7809 11.4293 21.0744V16.2183C11.4293 15.5118 12.0061 14.935 12.7126 14.935H17.5687C18.2752 14.935 18.852 15.5118 18.852 16.2183ZM16.7683 17.0411L15.4089 16.2541C15.3106 16.1959 15.1943 16.1959 15.0959 16.2541C14.9976 16.3122 14.9394 16.415 14.9394 16.5268V18.9817C14.7963 18.9102 14.6309 18.8699 14.461 18.8699C13.8528 18.8699 13.3565 19.3663 13.3565 19.9744C13.3565 20.5825 13.8528 21.0789 14.461 21.0789C15.0691 21.0789 15.5654 20.5825 15.5654 19.9744C15.5654 19.9431 15.5654 19.9073 15.561 19.876C15.5654 19.8581 15.5654 19.8402 15.5654 19.8268V17.0679L16.4553 17.5821C16.6073 17.6671 16.7951 17.6179 16.8846 17.4659C16.974 17.3138 16.9203 17.126 16.7683 17.0411ZM1.15366 10.4813C0.518699 10.4813 0 9.96707 0 9.32764V5.11992C0 4.48496 0.518699 3.96626 1.15366 3.96626H5.36138C5.99634 3.96626 6.51504 4.48496 6.51504 5.11992V9.32764C6.51504 9.9626 5.99634 10.4813 5.36138 10.4813H1.15366ZM1.54268 7.22602C1.54268 8.17398 2.31179 8.94309 3.25976 8.94309C4.20772 8.94309 4.97683 8.17398 4.97683 7.22602C4.97683 6.27805 4.20772 5.50894 3.25976 5.50894C2.31179 5.50894 1.54268 6.27805 1.54268 7.22602ZM19.8447 2.15976C19.724 2.03902 19.5228 2.03902 19.402 2.15976L18.3333 3.22846C18.2126 3.34919 18.2126 3.55041 18.3333 3.67114C18.3959 3.73374 18.4764 3.76504 18.5569 3.76504C18.6374 3.76504 18.7179 3.73374 18.7805 3.67114L19.8492 2.60244C19.9654 2.47724 19.9654 2.28049 19.8447 2.15976ZM14.6354 2.1374C14.8098 2.1374 14.9484 1.99878 14.9484 1.82439V0.313008C14.9484 0.138618 14.8098 0 14.6354 0C14.461 0 14.3224 0.138618 14.3224 0.313008V1.82439C14.3224 1.99878 14.461 2.1374 14.6354 2.1374ZM7.58374 7.67764H9.09512C9.26951 7.67764 9.40813 7.53902 9.40813 7.36463C9.40813 7.19024 9.26951 7.05163 9.09512 7.05163H7.58374C7.40935 7.05163 7.27073 7.19024 7.27073 7.36463C7.27073 7.53902 7.40935 7.67764 7.58374 7.67764ZM9.8687 2.15976C9.74797 2.03902 9.54675 2.03902 9.42602 2.15976C9.30528 2.28049 9.30528 2.48171 9.42602 2.60244L10.4947 3.67114C10.5573 3.73374 10.6378 3.76504 10.7138 3.76504C10.7898 3.76504 10.8748 3.73374 10.9329 3.67114C11.0537 3.55041 11.0537 3.34919 10.9329 3.22846L9.8687 2.15976Z" fill="#333333"/>
</g>
</svg>
