<svg width="22" height="22" viewBox="0 0 22 22" fill="none" xmlns="http://www.w3.org/2000/svg">
<path fill-rule="evenodd" clip-rule="evenodd" d="M11 0C4.93462 0 0 4.93462 0 11C0 17.0654 4.93449 22 11 22C17.0655 22 22 17.0654 22 11C22 4.93457 17.0655 0 11 0ZM8.85496 4.91257C8.85497 4.81775 8.89263 4.7268 8.95967 4.65974C9.0267 4.59267 9.11763 4.55496 9.21246 4.5549H12.7875C12.8823 4.55512 12.9732 4.59293 13.0403 4.66006C13.1073 4.72718 13.145 4.81814 13.145 4.913V5.79717H8.85496V4.91257ZM14.7331 16.9335C14.724 17.0729 14.6619 17.2036 14.5595 17.2988C14.4572 17.3939 14.3223 17.4463 14.1826 17.4453H7.77593C7.63624 17.4449 7.50187 17.3917 7.3998 17.2964C7.29772 17.201 7.2355 17.0706 7.22563 16.9313L6.67764 8.91172H15.3178L14.7329 16.9335H14.7331ZM16.1571 8.18555H5.84289V7.35457C5.84307 7.13423 5.93068 6.92297 6.08647 6.76716C6.24227 6.61135 6.45352 6.52372 6.67386 6.52352L15.326 6.52326C15.5464 6.52356 15.7576 6.61127 15.9134 6.76712C16.0692 6.92298 16.1567 7.13426 16.1569 7.35462V8.18546L16.1571 8.18555ZM9.33926 15.5335V10.4414C9.33929 10.3451 9.37758 10.2528 9.44569 10.1847C9.51381 10.1166 9.60618 10.0784 9.70247 10.0784C9.79877 10.0785 9.89111 10.1168 9.95918 10.1849C10.0272 10.253 10.0655 10.3454 10.0654 10.4417V15.5335C10.0662 15.5817 10.0573 15.6295 10.0394 15.6742C10.0215 15.7189 9.99487 15.7596 9.96108 15.7939C9.92729 15.8282 9.88702 15.8555 9.8426 15.8741C9.79818 15.8927 9.7505 15.9023 9.70234 15.9023C9.65419 15.9023 9.60651 15.8927 9.56209 15.8741C9.51767 15.8555 9.4774 15.8282 9.44361 15.7939C9.40982 15.7596 9.38319 15.7189 9.36528 15.6742C9.34736 15.6295 9.33852 15.5817 9.33926 15.5335ZM11.9299 15.5335V10.4414C11.9314 10.3461 11.9704 10.2552 12.0383 10.1883C12.1063 10.1214 12.1978 10.084 12.2931 10.084C12.3885 10.084 12.48 10.1216 12.5479 10.1885C12.6158 10.2554 12.6547 10.3463 12.6561 10.4417V15.5338C12.6572 15.5821 12.6485 15.6302 12.6308 15.6751C12.613 15.7201 12.5864 15.7611 12.5526 15.7957C12.5188 15.8302 12.4784 15.8577 12.4338 15.8764C12.3892 15.8952 12.3414 15.9048 12.293 15.9048C12.2447 15.9048 12.1968 15.8952 12.1522 15.8764C12.1076 15.8577 12.0673 15.8302 12.0334 15.7957C11.9996 15.7611 11.973 15.7201 11.9553 15.6751C11.9375 15.6302 11.9289 15.5821 11.9299 15.5338V15.5335Z" fill="#FC0005"/>
</svg>
