<svg width="23" height="19" viewBox="0 0 23 19" fill="none" xmlns="http://www.w3.org/2000/svg">
<g id="Group">
<path id="Vector" d="M22.8087 5.14787C22.1144 3.66726 20.872 1.74847 18.9043 1.02221C16.0859 -0.0163418 12.5762 -0.0173101 11.5691 0.00544608H11.3904C10.3882 -0.0163418 6.87452 -0.0182785 4.0542 1.02221C2.08603 1.74799 0.843641 3.66726 0.149335 5.14787C0.0365497 5.38717 -0.0137248 5.65116 0.00320967 5.91517C0.0201442 6.17918 0.103735 6.43459 0.24617 6.65752C0.38637 6.87856 0.580286 7.06048 0.809818 7.18629C1.03935 7.31211 1.29702 7.37772 1.55877 7.37701H4.63812C5.50334 7.37701 6.24316 6.74467 6.36033 5.90608C6.64309 3.88611 7.63758 3.86625 7.96391 3.85948L10.0338 3.81784L14.9966 3.85948C15.3229 3.86625 16.3183 3.88611 16.5997 5.90657C16.7173 6.74467 17.4581 7.37701 18.3223 7.37701H21.4012C21.6625 7.37755 21.9197 7.312 22.1488 7.18646C22.378 7.06092 22.5717 6.87947 22.7119 6.65897C22.8546 6.43587 22.9383 6.1802 22.9552 5.91591C22.9722 5.65162 22.9218 5.38736 22.8087 5.14787ZM11.479 9.59162C10.7369 9.59162 10.0114 9.81169 9.39433 10.224C8.77726 10.6363 8.29631 11.2224 8.0123 11.908C7.72829 12.5937 7.65398 13.3481 7.79877 14.076C7.94355 14.8039 8.30093 15.4725 8.82571 15.9973C9.35048 16.5221 10.0191 16.8794 10.747 17.0242C11.4749 17.169 12.2293 17.0947 12.915 16.8107C13.6006 16.5267 14.1867 16.0457 14.599 15.4287C15.0113 14.8116 15.2314 14.0861 15.2314 13.344C15.2302 12.3491 14.8345 11.3954 14.1311 10.6919C13.4276 9.98848 12.4739 9.59277 11.479 9.59162ZM11.114 14.9563C11.0854 15.0396 11.0113 15.1417 10.8172 15.1693C10.8088 15.17 10.8004 15.17 10.792 15.1693C10.7849 15.1698 10.7778 15.1698 10.7707 15.1693C10.7252 15.164 10.6627 15.1587 10.5843 15.1543C10.5058 15.1499 10.4095 15.147 10.3078 15.1432C10.2061 15.1393 10.0977 15.1383 9.98341 15.1369C9.73309 15.133 9.48858 15.1335 9.21599 15.1369C9.07074 15.1403 8.91532 15.1456 8.75167 15.1514C8.70107 15.1492 8.65155 15.1361 8.60641 15.1131C8.51636 15.0483 8.50135 14.9369 8.49796 14.859C8.49697 14.7148 8.53015 14.5724 8.59479 14.4435C8.66492 14.2902 8.75302 14.1457 8.85722 14.0131C8.97777 13.8601 9.11212 13.7184 9.2586 13.5899C9.42822 13.4418 9.60939 13.3074 9.80039 13.1881C9.88991 13.1307 9.97217 13.0628 10.0454 12.9857C10.1156 12.9118 10.1778 12.8306 10.2308 12.7436C10.2806 12.6633 10.3203 12.5771 10.349 12.487C10.3742 12.4102 10.3874 12.33 10.3882 12.2493C10.388 12.0978 10.3327 11.9515 10.2328 11.8377C10.1437 11.7336 9.99067 11.6794 9.77328 11.6794C9.68301 11.6769 9.59314 11.6923 9.50892 11.7249C9.44488 11.7502 9.38767 11.7902 9.34188 11.8416C9.29349 11.8983 9.25695 11.9642 9.23439 12.0352C9.20454 12.1244 9.18615 12.217 9.17968 12.3107C9.16273 12.4449 9.0659 12.579 8.84366 12.579C8.69453 12.579 8.52023 12.4865 8.52023 12.2241C8.51971 12.0645 8.5527 11.9067 8.61707 11.7607C8.67942 11.6176 8.76848 11.4876 8.87949 11.3777C8.99277 11.267 9.12557 11.1782 9.27119 11.1158C9.61011 10.9676 10.026 10.9977 10.3214 11.1158C10.4777 11.177 10.6195 11.2702 10.7378 11.3894C10.8493 11.5044 10.9346 11.6421 10.9881 11.7932C11.0404 11.9433 11.0668 12.1013 11.066 12.2604C11.0659 12.3994 11.0472 12.5379 11.0103 12.6719C10.9718 12.8101 10.9164 12.943 10.8452 13.0675C10.7693 13.2001 10.6766 13.3224 10.5693 13.4311C10.4547 13.5457 10.3268 13.646 10.1882 13.7299H10.1853C10.0568 13.8053 9.93296 13.8884 9.81443 13.9787C9.70946 14.0595 9.61058 14.1478 9.5186 14.2431C9.45208 14.3116 9.39165 14.3858 9.338 14.4648C9.44113 14.4614 9.55007 14.4595 9.66337 14.459L10.241 14.4542C10.4 14.4534 10.5589 14.464 10.7164 14.4861C10.8506 14.5065 11.0152 14.5467 11.0864 14.6716C11.1112 14.7142 11.1265 14.7618 11.1313 14.8109C11.136 14.86 11.1301 14.9096 11.114 14.9563ZM14.2664 13.2365C14.3189 13.264 14.3644 13.3031 14.3996 13.3508C14.4397 13.4073 14.461 13.4751 14.4606 13.5444C14.4601 13.6139 14.4383 13.6815 14.3981 13.7381C14.3819 13.7628 14.3596 13.7828 14.3332 13.7962C14.2466 13.8572 14.0844 13.9129 13.7077 13.9453L13.6767 14.843C13.6767 15.0308 13.5464 15.1562 13.3445 15.1562C13.1426 15.1562 13.0168 15.0236 13.0168 14.8173L13.0458 14.0194C12.963 14.0194 12.8492 14.0228 12.7321 14.0223C12.5384 14.0223 12.3609 14.0168 12.1995 14.0058C12.0326 13.9958 11.8666 13.9741 11.7027 13.941C11.5683 13.9174 11.4398 13.8681 11.3241 13.7957C11.2899 13.7748 11.2602 13.7472 11.2367 13.7147C11.2132 13.6821 11.1965 13.6452 11.1875 13.6062C11.1785 13.5671 11.1774 13.5266 11.1842 13.487C11.191 13.4475 11.2057 13.4097 11.2273 13.3759C11.2786 13.2578 11.3589 13.1 11.4606 12.9194C11.5623 12.7388 11.677 12.5543 11.8068 12.3572C11.9366 12.1602 12.1317 11.8997 12.3796 11.5922C12.7732 11.1013 12.8638 11.064 12.9606 11.0596C13.0464 11.0551 13.131 11.0808 13.1998 11.1323C13.265 11.1832 13.3079 11.2575 13.3194 11.3395C13.3255 11.3804 13.3233 11.4221 13.3127 11.4621C13.3021 11.502 13.2835 11.5394 13.2579 11.5719C13.2503 11.5864 13.2405 11.5996 13.2288 11.6111C13.2061 11.6344 13.1354 11.7171 13.0158 11.86C12.8962 12.0028 12.6832 12.3025 12.3747 12.7605C12.1966 13.0264 12.0799 13.2065 12.0029 13.327L12.0663 13.3324L12.3273 13.3508C12.5113 13.359 12.6701 13.3638 12.8003 13.3638H13.0695L13.118 12.2304C13.1164 12.1867 13.124 12.1432 13.1402 12.1027C13.1565 12.0622 13.1811 12.0255 13.2124 11.9951C13.245 11.9636 13.2843 11.9399 13.3275 11.926C13.3706 11.9121 13.4164 11.9082 13.4612 11.9147C13.5799 11.9079 13.7517 11.9936 13.7779 12.2425L13.7406 13.2592C13.7939 13.2515 13.8495 13.2423 13.9067 13.2326C14.0994 13.1987 14.1952 13.1997 14.2664 13.2365Z" fill="#333333"/>
<path id="Vector_2" d="M19.129 10.8534C18.4075 10.0744 17.5409 9.46192 16.5493 9.00002C15.5693 4.46427 15.5349 4.45604 15.1776 4.45604H13.4782C13.4315 4.45604 13.3854 4.46522 13.3423 4.48305C13.2993 4.50089 13.2602 4.52703 13.2272 4.55999C13.1942 4.59294 13.1681 4.63207 13.1503 4.67512C13.1324 4.71818 13.1233 4.76433 13.1233 4.81094V8.09025C12.5777 8.02822 12.0291 7.99589 11.48 7.99342C10.9309 7.99589 10.3823 8.02822 9.83668 8.09025V4.809C9.83668 4.71488 9.79929 4.62461 9.73273 4.55805C9.66617 4.49149 9.5759 4.4541 9.48178 4.4541H7.78232C7.42597 4.4541 7.39111 4.46233 6.41163 8.99808C5.43761 9.44129 4.56013 10.0715 3.82904 10.853C1.03729 13.8679 1.32973 18.1156 1.34377 18.2947C1.35039 18.3842 1.39072 18.4677 1.4566 18.5286C1.52247 18.5894 1.60899 18.623 1.69867 18.6225H21.2593C21.3488 18.6226 21.4349 18.5889 21.5005 18.5281C21.566 18.4673 21.6062 18.3839 21.6128 18.2947C21.6273 18.1156 21.9197 13.8679 19.129 10.8534ZM11.479 17.8057C10.5966 17.8057 9.73394 17.544 9.00023 17.0538C8.26651 16.5635 7.69465 15.8667 7.35695 15.0514C7.01926 14.2362 6.9309 13.3391 7.10306 12.4736C7.27521 11.6081 7.70014 10.8131 8.32412 10.1892C8.9481 9.56518 9.74309 9.14025 10.6086 8.96809C11.474 8.79594 12.3711 8.88429 13.1864 9.22199C14.0017 9.55968 14.6985 10.1315 15.1887 10.8653C15.679 11.599 15.9407 12.4616 15.9407 13.344C15.9393 14.5269 15.4687 15.6609 14.6323 16.4974C13.7959 17.3338 12.6619 17.8043 11.479 17.8057Z" fill="#333333"/>
</g>
</svg>
