<svg width="22" height="20" viewBox="0 0 22 20" fill="none" xmlns="http://www.w3.org/2000/svg">
<g id="Group">
<path id="Vector" d="M21.9388 17.4755C21.9379 17.4726 21.937 17.4697 21.9361 17.4669L21.0622 14.8117V8.30954C21.0622 7.24337 20.1948 6.37598 19.1286 6.37598H13.4843V9.53971C13.4843 11.3167 12.0386 12.7623 10.2617 12.7623H9.80457V15.8719C9.80457 16.9381 10.672 17.8055 11.7381 17.8055H18.2978L19.9862 18.929C20.2082 19.0792 20.4592 19.1541 20.7096 19.1541C20.9782 19.1541 21.2462 19.068 21.4771 18.8967C21.9243 18.5648 22.1055 18.007 21.9388 17.4755ZM17.5516 15.1858C17.2186 15.3115 16.8467 15.1433 16.721 14.8103L16.4404 14.0666H14.4784L14.1944 14.8121C14.0965 15.0693 13.8517 15.2274 13.592 15.2274C13.5157 15.2274 13.4382 15.2138 13.3627 15.1851C13.03 15.0584 12.8631 14.686 12.9898 14.3533L14.7647 9.69311C14.8189 9.55125 14.9149 9.42922 15.0401 9.34319C15.1652 9.25716 15.3135 9.2112 15.4654 9.21139C15.7733 9.2098 16.0448 9.39388 16.1613 9.67712C16.1637 9.68297 16.1659 9.68881 16.1682 9.69474L17.9269 14.3551C18.0527 14.6882 17.8846 15.0601 17.5516 15.1858Z" fill="#333333"/>
<path id="Vector_2" d="M14.9694 12.7768H15.9539L15.4639 11.4783L14.9694 12.7768ZM10.2617 0H2.87119C1.80503 0 0.937633 0.867395 0.937633 1.93356V8.47883L0.0637499 11.1343L0.0609999 11.1429C-0.105587 11.6743 0.0757379 12.232 0.522949 12.5638C0.753816 12.7351 1.02176 12.8211 1.29027 12.8211C1.54069 12.8211 1.79158 12.7463 2.01338 12.5962L3.70194 11.4725H10.2616C11.3278 11.4725 12.1952 10.6051 12.1952 9.53894V1.9336C12.1953 0.867395 11.3279 0 10.2617 0ZM9.2565 8.59958C9.19671 8.6595 9.12568 8.70702 9.04747 8.73942C8.96926 8.77181 8.88543 8.78843 8.80078 8.78833C8.71612 8.78845 8.63228 8.77183 8.55407 8.73943C8.47586 8.70702 8.40483 8.65948 8.34506 8.59953L8.06285 8.31727C7.59033 8.62669 7.02629 8.80737 6.42052 8.80737C4.76269 8.80737 3.41392 7.4586 3.41392 5.80077C3.41392 4.14293 4.76269 2.79417 6.42052 2.79417C8.07836 2.79417 9.42712 4.14293 9.42712 5.80077C9.42712 6.38724 9.25774 6.93456 8.96621 7.39763L9.25658 7.68801C9.5082 7.9398 9.5082 8.34787 9.2565 8.59958Z" fill="#333333"/>
<path id="Vector_3" d="M6.4205 4.08398C5.47344 4.08398 4.70294 4.85449 4.70294 5.80155C4.70294 6.7486 5.47344 7.5191 6.4205 7.5191C6.66019 7.51924 6.89722 7.46889 7.11615 7.37134L6.83377 7.08895C6.58206 6.83725 6.58206 6.42918 6.83377 6.17747C7.08547 5.92577 7.49354 5.92577 7.74525 6.17747L8.0126 6.44482C8.09557 6.24051 8.13817 6.02206 8.13806 5.80155C8.13806 4.85444 7.36756 4.08398 6.4205 4.08398Z" fill="#333333"/>
</g>
</svg>
