<svg width="140" height="141" viewBox="0 0 140 141" fill="none" xmlns="http://www.w3.org/2000/svg">
<rect x="0.5" y="0.662109" width="139" height="139" rx="69.5" fill="#15355E" fill-opacity="0.2"/>
<rect x="0.5" y="0.662109" width="139" height="139" rx="69.5" stroke="#15355E"/>
<path d="M32.7136 85.8872C32.0339 84.3586 31.9431 82.6328 32.4586 81.0413C32.6788 80.3682 32.7903 79.6642 32.7886 78.956C32.789 77.3562 32.22 75.8086 31.1833 74.5902L31.1683 74.5752C30.1229 73.3609 29.5479 71.8117 29.5479 70.2094C29.5479 68.607 30.1229 67.0579 31.1683 65.8436L31.1833 65.8286C31.9342 64.9546 32.4462 63.9012 32.6697 62.7708C32.8931 61.6404 32.8204 60.4714 32.4586 59.3774C32.2405 58.6986 32.1292 57.99 32.1285 57.2771C32.127 56.0368 32.4698 54.8205 33.1188 53.7636C33.7677 52.7067 34.6974 51.8507 35.8042 51.291C36.8319 50.7661 37.7089 49.9878 38.352 49.0296C38.9952 48.0714 39.3834 46.965 39.4798 45.815V45.8C39.596 44.2031 40.2829 42.7013 41.4151 41.5691C42.5472 40.4369 44.049 39.75 45.6459 39.6339H45.6609C46.8126 39.5433 47.9215 39.1575 48.8806 38.5137C49.8398 37.8699 50.6169 36.9898 51.1369 35.9582C51.6966 34.8515 52.5526 33.9218 53.6095 33.2728C54.6664 32.6238 55.8828 32.281 57.123 32.2826C57.8361 32.2821 58.5448 32.3935 59.2234 32.6126C59.8965 32.8329 60.6005 32.9443 61.3088 32.9427C62.9085 32.9431 64.4561 32.374 65.6745 31.3374L65.6895 31.3224C66.9038 30.2769 68.453 29.7019 70.0553 29.7019C71.6577 29.7019 73.2068 30.2769 74.4211 31.3224L74.4361 31.3374C75.3101 32.0882 76.3635 32.6003 77.4939 32.8237C78.6243 33.0472 79.7933 32.9745 80.8873 32.6126C82.4787 32.0971 84.2046 32.188 85.7331 32.8677L107.397 54.5316C108.077 56.0601 108.168 57.786 107.652 59.3774C107.432 60.0506 107.32 60.7546 107.322 61.4628C107.322 63.0625 107.891 64.6102 108.927 65.8286L108.942 65.8436C109.988 67.0579 110.563 68.607 110.563 70.2094C110.563 71.8117 109.988 73.3609 108.942 74.5752L108.927 74.5902C108.176 75.4642 107.664 76.5176 107.441 77.648C107.218 78.7784 107.29 79.9473 107.652 81.0413C107.87 81.7202 107.981 82.4287 107.982 83.1417C107.984 84.3819 107.641 85.5983 106.992 86.6552C106.343 87.7121 105.413 88.5681 104.306 89.1278C103.279 89.6527 102.402 90.431 101.759 91.3892C101.115 92.3474 100.727 93.4538 100.631 94.6038V94.6188C100.515 96.2157 99.8278 97.7175 98.6956 98.8496C97.5634 99.9818 96.0616 100.669 94.4647 100.785H94.4497C93.2981 100.875 92.1892 101.261 91.23 101.905C90.2708 102.549 89.4938 103.429 88.9737 104.461C88.414 105.567 87.558 106.497 86.5011 107.146C85.4442 107.795 84.2279 108.138 82.9876 108.136C82.2746 108.137 81.5658 108.025 80.8873 107.806C80.2141 107.586 79.5102 107.474 78.8019 107.476C77.2022 107.476 75.6545 108.045 74.4361 109.081L74.4211 109.096C73.2068 110.142 71.6577 110.717 70.0553 110.717C68.453 110.717 66.9038 110.142 65.6895 109.096L65.6745 109.081C64.8005 108.331 63.7471 107.818 62.6167 107.595C61.4863 107.372 60.3174 107.444 59.2234 107.806C57.6319 108.322 55.9061 108.231 54.3775 107.551L32.7136 85.8872Z" fill="#2C9B40"/>
<path d="M62.6439 99.2848C65.065 99.9075 67.5554 100.22 70.0553 100.215C73.996 100.216 77.8983 99.4408 81.5392 97.9333C85.1802 96.4258 88.4884 94.2157 91.2749 91.4292C94.0614 88.6427 96.2715 85.3345 97.779 81.6935C99.2865 78.0526 100.062 74.1502 100.061 70.2096C100.066 67.7097 99.7532 65.2193 99.1305 62.7982L77.4666 41.1343C75.0455 40.5116 72.5551 40.199 70.0553 40.2042C66.1146 40.203 62.2122 40.9783 58.5713 42.4858C54.9303 43.9933 51.6221 46.2034 48.8356 48.9899C46.0491 51.7764 43.839 55.0846 42.3315 58.7256C40.824 62.3665 40.0487 66.2689 40.0499 70.2096C40.0447 72.7094 40.3573 75.1998 40.98 77.6209L62.6439 99.2848Z" fill="#33C455"/>
<path d="M90.0889 28.4956L28.3336 90.2509C25.9402 92.6443 25.9402 96.5247 28.3336 98.918L41.3375 111.922C43.7309 114.315 47.6113 114.315 50.0046 111.922L111.76 50.1667C114.153 47.7733 114.153 43.8929 111.76 41.4995L98.756 28.4956C96.3627 26.1022 92.4822 26.1022 90.0889 28.4956Z" fill="#50E26B"/>
<path d="M45.0337 90.358C44.1764 89.5397 43.0368 89.0832 41.8516 89.0832C40.6665 89.0832 39.5269 89.5397 38.6696 90.358C37.8263 91.202 37.3525 92.3462 37.3525 93.5393C37.3525 94.7324 37.8263 95.8767 38.6696 96.7206L45.0202 103.101C45.1582 103.245 45.3234 103.36 45.5062 103.439C45.689 103.518 45.8858 103.56 46.0849 103.562C46.2841 103.564 46.4817 103.527 46.6663 103.452C46.8508 103.377 47.0186 103.266 47.1599 103.126C47.3011 102.985 47.413 102.818 47.4889 102.634C47.5649 102.45 47.6034 102.252 47.6023 102.053C47.6011 101.854 47.5603 101.657 47.4823 101.474C47.4042 101.291 47.2904 101.125 47.1476 100.986L45.0262 98.8555L47.1491 96.7326L49.26 98.8645C49.398 99.0081 49.5632 99.1229 49.746 99.202C49.9288 99.2811 50.1255 99.323 50.3247 99.3252C50.5239 99.3275 50.7215 99.2901 50.906 99.2152C51.0906 99.1403 51.2584 99.0294 51.3996 98.8889C51.5409 98.7485 51.6527 98.5813 51.7287 98.3972C51.8047 98.213 51.8432 98.0156 51.842 97.8164C51.8409 97.6173 51.8001 97.4203 51.722 97.2371C51.644 97.0538 51.5302 96.8879 51.3873 96.7491L45.0337 90.358ZM42.9078 96.7281L40.7909 94.6022C40.6515 94.4629 40.5408 94.2975 40.4653 94.1153C40.3898 93.9332 40.3509 93.738 40.3509 93.5408C40.3509 93.3436 40.3898 93.1484 40.4653 92.9663C40.5408 92.7842 40.6515 92.6187 40.7909 92.4794C41.0765 92.2079 41.4554 92.0566 41.8494 92.0566C42.2434 92.0566 42.6223 92.2079 42.9078 92.4794L45.0277 94.6082L42.9078 96.7281ZM78.9818 56.4069C78.1242 55.5885 76.9844 55.1319 75.799 55.1319C74.6136 55.1319 73.4737 55.5885 72.6162 56.4069C71.7724 57.2509 71.2984 58.3955 71.2984 59.589C71.2984 60.7824 71.7724 61.927 72.6162 62.771L76.8589 67.0138C77.2769 67.4318 77.7731 67.7634 78.3192 67.9896C78.8653 68.2159 79.4506 68.3323 80.0417 68.3323C80.6329 68.3323 81.2182 68.2159 81.7643 67.9896C82.3104 67.7634 82.8066 67.4318 83.2246 67.0138C84.0683 66.1698 84.5423 65.0252 84.5423 63.8317C84.5423 62.6383 84.0683 61.4937 83.2246 60.6497L78.9818 56.4069ZM81.1032 64.8909C80.9639 65.0304 80.7984 65.1411 80.6163 65.2166C80.4341 65.2921 80.2389 65.3309 80.0417 65.3309C79.8446 65.3309 79.6494 65.2921 79.4672 65.2166C79.2851 65.1411 79.1196 65.0304 78.9803 64.8909L74.7375 60.6482C74.5278 60.4383 74.385 60.171 74.3271 59.8801C74.2692 59.5891 74.2989 59.2875 74.4125 59.0134C74.526 58.7393 74.7182 58.505 74.9649 58.3401C75.2116 58.1753 75.5016 58.0873 75.7982 58.0872C75.9954 58.0862 76.1908 58.1245 76.3729 58.2C76.5551 58.2755 76.7203 58.3866 76.8589 58.5268L81.1032 62.7695C81.384 63.0508 81.5417 63.432 81.5417 63.8295C81.5417 64.2269 81.384 64.6096 81.1032 64.8909ZM85.5725 46.091C85.3678 45.7498 85.0359 45.5039 84.6499 45.4074C84.2639 45.3109 83.8553 45.3717 83.5141 45.5764C83.1729 45.7812 82.927 46.113 82.8305 46.4991C82.734 46.8851 82.7948 47.2936 82.9995 47.6348L86.2761 53.0973L80.8151 49.8192C80.4739 49.6145 80.0654 49.5537 79.6794 49.6502C79.2934 49.7467 78.9615 49.9926 78.7568 50.3338C78.552 50.675 78.4913 51.0835 78.5878 51.4696C78.6843 51.8556 78.9302 52.1875 79.2714 52.3922L89.8783 58.7578C90.1645 58.9275 90.499 58.9972 90.8292 58.956C91.1594 58.9147 91.4665 58.7649 91.7022 58.53C91.9379 58.2952 92.0889 57.9886 92.1313 57.6586C92.1737 57.3286 92.1053 56.9938 91.9366 56.7069L85.5725 46.091ZM102.32 45.8015C102.039 45.5202 101.657 45.3622 101.259 45.3622C100.861 45.3622 100.48 45.5202 100.199 45.8015L97.0165 48.9851L94.8937 46.8637L95.9559 45.8015C96.2291 45.5185 96.3804 45.1396 96.3769 44.7462C96.3735 44.3528 96.2157 43.9765 95.9376 43.6984C95.6594 43.4202 95.2831 43.2624 94.8898 43.259C94.4964 43.2556 94.1174 43.4068 93.8345 43.6801L92.7723 44.7423L90.6509 42.6194L93.8345 39.4358C93.9778 39.2974 94.0921 39.1319 94.1707 38.9489C94.2493 38.7658 94.2907 38.569 94.2924 38.3698C94.2942 38.1705 94.2562 37.973 94.1808 37.7886C94.1053 37.6042 93.9939 37.4367 93.8531 37.2959C93.7122 37.155 93.5447 37.0436 93.3603 36.9682C93.1759 36.8927 92.9784 36.8548 92.7792 36.8565C92.58 36.8582 92.3831 36.8996 92.2001 36.9782C92.017 37.0569 91.8515 37.1712 91.7131 37.3145L88.5295 40.504C88.2508 40.7827 88.0296 41.1135 87.8788 41.4776C87.7279 41.8417 87.6503 42.232 87.6503 42.6262C87.6503 43.0203 87.7279 43.4106 87.8788 43.7747C88.0296 44.1388 88.2508 44.4697 88.5295 44.7483L94.8967 51.1139C95.4593 51.6765 96.2224 51.9925 97.018 51.9925C97.8137 51.9925 98.5767 51.6765 99.1394 51.1139L102.322 47.9319C102.462 47.7923 102.574 47.6263 102.65 47.4434C102.726 47.2605 102.765 47.0644 102.765 46.8664C102.764 46.6683 102.725 46.4722 102.649 46.2895C102.572 46.1067 102.461 45.9409 102.32 45.8015ZM52.46 89.2973L53.5207 88.2366C53.9387 87.8185 54.2702 87.3222 54.4964 86.776C54.7226 86.2298 54.8389 85.6444 54.8389 85.0533C54.8388 84.4621 54.7223 83.8767 54.496 83.3306C54.2697 82.7844 53.9381 82.2882 53.52 81.8702C53.1019 81.4522 52.6056 81.1207 52.0594 80.8945C51.5132 80.6684 50.9278 80.552 50.3366 80.5521C49.7455 80.5521 49.1601 80.6686 48.6139 80.8949C48.0678 81.1212 47.5716 81.4529 47.1536 81.871L45.0322 83.9938C44.751 84.2752 44.5929 84.6567 44.5929 85.0545C44.5929 85.4524 44.751 85.8339 45.0322 86.1152L49.2765 90.358L53.5207 94.6007C53.802 94.8823 54.1837 95.0405 54.5816 95.0406C54.9796 95.0408 55.3614 94.8828 55.6429 94.6015C55.9244 94.3202 56.0826 93.9386 56.0827 93.5406C56.0829 93.1426 55.9249 92.7609 55.6436 92.4794L52.46 89.2973ZM49.2765 83.9938C49.4139 83.8471 49.5794 83.7295 49.7631 83.648C49.9469 83.5664 50.1451 83.5227 50.3461 83.5193C50.5471 83.5159 50.7468 83.5529 50.9332 83.6281C51.1196 83.7034 51.289 83.8153 51.4313 83.9573C51.5736 84.0993 51.6859 84.2685 51.7615 84.4547C51.8372 84.641 51.8746 84.8405 51.8717 85.0415C51.8687 85.2425 51.8253 85.4409 51.7442 85.6248C51.6631 85.8088 51.5458 85.9745 51.3994 86.1122L50.3372 87.1729L48.2158 85.062L49.2765 83.9938ZM60.9471 80.8103L62.0078 79.7481C62.4376 79.3329 62.7805 78.8363 63.0164 78.2871C63.2523 77.738 63.3764 77.1474 63.3816 76.5498C63.3868 75.9522 63.2729 75.3595 63.0466 74.8064C62.8203 74.2533 62.4861 73.7507 62.0635 73.3282C61.641 72.9056 61.1384 72.5714 60.5853 72.3451C60.0322 72.1187 59.4395 72.0049 58.8419 72.0101C58.2443 72.0153 57.6537 72.1394 57.1046 72.3753C56.5554 72.6112 56.0588 72.9541 55.6436 73.3839L53.5207 75.5053C53.2395 75.7867 53.0815 76.1682 53.0815 76.566C53.0815 76.9638 53.2395 77.3454 53.5207 77.6267L57.765 81.8695L62.0078 86.1152C62.2907 86.3885 62.6697 86.5397 63.063 86.5363C63.4564 86.5329 63.8327 86.3751 64.1109 86.0969C64.389 85.8188 64.5468 85.4425 64.5502 85.0491C64.5536 84.6558 64.4024 84.2768 64.1291 83.9938L60.9471 80.8103ZM57.765 75.5053C58.0509 75.2329 58.4307 75.081 58.8257 75.081C59.2206 75.081 59.6004 75.2329 59.8864 75.5053C60.1678 75.7866 60.3259 76.1681 60.326 76.566C60.3268 76.7629 60.2883 76.958 60.2129 77.1399C60.1374 77.3218 60.0264 77.4867 59.8864 77.6252L58.8257 78.6859L56.7028 76.566L57.765 75.5053ZM74.7375 69.1412C73.9499 68.3585 72.8988 67.8974 71.7895 67.8479C71.7498 66.9783 71.4577 66.139 70.9489 65.4327C70.44 64.7263 69.7364 64.1835 68.9241 63.8705C68.1117 63.5575 67.2258 63.4879 66.3746 63.6702C65.5233 63.8525 64.7436 64.2787 64.1306 64.8969L62.0078 67.0198C61.7265 67.3011 61.5685 67.6827 61.5685 68.0805C61.5685 68.4783 61.7265 68.8598 62.0078 69.1412L66.252 73.3839L70.4948 77.6267C70.7777 77.9 71.1567 78.0512 71.5501 78.0478C71.9434 78.0444 72.3197 77.8866 72.5979 77.6084C72.876 77.3303 73.0338 76.954 73.0373 76.5606C73.0407 76.1672 72.8895 75.7883 72.6162 75.5053L69.4341 72.3232L70.4948 71.2626C70.7761 70.9813 71.1577 70.8233 71.5555 70.8233C71.9533 70.8233 72.3348 70.9813 72.6162 71.2626L74.7375 73.3839C75.0193 73.6653 75.4012 73.8231 75.7993 73.8229C76.1974 73.8226 76.5791 73.6642 76.8604 73.3824C77.1417 73.1007 77.2996 72.7188 77.2993 72.3207C77.2991 71.9226 77.1406 71.5409 76.8589 71.2596L74.7375 69.1412ZM66.252 67.0183C66.3914 66.879 66.5569 66.7685 66.739 66.6932C66.921 66.6178 67.1162 66.5791 67.3132 66.5792C67.5103 66.5792 67.7054 66.6181 67.8874 66.6936C68.0695 66.7691 68.2349 66.8797 68.3741 67.019C68.5134 67.1584 68.6239 67.3239 68.6993 67.506C68.7746 67.6881 68.8134 67.8832 68.8133 68.0803C68.8132 68.2773 68.7743 68.4724 68.6989 68.6545C68.6234 68.8365 68.5128 69.0019 68.3734 69.1412L67.3127 70.2094L65.1898 68.088L66.252 67.0183Z" fill="#333333"/>
</svg>
