<svg width="173" height="173" viewBox="0 0 173 173" fill="none" xmlns="http://www.w3.org/2000/svg">
<g filter="url(#filter0_d_3011_53761)">
<circle cx="86.8793" cy="82.5329" r="28.3622" fill="#FFFEFE"/>
</g>
<path d="M87.4614 89.6568C83.8472 89.6568 80.9064 86.716 80.9064 83.1018C80.9064 79.4876 83.8472 76.5469 87.4614 76.5469C91.0755 76.5469 94.0163 79.4876 94.0163 83.1018C94.0163 86.7168 91.0755 89.6568 87.4614 89.6568ZM87.4614 79.2711C85.3493 79.2711 83.6307 80.9898 83.6307 83.1018C83.6307 85.2139 85.3493 86.9325 87.4614 86.9325C89.5734 86.9325 91.2921 85.2139 91.2921 83.1018C91.2921 80.9898 89.5734 79.2711 87.4614 79.2711Z" fill="url(#paint0_linear_3011_53761)"/>
<path d="M93.9357 78.0976C94.7876 78.0976 95.4781 77.407 95.4781 76.5551C95.4781 75.7033 94.7876 75.0127 93.9357 75.0127C93.0839 75.0127 92.3933 75.7033 92.3933 76.5551C92.3933 77.407 93.0839 78.0976 93.9357 78.0976Z" fill="url(#paint1_linear_3011_53761)"/>
<path d="M92.8636 95.8595H81.8814C77.8335 95.8595 74.5403 92.5663 74.5403 88.5184V77.5354C74.5403 73.4875 77.8335 70.1943 81.8814 70.1943H92.8643C96.9123 70.1943 100.205 73.4875 100.205 77.5354V88.5184C100.205 92.5656 96.9115 95.8595 92.8636 95.8595ZM81.8814 72.9179C79.3356 72.9179 77.2646 74.9889 77.2646 77.5347V88.5176C77.2646 91.0634 79.3356 93.1345 81.8814 93.1345H92.8643C95.4102 93.1345 97.4812 91.0634 97.4812 88.5176V77.5354C97.4812 74.9896 95.4102 72.9186 92.8643 72.9186H81.8814V72.9179Z" fill="url(#paint2_linear_3011_53761)"/>
<defs>
<filter id="filter0_d_3011_53761" x="0.794575" y="0.723938" width="172.169" height="172.169" filterUnits="userSpaceOnUse" color-interpolation-filters="sRGB">
<feFlood flood-opacity="0" result="BackgroundImageFix"/>
<feColorMatrix in="SourceAlpha" type="matrix" values="0 0 0 0 0 0 0 0 0 0 0 0 0 0 0 0 0 0 127 0" result="hardAlpha"/>
<feOffset dy="4.27574"/>
<feGaussianBlur stdDeviation="28.8612"/>
<feComposite in2="hardAlpha" operator="out"/>
<feColorMatrix type="matrix" values="0 0 0 0 0 0 0 0 0 0 0 0 0 0 0 0 0 0 0.08 0"/>
<feBlend mode="normal" in2="BackgroundImageFix" result="effect1_dropShadow_3011_53761"/>
<feBlend mode="normal" in="SourceGraphic" in2="effect1_dropShadow_3011_53761" result="shape"/>
</filter>
<linearGradient id="paint0_linear_3011_53761" x1="76.3943" y1="94.1691" x2="96.5848" y2="73.9786" gradientUnits="userSpaceOnUse">
<stop stop-color="#FEE411"/>
<stop offset="0.052" stop-color="#FEDB16"/>
<stop offset="0.138" stop-color="#FEC125"/>
<stop offset="0.248" stop-color="#FE983D"/>
<stop offset="0.376" stop-color="#FE5F5E"/>
<stop offset="0.5" stop-color="#FE2181"/>
<stop offset="1" stop-color="#9000DC"/>
</linearGradient>
<linearGradient id="paint1_linear_3011_53761" x1="76.358" y1="94.1328" x2="96.5484" y2="73.9423" gradientUnits="userSpaceOnUse">
<stop stop-color="#FEE411"/>
<stop offset="0.052" stop-color="#FEDB16"/>
<stop offset="0.138" stop-color="#FEC125"/>
<stop offset="0.248" stop-color="#FE983D"/>
<stop offset="0.376" stop-color="#FE5F5E"/>
<stop offset="0.5" stop-color="#FE2181"/>
<stop offset="1" stop-color="#9000DC"/>
</linearGradient>
<linearGradient id="paint2_linear_3011_53761" x1="76.312" y1="94.087" x2="96.5026" y2="73.8965" gradientUnits="userSpaceOnUse">
<stop stop-color="#FEE411"/>
<stop offset="0.052" stop-color="#FEDB16"/>
<stop offset="0.138" stop-color="#FEC125"/>
<stop offset="0.248" stop-color="#FE983D"/>
<stop offset="0.376" stop-color="#FE5F5E"/>
<stop offset="0.5" stop-color="#FE2181"/>
<stop offset="1" stop-color="#9000DC"/>
</linearGradient>
</defs>
</svg>
