<svg width="48" height="72" viewBox="0 0 48 72" fill="none" xmlns="http://www.w3.org/2000/svg">
<rect width="48" height="48" rx="12" fill="#F04438"/>
<path fill-rule="evenodd" clip-rule="evenodd" d="M19.0841 14.9999C19.4554 13.4644 21.0016 12.4288 22.6286 12.7775L30.6286 14.4917C32.0118 14.7881 33 16.0105 33 17.4251V17.9999V29.9999V30.5747C33 31.9893 32.0118 33.2117 30.6286 33.5081L22.6286 35.2223C21.0016 35.571 19.4554 34.5354 19.0841 32.9999H18C16.3431 32.9999 15 31.6568 15 29.9999V23.4999V22.9999V17.9999C15 16.343 16.3431 14.9999 18 14.9999H19.0841ZM19 16.9999H18C17.4477 16.9999 17 17.4476 17 17.9999V22.9999V23.4999V29.9999C17 30.5522 17.4477 30.9999 18 30.9999H19V16.9999ZM23 23.9999C23 24.5522 22.5523 24.9999 22 24.9999C21.4477 24.9999 21 24.5522 21 23.9999C21 23.4476 21.4477 22.9999 22 22.9999C22.5523 22.9999 23 23.4476 23 23.9999Z" fill="white"/>
<path d="M12.9873 65.6738V67H6.8623V57.1357H8.39355V65.6738H12.9873ZM16.9521 60.8682C15.9199 60.8682 15.1953 61.6543 15.1201 62.7412H18.7158C18.6816 61.6406 17.9844 60.8682 16.9521 60.8682ZM18.709 64.8877H20.1104C19.9053 66.2002 18.6611 67.1367 17.0137 67.1367C14.9014 67.1367 13.623 65.708 13.623 63.4385C13.623 61.1826 14.9219 59.6787 16.9521 59.6787C18.9482 59.6787 20.1924 61.0869 20.1924 63.2676V63.7734H15.1133V63.8623C15.1133 65.1133 15.8652 65.9404 17.0479 65.9404C17.8887 65.9404 18.5107 65.5166 18.709 64.8877ZM23.8564 65.9541C24.8887 65.9541 25.6953 65.2432 25.6953 64.3066V63.7393L23.9248 63.8486C23.043 63.9102 22.5439 64.2998 22.5439 64.915C22.5439 65.5439 23.0635 65.9541 23.8564 65.9541ZM23.4463 67.123C22.0381 67.123 21.0537 66.248 21.0537 64.9561C21.0537 63.6982 22.0176 62.9258 23.7266 62.8301L25.6953 62.7139V62.1602C25.6953 61.3604 25.1553 60.8818 24.2529 60.8818C23.3984 60.8818 22.8652 61.292 22.7354 61.9346H21.3408C21.4229 60.6357 22.5303 59.6787 24.3076 59.6787C26.0508 59.6787 27.165 60.6016 27.165 62.0439V67H25.75V65.8174H25.7158C25.2988 66.6172 24.3896 67.123 23.4463 67.123ZM34.7393 59.8086L32.1621 67H30.5762L27.9854 59.8086H29.5576L31.3623 65.5576H31.3896L33.1943 59.8086H34.7393ZM38.3896 60.8682C37.3574 60.8682 36.6328 61.6543 36.5576 62.7412H40.1533C40.1191 61.6406 39.4219 60.8682 38.3896 60.8682ZM40.1465 64.8877H41.5479C41.3428 66.2002 40.0986 67.1367 38.4512 67.1367C36.3389 67.1367 35.0605 65.708 35.0605 63.4385C35.0605 61.1826 36.3594 59.6787 38.3896 59.6787C40.3857 59.6787 41.6299 61.0869 41.6299 63.2676V63.7734H36.5508V63.8623C36.5508 65.1133 37.3027 65.9404 38.4854 65.9404C39.3262 65.9404 39.9482 65.5166 40.1465 64.8877Z" fill="#333333"/>
</svg>
