<svg width="173" height="173" viewBox="0 0 173 173" fill="none" xmlns="http://www.w3.org/2000/svg">
<g filter="url(#filter0_d_3011_53767)">
<circle cx="86.6378" cy="82.5329" r="28.3622" fill="#FFFEFE"/>
</g>
<path d="M98.676 94.5777L98.6821 94.5767V85.638C98.6821 81.2652 97.7407 77.8967 92.6286 77.8967C90.171 77.8967 88.5218 79.2453 87.8485 80.5238H87.7774V78.3049H82.9303V94.5767H87.9775V86.5195C87.9775 84.3981 88.3796 82.3467 91.0068 82.3467C93.5953 82.3467 93.6339 84.7677 93.6339 86.6556V94.5777H98.676ZM74.7117 78.3059H79.7649V94.5777H74.7117V78.3059ZM77.2363 70.2051C75.6206 70.2051 74.3095 71.5161 74.3095 73.1318C74.3095 74.7475 75.6206 76.086 77.2363 76.086C78.852 76.086 80.163 74.7475 80.163 73.1318C80.1625 72.3558 79.8539 71.6117 79.3052 71.0629C78.7564 70.5141 78.0123 70.2056 77.2363 70.2051Z" fill="#0077B5"/>
<defs>
<filter id="filter0_d_3011_53767" x="0.553059" y="0.723938" width="172.169" height="172.169" filterUnits="userSpaceOnUse" color-interpolation-filters="sRGB">
<feFlood flood-opacity="0" result="BackgroundImageFix"/>
<feColorMatrix in="SourceAlpha" type="matrix" values="0 0 0 0 0 0 0 0 0 0 0 0 0 0 0 0 0 0 127 0" result="hardAlpha"/>
<feOffset dy="4.27574"/>
<feGaussianBlur stdDeviation="28.8612"/>
<feComposite in2="hardAlpha" operator="out"/>
<feColorMatrix type="matrix" values="0 0 0 0 0 0 0 0 0 0 0 0 0 0 0 0 0 0 0.08 0"/>
<feBlend mode="normal" in2="BackgroundImageFix" result="effect1_dropShadow_3011_53767"/>
<feBlend mode="normal" in="SourceGraphic" in2="effect1_dropShadow_3011_53767" result="shape"/>
</filter>
</defs>
</svg>
