<svg width="40" height="40" viewBox="0 0 40 40" fill="none" xmlns="http://www.w3.org/2000/svg">
<circle cx="20" cy="20" r="20" fill="#FFFEFE"/>
<path d="M28.4889 28.4935L28.4932 28.4928V22.1896C28.4932 19.106 27.8294 16.7307 24.2245 16.7307C22.4915 16.7307 21.3285 17.6817 20.8538 18.5833H20.8036V17.0186H17.3856V28.4928H20.9447V22.8112C20.9447 21.3152 21.2283 19.8687 23.0809 19.8687C24.9062 19.8687 24.9334 21.5759 24.9334 22.9072V28.4935H28.4889ZM11.5902 17.0193H15.1535V28.4935H11.5902V17.0193ZM13.3704 11.3069C12.2311 11.3069 11.3066 12.2314 11.3066 13.3707C11.3066 14.51 12.2311 15.4539 13.3704 15.4539C14.5097 15.4539 15.4342 14.51 15.4342 13.3707C15.4339 12.8235 15.2163 12.2987 14.8293 11.9118C14.4424 11.5248 13.9177 11.3073 13.3704 11.3069Z" fill="#0077B5"/>
</svg>
