<svg width="15" height="15" viewBox="0 0 15 15" fill="none" xmlns="http://www.w3.org/2000/svg">
<g clip-path="url(#clip0_649_40925)">
<path d="M4.67103 4.70144C5.96067 4.70144 7.00612 3.65598 7.00612 2.36634C7.00612 1.07671 5.96067 0.03125 4.67103 0.03125C3.38139 0.03125 2.33594 1.07671 2.33594 2.36634C2.33594 3.65598 3.38139 4.70144 4.67103 4.70144Z" fill="#15355E"/>
<path d="M14.0139 9.955L11.0951 7.03613V8.78745H9.34375V11.1225H11.0951V12.8739L14.0139 9.955Z" fill="#15355E"/>
<path d="M9.34037 8.78801V8.20423C9.34037 6.91468 8.29484 5.86914 7.00528 5.86914H2.33509C1.04554 5.86914 0 6.91468 0 8.20423V14.042H9.34037V11.1231H4.67019V8.78801H9.34037Z" fill="#15355E"/>
</g>
<defs>
<clipPath id="clip0_649_40925">
<rect width="14.0101" height="14.0105" fill="white" transform="translate(0 0.03125)"/>
</clipPath>
</defs>
</svg>
