<svg width="60" height="60" viewBox="0 0 60 60" fill="none" xmlns="http://www.w3.org/2000/svg">
<path d="M30 60C46.5685 60 60 46.5685 60 30C60 13.4315 46.5685 0 30 0C13.4315 0 0 13.4315 0 30C0 46.5685 13.4315 60 30 60Z" fill="#C5E4F6"/>
<path d="M43 28.4583V36.7917C43 38.2292 41.8333 39.3958 40.3958 39.3958H39.875V41.4792C39.8752 41.5782 39.8471 41.6753 39.794 41.7589C39.741 41.8426 39.6652 41.9094 39.5755 41.9515C39.4859 41.9936 39.386 42.0092 39.2878 41.9966C39.1896 41.984 39.0969 41.9436 39.0208 41.8802L36.0417 39.3958H26.8542C25.4167 39.3958 24.25 38.2292 24.25 36.7917V32.0573L24.8177 31.5833H34.1458C36.1562 31.5833 37.7917 29.9479 37.7917 27.9375V25.8542H40.3958C41.8333 25.8542 43 27.0208 43 28.4583ZM36.75 19.6042V27.9375C36.75 29.375 35.5833 30.5417 34.1458 30.5417H24.4375L21.4583 33.026C21.3825 33.0889 21.2905 33.1291 21.1928 33.142C21.0951 33.1549 20.9958 33.14 20.9062 33.099C20.724 33.0156 20.6042 32.8281 20.6042 32.625V30.5417C19.1667 30.5417 18 29.375 18 27.9375V19.6042C18 18.1667 19.1667 17 20.6042 17H34.1458C35.5833 17 36.75 18.1667 36.75 19.6042ZM33.625 26.375C33.625 26.0885 33.3906 25.8542 33.1042 25.8542H21.6458C21.3594 25.8542 21.125 26.0885 21.125 26.375C21.125 26.6615 21.3594 26.8958 21.6458 26.8958H33.1042C33.3906 26.8958 33.625 26.6615 33.625 26.375ZM33.625 23.7708C33.625 23.4844 33.3906 23.25 33.1042 23.25H21.6458C21.3594 23.25 21.125 23.4844 21.125 23.7708C21.125 24.0573 21.3594 24.2917 21.6458 24.2917H33.1042C33.3906 24.2917 33.625 24.0573 33.625 23.7708ZM33.625 21.1667C33.625 20.8802 33.3906 20.6458 33.1042 20.6458H21.6458C21.3594 20.6458 21.125 20.8802 21.125 21.1667C21.125 21.4531 21.3594 21.6875 21.6458 21.6875H33.1042C33.3906 21.6875 33.625 21.4531 33.625 21.1667Z" fill="#15355E"/>
</svg>
