<svg width="48" height="72" viewBox="0 0 48 72" fill="none" xmlns="http://www.w3.org/2000/svg">
<rect width="48" height="48" rx="12" fill="#181A1C"/>
<path fill-rule="evenodd" clip-rule="evenodd" d="M20 25C20 26.1046 20.8954 27 22 27H26C27.1046 27 28 26.1046 28 25V17C28 14.7909 26.2091 13 24 13C21.7909 13 20 14.7909 20 17V25ZM17 21.5C17.5523 21.5 18 21.9477 18 22.5V26C18 27.6569 19.3431 29 21 29H24H27C28.6569 29 30 27.6569 30 26V22.5C30 21.9477 30.4477 21.5 31 21.5C31.5523 21.5 32 21.9477 32 22.5V26C32 28.7614 29.7614 31 27 31H25V34C25 34.5523 24.5523 35 24 35C23.4477 35 23 34.5523 23 34L23 31H21C18.2386 31 16 28.7614 16 26V22.5C16 21.9477 16.4477 21.5 17 21.5Z" fill="white"/>
<path d="M23.8564 67H22.4551V59.7402H22.4072L19.4336 66.9248H18.2988L15.3184 59.7402H15.2705V67H13.876V57.1357H15.6465L18.8389 64.9219H18.8936L22.0791 57.1357H23.8564V67ZM25.5449 67V59.8086H27.0215V67H25.5449ZM26.2832 58.7559C25.8115 58.7559 25.4287 58.3799 25.4287 57.915C25.4287 57.4434 25.8115 57.0674 26.2832 57.0674C26.7617 57.0674 27.1445 57.4434 27.1445 57.915C27.1445 58.3799 26.7617 58.7559 26.2832 58.7559ZM34.7051 62.2832H33.2969C33.1465 61.5176 32.5723 60.9092 31.6084 60.9092C30.4668 60.9092 29.7148 61.8594 29.7148 63.4043C29.7148 64.9834 30.4736 65.8994 31.6221 65.8994C32.5312 65.8994 33.126 65.4004 33.2969 64.5664H34.7188C34.5615 66.0977 33.3379 67.1367 31.6084 67.1367C29.5508 67.1367 28.2109 65.7285 28.2109 63.4043C28.2109 61.1211 29.5508 59.6787 31.5947 59.6787C33.4473 59.6787 34.5752 60.8682 34.7051 62.2832Z" fill="#333333"/>
</svg>
