<svg width="22" height="22" viewBox="0 0 22 22" fill="none" xmlns="http://www.w3.org/2000/svg">
<g id="Group">
<path id="Vector" d="M3.92894 15.8248V14.9274H7.85788C8.06628 14.9274 8.26615 14.8447 8.41351 14.6973C8.56087 14.5499 8.64366 14.3501 8.64366 14.1417V11.7843H7.07209V13.3559H3.14315C2.93475 13.3559 2.73488 13.4387 2.58751 13.586C2.44015 13.7334 2.35736 13.9332 2.35736 14.1417V15.8248C1.00581 16.1761 0 17.3964 0 18.8564C0 20.5898 1.4097 21.9995 3.14315 21.9995C4.8766 21.9995 6.2863 20.5898 6.2863 18.8564C6.2863 17.3956 5.28049 16.1768 3.92894 15.8248ZM11.7868 15.8248V11.7843H10.2152V15.8248C8.86368 16.1761 7.85788 17.3964 7.85788 18.8564C7.85788 20.5898 9.26758 21.9995 11.001 21.9995C12.7345 21.9995 14.1442 20.5898 14.1442 18.8564C14.1442 17.3956 13.1384 16.1768 11.7868 15.8248ZM19.6447 15.8248V14.1417C19.6447 13.9332 19.5619 13.7334 19.4145 13.586C19.2672 13.4387 19.0673 13.3559 18.8589 13.3559H14.93V11.7843H13.3584V14.1417C13.3584 14.3501 13.4412 14.5499 13.5885 14.6973C13.7359 14.8447 13.9358 14.9274 14.1442 14.9274H18.0731V15.8248C16.7216 16.1761 15.7158 17.3964 15.7158 18.8564C15.7158 20.5898 17.1255 21.9995 18.8589 21.9995C20.5924 21.9995 22.0021 20.5898 22.0021 18.8564C22.0021 17.3956 20.9962 16.1768 19.6447 15.8248ZM10.7834 4.77821C10.8478 4.7352 10.9235 4.71224 11.001 4.71224C11.0785 4.71224 11.1542 4.7352 11.2187 4.77821L11.7868 5.15696V3.14062H10.2152V5.15696L10.7834 4.77821Z" fill="#333333"/>
<path id="Vector_2" d="M15.717 3.14315H12.5739V5.89341C12.5738 5.96448 12.5545 6.0342 12.518 6.09516C12.4814 6.15612 12.4291 6.20603 12.3664 6.23958C12.3038 6.27312 12.2332 6.28904 12.1622 6.28565C12.0912 6.28225 12.0225 6.25967 11.9633 6.22029L11.0023 5.57909L10.0413 6.21951C9.98228 6.25941 9.91351 6.28245 9.84239 6.28616C9.77127 6.28987 9.70049 6.27409 9.63767 6.24054C9.57485 6.20699 9.52238 6.15693 9.48591 6.09576C9.44944 6.03459 9.43035 5.96462 9.43071 5.89341V3.14315H6.28756V11.001H14.9312C15.1396 11.001 15.3395 10.9182 15.4869 10.7709C15.6342 10.6235 15.717 10.4236 15.717 10.2152V3.14315ZM3.14441 0.392894L5.50177 2.75026V10.6081L3.37465 8.48101C3.22727 8.33368 3.14445 8.13384 3.14441 7.92545V0.392894ZM7.70198 0L10.0593 2.35736H11.6309L9.27355 0H7.70198ZM3.5373 0L5.89467 2.35736H9.27355L6.91619 0H3.5373ZM12.6414 0H10.0593L12.4167 2.35736H15.3241L13.197 0.230236C13.0497 0.0828618 12.8498 4.4505e-05 12.6414 0Z" fill="#333333"/>
</g>
</svg>
