<svg width="23" height="23" viewBox="0 0 23 23" fill="none" xmlns="http://www.w3.org/2000/svg">
<g id="Group">
<path id="Vector" fill-rule="evenodd" clip-rule="evenodd" d="M0.280273 8.26784C0.280273 8.88901 1.18851 9.48865 2.65682 9.95597C4.23685 10.4589 6.42917 10.7699 8.85913 10.7699C9.29538 10.7699 9.72392 10.7598 10.1427 10.7405C11.4672 9.14611 13.4649 8.13082 15.6994 8.13082C16.2973 8.13082 16.878 8.20401 17.4336 8.34104C17.4364 8.31669 17.438 8.29229 17.438 8.26784V3.7315C16.8341 4.24717 16.0139 4.58706 15.263 4.82625C13.6168 5.35018 11.3521 5.67422 8.85913 5.67422C6.36612 5.67422 4.10142 5.35018 2.45528 4.82625C1.70842 4.58879 0.876535 4.24068 0.280273 3.7315V8.26784ZM0.280273 14.0336V9.49724C0.886267 10.0147 1.7049 10.3534 2.45528 10.592C4.10142 11.1159 6.36612 11.44 8.85913 11.44C9.1208 11.44 9.37987 11.4364 9.63605 11.4294C8.90409 12.5585 8.47876 13.9048 8.47876 15.3505C8.47871 15.7471 8.5112 16.143 8.5759 16.5343C6.25911 16.5111 4.17526 16.2051 2.65687 15.7218C1.18846 15.2544 0.280273 14.6548 0.280273 14.0336ZM8.71968 17.2053C6.28177 17.1935 4.07067 16.8719 2.45528 16.3577C1.70911 16.1204 0.876626 15.7722 0.280273 15.263V19.7994C0.280273 20.4205 1.18851 21.0202 2.65682 21.4875C4.23685 21.9904 6.42917 22.3014 8.85913 22.3014C10.3068 22.3014 11.6702 22.191 12.8699 21.9954C10.8434 21.1313 9.29273 19.3673 8.71968 17.2053ZM3.83354 18.6169C4.10051 18.8839 4.10051 19.3223 3.83354 19.5892C3.56661 19.8562 3.12817 19.8562 2.86124 19.5892C2.59427 19.3223 2.59427 18.8839 2.86124 18.6169C3.12821 18.35 3.56661 18.35 3.83354 18.6169ZM4.30726 18.1433C4.83448 18.6705 4.83448 19.5357 4.30726 20.063C3.78003 20.5902 2.91479 20.5902 2.38757 20.063C1.86034 19.5357 1.86034 18.6705 2.38757 18.1433C2.91479 17.616 3.78003 17.616 4.30726 18.1433ZM3.83354 12.8777C3.56661 12.6107 3.12817 12.6107 2.86124 12.8777C2.59427 13.1446 2.59427 13.583 2.86124 13.8499C3.12817 14.1169 3.56661 14.1169 3.83354 13.8499C4.10051 13.583 4.10051 13.1446 3.83354 12.8777ZM4.30726 12.404C3.78003 11.8768 2.91479 11.8768 2.38757 12.404C1.86034 12.9312 1.86034 13.7964 2.38757 14.3236C2.91479 14.8508 3.78003 14.8508 4.30726 14.3236C4.83448 13.7964 4.83448 12.9312 4.30726 12.404ZM3.83354 7.13837C4.10051 7.4053 4.10051 7.8437 3.83354 8.11067C3.56661 8.37764 3.12817 8.37764 2.86124 8.11067C2.59427 7.84374 2.59427 7.4053 2.86124 7.13837C3.12821 6.8714 3.56661 6.8714 3.83354 7.13837ZM4.30726 6.66465C4.83448 7.19187 4.83448 8.05712 4.30726 8.58434C3.78003 9.11156 2.91479 9.11156 2.38757 8.58434C1.86034 8.05712 1.86034 7.19187 2.38757 6.66465C2.91479 6.13743 3.78003 6.13743 4.30726 6.66465ZM9.11838 15.3505C9.11838 11.7167 12.0646 8.77048 15.6993 8.77048C19.334 8.77048 22.2803 11.7167 22.2803 15.3505C22.2803 18.9852 19.334 21.9315 15.6993 21.9315C12.0646 21.9315 9.11838 18.9852 9.11838 15.3505ZM16.4807 10.9449C16.4807 11.8735 17.6058 12.3395 18.2624 11.6828C18.3205 11.6248 18.3993 11.5921 18.4815 11.5921C18.5637 11.5921 18.6424 11.6248 18.7006 11.6828L19.3675 12.3498C19.4256 12.4079 19.4582 12.4867 19.4582 12.5689C19.4582 12.651 19.4256 12.7298 19.3675 12.7879C18.7108 13.4446 19.1768 14.5697 20.1055 14.5697C20.1877 14.5697 20.2664 14.6023 20.3245 14.6604C20.3826 14.7185 20.4153 14.7973 20.4153 14.8794V15.8226C20.4153 15.9048 20.3826 15.9835 20.3245 16.0416C20.2664 16.0997 20.1877 16.1324 20.1055 16.1324C19.1756 16.1324 18.71 17.2566 19.3675 17.9141C19.4256 17.9722 19.4582 18.051 19.4582 18.1332C19.4582 18.2153 19.4256 18.2941 19.3675 18.3522L18.7006 19.0191C18.6424 19.0772 18.5637 19.1099 18.4815 19.1099C18.3993 19.1099 18.3205 19.0772 18.2624 19.0191C17.6058 18.3625 16.4807 18.8284 16.4807 19.7571C16.4807 19.8393 16.448 19.9181 16.3899 19.9762C16.3319 20.0343 16.2531 20.0669 16.1709 20.0669H15.2278C15.1456 20.0669 15.0668 20.0343 15.0087 19.9762C14.9506 19.9181 14.918 19.8393 14.918 19.7571C14.918 18.8284 13.7929 18.3625 13.1362 19.0191C13.0781 19.0772 12.9993 19.1099 12.9172 19.1099C12.835 19.1099 12.7562 19.0772 12.6981 19.0191L12.0312 18.3522C11.9731 18.2941 11.9404 18.2153 11.9404 18.1332C11.9404 18.051 11.9731 17.9722 12.0312 17.9141C12.6878 17.2575 12.2218 16.1324 11.2932 16.1324C11.211 16.1324 11.1322 16.0997 11.0741 16.0416C11.016 15.9835 10.9834 15.9048 10.9834 15.8226V14.8794C10.9834 14.7973 11.016 14.7185 11.0741 14.6604C11.1322 14.6023 11.211 14.5697 11.2932 14.5697C12.2219 14.5697 12.6878 13.4446 12.0312 12.7879C11.9731 12.7298 11.9404 12.651 11.9404 12.5689C11.9404 12.4867 11.9731 12.4079 12.0312 12.3498L12.6981 11.6828C12.7562 11.6248 12.835 11.5921 12.9172 11.5921C12.9993 11.5921 13.0781 11.6248 13.1362 11.6828C13.7928 12.3395 14.918 11.8735 14.918 10.9449C14.918 10.8627 14.9506 10.7839 15.0087 10.7258C15.0668 10.6677 15.1456 10.6351 15.2278 10.6351H16.1709C16.2531 10.6351 16.3319 10.6677 16.3899 10.7258C16.448 10.7839 16.4807 10.8627 16.4807 10.9449ZM13.3947 15.351C13.3947 16.6238 14.4265 17.6556 15.6993 17.6556C16.9721 17.6556 18.0039 16.6237 18.0039 15.351C18.0039 14.0782 16.9721 13.0464 15.6993 13.0464C14.4266 13.0464 13.3947 14.0782 13.3947 15.351ZM0.280273 2.50211C0.280273 1.88094 1.18851 1.2813 2.65682 0.813977C4.23685 0.311061 6.42917 0 8.85913 0C11.2891 0 13.4814 0.311061 15.0614 0.813977C16.5298 1.2813 17.438 1.88094 17.438 2.50211C17.438 3.12327 16.5298 3.72291 15.0614 4.19023C13.4814 4.6931 11.2891 5.00417 8.85913 5.00417C6.42917 5.00417 4.23685 4.6931 2.65682 4.19023C1.18846 3.72291 0.280273 3.12327 0.280273 2.50211Z" fill="#333333"/>
</g>
</svg>
