<svg width="22" height="23" viewBox="0 0 22 23" fill="none" xmlns="http://www.w3.org/2000/svg">
<g id="Group">
<path id="Vector" fill-rule="evenodd" clip-rule="evenodd" d="M22 7.33116V20.3643C22 21.0125 21.7425 21.634 21.2843 22.0923C20.826 22.5506 20.2044 22.8081 19.5563 22.8081H6.51822C6.19723 22.8082 5.87937 22.745 5.5828 22.6223C5.28622 22.4995 5.01673 22.3195 4.78972 22.0926C4.56271 21.8657 4.38264 21.5962 4.25978 21.2997C4.13692 21.0032 4.07368 20.6853 4.07368 20.3643V14.5548C4.47038 14.6257 4.8793 14.6623 5.29554 14.6623C9.11834 14.6623 12.2219 11.5596 12.2219 7.73845C12.2219 3.91729 9.11833 0.814575 5.29636 0.814575C5.0862 0.814575 4.87767 0.82435 4.67239 0.842271C4.90183 0.577496 5.18558 0.365225 5.50437 0.219889C5.82315 0.074552 6.16949 -0.000442924 6.51985 1.96788e-06H14.668V4.88744C14.668 5.53556 14.9255 6.15713 15.3838 6.61542C15.8421 7.0737 16.4636 7.33116 17.1117 7.33116H22ZM8.96357 18.7352V17.9206C8.96357 17.7046 8.87775 17.4974 8.72498 17.3446C8.57222 17.1919 8.36503 17.106 8.14899 17.106C7.93295 17.106 7.72576 17.1919 7.573 17.3446C7.42024 17.4974 7.33442 17.7046 7.33442 17.9206V18.7352C7.33442 18.9512 7.42024 19.1584 7.573 19.3112C7.72576 19.4639 7.93295 19.5498 8.14899 19.5498C8.36503 19.5498 8.57222 19.4639 8.72498 19.3112C8.87775 19.1584 8.96357 18.9512 8.96357 18.7352ZM12.2235 18.7352V15.4769C12.2235 15.2609 12.1377 15.0537 11.9849 14.9009C11.8321 14.7481 11.625 14.6623 11.4089 14.6623C11.1929 14.6623 10.9857 14.7481 10.8329 14.9009C10.6802 15.0537 10.5943 15.2609 10.5943 15.4769V18.7352C10.5943 18.9512 10.6802 19.1584 10.8329 19.3112C10.9857 19.4639 11.1929 19.5498 11.4089 19.5498C11.625 19.5498 11.8321 19.4639 11.9849 19.3112C12.1377 19.1584 12.2235 18.9512 12.2235 18.7352ZM15.4818 18.7352V16.2915C15.4818 16.0754 15.396 15.8682 15.2432 15.7155C15.0904 15.5627 14.8832 15.4769 14.6672 15.4769C14.4512 15.4769 14.244 15.5627 14.0912 15.7155C13.9385 15.8682 13.8526 16.0754 13.8526 16.2915V18.7352C13.8526 18.9512 13.9385 19.1584 14.0912 19.3112C14.244 19.4639 14.4512 19.5498 14.6672 19.5498C14.8832 19.5498 15.0904 19.4639 15.2432 19.3112C15.396 19.1584 15.4818 18.9512 15.4818 18.7352ZM18.7417 18.7352V13.0332C18.7417 12.8171 18.6559 12.61 18.5031 12.4572C18.3504 12.3044 18.1432 12.2186 17.9271 12.2186C17.7111 12.2186 17.5039 12.3044 17.3511 12.4572C17.1984 12.61 17.1126 12.8171 17.1126 13.0332V18.7352C17.1126 18.9512 17.1984 19.1584 17.3511 19.3112C17.5039 19.4639 17.7111 19.5498 17.9271 19.5498C18.1432 19.5498 18.3504 19.4639 18.5031 19.3112C18.6559 19.1584 18.7417 18.9512 18.7417 18.7352ZM16.298 0.0154789C16.8866 0.0828037 17.4308 0.36155 17.8294 0.799913L21.3654 4.68787C21.6294 4.97949 21.8184 5.32731 21.9185 5.70202H17.1126C17.0055 5.70234 16.8994 5.68149 16.8005 5.64067C16.7015 5.59985 16.6116 5.53986 16.5359 5.46415C16.4601 5.38845 16.4002 5.29852 16.3593 5.19955C16.3185 5.10057 16.2977 4.9945 16.298 4.88744V0.0154789ZM10.5292 8.55302C10.3339 9.80083 9.69938 10.9379 8.73997 11.7593C7.78057 12.5807 6.55935 13.0324 5.29636 13.0332C3.89216 13.0325 2.54563 12.4745 1.55256 11.4818C0.559485 10.489 0.00107917 9.14265 0 7.73845C0.000983402 6.47535 0.453067 5.25414 1.27478 4.29487C2.0965 3.3356 3.23382 2.70136 4.48178 2.50644V6.92388C4.48178 7.35595 4.65343 7.77033 4.95895 8.07586C5.26447 8.38138 5.67885 8.55302 6.11093 8.55302H10.5292ZM6.11093 2.50644C7.22039 2.67991 8.24613 3.20115 9.04031 3.99505C9.83449 4.78894 10.3561 5.81448 10.53 6.92388H6.11093V2.50644Z" fill="#333333"/>
</g>
</svg>
