<svg width="140" height="141" viewBox="0 0 140 141" fill="none" xmlns="http://www.w3.org/2000/svg">
<rect x="0.5" y="0.581055" width="139" height="139" rx="69.5" fill="#15355E" fill-opacity="0.2"/>
<rect x="0.5" y="0.581055" width="139" height="139" rx="69.5" stroke="#15355E"/>
<path d="M105.981 103.146L92.5907 89.7556V79.3997C92.6903 79.3333 92.785 79.2566 92.8727 79.1688L94.5824 77.459C94.9293 77.1123 95.1202 76.6496 95.1202 76.1562C95.1202 75.6628 94.9293 75.2 94.5823 74.853L92.5906 72.8621V44.1091C92.5906 43.963 92.5325 43.8231 92.4293 43.7198L79.9454 31.2357C79.8421 31.1325 79.7021 31.0745 79.5561 31.0745H38.924C38.778 31.0745 38.638 31.1325 38.5348 31.2357C38.4315 31.3389 38.3735 31.479 38.3735 31.625V36.638H33.5505C33.4045 36.638 33.2645 36.696 33.1612 36.7992C33.058 36.9025 33 37.0425 33 37.1885V106.213C33 106.359 33.058 106.499 33.1612 106.602C33.2645 106.706 33.4045 106.764 33.5505 106.764H61.3153V108.538C61.3153 108.684 61.3733 108.824 61.4765 108.927C61.5798 109.03 61.7198 109.088 61.8658 109.088H89.8193C89.9653 109.088 90.1054 109.03 90.2086 108.927C90.3118 108.824 90.3698 108.684 90.3698 108.538V105.901C90.3698 104.727 89.4148 103.772 88.2407 103.772H87.294V101.468C87.294 101.44 87.2908 101.413 87.2897 101.385H92.0401C92.1861 101.385 92.3261 101.327 92.4293 101.224C92.5326 101.121 92.5906 100.981 92.5906 100.835V99.6082L101.055 108.072C101.71 108.727 102.585 109.088 103.518 109.088C104.451 109.088 105.326 108.727 105.981 108.072C107.339 106.714 107.339 104.504 105.981 103.146H105.981Z" fill="#D3E1F5"/>
<path d="M68.2528 45.2101H49.7935C49.5015 45.2101 49.2215 45.0941 49.015 44.8876C48.8085 44.6811 48.6925 44.4011 48.6925 44.1091C48.6925 43.8171 48.8085 43.537 49.015 43.3305C49.2215 43.1241 49.5015 43.0081 49.7935 43.0081H68.2528C68.5448 43.0081 68.8249 43.1241 69.0313 43.3305C69.2378 43.537 69.3538 43.8171 69.3538 44.1091C69.3538 44.4011 69.2378 44.6811 69.0313 44.8876C68.8249 45.0941 68.5448 45.2101 68.2528 45.2101ZM81.1756 51.8862H49.7934C49.5014 51.8862 49.2213 51.7702 49.0149 51.5638C48.8084 51.3573 48.6924 51.0772 48.6924 50.7852C48.6924 50.4932 48.8084 50.2132 49.0149 50.0067C49.2213 49.8002 49.5014 49.6842 49.7934 49.6842H81.1755C81.4675 49.6842 81.7475 49.8002 81.954 50.0067C82.1605 50.2132 82.2765 50.4932 82.2765 50.7852C82.2765 51.0772 82.1605 51.3573 81.954 51.5638C81.7475 51.7702 81.4675 51.8862 81.1755 51.8862H81.1756ZM81.1756 58.5627H49.7934C49.5014 58.5627 49.2213 58.4467 49.0149 58.2402C48.8084 58.0338 48.6924 57.7537 48.6924 57.4617C48.6924 57.1697 48.8084 56.8897 49.0149 56.6832C49.2213 56.4767 49.5014 56.3607 49.7934 56.3607H81.1755C81.4675 56.3607 81.7475 56.4767 81.954 56.6832C82.1605 56.8897 82.2765 57.1697 82.2765 57.4617C82.2765 57.7537 82.1605 58.0338 81.954 58.2402C81.7475 58.4467 81.4675 58.5627 81.1755 58.5627H81.1756ZM74.6577 65.2389H49.7934C49.5014 65.2389 49.2213 65.1229 49.0149 64.9164C48.8084 64.7099 48.6924 64.4299 48.6924 64.1379C48.6924 63.8459 48.8084 63.5658 49.0149 63.3594C49.2213 63.1529 49.5014 63.0369 49.7934 63.0369H74.6577C74.9497 63.0369 75.2297 63.1529 75.4362 63.3594C75.6427 63.5658 75.7587 63.8459 75.7587 64.1379C75.7587 64.4299 75.6427 64.7099 75.4362 64.9164C75.2297 65.1229 74.9497 65.2389 74.6577 65.2389ZM67.746 71.9152H49.7934C49.5014 71.9152 49.2213 71.7992 49.0149 71.5927C48.8084 71.3863 48.6924 71.1062 48.6924 70.8142C48.6924 70.5222 48.8084 70.2422 49.0149 70.0357C49.2213 69.8292 49.5014 69.7132 49.7934 69.7132H67.746C68.038 69.7132 68.3181 69.8292 68.5246 70.0357C68.731 70.2422 68.847 70.5222 68.847 70.8142C68.847 71.1062 68.731 71.3863 68.5246 71.5927C68.3181 71.7992 68.038 71.9152 67.746 71.9152ZM49.7939 93.4505C49.6226 93.4506 49.4536 93.4107 49.3005 93.334C49.1473 93.2573 49.0142 93.146 48.9116 93.0088C48.8091 92.8716 48.7399 92.7124 48.7097 92.5438C48.6795 92.3752 48.689 92.2019 48.7375 92.0376C50.3006 86.7412 52.3263 85.4552 53.7504 85.3094C54.9151 85.1906 55.9818 85.8129 56.6039 86.9757C57.1615 88.0176 57.3507 89.5166 56.8235 91.0132H62.6849C62.9769 91.0132 63.2569 91.1292 63.4634 91.3357C63.6699 91.5422 63.7859 91.8222 63.7859 92.1142C63.7859 92.4062 63.6699 92.6863 63.4634 92.8928C63.2569 93.0992 62.9769 93.2152 62.6849 93.2152H54.9456C54.7368 93.2152 54.5322 93.1559 54.3559 93.044C54.1795 92.9321 54.0386 92.7724 53.9496 92.5835C53.8606 92.3946 53.8271 92.1842 53.8531 91.977C53.8792 91.7698 53.9636 91.5742 54.0966 91.4132C55.0906 90.2093 55.0867 88.8078 54.6623 88.0147C54.5515 87.8076 54.3152 87.4656 53.975 87.5001C53.3613 87.563 52.0124 88.7209 50.8496 92.6611C50.7823 92.889 50.6432 93.089 50.453 93.2313C50.2627 93.3737 50.0316 93.4507 49.794 93.4509L49.7939 93.4505Z" fill="#5A5A5A"/>
<path d="M80.1062 44.1091H92.5903C92.5903 43.963 92.5323 43.8231 92.4291 43.7198L79.9449 31.2357C79.8417 31.1325 79.7017 31.0745 79.5557 31.0745V43.5586C79.5557 43.7046 79.6137 43.8446 79.7169 43.9478C79.8201 44.0511 79.9602 44.1091 80.1062 44.1091Z" fill="#C0D6F2"/>
<path d="M95.1205 76.1562C95.1205 76.6496 94.9295 77.1123 94.5827 77.459L92.873 79.1688C92.5132 79.5287 92.0405 79.7086 91.5677 79.7086C91.0949 79.7086 90.6224 79.5287 90.2625 79.1688L79.3525 68.2588C78.6366 67.5364 78.6374 66.3682 79.3525 65.6531L81.0619 63.9437C81.2323 63.7713 81.4353 63.6346 81.6591 63.5416C81.8829 63.4486 82.123 63.4011 82.3654 63.402C82.8597 63.402 83.3231 63.595 83.6699 63.9449L94.5826 74.8532C94.7539 75.0241 94.8897 75.2272 94.9821 75.4509C95.0744 75.6746 95.1215 75.9142 95.1205 76.1562ZM66.1677 81.4391C65.8209 81.0923 65.3582 80.9012 64.8647 80.9012C64.3713 80.9012 63.9086 81.0923 63.5618 81.4391L61.8504 83.1505C61.1379 83.8692 61.1379 85.0389 61.8521 85.7594L72.7648 96.6677C73.1119 97.0178 73.5751 97.2107 74.0695 97.2107C74.5638 97.2107 75.0272 97.0177 75.3724 96.6694L77.0823 94.9596C77.8006 94.2413 77.8006 93.0722 77.0823 92.3538L66.1677 81.4393V81.4391ZM88.2409 103.772H63.4446C62.2706 103.772 61.3154 104.727 61.3154 105.901V108.538C61.3154 108.684 61.3734 108.824 61.4767 108.927C61.5799 109.03 61.7199 109.088 61.8659 109.088H89.8195C89.9655 109.088 90.1055 109.03 90.2087 108.927C90.312 108.824 90.37 108.684 90.37 108.538V105.901C90.37 104.727 89.4149 103.772 88.2408 103.772H88.2409Z" fill="#AE6C6C"/>
<path d="M87.2937 103.772V101.468C87.2937 100.222 86.2797 99.2078 85.0333 99.2078H66.6508C65.4045 99.2078 64.3906 100.222 64.3906 101.468V103.772H87.2935H87.2937Z" fill="#9B5E5E"/>
<path d="M88.2405 103.772H84.9375C86.1115 103.772 87.0667 104.727 87.0667 105.901V108.538C87.0667 108.684 87.0087 108.824 86.9054 108.927C86.8022 109.03 86.6622 109.088 86.5162 109.088H89.8192C89.9652 109.088 90.1052 109.03 90.2085 108.927C90.3117 108.824 90.3697 108.684 90.3697 108.538V105.901C90.3697 104.727 89.4147 103.772 88.2405 103.772Z" fill="#9E6161"/>
<path d="M85.0335 99.2079H81.7305C82.9768 99.2079 83.9908 100.222 83.9908 101.468V103.772H87.2938V101.468C87.2938 100.222 86.2798 99.2079 85.0335 99.2079Z" fill="#8C5454"/>
<path d="M61.816 78.5914H49.7934C49.5014 78.5914 49.2213 78.4754 49.0149 78.2689C48.8084 78.0625 48.6924 77.7824 48.6924 77.4904C48.6924 77.1984 48.8084 76.9184 49.0149 76.7119C49.2213 76.5054 49.5014 76.3894 49.7934 76.3894H61.816C62.108 76.3894 62.3881 76.5054 62.5946 76.7119C62.801 76.9184 62.917 77.1984 62.917 77.4904C62.917 77.7824 62.801 78.0625 62.5946 78.2689C62.3881 78.4754 62.108 78.5914 61.816 78.5914Z" fill="#5A5A5A"/>
<path d="M61.3153 105.901C61.3153 104.727 62.2703 103.772 63.4445 103.772H64.3912V101.468C64.3912 101.44 64.3943 101.413 64.3954 101.385V101.385H38.924C38.778 101.385 38.638 101.327 38.5348 101.224C38.4315 101.121 38.3735 100.981 38.3735 100.835V36.6381H33.5505C33.4045 36.6381 33.2645 36.6961 33.1612 36.7993C33.058 36.9025 33 37.0426 33 37.1886V106.213C33 106.359 33.058 106.499 33.1612 106.602C33.2645 106.706 33.4045 106.764 33.5505 106.764H61.3153V105.901Z" fill="#C0D6F2"/>
<path d="M89.3082 78.2145L80.3075 69.2136L79.5289 68.4352L66.3486 81.6197L76.9063 92.1774L90.0867 78.9929L89.3082 78.2145Z" fill="#9B5E5E"/>
<path d="M94.5825 74.853L92.7394 73.0107C93.0035 73.3378 93.147 73.7459 93.1457 74.1663C93.1457 74.6597 92.9547 75.1225 92.6079 75.4691L90.8982 77.179C90.5383 77.5389 90.0657 77.7188 89.5929 77.7188C89.1201 77.7188 88.6476 77.5389 88.2877 77.179L90.2624 79.1688C90.6223 79.5287 91.095 79.7086 91.5676 79.7086C92.0403 79.7086 92.5131 79.5287 92.8729 79.1688L94.5826 77.459C94.9294 77.1123 95.1204 76.6496 95.1204 76.1562C95.1204 75.6627 94.9294 75.2 94.5825 74.853ZM75.2382 90.5095C75.8226 91.2324 75.7792 92.298 75.1074 92.9696L73.3976 94.6794C73.2273 94.8517 73.0243 94.9883 72.8006 95.0812C72.5769 95.1742 72.3369 95.2216 72.0946 95.2207C71.852 95.2215 71.6116 95.1739 71.3876 95.0807C71.1635 94.9874 70.9604 94.8504 70.7899 94.6777C70.744 94.6313 70.7899 94.6777 70.7899 94.6777L72.7647 96.6675C73.1118 97.0177 73.575 97.2105 74.0694 97.2105C74.5637 97.2105 75.0271 97.0175 75.3723 96.6693L77.0822 94.9594C77.8005 94.2411 77.8005 93.072 77.0822 92.3536L75.2382 90.5095Z" fill="#9E6161"/>
<path d="M89.3078 78.2144L88.1822 77.0889L75.002 90.2734L76.9059 92.1773L90.0863 78.9928L89.3078 78.2144Z" fill="#8C5454"/>
<path d="M105.981 103.146L85.9578 83.1227L81.0322 88.0498L101.055 108.072C101.71 108.728 102.585 109.089 103.518 109.089C104.451 109.089 105.326 108.728 105.981 108.072C107.339 106.714 107.339 104.504 105.981 103.146V103.146Z" fill="#9B5E5E"/>
<path d="M103.326 100.491L98.3994 105.417L101.055 108.072C101.71 108.728 102.585 109.089 103.518 109.089C104.451 109.089 105.326 108.728 105.981 108.072C107.339 106.714 107.339 104.504 105.981 103.146L103.326 100.491Z" fill="#AE6C6C"/>
<path d="M105.981 108.072C107.34 106.714 107.34 104.504 105.981 103.146L103.326 100.491L100.892 102.925L105.981 108.072Z" fill="#9E6161"/>
<path d="M103.326 100.491L85.958 83.1227L83.6201 85.4614L100.892 102.925L103.326 100.491Z" fill="#8C5454"/>
</svg>
