<svg width="22" height="22" viewBox="0 0 22 22" fill="none" xmlns="http://www.w3.org/2000/svg">
<g id="Group">
<path id="Vector" d="M6.94592 3.81308C6.95436 3.68881 7.02499 3.58653 7.13817 3.53463L10.4687 2.00747C10.5737 1.9593 10.6865 1.96697 10.7841 2.02889C10.8817 2.0908 10.9366 2.18962 10.9377 2.30519L10.9724 5.96899C10.9736 6.09349 10.9111 6.20093 10.8022 6.26145C10.6934 6.32193 10.5691 6.31834 10.4639 6.25158L9.56059 5.67805C9.49468 6.00695 9.46156 6.34159 9.46173 6.67703C9.46173 9.46765 11.724 11.7299 14.5146 11.7299C17.3052 11.7299 19.5675 9.46765 19.5675 6.67703C19.5675 3.8864 17.3052 1.62413 14.5146 1.62413C13.4153 1.62413 12.398 1.97533 11.5687 2.57152L11.5661 2.29917C11.563 1.97061 11.3983 1.67424 11.1208 1.49815C10.9263 1.37468 10.701 1.32655 10.4808 1.35627C11.6014 0.505235 12.9989 0 14.5146 0C18.2022 0 21.1916 2.98939 21.1916 6.67698C21.1916 10.3646 18.2022 13.354 14.5146 13.354C10.827 13.354 7.83764 10.3645 7.83764 6.67698C7.83764 6.01115 7.93511 5.36803 8.11654 4.76124L7.09862 4.11493C6.99347 4.04821 6.93735 3.93727 6.94579 3.81304L6.94592 3.81308ZM13.7102 9.03187C13.9236 9.05998 14.1191 8.99358 14.2713 8.84137L17.7192 5.39344C17.9649 5.14781 17.9649 4.74584 17.7192 4.5002C17.4736 4.25456 17.0716 4.25456 16.826 4.5002L13.9248 7.40136L13.1156 5.99983C12.9422 5.69942 12.5533 5.59517 12.2528 5.76865C11.952 5.94236 11.848 6.3306 12.0217 6.63146L13.2175 8.70264C13.3251 8.88905 13.4968 9.00377 13.7102 9.03187ZM20.5408 13.7493C18.7427 14.7874 15.9017 16.8697 13.5195 16.9438C12.3001 16.9736 10.869 16.6729 10.2877 16.3704C10.0368 16.24 9.99498 15.9954 10.0872 15.8181C10.1794 15.6407 10.4288 15.5691 10.6061 15.6613C11.1092 15.9231 12.3814 16.1825 13.4871 16.1555C13.9104 16.1451 14.3 16.0955 14.5891 15.9903C15.4491 15.6774 15.1957 14.4461 14.1621 14.4852C8.08422 14.4852 7.74124 9.81552 2.64008 15.8415C2.6435 15.8449 2.647 15.8481 2.65041 15.8515L6.15285 19.3539C6.16694 19.368 6.18059 19.3824 6.19402 19.3969C7.30367 18.8748 8.53405 18.8644 9.85166 18.9432C10.8653 19.0038 12.0751 19.1502 13.1849 19.1257C14.7357 19.0914 15.686 18.6705 17.0478 17.9491C18.5981 17.1279 21.2927 15.4922 21.7627 14.8743C22.4355 13.9899 21.5669 13.157 20.5408 13.7493H20.5408ZM2.10733 16.3947C1.81814 16.1055 1.34491 16.1055 1.05568 16.3947L0 17.4503L4.55403 22.0044L5.60967 20.9487C5.89886 20.6595 5.89886 20.1862 5.60967 19.8971L2.10724 16.3947H2.10733Z" fill="#333333"/>
</g>
</svg>
