<svg width="22" height="22" viewBox="0 0 22 22" fill="none" xmlns="http://www.w3.org/2000/svg">
<g id="Group">
<path id="Vector" d="M20.7107 18.251V16.1558C20.7107 15.7996 20.4224 15.5113 20.0662 15.5113H11.6444V14.1896C11.9131 14.1655 12.1802 14.1299 12.4425 14.0755C12.5732 14.0485 12.6922 13.9817 12.7833 13.8842C12.8744 13.7867 12.933 13.6634 12.9511 13.5312C13.0298 12.9546 13.3802 12.4385 13.9167 12.1344C14.4257 11.8417 15.0263 11.8016 15.5658 12.0206C15.8174 12.1238 16.1076 12.0564 16.2895 11.8531C16.9429 11.1211 17.4294 10.2796 17.7353 9.35253C17.7768 9.22641 17.7784 9.09057 17.7398 8.96352C17.7013 8.83647 17.6245 8.7244 17.52 8.64257C17.0599 8.28318 16.7981 7.74058 16.8006 7.1098C16.7981 6.52384 17.0599 5.98137 17.5195 5.62254C17.6242 5.54083 17.7011 5.42877 17.7397 5.30169C17.7784 5.17461 17.7768 5.0387 17.7353 4.91253C17.4294 3.98553 16.9429 3.14396 16.2895 2.41199C16.1076 2.20875 15.8175 2.14125 15.5658 2.24446C15.0257 2.4642 14.4246 2.42205 13.889 2.11491C13.3802 1.82655 13.0298 1.26745 12.9511 0.690941C12.933 0.558727 12.8744 0.435364 12.7833 0.337841C12.6923 0.240319 12.5732 0.173436 12.4425 0.146404C11.4997 -0.0488012 10.5 -0.0488012 9.55726 0.146404C9.4266 0.173433 9.30752 0.24031 9.21644 0.337824C9.12536 0.435338 9.06675 0.558692 9.04869 0.690898C8.96997 1.26745 8.61952 1.82655 8.08307 2.13051C7.57402 2.42188 6.97276 2.46282 6.43399 2.24446C6.18241 2.14125 5.89216 2.20854 5.71027 2.41182C5.05681 3.14379 4.57041 3.98536 4.26443 4.91258C4.22299 5.0387 4.22143 5.17453 4.25997 5.30157C4.29851 5.42862 4.37526 5.54069 4.47979 5.62254C4.93985 5.98188 5.20165 6.52436 5.19916 7.15513C5.2017 7.74105 4.93985 8.2837 4.4803 8.64239C4.37561 8.72411 4.29869 8.83616 4.26005 8.96323C4.22142 9.09029 4.22295 9.22619 4.26443 9.35236C4.57041 10.2795 5.05681 11.1209 5.71027 11.8531C5.8922 12.0564 6.18223 12.1236 6.43399 12.0204C6.97345 11.8014 7.57449 11.8435 8.11078 12.1502C8.61935 12.4384 8.96997 12.9545 9.04869 13.531C9.06675 13.6632 9.12536 13.7866 9.21644 13.8841C9.30752 13.9816 9.4266 14.0485 9.55726 14.0755C9.81959 14.1297 10.0866 14.1655 10.3554 14.1896V15.5113H1.93357C1.57737 15.5113 1.28905 15.7995 1.28905 16.1558V18.251C0.540455 18.5178 0 19.2267 0 20.0659C0 21.1321 0.867401 21.9995 1.93357 21.9995C2.99975 21.9995 3.86715 21.1321 3.86715 20.0659C3.86715 19.2267 3.32669 18.5179 2.5781 18.251V16.8003H6.48821V18.251C5.73962 18.5178 5.19916 19.2267 5.19916 20.0659C5.19916 21.1321 6.06656 21.9995 7.13274 21.9995C8.19891 21.9995 9.06631 21.1321 9.06631 20.0659C9.06631 19.2267 8.52585 18.5179 7.77726 18.251V16.8003H14.2225V18.251C13.4739 18.5178 12.9335 19.2267 12.9335 20.0659C12.9335 21.1321 13.8009 21.9995 14.867 21.9995C15.9332 21.9995 16.8006 21.1321 16.8006 20.0659C16.8006 19.2267 16.2601 18.5179 15.5116 18.251V16.8003H19.4217V18.251C18.6731 18.5178 18.1326 19.2267 18.1326 20.0659C18.1326 21.1321 19.0001 21.9995 20.0662 21.9995C21.1323 21.9995 21.9998 21.1321 21.9998 20.0659C21.9998 19.2267 21.4593 18.5181 20.7107 18.251ZM7.77726 7.13245C7.77726 5.35566 9.22306 3.90982 10.9999 3.90982C12.7767 3.90982 14.2225 5.35566 14.2225 7.13245C14.2225 8.90944 12.7767 10.3551 10.9999 10.3551C9.22306 10.3551 7.77726 8.90944 7.77726 7.13245Z" fill="#333333"/>
</g>
</svg>
