<svg width="46" height="42" viewBox="0 0 46 42" fill="none" xmlns="http://www.w3.org/2000/svg">
<path d="M8.94078 1.38574V3.96875H6.1693V1.38574C6.1693 1.01822 6.3153 0.665749 6.57518 0.405873C6.83505 0.145997 7.18752 0 7.55504 0C7.92256 0 8.27503 0.145997 8.5349 0.405873C8.79478 0.665749 8.94078 1.01822 8.94078 1.38574ZM19.7551 0.0110856C19.3875 0.0110856 19.0351 0.157083 18.7752 0.416959C18.5153 0.676835 18.3693 1.0293 18.3693 1.39682V3.97984H21.1408V1.38574C21.1379 1.02014 20.9906 0.670515 20.731 0.413032C20.4715 0.155548 20.1207 0.0110739 19.7551 0.0110856ZM31.9496 0.0110856C31.582 0.0110856 31.2296 0.157083 30.9697 0.416959C30.7098 0.676835 30.5638 1.0293 30.5638 1.39682V3.97984H33.3353V1.38574C33.3346 1.20449 33.2981 1.02515 33.2281 0.857979C33.1581 0.690804 33.0558 0.539061 32.9271 0.411412C32.7984 0.283764 32.6459 0.182711 32.4782 0.114023C32.3104 0.0453344 32.1308 0.0103562 31.9496 0.0110856ZM45.8956 30.259C45.8956 32.392 45.2629 34.477 44.0775 36.2503C42.8922 38.0236 41.2074 39.4054 39.2365 40.2209C37.2655 41.0364 35.097 41.2489 33.0052 40.8316C30.9134 40.4143 28.9924 39.3858 27.4854 37.8764C25.9783 36.367 24.9528 34.4444 24.5387 32.352C24.1246 30.2596 24.3404 28.0914 25.159 26.1217C25.9775 24.152 27.3619 22.4694 29.1371 21.2868C30.9122 20.1041 32.9982 19.4746 35.1312 19.4779C37.9867 19.4853 40.723 20.624 42.7406 22.6447C44.7582 24.6654 45.8927 27.4034 45.8956 30.259ZM39.3106 26.2847C39.1663 26.1739 39.0015 26.0927 38.8258 26.0458C38.65 25.999 38.4667 25.9873 38.2864 26.0115C38.1061 26.0357 37.9324 26.0953 37.7752 26.1869C37.618 26.2785 37.4805 26.4003 37.3706 26.5452L34.9039 29.7767L33.9894 28.524C33.893 28.3534 33.7616 28.2052 33.6037 28.0891C33.4458 27.973 33.2651 27.8917 33.0736 27.8506C32.882 27.8095 32.6839 27.8095 32.4923 27.8506C32.3007 27.8916 32.12 27.9729 31.9621 28.0889C31.8042 28.205 31.6727 28.3532 31.5763 28.5238C31.4799 28.6944 31.4208 28.8835 31.4029 29.0786C31.3849 29.2737 31.4086 29.4704 31.4722 29.6557C31.5359 29.841 31.6381 30.0107 31.7722 30.1536L33.7787 32.9251C33.9075 33.0975 34.0748 33.2375 34.2673 33.3337C34.4598 33.4299 34.6721 33.4798 34.8873 33.4794C35.1024 33.479 35.3144 33.4287 35.5067 33.3325C35.6991 33.2364 35.8665 33.0969 35.9959 32.9251L39.5656 28.2302C39.6768 28.0858 39.7584 27.9209 39.8058 27.7449C39.8532 27.5689 39.8654 27.3853 39.8417 27.2045C39.8181 27.0238 39.7589 26.8495 39.6678 26.6917C39.5767 26.5338 39.4553 26.3955 39.3106 26.2847ZM41.0455 9.17358V18.0756C38.5611 16.8681 35.767 16.4486 33.0375 16.8734C30.308 17.2982 27.7735 18.5469 25.7734 20.4522C23.7734 22.3576 22.4033 24.8287 21.8468 27.5344C21.2903 30.2401 21.5739 33.0512 22.6596 35.5913H5.19929C3.8208 35.5898 2.49919 35.0416 1.52446 34.0668C0.549719 33.0921 0.00146726 31.7705 0 30.392V9.17358C0.0014639 7.79458 0.549538 6.4724 1.52412 5.49679C2.4987 4.52117 3.82029 3.97168 5.19929 3.96875H6.19147V9.55604C6.19147 9.92356 6.33747 10.276 6.59735 10.5359C6.85722 10.7958 7.20969 10.9418 7.57721 10.9418C7.94473 10.9418 8.2972 10.7958 8.55708 10.5359C8.81695 10.276 8.96295 9.92356 8.96295 9.55604V3.96875H18.386V9.55604C18.386 9.92356 18.532 10.276 18.7918 10.5359C19.0517 10.7958 19.4042 10.9418 19.7717 10.9418C20.1392 10.9418 20.4917 10.7958 20.7516 10.5359C21.0114 10.276 21.1574 9.92356 21.1574 9.55604V3.96875H30.5804V9.55604C30.5804 9.73802 30.6163 9.91822 30.6859 10.0863C30.7556 10.2545 30.8576 10.4072 30.9863 10.5359C31.115 10.6646 31.2678 10.7667 31.4359 10.8363C31.604 10.9059 31.7842 10.9418 31.9662 10.9418C32.1482 10.9418 32.3284 10.9059 32.4965 10.8363C32.6646 10.7667 32.8174 10.6646 32.9461 10.5359C33.0747 10.4072 33.1768 10.2545 33.2464 10.0863C33.3161 9.91822 33.3519 9.73802 33.3519 9.55604V3.96875H35.8573C37.2344 3.97461 38.5532 4.52538 39.5253 5.50069C40.4975 6.47599 41.0441 7.7965 41.0455 9.17358ZM12.5326 26.2902C12.5326 25.9227 12.3866 25.5702 12.1267 25.3103C11.8669 25.0505 11.5144 24.9045 11.1469 24.9045H9.41193C9.04441 24.9045 8.69194 25.0505 8.43206 25.3103C8.17219 25.5702 8.02619 25.9227 8.02619 26.2902C8.02619 26.6577 8.17219 27.0102 8.43206 27.2701C8.69194 27.5299 9.04441 27.6759 9.41193 27.6759H11.1469C11.5144 27.6759 11.8669 27.5299 12.1267 27.2701C12.3866 27.0102 12.5326 26.6577 12.5326 26.2902ZM12.5326 16.8672C12.5326 16.4997 12.3866 16.1472 12.1267 15.8873C11.8669 15.6275 11.5144 15.4815 11.1469 15.4815H9.41193C9.04441 15.4815 8.69194 15.6275 8.43206 15.8873C8.17219 16.1472 8.02619 16.4997 8.02619 16.8672C8.02619 17.2347 8.17219 17.5872 8.43206 17.8471C8.69194 18.1069 9.04441 18.2529 9.41193 18.2529H11.1469C11.5144 18.2529 11.8669 18.1069 12.1267 17.8471C12.3866 17.5872 12.5326 17.2347 12.5326 16.8672ZM20.7916 26.2902C20.7916 25.9227 20.6456 25.5702 20.3857 25.3103C20.1259 25.0505 19.7734 24.9045 19.4059 24.9045H17.6709C17.3034 24.9045 16.9509 25.0505 16.6911 25.3103C16.4312 25.5702 16.2852 25.9227 16.2852 26.2902C16.2852 26.6577 16.4312 27.0102 16.6911 27.2701C16.9509 27.5299 17.3034 27.6759 17.6709 27.6759H19.4059C19.7734 27.6759 20.1259 27.5299 20.3857 27.2701C20.6456 27.0102 20.7916 26.6577 20.7916 26.2902ZM20.7916 16.8672C20.7916 16.4997 20.6456 16.1472 20.3857 15.8873C20.1259 15.6275 19.7734 15.4815 19.4059 15.4815H17.6709C17.3034 15.4815 16.9509 15.6275 16.6911 15.8873C16.4312 16.1472 16.2852 16.4997 16.2852 16.8672C16.2852 17.2347 16.4312 17.5872 16.6911 17.8471C16.9509 18.1069 17.3034 18.2529 17.6709 18.2529H19.4059C19.7734 18.2529 20.1259 18.1069 20.3857 17.8471C20.6456 17.5872 20.7916 17.2347 20.7916 16.8672Z" fill="#71E8D2"/>
</svg>
