<svg width="55" height="34" viewBox="0 0 55 34" fill="none" xmlns="http://www.w3.org/2000/svg">
<path d="M27.4878 15.0686C31.6488 15.0686 35.0221 11.6954 35.0221 7.53428C35.0221 3.37321 31.6488 0 27.4878 0C23.3267 0 19.9535 3.37321 19.9535 7.53428C19.9535 11.6954 23.3267 15.0686 27.4878 15.0686Z" fill="#FD8DFF"/>
<path d="M34.6023 18.1904H28.7592L30.4469 30.1329L27.4881 32.6043L24.5293 30.1347L26.2169 18.1922H20.3775C17.5824 18.1922 15.3201 20.4582 15.3201 23.2497V33.9991H39.6579V23.2497C39.656 20.4564 37.3938 18.1904 34.6023 18.1904Z" fill="#FD8DFF"/>
<path d="M44.4263 17.3638C48.034 17.3638 50.9586 14.4392 50.9586 10.8316C50.9586 7.22391 48.034 4.29932 44.4263 4.29932C40.8186 4.29932 37.894 7.22391 37.894 10.8316C37.894 14.4392 40.8186 17.3638 44.4263 17.3638Z" fill="#FD8DFF"/>
<path d="M50.5931 20.0703H40.7801C41.2729 21.0251 41.5585 22.1035 41.5585 23.2492V33.9986H54.9776V24.4567C54.9758 22.0362 53.0117 20.0703 50.5931 20.0703Z" fill="#FD8DFF"/>
<path d="M10.5501 17.3636C14.1567 17.3636 17.0805 14.4398 17.0805 10.8332C17.0805 7.22651 14.1567 4.30273 10.5501 4.30273C6.94342 4.30273 4.01965 7.22651 4.01965 10.8332C4.01965 14.4398 6.94342 17.3636 10.5501 17.3636Z" fill="#FD8DFF"/>
<path d="M0 24.4581V34.0001H13.4228V23.2506C13.4228 22.1049 13.7028 21.0265 14.1975 20.0718H4.38272C1.96404 20.07 0 22.0358 0 24.4581Z" fill="#FD8DFF"/>
</svg>
