<svg width="22" height="22" viewBox="0 0 22 22" fill="none" xmlns="http://www.w3.org/2000/svg">
<g id="Group">
<path id="Vector" d="M11.3794 11.4328V14.3496C11.6416 14.2874 11.8825 14.1565 12.0774 13.9703C12.219 13.8294 12.3314 13.6618 12.4081 13.4772C12.4848 13.2927 12.5242 13.0948 12.5242 12.895C12.5242 12.6952 12.4848 12.4973 12.4081 12.3127C12.3314 12.1282 12.219 11.9606 12.0774 11.8196C11.8822 11.6323 11.6417 11.499 11.3794 11.4328ZM9.48288 9.10379C9.48222 9.30373 9.52109 9.50183 9.59725 9.6867C9.67341 9.87157 9.78536 10.0396 9.92667 10.181C10.1216 10.365 10.3607 10.4957 10.6208 10.5603V7.63965C10.3594 7.70386 10.119 7.83452 9.92288 8.01896C9.78135 8.16163 9.66957 8.331 9.59403 8.51723C9.5185 8.70346 9.48072 8.90283 9.48288 9.10379Z" fill="#333333"/>
<path id="Vector_2" d="M11 4.55176C9.72463 4.55176 8.47792 4.92994 7.41751 5.63849C6.35709 6.34703 5.5306 7.35412 5.04255 8.53239C4.55449 9.71065 4.42679 11.0072 4.6756 12.258C4.92441 13.5089 5.53855 14.6578 6.44036 15.5597C7.34216 16.4615 8.49114 17.0756 9.74198 17.3244C10.9928 17.5732 12.2894 17.4455 13.4676 16.9575C14.6459 16.4694 15.653 15.6429 16.3615 14.5825C17.0701 13.5221 17.4483 12.2754 17.4483 11C17.4483 9.28984 16.7689 7.6497 15.5596 6.44041C14.3503 5.23113 12.7102 4.55176 11 4.55176ZM12.612 14.5049C12.278 14.8405 11.8466 15.0622 11.3793 15.1383V15.5518C11.3793 15.6524 11.3393 15.7488 11.2682 15.82C11.1971 15.8911 11.1006 15.9311 11 15.9311C10.8994 15.9311 10.8029 15.8911 10.7318 15.82C10.6606 15.7488 10.6207 15.6524 10.6207 15.5518V15.1383C10.2484 15.0759 9.89744 14.9219 9.59947 14.6902C9.30151 14.4584 9.06586 14.1562 8.91377 13.8107C8.87961 13.7204 8.88117 13.6205 8.91814 13.5313C8.95511 13.4421 9.0247 13.3704 9.11273 13.3307C9.20076 13.291 9.3006 13.2864 9.39191 13.3178C9.48321 13.3492 9.5591 13.4143 9.60411 13.4997C9.68152 13.6751 9.79085 13.8346 9.92653 13.97C10.1191 14.1573 10.3591 14.2884 10.6207 14.3493V11.3452C10.0932 11.2528 9.61521 10.9774 9.27078 10.5673C8.92634 10.1573 8.73751 9.63898 8.73751 9.10348C8.73751 8.56799 8.92634 8.04964 9.27078 7.63962C9.61521 7.2296 10.0932 6.95416 10.6207 6.86176V6.44831C10.6207 6.34771 10.6606 6.25123 10.7318 6.1801C10.8029 6.10896 10.8994 6.069 11 6.069C11.1006 6.069 11.1971 6.10896 11.2682 6.1801C11.3393 6.25123 11.3793 6.34771 11.3793 6.44831V6.86176C11.7516 6.92413 12.1025 7.07813 12.4005 7.30988C12.6984 7.54163 12.9341 7.84386 13.0862 8.18934C13.1103 8.23515 13.1248 8.28542 13.1288 8.33705C13.1328 8.38868 13.1261 8.44057 13.1093 8.48954C13.0925 8.53851 13.0658 8.58351 13.0309 8.62177C12.996 8.66003 12.9536 8.69074 12.9064 8.71201C12.8592 8.73328 12.8082 8.74466 12.7564 8.74545C12.7046 8.74623 12.6532 8.73641 12.6054 8.71658C12.5575 8.69676 12.5143 8.66735 12.4782 8.63016C12.4422 8.59298 12.4142 8.54881 12.3958 8.50038C12.3031 8.28898 12.1633 8.10153 11.9871 7.95232C11.811 7.80311 11.6031 7.69607 11.3793 7.63934V10.6738C11.7907 10.7435 12.1751 10.9249 12.4904 11.1982C12.8057 11.4716 13.0398 11.8264 13.167 12.2238C13.2943 12.6212 13.3098 13.0459 13.2119 13.4516C13.114 13.8572 12.9065 14.2282 12.612 14.5238V14.5049Z" fill="#333333"/>
<path id="Vector_3" d="M19.4283 7.51034C19.2042 6.98702 19.1268 6.4126 19.2043 5.84864C19.2818 5.28468 19.5114 4.75244 19.8683 4.30897L17.6872 2.13172C17.2415 2.48273 16.7102 2.70866 16.1482 2.78625C15.5861 2.86385 15.0136 2.79031 14.4894 2.57321C13.9651 2.35612 13.5082 2.00329 13.1656 1.55103C12.823 1.09877 12.6071 0.563404 12.54 0H9.46C9.39293 0.563404 9.17698 1.09877 8.83437 1.55103C8.49176 2.00329 8.03485 2.35612 7.51065 2.57321C6.98644 2.79031 6.41387 2.86385 5.85182 2.78625C5.28977 2.70866 4.75853 2.48273 4.31276 2.13172L2.13552 4.30897C2.48514 4.75573 2.70976 5.28736 2.78639 5.84946C2.86303 6.41156 2.78893 6.98393 2.57167 7.50797C2.35441 8.03202 2.0018 8.48892 1.54993 8.83191C1.09806 9.1749 0.563167 9.39166 0 9.46V12.54C0.563167 12.6083 1.09806 12.8251 1.54993 13.1681C2.0018 13.5111 2.35441 13.968 2.57167 14.492C2.78893 15.0161 2.86303 15.5884 2.78639 16.1505C2.70976 16.7126 2.48514 17.2443 2.13552 17.691L4.31276 19.8683C4.75853 19.5173 5.28977 19.2913 5.85182 19.2137C6.41387 19.1362 6.98644 19.2097 7.51065 19.4268C8.03485 19.6439 8.49176 19.9967 8.83437 20.449C9.17698 20.9012 9.39293 21.4366 9.46 22H12.54C12.6071 21.4366 12.823 20.9012 13.1656 20.449C13.5082 19.9967 13.9651 19.6439 14.4894 19.4268C15.0136 19.2097 15.5861 19.1362 16.1482 19.2137C16.7102 19.2913 17.2415 19.5173 17.6872 19.8683L19.8683 17.691C19.5175 17.2449 19.2918 16.7134 19.2143 16.1512C19.1368 15.589 19.2104 15.0163 19.4274 14.492C19.6444 13.9676 19.9971 13.5104 20.4492 13.1674C20.9013 12.8243 21.4365 12.6078 22 12.54V9.46C21.4348 9.39892 20.8968 9.18521 20.4438 8.84176C19.9908 8.49831 19.6397 8.03806 19.4283 7.51034ZM11 18.2069C9.57461 18.2069 8.18123 17.7842 6.99606 16.9923C5.81089 16.2004 4.88717 15.0748 4.3417 13.758C3.79622 12.4411 3.6535 10.992 3.93158 9.594C4.20966 8.196 4.89605 6.91186 5.90395 5.90395C6.91186 4.89605 8.196 4.20966 9.594 3.93158C10.992 3.6535 12.4411 3.79622 13.758 4.3417C15.0748 4.88717 16.2004 5.81089 16.9923 6.99606C17.7842 8.18123 18.2069 9.57461 18.2069 11C18.2069 12.9114 17.4476 14.7445 16.096 16.096C14.7445 17.4476 12.9114 18.2069 11 18.2069Z" fill="#333333"/>
</g>
</svg>
