<svg width="65" height="65" viewBox="0 0 65 65" fill="none" xmlns="http://www.w3.org/2000/svg">
<rect width="65" height="65" fill="black"/>
<g id="46" clip-path="url(#clip0_5_1682)">
<rect width="1920" height="1848" transform="translate(-740 -1418)" fill="white"/>
<g id="Group 1171275992">
<g id="Group 1171275965">
<g id="Rectangle 19957" filter="url(#filter0_d_5_1682)">
<rect x="-273" y="-1158" width="1393" height="1529" rx="20" fill="#DCDCDC" fill-opacity="0.1" shape-rendering="crispEdges"/>
</g>
</g>
</g>
<g id="Group 1171276003">
<g id="Group 1171275965_2">
<g id="Rectangle 19957_2" filter="url(#filter1_d_5_1682)">
<rect x="-243" y="-464" width="1333" height="655" rx="20" fill="#39AE94" fill-opacity="0.05" shape-rendering="crispEdges"/>
</g>
</g>
</g>
<g id="Group 1171276071">
<g id="Group 1171276030">
<g id="Group 1171276001">
<g id="Group 1171275995">
<rect id="Rectangle 198" x="-212.5" y="-39.5" width="489" height="170" rx="9.5" fill="white" stroke="#DBDBDB"/>
</g>
</g>
<g id="Group 1171276005">
<g id="Group 1171276002">
<path id="Vector" d="M41.2234 64.4583H23.235C6.95551 64.4583 0 57.5028 0 41.2234V23.235C0 6.95551 6.95551 0 23.235 0H41.2234C57.5028 0 64.4583 6.95551 64.4583 23.235V41.2234C64.4583 57.5028 57.5028 64.4583 41.2234 64.4583ZM23.235 4.49709C9.41391 4.49709 4.49709 9.41391 4.49709 23.235V41.2234C4.49709 55.0444 9.41391 59.9612 23.235 59.9612H41.2234C55.0444 59.9612 59.9612 55.0444 59.9612 41.2234V23.235C59.9612 9.41391 55.0444 4.49709 41.2234 4.49709H23.235Z" fill="#39AE94"/>
<path id="Vector_2" d="M41.2231 27.0131C40.6534 27.0131 40.0838 26.8032 39.6341 26.3535L32.2289 18.9483L24.8237 26.3535C23.9542 27.2229 22.5152 27.2229 21.6457 26.3535C20.7763 25.4841 20.7763 24.045 21.6457 23.1756L30.6399 14.1814C31.5094 13.3119 32.9484 13.3119 33.8179 14.1814L42.812 23.1756C43.6815 24.045 43.6815 25.4841 42.812 26.3535C42.3623 26.8032 41.7927 27.0131 41.2231 27.0131Z" fill="#39AE94"/>
<path id="Vector_3" d="M32.2291 42.0011C30.9999 42.0011 29.9806 40.9818 29.9806 39.7526V15.7681C29.9806 14.5389 30.9999 13.5195 32.2291 13.5195C33.4583 13.5195 34.4777 14.5389 34.4777 15.7681V39.7526C34.4777 41.0118 33.4583 42.0011 32.2291 42.0011Z" fill="#39AE94"/>
<path id="Vector_4" d="M32.229 50.9083C25.9031 50.9083 19.5471 49.889 13.521 47.8803C12.3518 47.4906 11.7222 46.2014 12.1119 45.0322C12.5017 43.8629 13.7909 43.2033 14.9601 43.6231C26.1129 47.3407 38.375 47.3407 49.5278 43.6231C50.697 43.2333 51.9862 43.8629 52.3759 45.0322C52.7657 46.2014 52.1361 47.4906 50.9669 47.8803C44.9108 49.919 38.5549 50.9083 32.229 50.9083Z" fill="#39AE94"/>
</g>
</g>
</g>
</g>
</g>
<defs>
<filter id="filter0_d_5_1682" x="-303" y="-1184" width="1453" height="1589" filterUnits="userSpaceOnUse" color-interpolation-filters="sRGB">
<feFlood flood-opacity="0" result="BackgroundImageFix"/>
<feColorMatrix in="SourceAlpha" type="matrix" values="0 0 0 0 0 0 0 0 0 0 0 0 0 0 0 0 0 0 127 0" result="hardAlpha"/>
<feOffset dy="4"/>
<feGaussianBlur stdDeviation="15"/>
<feComposite in2="hardAlpha" operator="out"/>
<feColorMatrix type="matrix" values="0 0 0 0 0 0 0 0 0 0 0 0 0 0 0 0 0 0 0.1 0"/>
<feBlend mode="normal" in2="BackgroundImageFix" result="effect1_dropShadow_5_1682"/>
<feBlend mode="normal" in="SourceGraphic" in2="effect1_dropShadow_5_1682" result="shape"/>
</filter>
<filter id="filter1_d_5_1682" x="-273" y="-490" width="1393" height="715" filterUnits="userSpaceOnUse" color-interpolation-filters="sRGB">
<feFlood flood-opacity="0" result="BackgroundImageFix"/>
<feColorMatrix in="SourceAlpha" type="matrix" values="0 0 0 0 0 0 0 0 0 0 0 0 0 0 0 0 0 0 127 0" result="hardAlpha"/>
<feOffset dy="4"/>
<feGaussianBlur stdDeviation="15"/>
<feComposite in2="hardAlpha" operator="out"/>
<feColorMatrix type="matrix" values="0 0 0 0 0 0 0 0 0 0 0 0 0 0 0 0 0 0 0.1 0"/>
<feBlend mode="normal" in2="BackgroundImageFix" result="effect1_dropShadow_5_1682"/>
<feBlend mode="normal" in="SourceGraphic" in2="effect1_dropShadow_5_1682" result="shape"/>
</filter>
<clipPath id="clip0_5_1682">
<rect width="1920" height="1848" fill="white" transform="translate(-740 -1418)"/>
</clipPath>
</defs>
</svg>
