<svg width="25" height="17" viewBox="0 0 25 17" fill="none" xmlns="http://www.w3.org/2000/svg">
<g id="Group 1171275967">
<path id="Vector" d="M7.56954 9.14844C7.21067 8.4292 7.02096 7.63125 7.02096 6.80396C7.02096 5.39922 7.56809 4.07847 8.56141 3.08511C8.95638 2.69019 9.40333 2.36591 9.88656 2.11855C9.7026 1.74542 9.45857 1.40505 9.16422 1.11107C8.44764 0.394591 7.49515 0 6.48186 0C5.46876 0 4.51603 0.394591 3.79974 1.11107C3.0833 1.82755 2.68871 2.78014 2.68871 3.79338C2.68871 4.80649 3.0833 5.75917 3.79978 6.47551C3.84735 6.52307 3.8962 6.56933 3.94627 6.61426C3.65036 6.7336 3.36338 6.87397 3.08752 7.0343C2.09214 7.61386 1.25556 8.44406 0.667989 9.43499C0.158367 10.2947 0.150679 11.3287 0.647645 12.2008C1.14953 13.0819 2.05351 13.608 3.06554 13.608H4.61732C4.65506 12.9486 4.85076 12.296 5.20527 11.698C5.80274 10.6902 6.61245 9.81899 7.56954 9.14844ZM23.8925 9.43499C23.3052 8.44406 22.4684 7.61405 21.473 7.0343C21.1972 6.87399 20.9103 6.73363 20.6144 6.6143C20.6645 6.56937 20.7134 6.52309 20.7609 6.47551C22.2398 4.99656 22.2398 2.59002 20.7609 1.11107C19.2818 -0.367826 16.8755 -0.367826 15.3963 1.11107C15.1023 1.40516 14.8588 1.74581 14.6758 2.11925C15.1583 2.36661 15.6047 2.69051 15.9993 3.08511C16.9926 4.07847 17.5396 5.39922 17.5396 6.80396C17.5396 7.63125 17.3499 8.4292 16.9912 9.14844C17.9483 9.81899 18.7579 10.6902 19.3554 11.6981C19.7097 12.296 19.9055 12.9486 19.9432 13.608H21.495C22.5072 13.608 23.411 13.0819 23.9131 12.2008C24.4098 11.3287 24.4022 10.2949 23.8925 9.43499Z" fill="#333333"/>
<path id="Vector_2" d="M15.6753 10.0459C15.3994 9.88568 15.1124 9.74538 14.8165 9.62602C14.8666 9.58104 14.9154 9.53476 14.963 9.48723C15.6795 8.77075 16.0741 7.81825 16.0741 6.80491C16.0741 5.79181 15.6795 4.83913 14.963 4.12284C14.2467 3.40631 13.294 3.01172 12.2808 3.01172C11.2676 3.01172 10.3149 3.40631 9.59858 4.12284C8.8821 4.83932 8.4875 5.79181 8.4875 6.80491C8.4875 7.81825 8.8821 8.77093 9.59858 9.48723C9.64614 9.53479 9.69499 9.58105 9.74506 9.62598C9.44915 9.74533 9.16217 9.88572 8.88631 10.0461C7.89098 10.6256 7.05436 11.4558 6.46678 12.4468C5.95721 13.3064 5.94952 14.3404 6.44644 15.2125C6.94833 16.0936 7.8523 16.6197 8.86433 16.6197H15.6973C16.7093 16.6197 17.613 16.0937 18.1151 15.2125C18.6119 14.3404 18.6042 13.3064 18.0946 12.4468C17.5053 11.4539 16.6726 10.6276 15.6753 10.0459Z" fill="#333333"/>
</g>
</svg>
