<svg width="140" height="140" viewBox="0 0 140 140" fill="none" xmlns="http://www.w3.org/2000/svg">
<rect x="0.5" y="0.5" width="139" height="139" rx="69.5" fill="#15355E" fill-opacity="0.2"/>
<rect x="0.5" y="0.5" width="139" height="139" rx="69.5" stroke="#15355E"/>
<path fill-rule="evenodd" clip-rule="evenodd" d="M104.391 64.0824V102.67C104.391 106.713 101.083 110.02 97.0405 110.02H45.4673C41.4245 110.02 38.1172 106.713 38.1172 102.67V64.0824H104.391Z" fill="#D0D7DF"/>
<path fill-rule="evenodd" clip-rule="evenodd" d="M35.3557 54.5512L38.1166 64.0824L101.773 45.6418L99.012 36.1104C97.887 32.2275 93.7902 29.9711 89.9073 31.0962L40.37 45.4462C36.4871 46.5713 34.2311 50.668 35.3556 54.5509L35.3557 54.5512ZM38.1164 64.0824H104.39V79.15H38.1164V64.0824Z" fill="#49AAEE"/>
<path fill-rule="evenodd" clip-rule="evenodd" d="M80.7759 94.4214L73.7037 90.3384L66.6309 86.255V102.588L73.7037 98.5044L80.7759 94.4214Z" fill="#FA5C66"/>
<path fill-rule="evenodd" clip-rule="evenodd" d="M104.39 62.4724H49.4607L102.221 47.1884C102.631 47.0693 102.977 46.7925 103.183 46.4187C103.286 46.2335 103.35 46.0301 103.374 45.82C103.397 45.6098 103.379 45.3972 103.32 45.1941L100.559 35.6629C99.4557 31.8561 95.9113 29.197 91.9388 29.197C91.1019 29.197 90.2679 29.3158 89.4592 29.5498L39.9225 43.9C37.6315 44.5633 35.7326 46.0865 34.5748 48.1878C33.4175 50.2889 33.1459 52.7084 33.8094 54.999L36.5069 64.3108V102.67C36.5067 107.611 40.5263 111.63 45.4663 111.63H64.8131C65.7025 111.63 66.4231 110.91 66.4231 110.02C66.4231 109.131 65.7025 108.41 64.8131 108.41H45.467C42.3017 108.41 39.7269 105.836 39.7269 102.67V80.7601H102.78V102.67C102.78 105.836 100.206 108.41 97.0402 108.41H77.6933C76.8046 108.41 76.0833 109.131 76.0833 110.02C76.0833 110.91 76.8046 111.63 77.6933 111.63H97.0402C101.981 111.63 106 107.611 106 102.67V64.0825C106 63.1931 105.28 62.4724 104.39 62.4724ZM76.0004 77.54L82.8411 65.6925H91.7384L84.8982 77.54H76.0004ZM63.3842 77.54L70.225 65.6925H79.1222L72.2822 77.54H63.3842ZM50.7688 77.54L57.6089 65.6925H66.5068L59.6661 77.54H50.7688ZM56.7549 56.6971L45.2997 45.6948L53.8826 43.2086C53.9444 43.2984 54.0151 43.3817 54.0938 43.457L65.549 54.4593L56.9661 56.9455C56.9044 56.8558 56.8336 56.7725 56.7549 56.6971ZM78.3293 36.4365L89.7841 47.4386L81.2014 49.9247C81.1398 49.8348 81.0689 49.7515 80.99 49.6763L69.535 38.674L78.1177 36.1879C78.1795 36.2777 78.2503 36.361 78.3291 36.4364L78.3293 36.4365ZM66.2112 39.9472L77.6663 50.9488L69.0835 53.4355C69.0219 53.3456 68.951 53.2623 68.8721 53.1871L57.4171 42.1848L66 39.6988C66.0609 39.7862 66.1314 39.8697 66.2112 39.9472ZM90.3554 32.6428C90.8722 32.4931 91.4051 32.4171 91.939 32.4171C94.4867 32.4171 96.7589 34.1202 97.4659 36.5592L99.779 44.5433L93.3196 46.4142C93.2574 46.3246 93.1863 46.2414 93.1076 46.1659L81.653 35.1641L90.3554 32.6428ZM37.3954 49.7413C38.1377 48.3934 39.3532 47.4174 40.8187 46.993L41.7646 46.7186C41.8266 46.8083 41.8974 46.8915 41.976 46.9671L53.431 57.9693L39.2156 62.0875L36.9024 54.1034C36.4779 52.6387 36.6534 51.0897 37.3954 49.7413ZM39.7268 65.6925H53.8908L47.0506 77.54H39.7269L39.7268 65.6925ZM88.6164 77.54L95.4566 65.6925H102.78V77.54H88.6164Z" fill="#333333"/>
<path fill-rule="evenodd" clip-rule="evenodd" d="M82.3866 94.4214C82.3866 94.1388 82.3123 93.8611 82.171 93.6164C82.0296 93.3716 81.8264 93.1684 81.5816 93.0271L67.4365 84.8606C67.1917 84.7194 66.9141 84.645 66.6315 84.645C66.3489 84.645 66.0713 84.7194 65.8265 84.8606C65.5817 85.0018 65.3784 85.2051 65.2371 85.4498C65.0958 85.6946 65.0214 85.9722 65.0215 86.2549V102.588C65.0215 102.87 65.0959 103.148 65.2373 103.393C65.3786 103.637 65.5818 103.84 65.8265 103.982C66.0712 104.123 66.3488 104.198 66.6315 104.198C66.9142 104.198 67.1919 104.123 67.4365 103.982L81.5816 95.8157C81.8264 95.6744 82.0296 95.4712 82.171 95.2264C82.3123 94.9817 82.3866 94.704 82.3866 94.4214ZM68.2415 99.7994V89.0434L77.5565 94.4212L68.2415 99.7994ZM71.2534 108.41C70.3668 108.41 69.6434 109.134 69.6434 110.02C69.6434 110.907 70.3668 111.631 71.2534 111.631C72.1409 111.631 72.8634 110.907 72.8634 110.02C72.8634 109.134 72.1409 108.41 71.2534 108.41Z" fill="#333333"/>
</svg>
