<svg width="22" height="22" viewBox="0 0 22 22" fill="none" xmlns="http://www.w3.org/2000/svg">
<path d="M11 0C4.93436 0 0 4.93436 0 11C0 17.0656 4.93436 22 11 22C17.0656 22 22 17.0656 22 11C22 4.93436 17.0656 0 11 0Z" fill="#30B900"/>
<path d="M11.9176 15.8124C11.9175 16.3193 11.5079 16.7289 11.001 16.729C10.8806 16.7292 10.7613 16.7055 10.6501 16.6594C10.5388 16.6134 10.4378 16.5458 10.3527 16.4605C10.1868 16.2946 10.0844 16.0652 10.0844 15.8124L10.0845 11.9168L6.18887 11.917C6.06848 11.9171 5.94924 11.8935 5.83801 11.8474C5.72678 11.8014 5.62574 11.7338 5.5407 11.6486C5.45547 11.5635 5.38788 11.4625 5.34181 11.3512C5.29575 11.24 5.27211 11.1208 5.27226 11.0004C5.27238 10.4934 5.68198 10.0838 6.1889 10.0837L10.0845 10.0838L10.0843 6.18822C10.0845 5.6813 10.4941 5.2717 11.0009 5.27161C11.5079 5.27173 11.9175 5.68133 11.9176 6.18825L11.9175 10.0838L15.8131 10.0837C16.32 10.0838 16.7296 10.4934 16.7297 11.0003C16.7296 11.5072 16.32 11.9168 15.8131 11.9169L11.9175 11.9168L11.9176 15.8124Z" fill="#FAFAFA"/>
</svg>
