<svg width="18" height="19" viewBox="0 0 18 19" fill="none" xmlns="http://www.w3.org/2000/svg">
<path d="M17.6316 5.90607H12.9767V1.25118L17.6316 5.90607ZM12.3488 7.16188C12.0056 7.16188 11.7209 6.87723 11.7209 6.53398V0.882812H5.65116C4.3786 0.882812 3.34884 1.91258 3.34884 3.18514V6.01491C4.19442 5.68002 5.10698 5.48746 6.06977 5.48746C10.1135 5.48746 13.3953 8.76932 13.3953 12.813C13.3953 15.333 12.1144 17.5684 10.1637 18.8828H15.6977C16.9702 18.8828 18 17.853 18 16.5805V7.16188H12.3488ZM12.1395 12.813C12.1395 16.1619 9.4186 18.8828 6.06977 18.8828C2.72093 18.8828 0 16.1619 0 12.813C0 9.46421 2.72093 6.74328 6.06977 6.74328C9.4186 6.74328 12.1395 9.46421 12.1395 12.813ZM8.29674 14.1526L6.69767 12.5535V10.3014C6.69767 9.95816 6.41302 9.67351 6.06977 9.67351C5.72651 9.67351 5.44186 9.95816 5.44186 10.3014V12.813C5.44186 12.9805 5.50884 13.1396 5.62605 13.2568L7.4093 15.04C7.53488 15.1656 7.69395 15.2242 7.85302 15.2242C8.01209 15.2242 8.17116 15.1656 8.29674 15.04C8.53953 14.7972 8.53953 14.3954 8.29674 14.1526Z" fill="#333333"/>
</svg>
