<svg width="18" height="19" viewBox="0 0 18 19" fill="none" xmlns="http://www.w3.org/2000/svg">
<path d="M5.80078 10.1596H0.527344C0.236109 10.1596 0 10.3966 0 10.689V18.1008C0 18.3931 0.236109 18.6302 0.527344 18.6302H5.80078C6.09202 18.6302 6.32812 18.3931 6.32812 18.1008V10.689C6.32812 10.3966 6.09202 10.1596 5.80078 10.1596ZM17.4727 10.1596H16.8086C17.0165 10.7546 16.8595 11.4232 16.386 11.8586L16.5136 12.0122C17.0708 12.6828 16.9822 13.6851 16.3157 14.2463L14.4974 15.7784C13.8297 16.3394 12.8296 16.2578 12.2653 15.579L12.1419 15.4304C11.2438 16.1133 9.93547 15.6576 9.65461 14.559L8.53031 10.1596H7.91016C7.61906 10.1596 7.38281 10.3968 7.38281 10.689V18.1008C7.38281 18.393 7.61906 18.6302 7.91016 18.6302H17.4727C17.7638 18.6302 18 18.393 18 18.1008V10.689C18 10.3968 17.7638 10.1596 17.4727 10.1596ZM3.69141 3.80664C3.40063 3.80664 3.16406 4.04413 3.16406 4.33605V4.86546H4.21875V4.33605C4.21875 4.04413 3.98218 3.80664 3.69141 3.80664ZM7.38281 3.80664V5.92429C7.96437 5.92429 8.4375 5.4493 8.4375 4.86546C8.4375 4.28163 7.96437 3.80664 7.38281 3.80664Z" fill="#333333"/>
<path d="M17.4727 0.630859H0.527344C0.23625 0.630859 0 0.868036 0 1.16027V8.57204C0 8.86427 0.23625 9.10145 0.527344 9.10145H8.25961L8.04621 8.26674C7.71135 6.95581 9.06493 5.85107 10.2737 6.44521L15.6839 9.10145H17.4727C17.7638 9.10145 18 8.86427 18 8.57204V1.16027C18 0.868036 17.7638 0.630859 17.4727 0.630859ZM5.27344 6.45439C5.27344 6.74662 5.03719 6.9838 4.74609 6.9838C4.455 6.9838 4.21875 6.74662 4.21875 6.45439V5.92498H3.16406V6.45439C3.16406 6.74662 2.92781 6.9838 2.63672 6.9838C2.34562 6.9838 2.10938 6.74662 2.10938 6.45439V4.33674C2.10938 3.46109 2.81918 2.74851 3.69141 2.74851C4.56363 2.74851 5.27344 3.46109 5.27344 4.33674V6.45439ZM7.38281 6.9838H6.85547C6.56437 6.9838 6.32812 6.74662 6.32812 6.45439V3.27792C6.32812 2.98568 6.56437 2.74851 6.85547 2.74851H7.38281C8.54578 2.74851 9.49219 3.69862 9.49219 4.86615C9.49219 6.03368 8.54578 6.9838 7.38281 6.9838ZM15.293 6.45439H11.0742C10.7831 6.45439 10.5469 6.21721 10.5469 5.92498C10.5469 5.63274 10.7831 5.39557 11.0742 5.39557H15.293C15.5841 5.39557 15.8203 5.63274 15.8203 5.92498C15.8203 6.21721 15.5841 6.45439 15.293 6.45439ZM15.293 4.33674H11.0742C10.7831 4.33674 10.5469 4.09957 10.5469 3.80733C10.5469 3.51509 10.7831 3.27792 11.0742 3.27792H15.293C15.5841 3.27792 15.8203 3.51509 15.8203 3.80733C15.8203 4.09957 15.5841 4.33674 15.293 4.33674Z" fill="#333333"/>
<path d="M15.5485 10.2121L9.81054 7.39478C9.40726 7.19678 8.95645 7.56521 9.06804 8.00194L10.6766 14.2947C10.7729 14.6715 11.2289 14.8189 11.5261 14.569L12.2764 13.9379L13.0757 14.8998C13.2623 15.1243 13.5957 15.1549 13.8197 14.9662L15.6382 13.4343C15.8608 13.2468 15.8903 12.9137 15.7041 12.6897L14.9034 11.726L15.6555 11.0935C15.9477 10.8477 15.8911 10.3802 15.5485 10.2121Z" fill="#333333"/>
</svg>
