<svg width="23" height="30" viewBox="0 0 23 30" fill="none" xmlns="http://www.w3.org/2000/svg">
<path d="M14.0859 25.84C14.0095 26.6121 13.7564 27.2416 13.3643 27.6935C12.8986 28.23 12.1975 28.5666 11.2305 28.5666C10.2601 28.5665 9.55634 28.2294 9.08887 27.6926C8.6954 27.2407 8.44201 26.6116 8.36523 25.84H14.0859Z" fill="#C5E4F6" stroke="#C5E4F6"/>
<path d="M22.206 21.768C21.123 20.341 18.993 19.504 18.993 13.113C18.993 6.553 16.093 3.913 13.393 3.283C13.14 3.22001 12.957 3.135 12.957 2.86801V2.66801C12.9625 2.43924 12.9222 2.21168 12.8385 1.99871C12.7548 1.78574 12.6293 1.59167 12.4695 1.42792C12.3096 1.26417 12.1186 1.13404 11.9078 1.0452C11.6969 0.956353 11.4703 0.910583 11.2415 0.910583C11.0127 0.910583 10.7862 0.956353 10.5753 1.0452C10.3644 1.13404 10.1734 1.26417 10.0136 1.42792C9.85371 1.59167 9.72823 1.78574 9.64451 1.99871C9.56078 2.21168 9.52049 2.43924 9.52601 2.66801V2.86801C9.52601 3.12801 9.34301 3.22001 9.09001 3.283C6.38301 3.92301 3.49001 6.553 3.49001 13.113C3.49001 19.504 1.36001 20.334 0.277012 21.768C0.122009 21.9762 0.027945 22.2234 0.00532603 22.482C-0.017293 22.7406 0.0324241 23.0004 0.148924 23.2323C0.265423 23.4643 0.444118 23.6593 0.665046 23.7956C0.885975 23.9318 1.14044 24.004 1.40001 24.004H21.095C21.3536 24.0018 21.6065 23.928 21.8256 23.7909C22.0448 23.6537 22.2218 23.4586 22.3368 23.227C22.4519 22.9955 22.5006 22.7366 22.4775 22.479C22.4544 22.2215 22.3604 21.9754 22.206 21.768Z" fill="#C5E4F6"/>
</svg>
