<svg width="15" height="15" viewBox="0 0 15 15" fill="none" xmlns="http://www.w3.org/2000/svg">
<g clip-path="url(#clip0_649_40916)">
<path d="M6.67514 7.09638C8.65309 7.09638 10.2565 5.49294 10.2565 3.51499C10.2565 1.53704 8.65309 -0.0664062 6.67514 -0.0664062C4.6972 -0.0664062 3.09375 1.53704 3.09375 3.51499C3.09375 5.49294 4.6972 7.09638 6.67514 7.09638Z" fill="#15355E"/>
<path fill-rule="evenodd" clip-rule="evenodd" d="M12.3104 8.10194L8.16639 12.2459C8.07486 12.3375 8.02344 12.4616 8.02344 12.5911C8.02344 12.7205 8.07486 12.8446 8.16639 12.9362C8.25792 13.0277 8.38206 13.0791 8.51151 13.0791C8.64095 13.0791 8.76509 13.0277 8.85662 12.9362L13.0006 8.79217C13.0922 8.70064 13.1436 8.5765 13.1436 8.44705C13.1436 8.31761 13.0922 8.19347 13.0006 8.10194C12.9091 8.01041 12.7849 7.95898 12.6555 7.95898C12.5261 7.95898 12.4019 8.01041 12.3104 8.10194Z" fill="#15355E"/>
<path fill-rule="evenodd" clip-rule="evenodd" d="M10.5827 7.10059C8.6956 7.10059 7.16406 8.63212 7.16406 10.5192C7.16406 12.4063 8.6956 13.9378 10.5827 13.9378C12.4697 13.9378 14.0013 12.4063 14.0013 10.5192C14.0013 8.63212 12.4697 7.10059 10.5827 7.10059ZM10.5827 8.07733C11.9306 8.07733 13.0245 9.17128 13.0245 10.5192C13.0245 11.8671 11.9306 12.9611 10.5827 12.9611C9.23476 12.9611 8.14081 11.8671 8.14081 10.5192C8.14081 9.17128 9.23476 8.07733 10.5827 8.07733Z" fill="#15355E"/>
<path fill-rule="evenodd" clip-rule="evenodd" d="M7.60233 13.2898C6.90032 12.5378 6.51042 11.5471 6.51163 10.5184C6.51163 9.42253 6.94595 8.4269 7.65181 7.69499C7.33275 7.67025 7.00651 7.65723 6.67442 7.65723C4.51126 7.65723 2.59619 8.19834 1.40716 9.00904C0.500095 9.62765 1.72993e-06 10.4136 1.72993e-06 11.2386V12.1828C-0.000255615 12.3282 0.0282015 12.4723 0.0837412 12.6067C0.139281 12.7412 0.22081 12.8633 0.323654 12.9661C0.426497 13.069 0.548632 13.1505 0.683052 13.206C0.817473 13.2616 0.961536 13.29 1.10698 13.2898H7.60233Z" fill="#15355E"/>
</g>
<defs>
<clipPath id="clip0_649_40916">
<rect width="14.0101" height="14.0105" fill="white" transform="translate(0 0.0205078)"/>
</clipPath>
</defs>
</svg>
