<svg width="18" height="19" viewBox="0 0 18 19" fill="none" xmlns="http://www.w3.org/2000/svg">
<path d="M0.914168 11.5735V12.6282H2.2398C2.10547 12.2852 1.997 11.9326 1.91531 11.5735H0.914168ZM0.914168 7.21093V8.26562H1.91531C1.997 7.90645 2.10547 7.5539 2.2398 7.21093H0.914168ZM1.74973 9.3922H0V10.4469H1.74973C1.73756 10.2721 1.73109 10.0963 1.73109 9.91954C1.73109 9.74278 1.73753 9.567 1.74973 9.3922ZM9.1736 2.47707C9.77766 2.47707 10.3709 2.54886 10.9477 2.69015V1.68359H11.9329V0.628906H6.41422V1.68359H7.39944V2.69012C7.97629 2.54882 8.56955 2.47707 9.1736 2.47707ZM9.70094 6.47852V9.64652L12.2872 11.4745C12.5221 11.0062 12.6545 10.4781 12.6545 9.91954C12.6545 8.17938 11.371 6.7334 9.70094 6.47852Z" fill="#333333"/>
<path d="M5.69238 9.91954C5.69238 11.8389 7.25392 13.4005 9.17331 13.4005C10.1554 13.4005 11.0437 12.9915 11.6772 12.3351L8.64596 10.1926V6.47852C6.9759 6.7334 5.69238 8.17937 5.69238 9.91954Z" fill="#333333"/>
<path d="M5.029 5.059C3.65653 6.23062 2.78613 7.97307 2.78613 9.91907C2.78613 13.447 5.64606 16.3069 9.17395 16.3069C9.63935 16.3069 10.0929 16.2567 10.5301 16.1622C10.4836 15.906 10.4602 15.6461 10.4603 15.3857C10.4603 14.9854 10.5148 14.5935 10.62 14.2183C10.1657 14.3715 9.67936 14.4547 9.17395 14.4547C6.67301 14.4547 4.63834 12.42 4.63834 9.91907C4.63834 7.41812 6.67301 5.38346 9.17395 5.38346C11.6749 5.38346 13.7095 7.41812 13.7095 9.91907C13.7095 10.3906 13.6371 10.8455 13.503 11.2734C13.9045 11.1515 14.3262 11.0883 14.7576 11.0883C14.9899 11.0883 15.2192 11.1069 15.4441 11.1428C15.5224 10.7396 15.5618 10.3298 15.5617 9.91907C15.5617 7.9731 14.6913 6.23065 13.3189 5.059L13.9378 4.20087L13.9396 4.19841L13.9076 4.17531L13.1241 3.61025L13.0842 3.58142L13.0822 3.58412L12.4632 4.44239C11.5024 3.86411 10.3771 3.53125 9.17395 3.53125C7.97084 3.53125 6.84555 3.86411 5.88473 4.44239L5.2657 3.58412L5.26373 3.58138L5.22376 3.61021L4.44038 4.17524L4.40835 4.19834L4.41014 4.2008L5.029 5.059Z" fill="#333333"/>
<path d="M14.7574 12.1445C12.9665 12.1445 11.5146 13.5963 11.5146 15.3872C11.5146 17.1781 12.9665 18.6299 14.7574 18.6299C16.5482 18.6299 18.0001 17.1781 18.0001 15.3872C18.0001 13.5963 16.5482 12.1445 14.7574 12.1445ZM16.1446 16.0287L15.3989 16.7745L14.7574 16.133L14.1159 16.7745L13.3701 16.0287L14.0116 15.3872L13.3701 14.7457L14.1159 13.9999L14.7574 14.6414L15.3989 13.9999L16.1446 14.7457L15.5031 15.3872L16.1446 16.0287Z" fill="#333333"/>
</svg>
