<svg width="22" height="28" viewBox="0 0 22 28" fill="none" xmlns="http://www.w3.org/2000/svg">
<path d="M10.9844 0.85791C8.05524 0.85791 5.55284 2.9546 5.00362 5.79262H7.50602C7.9946 4.37361 9.33675 3.32586 10.9844 3.32586C12.6321 3.32586 13.9136 4.3748 14.4628 5.79262H16.9652C16.416 2.95463 13.9136 0.85791 10.9844 0.85791ZM21.9688 10.7262V24.2951C21.9688 26.3305 20.3212 27.9959 18.3074 27.9959H3.66147C1.64766 27.9959 0 26.3305 0 24.2951V10.7262C0 8.69075 1.64766 7.02541 3.66147 7.02541H18.3074C20.3212 7.02541 21.9688 8.69075 21.9688 10.7262Z" fill="#002C9C"/>
</svg>
