<svg width="36" height="36" viewBox="0 0 36 36" fill="none" xmlns="http://www.w3.org/2000/svg">
<path d="M14.8359 10.8983C6.69403 10.8983 6.91377e-07 16.4971 6.91377e-07 23.3794C6.91377e-07 26.1304 1.06709 28.9263 3.02399 31.0934L0.260584 34.2512C0.12717 34.4036 0.0405635 34.5913 0.0111545 34.7917C-0.0182544 34.9921 0.0107832 35.1968 0.094784 35.3811C0.178359 35.5656 0.313353 35.7222 0.4836 35.832C0.653848 35.9417 0.852132 36.0001 1.05471 36.0001H15.8906C21.9021 36.0001 29.6718 30.8236 29.6718 23.3794C29.6718 16.4971 22.9778 10.8983 14.8359 10.8983ZM8.43747 25.3126C7.27462 25.3126 6.32812 24.3661 6.32812 23.2033C6.32812 22.0404 7.27469 21.0939 8.43747 21.0939C9.60025 21.0939 10.5468 22.0405 10.5468 23.2033C10.5469 24.3661 9.60032 25.3126 8.43747 25.3126ZM14.8359 25.3126C13.6731 25.3126 12.7266 24.3661 12.7266 23.2033C12.7266 22.0404 13.6731 21.0939 14.8359 21.0939C15.9987 21.0939 16.9453 22.0405 16.9453 23.2033C16.9453 24.3661 15.9988 25.3126 14.8359 25.3126ZM21.2343 25.3126C20.0715 25.3126 19.125 24.3661 19.125 23.2033C19.125 22.0404 20.0716 21.0939 21.2343 21.0939C22.3971 21.0939 23.3437 22.0405 23.3437 23.2033C23.3437 24.3661 22.3972 25.3126 21.2343 25.3126Z" fill="#15355E"/>
<path d="M35.7454 21.4612L33.2622 18.5639C35.0348 16.5638 35.9999 14.1247 35.9999 11.6013C35.9998 5.20425 29.8489 -0.000183105 22.289 -0.000183105C15.4527 -0.000183105 9.64467 4.26007 8.61914 9.8051C10.5266 9.15695 12.6658 8.78851 14.8359 8.78851C24.0718 8.78851 31.66 15.2395 31.7709 23.2029H34.9452C35.8461 23.2029 36.33 22.142 35.7454 21.4612Z" fill="#15355E"/>
</svg>
