<svg width="37" height="35" viewBox="0 0 37 35" fill="none" xmlns="http://www.w3.org/2000/svg">
<path d="M18.2948 0C8.20683 0 0 7.24101 0 16.1425C0 19.9027 1.48812 23.5463 4.19639 26.4343C4.7324 28.6445 4.08182 30.9859 2.46757 32.6002C1.7926 33.2752 2.26992 34.4373 3.22849 34.4373C6.29513 34.4373 9.25143 33.236 11.4479 31.1174C13.6212 31.8929 15.9207 32.2849 18.2948 32.2849C28.3828 32.2849 36.7331 25.0439 36.7331 16.1425C36.7331 7.24101 28.3828 0 18.2948 0ZM9.82897 19.371C8.0487 19.371 6.60047 17.9227 6.60047 16.1425C6.60047 14.3622 8.0487 12.914 9.82897 12.914C11.6092 12.914 13.0575 14.3622 13.0575 16.1425C13.0575 17.9227 11.6092 19.371 9.82897 19.371ZM18.4383 19.371C16.658 19.371 15.2098 17.9227 15.2098 16.1425C15.2098 14.3622 16.658 12.914 18.4383 12.914C20.2185 12.914 21.6668 14.3622 21.6668 16.1425C21.6668 17.9227 20.2185 19.371 18.4383 19.371ZM27.0476 19.371C25.2673 19.371 23.8191 17.9227 23.8191 16.1425C23.8191 14.3622 25.2673 12.914 27.0476 12.914C28.8279 12.914 30.2761 14.3622 30.2761 16.1425C30.2761 17.9227 28.8279 19.371 27.0476 19.371Z" fill="#C5E4F6"/>
</svg>
