<svg width="18" height="19" viewBox="0 0 18 19" fill="none" xmlns="http://www.w3.org/2000/svg">
<path d="M9 0.628906C4.0296 0.628906 0 4.65851 0 9.62891C0 14.5993 4.0296 18.6289 9 18.6289C13.9704 18.6289 18 14.5993 18 9.62891C18 4.65851 13.9704 0.628906 9 0.628906ZM9 17.4016C4.71382 17.4016 1.22727 13.9151 1.22727 9.62891C1.22727 5.34272 4.71382 1.85618 9 1.85618C13.2862 1.85618 16.7727 5.34272 16.7727 9.62891C16.7727 13.9151 13.2862 17.4016 9 17.4016Z" fill="#333333"/>
<path d="M9.00053 3.08203C5.39115 3.08203 2.45508 6.0181 2.45508 9.62749C2.45508 13.2369 5.39115 16.1729 9.00053 16.1729C12.6099 16.1729 15.546 13.2369 15.546 9.62749C15.546 6.0181 12.6099 3.08203 9.00053 3.08203ZM10.0343 12.7119C9.89883 12.7784 9.75736 12.8278 9.61417 12.8679V13.5131C9.61417 13.8523 9.33974 14.1267 9.00053 14.1267C8.66133 14.1267 8.3869 13.8523 8.3869 13.5131V12.8952C7.93605 12.7989 7.4869 12.5935 7.071 12.273C6.80253 12.0659 6.75311 11.6807 6.9602 11.4122C7.16731 11.1446 7.55252 11.0943 7.821 11.3014C8.62809 11.9244 9.25964 11.725 9.49316 11.6099C9.80084 11.4591 9.94146 11.223 9.94146 11.067C9.94146 10.7278 9.66448 10.5599 9.04401 10.3102C8.93407 10.2659 8.8318 10.2241 8.74231 10.1832C8.6818 10.1551 8.60851 10.1261 8.52754 10.0946C7.97698 9.87555 6.83238 9.41872 6.83238 8.18719C6.83238 7.52669 7.27727 6.8815 7.96675 6.5423C8.10226 6.47582 8.24373 6.42639 8.38692 6.38633V5.74032C8.38692 5.40111 8.66135 5.12668 9.00056 5.12668C9.33976 5.12668 9.61419 5.40111 9.61419 5.74032V6.35906C10.065 6.45537 10.5142 6.65991 10.9301 6.98123C11.1986 7.18833 11.248 7.57355 11.0409 7.84202C10.8338 8.11049 10.4486 8.15991 10.1801 7.95281C9.37385 7.3298 8.74232 7.52924 8.50793 7.64428C8.20025 7.79514 8.05963 8.03121 8.05963 8.18718C8.05963 8.52554 8.37071 8.71132 8.98265 8.95508C9.08662 8.99684 9.18037 9.03434 9.25878 9.07098C9.33037 9.10422 9.41304 9.13661 9.50083 9.1724C10.0838 9.40592 11.1687 9.84144 11.1687 11.0679C11.1687 11.7284 10.7238 12.3735 10.0343 12.7128L10.0343 12.7119Z" fill="#333333"/>
</svg>
