<svg width="17" height="19" viewBox="0 0 17 19" fill="none" xmlns="http://www.w3.org/2000/svg">
<path d="M3.39944 4.53325C4.65126 4.53325 5.66606 3.51845 5.66606 2.26663C5.66606 1.0148 4.65126 0 3.39944 0C2.14762 0 1.13281 1.0148 1.13281 2.26663C1.13281 3.51845 2.14762 4.53325 3.39944 4.53325Z" fill="#333333"/>
<path d="M6.79989 6.79983V8.4998C6.79945 8.64995 6.73961 8.79383 6.63344 8.90001C6.52726 9.00618 6.38338 9.06602 6.23323 9.06646H0.566665C0.416512 9.06602 0.272632 9.00618 0.166457 8.90001C0.0602823 8.79383 0.000441863 8.64995 8.3015e-06 8.4998V6.79983C-0.0018531 5.96192 0.309375 5.15353 0.872659 4.5332C1.19018 4.88965 1.5795 5.1749 2.01507 5.37022C2.45063 5.56554 2.92259 5.66652 3.39995 5.66652C3.8773 5.66652 4.34926 5.56554 4.78483 5.37022C5.2204 5.1749 5.60972 4.88965 5.92724 4.5332C6.49052 5.15353 6.80175 5.96192 6.79989 6.79983Z" fill="#333333"/>
<path d="M13.5996 13.5997C14.8515 13.5997 15.8663 12.5849 15.8663 11.333C15.8663 10.0812 14.8515 9.06641 13.5996 9.06641C12.3478 9.06641 11.333 10.0812 11.333 11.333C11.333 12.5849 12.3478 13.5997 13.5996 13.5997Z" fill="#333333"/>
<path d="M17.0001 15.8662V17.5662C16.9996 17.7164 16.9398 17.8602 16.8336 17.9664C16.7275 18.0726 16.5836 18.1324 16.4334 18.1329H10.7669C10.6167 18.1324 10.4728 18.0726 10.3667 17.9664C10.2605 17.8602 10.2006 17.7164 10.2002 17.5662V15.8662C10.1983 15.0283 10.5096 14.2199 11.0729 13.5996C11.3904 13.9561 11.7797 14.2413 12.2153 14.4366C12.6508 14.6319 13.1228 14.7329 13.6001 14.7329C14.0775 14.7329 14.5495 14.6319 14.985 14.4366C15.4206 14.2413 15.8099 13.9561 16.1274 13.5996C16.6907 14.2199 17.0019 15.0283 17.0001 15.8662Z" fill="#333333"/>
<path d="M13.5994 7.93244C13.4492 7.93244 13.305 7.87274 13.1988 7.76647C13.0925 7.6602 13.0328 7.51607 13.0328 7.36578V4.5325C13.0323 4.08179 12.853 3.64969 12.5343 3.33099C12.2156 3.01229 11.7835 2.83303 11.3328 2.83253H7.36622C7.21593 2.83253 7.0718 2.77283 6.96553 2.66656C6.85926 2.56029 6.79956 2.41616 6.79956 2.26588C6.79956 2.11559 6.85926 1.97146 6.96553 1.86519C7.0718 1.75892 7.21593 1.69922 7.36622 1.69922H11.3328C12.084 1.7001 12.8041 1.99889 13.3353 2.53005C13.8664 3.0612 14.1652 3.78134 14.1661 4.5325V7.36578C14.1661 7.51607 14.1064 7.6602 14.0001 7.76647C13.8939 7.87274 13.7497 7.93244 13.5994 7.93244Z" fill="#333333"/>
<path d="M13.6 7.93349C13.5256 7.93358 13.4519 7.91895 13.3831 7.89046C13.3144 7.86197 13.2519 7.82017 13.1994 7.76746L12.066 6.63415C11.9628 6.52727 11.9057 6.38414 11.907 6.23556C11.9083 6.08699 11.9679 5.94486 12.073 5.8398C12.178 5.73474 12.3201 5.67514 12.4687 5.67385C12.6173 5.67256 12.7604 5.72967 12.8673 5.8329L13.6 6.56553L14.3327 5.8329C14.4395 5.72967 14.5827 5.67256 14.7313 5.67385C14.8798 5.67514 15.022 5.73474 15.127 5.8398C15.2321 5.94486 15.2917 6.08699 15.293 6.23556C15.2943 6.38414 15.2371 6.52727 15.1339 6.63415L14.0006 7.76746C13.9481 7.82017 13.8856 7.86197 13.8169 7.89046C13.7481 7.91895 13.6744 7.93358 13.6 7.93349Z" fill="#333333"/>
<path d="M8.50032 16.4324H4.53372C3.78256 16.4316 3.06242 16.1328 2.53127 15.6016C2.00011 15.0705 1.70132 14.3503 1.70044 13.5992V10.7659C1.70044 10.6156 1.76014 10.4715 1.86641 10.3652C1.97268 10.2589 2.11681 10.1992 2.2671 10.1992C2.41738 10.1992 2.56151 10.2589 2.66778 10.3652C2.77405 10.4715 2.83375 10.6156 2.83375 10.7659V13.5992C2.83425 14.0499 3.01351 14.482 3.33221 14.8007C3.65091 15.1194 4.08301 15.2986 4.53372 15.2991H8.50032C8.6506 15.2991 8.79474 15.3588 8.901 15.4651C9.00727 15.5714 9.06697 15.7155 9.06697 15.8658C9.06697 16.0161 9.00727 16.1602 8.901 16.2665C8.79474 16.3727 8.6506 16.4324 8.50032 16.4324Z" fill="#333333"/>
<path d="M3.39956 12.4659C3.32514 12.466 3.25143 12.4513 3.18268 12.4228C3.11392 12.3943 3.05148 12.3525 2.99894 12.2998L2.26625 11.5672L1.53356 12.2998C1.42669 12.4031 1.28355 12.4602 1.13497 12.4589C0.986399 12.4576 0.844275 12.398 0.739212 12.2929C0.634149 12.1879 0.574555 12.0457 0.573264 11.8972C0.571973 11.7486 0.629088 11.6055 0.732309 11.4986L1.86562 10.3653C1.91822 10.3126 1.98067 10.2709 2.04941 10.2424C2.11815 10.2139 2.19184 10.1992 2.26625 10.1992C2.34066 10.1992 2.41434 10.2139 2.48309 10.2424C2.55183 10.2709 2.61428 10.3126 2.66687 10.3653L3.80019 11.4986C3.87941 11.5778 3.93336 11.6788 3.95522 11.7887C3.97707 11.8986 3.96585 12.0125 3.92297 12.116C3.88009 12.2196 3.80748 12.3081 3.71432 12.3703C3.62115 12.4326 3.51162 12.4658 3.39956 12.4659Z" fill="#333333"/>
</svg>
