<svg width="17" height="19" viewBox="0 0 17 19" fill="none" xmlns="http://www.w3.org/2000/svg">
<rect width="17" height="19" fill="#565656"/>
<g id="47 Sub-Category management" clip-path="url(#clip0_61_65)">
<rect width="1920" height="1144" transform="translate(-35 -289)" fill="#FAFAFA"/>
<g id="background" filter="url(#filter0_d_61_65)">
<rect x="-35" y="-289" width="320" height="1144" fill="white"/>
</g>
<g id="Group 1410080405">
<g id="Nav Bar Component">
<g id="Group 1410080314">
<g id="Group">
<path id="Vector" d="M3.39944 4.53325C4.65126 4.53325 5.66606 3.51845 5.66606 2.26663C5.66606 1.0148 4.65126 0 3.39944 0C2.14762 0 1.13281 1.0148 1.13281 2.26663C1.13281 3.51845 2.14762 4.53325 3.39944 4.53325Z" fill="#333333"/>
<path id="Vector_2" d="M6.79989 6.79983V8.4998C6.79945 8.64995 6.73961 8.79383 6.63344 8.90001C6.52726 9.00618 6.38338 9.06602 6.23323 9.06646H0.566665C0.416512 9.06602 0.272632 9.00618 0.166457 8.90001C0.0602823 8.79383 0.000441863 8.64995 8.3015e-06 8.4998V6.79983C-0.0018531 5.96192 0.309375 5.15353 0.872659 4.5332C1.19018 4.88965 1.5795 5.1749 2.01507 5.37022C2.45063 5.56554 2.92259 5.66652 3.39995 5.66652C3.8773 5.66652 4.34926 5.56554 4.78483 5.37022C5.2204 5.1749 5.60972 4.88965 5.92724 4.5332C6.49052 5.15353 6.80175 5.96192 6.79989 6.79983Z" fill="#333333"/>
<path id="Vector_3" d="M13.5996 13.5997C14.8515 13.5997 15.8663 12.5849 15.8663 11.333C15.8663 10.0812 14.8515 9.06641 13.5996 9.06641C12.3478 9.06641 11.333 10.0812 11.333 11.333C11.333 12.5849 12.3478 13.5997 13.5996 13.5997Z" fill="#333333"/>
<path id="Vector_4" d="M17.0001 15.8662V17.5662C16.9996 17.7164 16.9398 17.8602 16.8336 17.9664C16.7275 18.0726 16.5836 18.1324 16.4334 18.1329H10.7669C10.6167 18.1324 10.4728 18.0726 10.3667 17.9664C10.2605 17.8602 10.2006 17.7164 10.2002 17.5662V15.8662C10.1983 15.0283 10.5096 14.2199 11.0729 13.5996C11.3904 13.9561 11.7797 14.2413 12.2153 14.4366C12.6508 14.6319 13.1228 14.7329 13.6001 14.7329C14.0775 14.7329 14.5495 14.6319 14.985 14.4366C15.4206 14.2413 15.8099 13.9561 16.1274 13.5996C16.6907 14.2199 17.0019 15.0283 17.0001 15.8662Z" fill="#333333"/>
<path id="Vector_5" d="M13.5997 7.93244C13.4494 7.93244 13.3053 7.87274 13.199 7.76647C13.0927 7.6602 13.033 7.51607 13.033 7.36578V4.5325C13.0325 4.08179 12.8533 3.64969 12.5346 3.33099C12.2159 3.01229 11.7838 2.83303 11.3331 2.83253H7.36646C7.21617 2.83253 7.07204 2.77283 6.96577 2.66656C6.85951 2.56029 6.7998 2.41616 6.7998 2.26588C6.7998 2.11559 6.85951 1.97146 6.96577 1.86519C7.07204 1.75892 7.21617 1.69922 7.36646 1.69922H11.3331C12.0842 1.7001 12.8044 1.99889 13.3355 2.53005C13.8667 3.0612 14.1655 3.78134 14.1663 4.5325V7.36578C14.1663 7.51607 14.1066 7.6602 14.0004 7.76647C13.8941 7.87274 13.75 7.93244 13.5997 7.93244Z" fill="#333333"/>
<path id="Vector_6" d="M13.6002 7.93349C13.5258 7.93358 13.4521 7.91895 13.3834 7.89046C13.3146 7.86197 13.2522 7.82017 13.1996 7.76746L12.0663 6.63415C11.9631 6.52727 11.906 6.38414 11.9072 6.23556C11.9085 6.08699 11.9681 5.94486 12.0732 5.8398C12.1783 5.73474 12.3204 5.67514 12.469 5.67385C12.6175 5.67256 12.7607 5.72967 12.8675 5.8329L13.6002 6.56553L14.3329 5.8329C14.4398 5.72967 14.5829 5.67256 14.7315 5.67385C14.8801 5.67514 15.0222 5.73474 15.1273 5.8398C15.2323 5.94486 15.2919 6.08699 15.2932 6.23556C15.2945 6.38414 15.2374 6.52727 15.1342 6.63415L14.0009 7.76746C13.9483 7.82017 13.8859 7.86197 13.8171 7.89046C13.7484 7.91895 13.6747 7.93358 13.6002 7.93349Z" fill="#333333"/>
<path id="Vector_7" d="M8.50007 16.4324H4.53348C3.78232 16.4316 3.06217 16.1328 2.53102 15.6016C1.99987 15.0705 1.70108 14.3503 1.7002 13.5992V10.7659C1.7002 10.6156 1.7599 10.4715 1.86617 10.3652C1.97243 10.2589 2.11657 10.1992 2.26685 10.1992C2.41714 10.1992 2.56127 10.2589 2.66754 10.3652C2.77381 10.4715 2.83351 10.6156 2.83351 10.7659V13.5992C2.834 14.0499 3.01327 14.482 3.33196 14.8007C3.65066 15.1194 4.08277 15.2986 4.53348 15.2991H8.50007C8.65036 15.2991 8.79449 15.3588 8.90076 15.4651C9.00703 15.5714 9.06673 15.7155 9.06673 15.8658C9.06673 16.0161 9.00703 16.1602 8.90076 16.2665C8.79449 16.3727 8.65036 16.4324 8.50007 16.4324Z" fill="#333333"/>
<path id="Vector_8" d="M3.39956 12.4659C3.32514 12.466 3.25143 12.4513 3.18268 12.4228C3.11392 12.3943 3.05148 12.3525 2.99894 12.2998L2.26625 11.5672L1.53356 12.2998C1.42669 12.4031 1.28355 12.4602 1.13497 12.4589C0.986399 12.4576 0.844275 12.398 0.739212 12.2929C0.634149 12.1879 0.574555 12.0457 0.573264 11.8972C0.571973 11.7486 0.629088 11.6055 0.732309 11.4986L1.86562 10.3653C1.91822 10.3126 1.98067 10.2709 2.04941 10.2424C2.11815 10.2139 2.19184 10.1992 2.26625 10.1992C2.34066 10.1992 2.41434 10.2139 2.48309 10.2424C2.55183 10.2709 2.61428 10.3126 2.66687 10.3653L3.80019 11.4986C3.87941 11.5778 3.93336 11.6788 3.95522 11.7887C3.97707 11.8986 3.96585 12.0125 3.92297 12.116C3.88009 12.2196 3.80748 12.3081 3.71432 12.3703C3.62115 12.4326 3.51162 12.4658 3.39956 12.4659Z" fill="#333333"/>
</g>
</g>
</g>
</g>
</g>
<defs>
<filter id="filter0_d_61_65" x="-85" y="-335" width="420" height="1244" filterUnits="userSpaceOnUse" color-interpolation-filters="sRGB">
<feFlood flood-opacity="0" result="BackgroundImageFix"/>
<feColorMatrix in="SourceAlpha" type="matrix" values="0 0 0 0 0 0 0 0 0 0 0 0 0 0 0 0 0 0 127 0" result="hardAlpha"/>
<feOffset dy="4"/>
<feGaussianBlur stdDeviation="25"/>
<feComposite in2="hardAlpha" operator="out"/>
<feColorMatrix type="matrix" values="0 0 0 0 0 0 0 0 0 0 0 0 0 0 0 0 0 0 0.1 0"/>
<feBlend mode="normal" in2="BackgroundImageFix" result="effect1_dropShadow_61_65"/>
<feBlend mode="normal" in="SourceGraphic" in2="effect1_dropShadow_61_65" result="shape"/>
</filter>
<clipPath id="clip0_61_65">
<rect width="1920" height="1144" fill="white" transform="translate(-35 -289)"/>
</clipPath>
</defs>
</svg>
