<svg width="33" height="33" viewBox="0 0 33 33" fill="none" xmlns="http://www.w3.org/2000/svg">
<g id="Group">
<path id="Vector" d="M23.5041 11.6082C23.5041 10.6478 22.7236 9.86719 21.7631 9.86719H10.7362C9.77572 9.86719 8.99513 10.6478 8.99513 11.6082V19.1527C8.99513 20.1131 9.77572 20.8937 10.7362 20.8937H11.3165V23.7955C11.3165 24.0305 11.4573 24.2423 11.6749 24.3323C11.7475 24.3628 11.8229 24.3758 11.8969 24.3758C12.0478 24.3758 12.1958 24.3163 12.3075 24.2061L15.6199 20.8937H21.7629C22.7234 20.8937 23.504 20.1131 23.504 19.1526L23.5041 11.6082ZM20.022 17.7019H12.4776C12.157 17.7019 11.8973 17.4422 11.8973 17.1215C11.8973 16.8009 12.157 16.5412 12.4776 16.5412H20.022C20.3427 16.5412 20.6024 16.8009 20.6024 17.1215C20.6024 17.4422 20.3427 17.7019 20.022 17.7019ZM20.022 14.2197H12.4776C12.157 14.2197 11.8973 13.96 11.8973 13.6394C11.8973 13.3187 12.157 13.059 12.4776 13.059H20.022C20.3427 13.059 20.6024 13.3187 20.6024 13.6394C20.6024 13.96 20.3427 14.2197 20.022 14.2197Z" fill="white"/>
<path id="Vector_2" d="M27.8509 21.581C27.671 21.5114 27.4795 21.4766 27.2764 21.4766H24.955C23.9974 21.4766 23.2139 22.26 23.2139 23.2176V30.762C23.2139 31.7196 23.9974 32.5031 24.955 32.5031H27.2764C28.2339 32.5031 29.0174 31.7196 29.0174 30.762V23.2176C29.0174 22.8984 28.9304 22.6025 28.7795 22.3413C28.5706 21.9873 28.2456 21.7145 27.8509 21.581Z" fill="white"/>
<path id="Vector_3" d="M7.54432 21.4766H5.22291C5.01978 21.4766 4.82827 21.5114 4.64835 21.581C4.25371 21.7145 3.92871 21.9873 3.71979 22.3413C3.56889 22.6025 3.48184 22.8984 3.48184 23.2176V30.762C3.48184 31.7196 4.26533 32.5031 5.2229 32.5031H7.54431C8.50189 32.5031 9.28537 31.7196 9.28537 30.762V23.2176C9.28537 22.2601 8.5019 21.4766 7.54432 21.4766Z" fill="white"/>
<path id="Vector_4" d="M30.9327 23.2225C30.8746 23.2167 30.8166 23.2109 30.7586 23.2109H30.1782V30.7553H30.7586C31.7161 30.7553 32.4996 29.9719 32.4996 29.0143V24.9516C32.4996 24.0521 31.809 23.3096 30.9327 23.2225Z" fill="white"/>
<path id="Vector_5" d="M1.56697 23.2222C0.69063 23.3092 0 24.0521 0 24.9516V29.0143C0 29.9719 0.783486 30.7553 1.74106 30.7553H2.32141V23.2109H1.74106C1.68302 23.2109 1.62501 23.2164 1.56697 23.2222Z" fill="white"/>
<path id="Vector_6" d="M3.48206 16.2479C3.48206 13.3984 4.41062 10.688 6.12557 8.47097C5.94276 8.3549 5.76865 8.22723 5.62066 8.07778L3.60537 6.0625C1.35505 8.84964 0.00138855 12.3942 0.00138855 16.2477C0.00138855 18.2645 0.382955 20.2681 1.10698 22.1356C1.48854 22.0152 2.16903 22.0572 2.57091 22.0514C2.8756 21.3289 3.49513 20.766 4.21477 20.5048C3.73017 19.1497 3.48499 17.7234 3.48499 16.2479L3.48206 16.2479Z" fill="white"/>
<path id="Vector_7" d="M31.394 22.1356C32.1165 20.2683 32.4996 18.2646 32.4996 16.2477C32.4996 12.3942 31.1459 8.84968 28.8956 6.0625L26.8788 8.07923C26.7309 8.22722 26.5582 8.3549 26.3739 8.47098C28.0903 10.6894 29.0174 13.3983 29.0174 16.2479C29.0174 17.722 28.7722 19.1468 28.2877 20.5018C28.884 20.7079 29.4295 21.1533 29.7792 21.7467C29.8372 21.8454 29.8851 21.9484 29.9301 22.0514C30.3348 22.0586 31.008 22.0152 31.394 22.1356Z" fill="white"/>
<path id="Vector_8" d="M6.44192 7.26023C6.5754 7.39371 6.72629 7.49817 6.88299 7.57942C7.12674 7.7071 7.3937 7.77094 7.66648 7.77094C8.06112 7.77094 8.46155 7.63165 8.79234 7.35309C10.8758 5.60623 13.5221 4.64283 16.2498 4.64283C18.9776 4.64283 21.624 5.60623 23.7073 7.35309C24.2645 7.82316 25.0131 7.8928 25.6167 7.57942C25.7734 7.49817 25.9243 7.39371 26.0577 7.26023L28.1354 5.18254C27.8743 4.89817 27.6015 4.62541 27.3171 4.36426C24.4154 1.65983 20.5212 0 16.2498 0C11.9784 0 8.08433 1.65983 5.18238 4.36426C4.89801 4.62541 4.62524 4.89818 4.36409 5.18254L6.44192 7.26023Z" fill="white"/>
</g>
</svg>
