<svg width="22" height="18" viewBox="0 0 22 18" fill="none" xmlns="http://www.w3.org/2000/svg">
<g id="Group 1171275973">
<path id="Vector" d="M20.1345 0H13.736C12.7718 0 11.9902 0.650751 11.9902 1.45349V6.78098C11.9902 7.58372 12.7718 8.23447 13.736 8.23447H20.1345C21.0987 8.23447 21.8803 7.58372 21.8803 6.78098V1.45349C21.8803 0.650751 21.0987 0 20.1345 0Z" fill="#333333"/>
<path id="Vector_2" d="M8.42457 0H2.02599C1.06186 0 0.280273 0.650751 0.280273 1.45349V6.78098C0.280273 7.58372 1.06186 8.23447 2.02599 8.23447H8.42457C9.38871 8.23447 10.1703 7.58372 10.1703 6.78098V1.45349C10.1703 0.650751 9.38871 0 8.42457 0Z" fill="#333333"/>
<path id="Vector_3" d="M20.1345 9.75H13.736C12.7718 9.75 11.9902 10.4008 11.9902 11.2035V16.531C11.9902 17.3337 12.7718 17.9845 13.736 17.9845H20.1345C21.0987 17.9845 21.8803 17.3337 21.8803 16.531V11.2035C21.8803 10.4008 21.0987 9.75 20.1345 9.75Z" fill="#333333"/>
<path id="Vector_4" d="M8.42457 9.75H2.02599C1.06186 9.75 0.280273 10.4008 0.280273 11.2035V16.531C0.280273 17.3337 1.06186 17.9845 2.02599 17.9845H8.42457C9.38871 17.9845 10.1703 17.3337 10.1703 16.531V11.2035C10.1703 10.4008 9.38871 9.75 8.42457 9.75Z" fill="#333333"/>
</g>
</svg>
