<svg width="20" height="19" viewBox="0 0 20 19" fill="none" xmlns="http://www.w3.org/2000/svg">
<path d="M17.8478 8.07265C17.7727 8.04144 17.6899 8.03326 17.6101 8.04915C17.5303 8.06503 17.457 8.10426 17.3995 8.16186L14.8595 10.701C14.6876 10.8734 14.4684 10.9909 14.2296 11.0385L12.1726 11.4499C11.7628 11.5326 11.3482 11.4025 11.0581 11.1128C10.9143 10.9692 10.8082 10.7922 10.7494 10.5977C10.6905 10.4032 10.6806 10.1972 10.7206 9.9979L11.0835 8.18272H4.52543C4.47139 8.18276 4.41787 8.17214 4.36794 8.15148C4.31801 8.13082 4.27264 8.10051 4.23443 8.0623C4.19622 8.02409 4.16592 7.97872 4.14525 7.92879C4.12459 7.87886 4.11397 7.82535 4.11401 7.77131C4.11397 7.71727 4.12459 7.66375 4.14525 7.61382C4.16592 7.56389 4.19622 7.51852 4.23443 7.48031C4.27264 7.4421 4.31801 7.4118 4.36794 7.39114C4.41787 7.37047 4.47139 7.35986 4.52543 7.35989H11.4316C11.446 7.34404 11.4543 7.3241 11.4694 7.30886L13.0643 5.71426H4.52543C4.47139 5.7143 4.41787 5.70368 4.36794 5.68302C4.31801 5.66236 4.27264 5.63205 4.23443 5.59384C4.19622 5.55563 4.16592 5.51026 4.14525 5.46033C4.12459 5.4104 4.11397 5.35688 4.11401 5.30285C4.11397 5.24881 4.12459 5.19529 4.14525 5.14536C4.16592 5.09543 4.19622 5.05006 4.23443 5.01185C4.27264 4.97364 4.31801 4.94334 4.36794 4.92268C4.41787 4.90201 4.47139 4.8914 4.52543 4.89143H13.5763C13.6639 4.89143 13.7406 4.92483 13.8073 4.97142L16.477 2.30206C16.702 2.07666 16.9744 1.89947 17.287 1.77493C17.3567 1.7471 17.4175 1.70065 17.4627 1.64065C17.5079 1.58064 17.5358 1.50939 17.5433 1.43464C17.5511 1.35987 17.5382 1.28439 17.5061 1.21644C17.4739 1.1485 17.4237 1.09069 17.3609 1.04933C17.0901 0.871337 16.7775 0.777344 16.4562 0.777344H1.64563C0.738444 0.777459 0 1.51552 0 2.42309V18.4678C1.70267e-05 18.5492 0.024145 18.6287 0.0693359 18.6963C0.114527 18.764 0.178753 18.8167 0.2539 18.8479C0.304541 18.8692 0.358345 18.8792 0.411378 18.8792C0.518253 18.8792 0.623508 18.8375 0.702266 18.7587L4.69579 14.7652H16.4562C17.3633 14.7652 18.1018 14.0272 18.1018 13.1196V8.45271C18.1017 8.37136 18.0776 8.29184 18.0324 8.2242C17.9872 8.15656 17.923 8.10382 17.8478 8.07265ZM9.46227 10.6511H4.52543C4.47139 10.6512 4.41787 10.6406 4.36794 10.6199C4.31801 10.5992 4.27264 10.5689 4.23443 10.5307C4.19622 10.4925 4.16592 10.4471 4.14525 10.3972C4.12459 10.3473 4.11397 10.2938 4.11401 10.2397C4.11397 10.1857 4.12459 10.1322 4.14525 10.0822C4.16592 10.0323 4.19622 9.98695 4.23443 9.94873C4.27264 9.91052 4.31801 9.88022 4.36794 9.85956C4.41787 9.83889 4.47139 9.82828 4.52543 9.82831H9.46227C9.5163 9.82828 9.56982 9.83889 9.61975 9.85956C9.66968 9.88022 9.71505 9.91052 9.75326 9.94873C9.79147 9.98695 9.82178 10.0323 9.84244 10.0822C9.8631 10.1322 9.87372 10.1857 9.87368 10.2397C9.87372 10.2938 9.8631 10.3473 9.84244 10.3972C9.82178 10.4471 9.79147 10.4925 9.75326 10.5307C9.71505 10.5689 9.66968 10.5992 9.61975 10.6199C9.56982 10.6406 9.5163 10.6512 9.46227 10.6511Z" fill="#333333"/>
<path d="M18.1728 2.42188C17.7574 2.42188 17.3516 2.59023 17.0592 2.88308L12.0516 7.88985C11.9941 7.94719 11.9549 8.02033 11.9391 8.09998L11.5277 10.1578C11.5003 10.2928 11.5429 10.4322 11.6402 10.5294C11.7173 10.6065 11.8219 10.6499 11.931 10.6499C11.9576 10.6499 11.9849 10.6471 12.0114 10.6419L14.0676 10.2305C14.1474 10.2148 14.2207 10.1756 14.2781 10.118L19.2865 5.11045V5.11006C19.5798 4.81678 19.7477 4.411 19.7477 3.99677C19.7477 3.12819 19.0414 2.42188 18.1728 2.42188ZM17.5203 5.71305L16.4563 4.64905L17.0381 4.06731L18.1021 5.13139L17.5203 5.71305Z" fill="#333333"/>
</svg>
