<svg width="21" height="24" viewBox="0 0 21 24" fill="none" xmlns="http://www.w3.org/2000/svg">
<g id="Group 1171276033">
<path id="Vector" d="M20.6779 16.4762C20.5279 15.6066 20.2486 14.5807 19.9221 13.3806L17.6376 4.98622C17.2595 3.59692 16.9452 2.44146 16.5706 1.55796C16.5165 1.43032 16.46 1.30541 16.4004 1.18359C18.0622 1.24785 19.0745 1.46144 19.7843 2.17129C20.7997 3.18666 20.7997 4.82086 20.7997 8.08927V12.7115C20.7997 14.3232 20.7997 15.5375 20.6779 16.4762Z" fill="#333333"/>
<path id="Vector_2" d="M0.85849 9.50619C0.0659514 6.59391 -0.330312 5.13777 0.342338 3.99062C1.015 2.84347 2.49387 2.4533 5.45163 1.67296L8.58881 0.845277C11.5466 0.0649404 13.0254 -0.325234 14.1905 0.337074C15.3556 0.999382 15.7519 2.45552 16.5443 5.36779L18.786 13.605C19.5785 16.5172 19.9747 17.9734 19.3021 19.1205C18.6294 20.2677 17.1506 20.6579 14.1928 21.4381L11.0557 22.2659C8.09791 23.0462 6.61902 23.4364 5.45396 22.7741C4.28889 22.1118 3.89263 20.6556 3.1001 17.7433L0.85849 9.50619Z" fill="#333333"/>
</g>
</svg>
