<svg width="22" height="24" viewBox="0 0 22 24" fill="none" xmlns="http://www.w3.org/2000/svg">
<g id="Group">
<path id="Vector" fill-rule="evenodd" clip-rule="evenodd" d="M13.0524 7.24085V6.05106C13.0524 5.94892 13.0118 5.85096 12.9396 5.77874C12.8674 5.70651 12.7694 5.66594 12.6673 5.66594H6.37713C6.27499 5.66594 6.17703 5.70651 6.10481 5.77874C6.03258 5.85096 5.992 5.94892 5.992 6.05106V7.24085C5.992 7.34299 6.03258 7.44095 6.10481 7.51317C6.17703 7.5854 6.27499 7.62598 6.37713 7.62598H12.6673C12.7694 7.62598 12.8674 7.5854 12.9396 7.51317C13.0118 7.44095 13.0524 7.34299 13.0524 7.24085Z" fill="#333333"/>
<path id="Vector_2" fill-rule="evenodd" clip-rule="evenodd" d="M2.99524 16.3163H4.73088C5.13941 16.3161 5.53116 16.1538 5.82003 15.8649C6.1089 15.576 6.27125 15.1843 6.27139 14.7758V10.8151C6.27139 10.4065 6.10908 10.0147 5.82018 9.7258C5.53128 9.4369 5.13945 9.2746 4.73088 9.2746H2.99524V1.02697C2.99524 0.754595 3.10344 0.493372 3.29604 0.300772C3.48864 0.10817 3.74987 -3.05176e-05 4.02224 -3.05176e-05H15.0222C15.2946 -3.05176e-05 15.5558 0.10817 15.7484 0.300772C15.941 0.493372 16.0493 0.754595 16.0493 1.02697V12.6416H14.0692C13.6606 12.6416 13.2688 12.8039 12.9799 13.0928C12.691 13.3817 12.5287 13.7736 12.5287 14.1821V18.1428C12.5288 18.5513 12.6912 18.9431 12.98 19.2319C13.2689 19.5208 13.6607 19.6832 14.0692 19.6833H16.0493V22.5941C16.0493 22.8665 15.941 23.1277 15.7484 23.3203C15.5558 23.5129 15.2946 23.6211 15.0222 23.6211H4.02224C3.74987 23.6211 3.48864 23.5129 3.29604 23.3203C3.10344 23.1277 2.99524 22.8665 2.99524 22.5941V16.3163ZM8.82298 2.37928H10.1568C10.2589 2.37928 10.3569 2.41986 10.4291 2.49208C10.5014 2.56431 10.5419 2.66227 10.5419 2.76441C10.5419 2.86655 10.5014 2.96451 10.4291 3.03674C10.3569 3.10896 10.2589 3.14954 10.1568 3.14954H8.82298C8.72084 3.14954 8.62288 3.10896 8.55066 3.03674C8.47843 2.96451 8.43786 2.86655 8.43786 2.76441C8.43786 2.66227 8.47843 2.56431 8.55066 2.49208C8.62288 2.41986 8.72084 2.37928 8.82298 2.37928ZM12.7708 2.37928H14.1046C14.2068 2.37928 14.3047 2.41986 14.3769 2.49208C14.4492 2.56431 14.4897 2.66227 14.4897 2.76441C14.4897 2.86655 14.4492 2.96451 14.3769 3.03674C14.3047 3.10896 14.2068 3.14954 14.1046 3.14954H12.7708C12.6686 3.14954 12.5707 3.10896 12.4985 3.03674C12.4262 2.96451 12.3857 2.86655 12.3857 2.76441C12.3857 2.66227 12.4262 2.56431 12.4985 2.49208C12.5707 2.41986 12.6686 2.37928 12.7708 2.37928ZM4.94013 2.37928H6.27395C6.3761 2.37928 6.47406 2.41986 6.54628 2.49208C6.61851 2.56431 6.65908 2.66227 6.65908 2.76441C6.65908 2.86655 6.61851 2.96451 6.54628 3.03674C6.47406 3.10896 6.3761 3.14954 6.27395 3.14954H4.94013C4.83799 3.14954 4.74003 3.10896 4.6678 3.03674C4.59558 2.96451 4.555 2.86655 4.555 2.76441C4.555 2.66227 4.59558 2.56431 4.6678 2.49208C4.74003 2.41986 4.83799 2.37928 4.94013 2.37928ZM13.8227 6.05108V7.24087C13.8227 7.5473 13.701 7.84117 13.4843 8.05785C13.2676 8.27452 12.9737 8.39625 12.6673 8.39625H6.37717C6.07074 8.39625 5.77687 8.27452 5.56019 8.05785C5.34351 7.84117 5.22179 7.5473 5.22179 7.24087V6.05108C5.22179 5.74466 5.34351 5.45078 5.56019 5.23411C5.77687 5.01743 6.07074 4.8957 6.37717 4.8957H12.6673C12.9737 4.8957 13.2676 5.01743 13.4843 5.23411C13.701 5.45078 13.8227 5.74466 13.8227 6.05108ZM9.13725 21.8367V21.0287C9.13725 20.9265 9.17782 20.8286 9.25005 20.7563C9.32227 20.6841 9.42023 20.6435 9.52237 20.6435C9.62452 20.6435 9.72247 20.6841 9.7947 20.7563C9.86692 20.8286 9.9075 20.9265 9.9075 21.0287V21.8367C9.9075 21.9388 9.86692 22.0368 9.7947 22.109C9.72247 22.1812 9.62452 22.2218 9.52237 22.2218C9.42023 22.2218 9.32227 22.1812 9.25005 22.109C9.17782 22.0368 9.13725 21.9388 9.13725 21.8367Z" fill="#333333"/>
<path id="Vector_3" fill-rule="evenodd" clip-rule="evenodd" d="M18.7999 18.1428C18.7999 18.3471 18.7187 18.543 18.5742 18.6875C18.4298 18.8319 18.2339 18.9131 18.0296 18.9131H14.0692C13.8649 18.9131 13.669 18.8319 13.5246 18.6875C13.3801 18.543 13.299 18.3471 13.299 18.1428V14.1822C13.2992 13.978 13.3804 13.7822 13.5248 13.6378C13.6692 13.4934 13.865 13.4121 14.0692 13.4119H18.0296C18.2339 13.4119 18.4298 13.4931 18.5742 13.6375C18.7187 13.782 18.7999 13.9779 18.7999 14.1822V18.1428ZM15.2613 15.7774H16.8375C16.9396 15.7774 17.0376 15.818 17.1098 15.8902C17.1821 15.9624 17.2226 16.0604 17.2226 16.1625C17.2226 16.2647 17.1821 16.3626 17.1098 16.4348C17.0376 16.5071 16.9396 16.5476 16.8375 16.5476H15.2613C15.1592 16.5476 15.0612 16.5071 14.989 16.4348C14.9168 16.3626 14.8762 16.2647 14.8762 16.1625C14.8762 16.0604 14.9168 15.9624 14.989 15.8902C15.0612 15.818 15.1592 15.7774 15.2613 15.7774ZM5.50116 14.7758C5.50116 14.9802 5.42002 15.1761 5.27547 15.3204C5.204 15.3919 5.11911 15.4487 5.02566 15.4874C4.93222 15.5262 4.83205 15.5461 4.7309 15.546H0.770254C0.669084 15.5461 0.568893 15.5262 0.475411 15.4876C0.381929 15.4489 0.29699 15.3921 0.225452 15.3206C0.153914 15.2491 0.0971797 15.1641 0.0584947 15.0706C0.0198097 14.9772 -6.73429e-05 14.877 1.71412e-07 14.7758V10.8151C1.71412e-07 10.6109 0.0811517 10.4149 0.225602 10.2705C0.370053 10.126 0.56597 10.0449 0.770254 10.0449H4.7309C4.93519 10.0449 5.1311 10.126 5.27555 10.2705C5.42 10.4149 5.50116 10.6109 5.50116 10.8151V14.7758ZM1.96235 12.4103H3.5388C3.63851 12.414 3.73292 12.4562 3.80218 12.528C3.87143 12.5998 3.91012 12.6957 3.91012 12.7955C3.91012 12.8952 3.87143 12.9911 3.80218 13.063C3.73292 13.1348 3.63851 13.177 3.5388 13.1806H1.96235C1.86264 13.177 1.76823 13.1348 1.69898 13.063C1.62973 12.9911 1.59103 12.8952 1.59103 12.7955C1.59103 12.6957 1.62973 12.5998 1.69898 12.528C1.76823 12.4562 1.86264 12.414 1.96235 12.4103ZM22 10.5594C22.0001 10.6606 21.9802 10.7608 21.9415 10.8543C21.9028 10.9477 21.8461 11.0327 21.7745 11.1042C21.703 11.1758 21.6181 11.2325 21.5246 11.2712C21.4311 11.3099 21.3309 11.3297 21.2297 11.3297H18.8545C18.6503 11.3297 18.4543 11.2485 18.3099 11.1041C18.1654 10.9596 18.0843 10.7637 18.0843 10.5594V8.18422C18.0843 7.97993 18.1654 7.78401 18.3099 7.63956C18.4543 7.49511 18.6503 7.41396 18.8545 7.41396H21.2297C21.3309 7.41389 21.4311 7.43377 21.5246 7.47246C21.6181 7.51114 21.703 7.56788 21.7745 7.63941C21.8461 7.71095 21.9028 7.79589 21.9415 7.88937C21.9802 7.98285 22.0001 8.08305 22 8.18422V10.5594ZM19.481 8.98656H20.603C20.7027 8.99021 20.7971 9.03238 20.8664 9.1042C20.9356 9.17603 20.9743 9.27192 20.9743 9.37169C20.9743 9.47147 20.9356 9.56735 20.8664 9.63918C20.7971 9.71101 20.7027 9.75318 20.603 9.75682H19.481C19.3789 9.75682 19.2809 9.71624 19.2087 9.64402C19.1365 9.57179 19.0959 9.47383 19.0959 9.37169C19.0959 9.26955 19.1365 9.17159 19.2087 9.09937C19.2809 9.02714 19.3789 8.98656 19.481 8.98656Z" fill="#333333"/>
</g>
</svg>
