<svg width="40" height="40" viewBox="0 0 40 40" fill="none" xmlns="http://www.w3.org/2000/svg">
<circle cx="20" cy="20" r="20" fill="#FFFEFE"/>
<path d="M20.4105 25.0234C17.8619 25.0234 15.7881 22.9497 15.7881 20.4011C15.7881 17.8525 17.8619 15.7788 20.4105 15.7788C22.959 15.7788 25.0328 17.8525 25.0328 20.4011C25.0328 22.9502 22.959 25.0234 20.4105 25.0234ZM20.4105 17.6999C18.9211 17.6999 17.7092 18.9118 17.7092 20.4011C17.7092 21.8905 18.9211 23.1024 20.4105 23.1024C21.8998 23.1024 23.1117 21.8905 23.1117 20.4011C23.1117 18.9118 21.8998 17.6999 20.4105 17.6999Z" fill="url(#paint0_linear_3022_23365)"/>
<path d="M24.976 16.8724C25.5767 16.8724 26.0636 16.3854 26.0636 15.7847C26.0636 15.184 25.5767 14.697 24.976 14.697C24.3753 14.697 23.8883 15.184 23.8883 15.7847C23.8883 16.3854 24.3753 16.8724 24.976 16.8724Z" fill="url(#paint1_linear_3022_23365)"/>
<path d="M24.22 29.3974H16.4757C13.6213 29.3974 11.2991 27.0752 11.2991 24.2207V16.476C11.2991 13.6215 13.6213 11.2993 16.4757 11.2993H24.2205C27.075 11.2993 29.3972 13.6215 29.3972 16.476V24.2207C29.3972 27.0747 27.0744 29.3974 24.22 29.3974ZM16.4757 13.2198C14.6805 13.2198 13.2201 14.6802 13.2201 16.4755V24.2202C13.2201 26.0154 14.6805 27.4758 16.4757 27.4758H24.2205C26.0157 27.4758 27.4761 26.0154 27.4761 24.2202V16.476C27.4761 14.6808 26.0157 13.2204 24.2205 13.2204H16.4757V13.2198Z" fill="url(#paint2_linear_3022_23365)"/>
<defs>
<linearGradient id="paint0_linear_3022_23365" x1="12.6064" y1="28.2054" x2="26.844" y2="13.9678" gradientUnits="userSpaceOnUse">
<stop stop-color="#FEE411"/>
<stop offset="0.052" stop-color="#FEDB16"/>
<stop offset="0.138" stop-color="#FEC125"/>
<stop offset="0.248" stop-color="#FE983D"/>
<stop offset="0.376" stop-color="#FE5F5E"/>
<stop offset="0.5" stop-color="#FE2181"/>
<stop offset="1" stop-color="#9000DC"/>
</linearGradient>
<linearGradient id="paint1_linear_3022_23365" x1="12.5808" y1="28.1798" x2="26.8184" y2="13.9422" gradientUnits="userSpaceOnUse">
<stop stop-color="#FEE411"/>
<stop offset="0.052" stop-color="#FEDB16"/>
<stop offset="0.138" stop-color="#FEC125"/>
<stop offset="0.248" stop-color="#FE983D"/>
<stop offset="0.376" stop-color="#FE5F5E"/>
<stop offset="0.5" stop-color="#FE2181"/>
<stop offset="1" stop-color="#9000DC"/>
</linearGradient>
<linearGradient id="paint2_linear_3022_23365" x1="12.5484" y1="28.1475" x2="26.786" y2="13.9099" gradientUnits="userSpaceOnUse">
<stop stop-color="#FEE411"/>
<stop offset="0.052" stop-color="#FEDB16"/>
<stop offset="0.138" stop-color="#FEC125"/>
<stop offset="0.248" stop-color="#FE983D"/>
<stop offset="0.376" stop-color="#FE5F5E"/>
<stop offset="0.5" stop-color="#FE2181"/>
<stop offset="1" stop-color="#9000DC"/>
</linearGradient>
</defs>
</svg>
