<svg width="60" height="60" viewBox="0 0 60 60" fill="none" xmlns="http://www.w3.org/2000/svg">
<path d="M30 60C46.5685 60 60 46.5685 60 30C60 13.4315 46.5685 0 30 0C13.4315 0 0 13.4315 0 30C0 46.5685 13.4315 60 30 60Z" fill="#FF1414"/>
<path d="M25.1953 34.4844V36H18.0391V24.7266H25.1953V26.2344H19.7891V29.5312H24.9062V30.9844H19.7891V34.4844H25.1953ZM26.7891 36V27.7812H28.3984V29.1562H28.4375C28.8828 28.2188 29.7578 27.6406 31.0234 27.6406C32.8359 27.6406 33.875 28.7969 33.875 30.6797V36H32.1797V31.0078C32.1797 29.7734 31.6016 29.0938 30.4297 29.0938C29.2422 29.0938 28.4766 29.9375 28.4766 31.2109V36H26.7891ZM38.5938 36.1406C36.5156 36.1406 35.1406 34.4844 35.1406 31.8906C35.1406 29.2969 36.5156 27.6484 38.5781 27.6484C39.7578 27.6484 40.6953 28.2422 41.1562 29.1484H41.1875V24.7266H42.8828V36H41.2422V34.6016H41.2109C40.7266 35.5391 39.7891 36.1406 38.5938 36.1406ZM39.0391 29.0703C37.7031 29.0703 36.8672 30.1641 36.8672 31.8906C36.8672 33.625 37.7031 34.7109 39.0391 34.7109C40.3359 34.7109 41.2031 33.6094 41.2031 31.8906C41.2031 30.1875 40.3359 29.0703 39.0391 29.0703Z" fill="white"/>
</svg>
