<svg width="60" height="60" viewBox="0 0 60 60" fill="none" xmlns="http://www.w3.org/2000/svg">
<path d="M30 60C46.5685 60 60 46.5685 60 30C60 13.4315 46.5685 0 30 0C13.4315 0 0 13.4315 0 30C0 46.5685 13.4315 60 30 60Z" fill="#C5E4F6"/>
<path d="M45.0987 34.7904C45.1029 35.3222 45.0635 35.7513 44.9401 36.1525C44.8168 36.5537 44.567 36.9683 44.1751 37.2099C43.7843 37.4504 43.3624 37.4618 43.0576 37.4307C42.7529 37.3985 42.5175 37.3229 42.3144 37.2627C40.804 36.8087 39.275 36.3598 37.7771 35.8882V26.5907C39.248 26.0465 40.7314 25.5053 42.2055 24.9653C42.4118 24.8906 42.6212 24.8585 42.8265 24.8616C43.4381 24.872 44.0061 25.1975 44.343 25.5779C44.7929 26.0858 45.0417 26.7099 45.0459 27.4065L45.0987 34.7904ZM14 25.1861V37.2845C14 38.9897 15.4036 40.3996 17.1068 40.3996H32.5919C33.4637 40.3996 34.2525 40.0284 34.8175 39.4396L17.4571 22.0793C15.5663 22.2337 14.0446 23.7586 14 25.1861ZM35.6997 34.4566V25.1861C35.6959 24.3633 35.3673 23.5753 34.7855 22.9935C34.2037 22.4117 33.4157 22.0831 32.5929 22.0793H23.3213L18.5663 17.3253C18.471 17.2243 18.3564 17.1434 18.2292 17.0876C18.1021 17.0317 17.965 17.0019 17.8261 17.0001C17.6872 16.9982 17.5494 17.0243 17.4208 17.0768C17.2922 17.1292 17.1754 17.207 17.0774 17.3054C16.9795 17.4039 16.9023 17.521 16.8505 17.6499C16.7986 17.7788 16.7732 17.9167 16.7758 18.0556C16.7783 18.1945 16.8088 18.3314 16.8653 18.4583C16.9218 18.5852 17.0032 18.6994 17.1047 18.7942L41.9826 43.6712C42.3724 44.0889 43.0296 44.1117 43.4474 43.7219C43.8662 43.3311 43.89 42.675 43.4744 42.2323L35.6997 34.4566Z" fill="#15355E"/>
</svg>
