<svg width="140" height="141" viewBox="0 0 140 141" fill="none" xmlns="http://www.w3.org/2000/svg">
<path d="M70 1.04053C108.384 1.04053 139.5 32.1567 139.5 70.5405C139.5 108.924 108.384 140.041 70 140.041C31.6162 140.041 0.5 108.924 0.5 70.5405C0.5 32.1567 31.6162 1.04053 70 1.04053Z" fill="#15355E" fill-opacity="0.2"/>
<path d="M70 1.04053C108.384 1.04053 139.5 32.1567 139.5 70.5405C139.5 108.924 108.384 140.041 70 140.041C31.6162 140.041 0.5 108.924 0.5 70.5405C0.5 32.1567 31.6162 1.04053 70 1.04053Z" stroke="#15355E"/>
<path d="M86.5337 66.1227V69.3455C86.5338 69.6246 86.456 69.8982 86.3093 70.1357C86.1625 70.3731 85.9526 70.565 85.7029 70.6899L85.0307 71.0259H103.07L101.725 70.3535C101.226 70.1038 100.806 69.7201 100.512 69.2453C100.219 68.7705 100.063 68.2233 100.063 67.6651L100.061 42.4681H77.5156V54.4925C77.5156 60.0932 81.3504 64.786 86.5337 66.1227Z" fill="#F5B97D"/>
<path d="M35.4304 49.9831C40.4111 49.9831 44.4487 45.9455 44.4487 40.9648C44.4487 35.9842 40.4111 31.9465 35.4304 31.9465C30.4497 31.9465 26.4121 35.9842 26.4121 40.9648C26.4121 45.9455 30.4497 49.9831 35.4304 49.9831Z" fill="#FFC269"/>
<path d="M60.9315 52.9892C60.9315 43.858 55.0827 36.4558 45.9514 36.4558C36.82 36.4558 29.418 43.858 29.418 52.9892C29.418 60.5045 36.8202 65.0135 45.9514 65.0135C55.0825 65.0135 60.9315 60.5045 60.9315 52.9892Z" fill="#FFA95F"/>
<path d="M39.9393 46.9772C37.9203 45.72 35.7674 43.9235 34.471 41.1071C31.3601 44.1135 29.418 48.3214 29.418 52.9895C29.418 60.4642 36.7427 64.9611 45.806 65.0093L39.9393 46.9772Z" fill="#FF8B5A"/>
<path d="M50.4608 74.0319H38.4364C31.7957 74.0319 26.4121 79.4154 26.4121 86.0562V104.093H57.9761V81.5471C57.9761 77.3966 54.6113 74.0319 50.4608 74.0319Z" fill="#95D6A4"/>
<path d="M38.4364 78.5412H41.4425V74.0321H38.4364C31.7957 74.0321 26.4121 79.4157 26.4121 86.0564V104.093H30.9212V86.0564C30.9214 81.9125 34.2926 78.5412 38.4364 78.5412Z" fill="#78C2A4"/>
<path d="M44.4488 80.0441C41.1283 80.0441 38.4365 77.3523 38.4365 74.032V66.5167H50.4609V74.032C50.4609 77.3523 47.7693 80.0441 44.4488 80.0441Z" fill="#F7D291"/>
<path d="M38.4365 73.5317C40.6387 74.7989 43.1835 75.535 45.9014 75.535C47.4488 75.535 48.987 75.2949 50.4609 74.8234V68.0199H38.4365V73.5317Z" fill="#ECBD83"/>
<path d="M63.9885 83.0502H36.9336V104.093H63.9883C65.6485 104.093 66.9943 102.747 66.9943 101.087V86.0564C66.9945 84.3961 65.6486 83.0502 63.9885 83.0502Z" fill="#ECEAEC"/>
<path d="M36.9338 83.0502C35.2736 83.0502 33.9277 84.3961 33.9277 86.0562V101.087C33.9277 102.747 35.2736 104.093 36.9338 104.093H63.9885C65.6486 104.093 66.9945 102.747 66.9945 101.087H66.9941L66.9945 99.5836H42.946C40.4556 99.5836 38.437 97.5647 38.437 95.0745V83.0502H36.9338Z" fill="#DAD8DB"/>
<path d="M39.8892 46.9772C44.6675 50.3653 51.4945 51.4637 55.2293 51.8187C56.7648 51.9645 57.9256 53.2656 57.9256 54.808V59.0015C57.9256 65.6423 52.5421 71.0258 45.9013 71.0258C39.2605 71.0258 33.877 65.6423 33.877 59.0015V58.9989C33.8769 55.5344 35.1649 52.1936 37.4905 49.6256L39.8892 46.9772Z" fill="#FFE1A0"/>
<path d="M50.4611 96.5775C52.1213 96.5775 53.4672 95.2317 53.4672 93.5715C53.4672 91.9113 52.1213 90.5654 50.4611 90.5654C48.8009 90.5654 47.4551 91.9113 47.4551 93.5715C47.4551 95.2317 48.8009 96.5775 50.4611 96.5775Z" fill="#333333"/>
<path d="M108.762 73.8719L103.07 71.0258H85.0312L76.3303 75.3762C75.3317 75.8755 74.4918 76.643 73.9048 77.5928C73.3178 78.5426 73.0068 79.637 73.0068 80.7536V110.105H112.086V79.2494C112.086 78.1329 111.775 77.0384 111.188 76.0886C110.601 75.1388 109.761 74.3712 108.762 73.8719Z" fill="#C3DDFF"/>
<path d="M83.5283 88.1652C83.5283 87.0381 83.2748 85.9255 82.7866 84.9096C82.2983 83.8938 81.5879 83.0008 80.7077 82.2967L74.2412 77.1235C73.461 78.1509 73.0068 79.415 73.0068 80.7536V110.105H83.5282L83.5283 88.1652Z" fill="#A4CCFF"/>
<path d="M110.583 89.0624H89.5406C86.2201 89.0624 83.5283 91.7542 83.5283 95.0746L88.0374 110.105H116.595V95.0746C116.595 91.754 113.904 89.0624 110.583 89.0624Z" fill="#9B959D"/>
<path d="M86.5339 66.1227V42.4681H77.5156V54.4925C77.5158 60.0932 81.3506 64.786 86.5339 66.1227Z" fill="#E3AA75"/>
<path d="M94.0494 33.4498H82.025C77.8745 33.4498 74.5098 36.8146 74.5098 40.9651C74.5098 42.6253 75.8557 43.9711 77.5158 43.9711H79.0188C81.5092 43.9711 83.5279 45.99 83.5279 48.4802V52.9893C83.5279 57.1398 86.8926 60.5045 91.0432 60.5045H98.5584C101.879 60.5045 104.571 57.8128 104.571 54.4923V43.9711C104.571 38.1603 99.8601 33.4498 94.0494 33.4498Z" fill="#9F6E50"/>
<path d="M94.0496 89.0624H89.5406C86.2201 89.0624 83.5283 91.7542 83.5283 95.0746V110.105H88.0374V95.0746C88.0376 91.754 90.7292 89.0624 94.0496 89.0624Z" fill="#857E87"/>
<path d="M82.025 33.4498C77.8745 33.4498 74.5098 36.8146 74.5098 40.9651C74.5098 42.6253 75.8557 43.9711 77.5158 43.9711H79.0188C81.5092 43.9711 83.5279 45.99 83.5279 48.4802V33.4498H82.025Z" fill="#785353"/>
<path d="M38.4363 59.0015V48.5811L37.4903 49.6254C35.1648 52.1934 33.8769 55.5342 33.877 58.9987V59.0015C33.877 65.6423 39.2603 71.0258 45.9013 71.0258C46.6815 71.0258 47.4422 70.9454 48.1809 70.8035C42.6313 69.7375 38.4363 64.8623 38.4363 59.0015Z" fill="#F7D291"/>
<path d="M43.116 62.934C43.0403 63.1025 42.9985 63.2842 42.993 63.4688C42.9875 63.6533 43.0184 63.8372 43.0839 64.0099C43.1495 64.1825 43.2484 64.3406 43.375 64.475C43.5017 64.6094 43.6535 64.7176 43.822 64.7933C44.8904 65.2737 46.1294 65.5277 47.4048 65.5277C48.6802 65.5277 49.9192 65.2739 50.9876 64.7933C51.156 64.7176 51.3079 64.6094 51.4345 64.475C51.5611 64.3406 51.66 64.1825 51.7256 64.0099C51.7912 63.8372 51.8221 63.6533 51.8166 63.4688C51.811 63.2842 51.7692 63.1025 51.6935 62.934C51.6178 62.7656 51.5096 62.6137 51.3752 62.4871C51.2408 62.3605 51.0827 62.2615 50.9101 62.196C50.7374 62.1304 50.5536 62.0995 50.369 62.105C50.1844 62.1105 50.0027 62.1523 49.8342 62.2281C49.1257 62.5466 48.2857 62.715 47.4048 62.715C46.5239 62.715 45.6839 62.5466 44.9753 62.2281C44.8069 62.1523 44.6252 62.1105 44.4406 62.105C44.256 62.0994 44.0721 62.1303 43.8994 62.1959C43.7268 62.2615 43.5687 62.3604 43.4343 62.487C43.2999 62.6137 43.1917 62.7656 43.116 62.934ZM42.8955 58.9048C43.2685 58.9048 43.6262 58.7566 43.8899 58.4929C44.1536 58.2292 44.3018 57.8715 44.3018 57.4985V55.9955C44.3018 55.6225 44.1536 55.2648 43.8899 55.0011C43.6262 54.7374 43.2685 54.5892 42.8955 54.5892C42.5226 54.5892 42.1649 54.7374 41.9011 55.0011C41.6374 55.2648 41.4893 55.6225 41.4893 55.9955V57.4985C41.4893 57.8715 41.6374 58.2292 41.9011 58.4929C42.1649 58.7566 42.5226 58.9048 42.8955 58.9048ZM51.9138 58.9048C52.2868 58.9048 52.6445 58.7566 52.9082 58.4929C53.1719 58.2292 53.3201 57.8715 53.3201 57.4985V55.9955C53.3201 55.6225 53.1719 55.2648 52.9082 55.0011C52.6445 54.7374 52.2868 54.5892 51.9138 54.5892C51.5409 54.5892 51.1832 54.7374 50.9194 55.0011C50.6557 55.2648 50.5076 55.6225 50.5076 55.9955V57.4985C50.5076 57.8715 50.6557 58.2292 50.9194 58.4929C51.1832 58.7566 51.5409 58.9048 51.9138 58.9048ZM50.4612 89.159C48.0282 89.159 46.0489 91.1385 46.0489 93.5713C46.0489 96.0044 48.0284 97.9838 50.4612 97.9838C52.8941 97.9838 54.8735 96.0044 54.8735 93.5713C54.8735 91.1385 52.8941 89.159 50.4612 89.159ZM50.4612 95.1713C49.579 95.1713 48.8615 94.4535 48.8615 93.5713C48.8615 92.6891 49.5792 91.9716 50.4612 91.9716C51.3433 91.9716 52.061 92.6893 52.061 93.5713C52.061 94.4537 51.3433 95.1713 50.4612 95.1713Z" fill="#333333"/>
<path d="M113.492 88.2511V79.2495C113.492 76.4214 111.921 73.8789 109.391 72.6142L102.354 69.0955C102.088 68.9635 101.864 68.7595 101.708 68.5066C101.551 68.2538 101.469 67.9623 101.47 67.6651L101.468 61.3157C104.116 60.182 105.977 57.5506 105.977 54.4923V43.9709C105.977 37.3941 100.626 32.0434 94.0493 32.0434H82.0249C77.1056 32.0434 73.1034 36.0456 73.1034 40.9649C73.1034 42.9061 74.3642 44.5575 76.1094 45.1462V54.4925C76.1094 60.2426 79.7661 65.3063 85.1277 67.1659V69.4051L75.7012 74.1183C73.1718 75.383 71.6004 77.9256 71.6004 80.7537V102.687H68.0523C68.2827 102.133 68.4011 101.539 68.4006 100.94V86.203C68.4006 83.6892 66.3554 81.6439 63.8415 81.6439H59.3823V81.5472C59.3823 77.1064 56.1205 73.4139 51.8669 72.7376V71.0298C55.7122 69.1148 58.5166 65.412 59.1806 61.0149C61.2172 58.8616 62.3379 56.0255 62.3379 52.9894C62.3379 48.1269 60.7616 43.6462 57.8994 40.3728C54.8978 36.9402 50.6369 35.0496 45.9013 35.0496C45.2692 35.0496 44.645 35.083 44.0298 35.1469C42.1025 32.2879 38.8557 30.5405 35.3802 30.5405C29.6321 30.5405 24.9556 35.2168 24.9556 40.9651C24.9556 43.9756 26.2272 46.7859 28.4651 48.7663C28.1302 50.149 27.9612 51.5667 27.9616 52.9894C27.9616 56.8683 29.7851 60.3675 32.9679 62.6126C33.6763 65.1461 35.1092 67.3787 37.0302 69.0728V72.6997C30.2833 73.4051 25.006 79.1258 25.006 86.0562V102.687H23.4063C23.0333 102.687 22.6756 102.835 22.4119 103.098C22.1482 103.362 22 103.72 22 104.093C22 104.466 22.1482 104.823 22.4119 105.087C22.6756 105.351 23.0333 105.499 23.4063 105.499H71.6004V110.105C71.6004 110.478 71.7485 110.836 72.0123 111.099C72.276 111.363 72.6337 111.511 73.0066 111.511C73.3796 111.511 73.7373 111.363 74.001 111.099C74.2647 110.836 74.4129 110.478 74.4129 110.105V80.7537C74.4129 80.1595 74.5271 79.5866 74.7358 79.0569L79.9236 83.3802C80.6124 83.9528 81.1666 84.6702 81.5465 85.4813C81.9264 86.2925 82.1228 87.1775 82.1217 88.0732V110.105C82.1217 110.478 82.2698 110.836 82.5336 111.099C82.7973 111.363 83.155 111.511 83.528 111.511C83.9009 111.511 84.2586 111.363 84.5223 111.099C84.7861 110.836 84.9342 110.478 84.9342 110.105V95.0745C84.9342 92.5348 87.0005 90.4685 89.54 90.4685H110.583C113.122 90.4685 115.188 92.5348 115.188 95.0745V110.105C115.188 110.478 115.337 110.836 115.6 111.099C115.864 111.363 116.222 111.511 116.595 111.511C116.968 111.511 117.325 111.363 117.589 111.099C117.853 110.836 118.001 110.478 118.001 110.105V95.0745C118.001 92.0162 116.141 89.3846 113.492 88.2511ZM27.7683 40.9649C27.7683 36.7677 31.1829 33.3529 35.3804 33.3529C37.4988 33.3529 39.4988 34.2448 40.9218 35.7533C35.7942 37.2372 31.6054 40.9522 29.4787 45.7738C28.3786 44.4292 27.7683 42.7454 27.7683 40.9649ZM32.4879 58.2796C31.3719 56.78 30.7744 54.9728 30.7744 52.9894C30.7744 44.6482 37.5604 37.8621 45.9015 37.8621C49.8703 37.8621 53.287 39.3704 55.7823 42.2242C58.1962 44.9848 59.5256 48.8079 59.5256 52.9894C59.5256 53.6453 59.459 54.2813 59.3321 54.8945V54.808C59.3321 52.5209 57.6256 50.6338 55.3627 50.4188C51.8311 50.083 45.2304 49.0404 40.7028 45.8298C40.4222 45.6309 40.0784 45.5416 39.7364 45.5791C39.3944 45.6165 39.078 45.7779 38.8471 46.0329L36.4486 48.6814C34.0527 51.3231 32.6522 54.7171 32.4879 58.2796ZM35.2834 58.9987C35.2812 55.8827 36.4398 52.8776 38.5332 50.5695L40.1225 48.8147C45.0821 51.8625 51.5417 52.8807 55.0966 53.2186C55.9079 53.2956 56.5196 53.9789 56.5196 54.8078V59.0013C56.5196 64.8561 51.7562 69.6194 45.9015 69.6194C40.0467 69.6194 35.2834 64.8563 35.2834 58.9987ZM49.0547 72.0547V72.5289C49.0547 75.0686 46.9884 77.1347 44.4487 77.1347C41.909 77.1347 39.8429 75.0684 39.8429 72.5289V70.982C41.7198 71.9367 43.7959 72.4336 45.9017 72.4321C46.9875 72.4321 48.0426 72.2992 49.0547 72.0547ZM65.5883 100.94C65.5883 101.903 64.8047 102.687 63.8417 102.687H37.0804C36.1174 102.687 35.3339 101.903 35.3339 100.94V93.5715C35.3339 93.1985 35.1857 92.8408 34.922 92.5771C34.6582 92.3134 34.3006 92.1652 33.9276 92.1652C33.5546 92.1652 33.1969 92.3134 32.9332 92.5771C32.6695 92.8408 32.5213 93.1985 32.5213 93.5715V100.94C32.5213 101.559 32.6456 102.148 32.8697 102.687H27.8186V86.0562C27.8186 80.4696 32.1563 75.8803 37.6401 75.4712C38.7815 78.102 41.4031 79.9472 44.4487 79.9472C47.4866 79.9472 50.1027 78.1108 51.2485 75.4905C54.2461 75.8782 56.57 78.4455 56.57 81.547V81.6437H37.0804C34.5666 81.6437 32.5213 83.689 32.5213 86.2028V87.5591C32.5213 87.932 32.6695 88.2897 32.9332 88.5534C33.1969 88.8172 33.5546 88.9653 33.9276 88.9653C34.3006 88.9653 34.6582 88.8172 34.922 88.5534C35.1857 88.2897 35.3339 87.932 35.3339 87.5591V86.2028C35.3339 85.2398 36.1174 84.4563 37.0804 84.4563H57.9708L57.9763 84.4565L57.9817 84.4563H63.8417C64.8047 84.4563 65.5883 85.2398 65.5883 86.2028V100.94ZM78.9221 54.4925V45.3774H79.0189C80.7299 45.3774 82.1217 46.7694 82.1217 48.4804V52.9894C82.1217 57.9087 86.1239 61.911 91.0432 61.911H92.5461C92.919 61.911 93.2767 61.7628 93.5405 61.4991C93.8042 61.2354 93.9523 60.8777 93.9523 60.5047C93.9523 60.1318 93.8042 59.7741 93.5405 59.5103C93.2767 59.2466 92.919 59.0984 92.5461 59.0984H91.0432C87.6748 59.0984 84.9342 56.3579 84.9342 52.9894V48.4804C84.9342 45.2186 82.2807 42.5649 79.0189 42.5649H77.5159C76.6337 42.5649 75.9161 41.8471 75.9161 40.9651C75.9161 37.5966 78.6566 34.8561 82.0251 34.8561H94.0495C99.0755 34.8561 103.165 38.9451 103.165 43.9711V54.4925C103.165 57.0322 101.098 59.0983 98.5587 59.0983C98.1857 59.0983 97.828 59.2464 97.5643 59.5101C97.3006 59.7739 97.1524 60.1316 97.1524 60.5045C97.1524 60.8775 97.3006 61.2352 97.5643 61.4989C97.828 61.7626 98.1857 61.9108 98.5587 61.9108C98.5913 61.9108 98.6234 61.9087 98.6558 61.9084L98.6575 67.666C98.6573 68.3435 98.813 69.0119 99.1126 69.6196H87.9406V66.1227C87.9406 65.8108 87.837 65.5079 87.646 65.2614C87.455 65.0149 87.1875 64.8389 86.8856 64.761C82.1967 63.5518 78.9221 59.3293 78.9221 54.4925ZM110.68 87.6584C110.647 87.6581 110.615 87.656 110.583 87.656H89.54C87.8008 87.656 86.2004 88.2592 84.9342 89.2655V88.0732C84.9359 86.765 84.6491 85.4726 84.0942 84.288C83.5394 83.1034 82.7302 82.0556 81.7242 81.2194L76.5231 76.8851C76.6631 76.7951 76.8075 76.7098 76.959 76.634L85.3629 72.4321H102.738L108.134 75.1299C109.704 75.9152 110.68 77.4936 110.68 79.2495V87.6584Z" fill="#333333"/>
</svg>
