<svg width="60" height="60" viewBox="0 0 60 60" fill="none" xmlns="http://www.w3.org/2000/svg">
<path d="M30 60C46.5685 60 60 46.5685 60 30C60 13.4315 46.5685 0 30 0C13.4315 0 0 13.4315 0 30C0 46.5685 13.4315 60 30 60Z" fill="#C5E4F6"/>
<path d="M36.5766 34.6279C36.4403 34.6281 36.3055 34.5989 36.1815 34.5423C36.0664 34.4904 35.9626 34.4162 35.8762 34.3242C35.7897 34.2321 35.7222 34.124 35.6776 34.0058C35.6329 33.8877 35.612 33.7619 35.616 33.6357C35.6199 33.5095 35.6487 33.3853 35.7007 33.2702C36.0948 32.4 36.2978 31.4553 36.2959 30.5C36.2959 30.245 36.3972 30.0004 36.5775 29.8201C36.7578 29.6398 37.0024 29.5385 37.2574 29.5385C37.5124 29.5385 37.757 29.6398 37.9373 29.8201C38.1177 30.0004 38.219 30.245 38.219 30.5C38.2196 31.7272 37.9573 32.9404 37.4497 34.0577C37.3745 34.2266 37.252 34.3703 37.0972 34.4714C36.9423 34.5726 36.7616 34.6269 36.5766 34.6279ZM24.7574 22.8077C24.7574 21.5326 25.2639 20.3098 26.1656 19.4081C27.0672 18.5065 28.29 18 29.5651 18C30.8402 18 32.063 18.5065 32.9647 19.4081C33.8663 20.3098 34.3728 21.5326 34.3728 22.8077V30.5C34.3728 30.755 34.2715 30.9996 34.0912 31.1799C33.9108 31.3602 33.6663 31.4615 33.4113 31.4615L24.7574 22.8077ZM39.8603 39.4356L20.6295 20.2048C20.4482 20.0297 20.2053 19.9327 19.9532 19.9349C19.7011 19.9371 19.4599 20.0382 19.2816 20.2165C19.1034 20.3948 19.0022 20.636 19 20.8881C18.9978 21.1402 19.0948 21.3831 19.2699 21.5644L24.7574 27.0519V30.5C24.7575 31.3686 24.9928 32.2209 25.4384 32.9664C25.884 33.7119 26.5233 34.3228 27.2883 34.7342C28.0532 35.1455 28.9154 35.3419 29.783 35.3026C30.6507 35.2632 31.4915 34.9895 32.2161 34.5106L33.5911 35.8856C32.5918 36.6354 31.4034 37.0919 30.1592 37.2039C28.9149 37.316 27.6641 37.079 26.547 36.5197C25.4299 35.9604 24.4908 35.1009 23.835 34.0376C23.1792 32.9743 22.8327 31.7493 22.8343 30.5C22.8343 30.245 22.733 30.0004 22.5527 29.8201C22.3724 29.6398 22.1278 29.5385 21.8728 29.5385C21.6178 29.5385 21.3732 29.6398 21.1929 29.8201C21.0126 30.0004 20.9113 30.245 20.9113 30.5C20.9141 32.6275 21.6998 34.6796 23.1184 36.2651C24.537 37.8506 26.4895 38.8586 28.6036 39.0971V41.0769H25.719C25.4639 41.0769 25.2194 41.1782 25.039 41.3585C24.8587 41.5389 24.7574 41.7834 24.7574 42.0385C24.7574 42.2935 24.8587 42.538 25.039 42.7184C25.2194 42.8987 25.4639 43 25.719 43H33.4113C33.6663 43 33.9108 42.8987 34.0912 42.7184C34.2715 42.538 34.3728 42.2935 34.3728 42.0385C34.3728 41.7834 34.2715 41.5389 34.0912 41.3585C33.9108 41.1782 33.6663 41.0769 33.4113 41.0769H30.5266V39.0971C32.1508 38.9198 33.6905 38.2819 34.9641 37.2587L38.5007 40.7952C38.682 40.9703 38.9249 41.0673 39.177 41.0651C39.4291 41.0629 39.6703 40.9618 39.8486 40.7835C40.0269 40.6052 40.128 40.364 40.1302 40.1119C40.1324 39.8598 40.0355 39.6169 39.8603 39.4356Z" fill="#15355E"/>
</svg>
