<svg width="13" height="15" viewBox="0 0 13 15" fill="none" xmlns="http://www.w3.org/2000/svg">
<path d="M6.34508 8.07687C8.57544 8.07687 10.3835 6.2688 10.3835 4.03843C10.3835 1.80807 8.57544 0 6.34508 0C4.11471 0 2.30664 1.80807 2.30664 4.03843C2.30664 6.2688 4.11471 8.07687 6.34508 8.07687Z" fill="#15355E"/>
<path fill-rule="evenodd" clip-rule="evenodd" d="M12.6922 13.2689V14.4227C12.6922 14.5756 12.6316 14.7227 12.5232 14.8306C12.4153 14.9391 12.2682 14.9997 12.1153 14.9997H0.576919C0.424036 14.9997 0.276921 14.9391 0.169037 14.8306C0.0605761 14.7227 0 14.5756 0 14.4227V13.2689C0 11.0385 1.80806 9.23047 4.03843 9.23047C5.52343 9.23047 7.1688 9.23047 8.65379 9.23047C10.8842 9.23047 12.6922 11.0385 12.6922 13.2689Z" fill="#15355E"/>
</svg>
