<svg width="26" height="26" viewBox="0 0 26 26" fill="none" xmlns="http://www.w3.org/2000/svg">
<g clip-path="url(#clip0_68_446)">
<rect width="25.7276" height="25.7276" rx="6.4319" fill="#15355E"/>
<path d="M19.693 9.18605H15.814V5.30698L19.693 9.18605ZM15.2907 10.2326C15.0047 10.2326 14.7674 9.99535 14.7674 9.7093V5H9.7093C8.64884 5 7.7907 5.85814 7.7907 6.9186V9.27674C8.49535 8.99767 9.25581 8.83721 10.0581 8.83721C13.4279 8.83721 16.1628 11.5721 16.1628 14.9419C16.1628 17.0419 15.0953 18.9047 13.4698 20H18.0814C19.1419 20 20 19.1419 20 18.0814V10.2326H15.2907ZM15.1163 14.9419C15.1163 17.7326 12.8488 20 10.0581 20C7.26744 20 5 17.7326 5 14.9419C5 12.1512 7.26744 9.88372 10.0581 9.88372C12.8488 9.88372 15.1163 12.1512 15.1163 14.9419ZM11.914 16.0581L10.5814 14.7256V12.8488C10.5814 12.5628 10.3442 12.3256 10.0581 12.3256C9.77209 12.3256 9.53488 12.5628 9.53488 12.8488V14.9419C9.53488 15.0814 9.5907 15.214 9.68837 15.3116L11.1744 16.7977C11.2791 16.9023 11.4116 16.9512 11.5442 16.9512C11.6767 16.9512 11.8093 16.9023 11.914 16.7977C12.1163 16.5953 12.1163 16.2605 11.914 16.0581Z" fill="white"/>
</g>
<defs>
<clipPath id="clip0_68_446">
<rect width="25.7276" height="25.7276" fill="white"/>
</clipPath>
</defs>
</svg>
