<svg width="26" height="26" viewBox="0 0 26 26" fill="none" xmlns="http://www.w3.org/2000/svg">
<g clip-path="url(#clip0_68_4753)">
<rect width="25.7276" height="25.7276" rx="6.4319" fill="#15355E"/>
<path d="M8.83635 8.7825C9.88086 8.7825 10.7276 7.93576 10.7276 6.89125C10.7276 5.84674 9.88086 5 8.83635 5C7.79184 5 6.9451 5.84674 6.9451 6.89125C6.9451 7.93576 7.79184 8.7825 8.83635 8.7825Z" fill="white"/>
<path d="M11.6738 10.6745V12.0929C11.6734 12.2182 11.6235 12.3382 11.5349 12.4268C11.4463 12.5154 11.3262 12.5653 11.2009 12.5657H6.47282C6.34753 12.5653 6.22748 12.5154 6.13889 12.4268C6.0503 12.3382 6.00037 12.2182 6.00001 12.0929V10.6745C5.99845 9.97531 6.25814 9.3008 6.72814 8.7832C6.99307 9.08062 7.31792 9.31863 7.68135 9.4816C8.04478 9.64457 8.43858 9.72883 8.83688 9.72883C9.23518 9.72883 9.62898 9.64457 9.99241 9.4816C10.3558 9.31863 10.6807 9.08062 10.9456 8.7832C11.4156 9.3008 11.6753 9.97531 11.6738 10.6745Z" fill="white"/>
<path d="M17.3473 16.347C18.3918 16.347 19.2386 15.5002 19.2386 14.4557C19.2386 13.4112 18.3918 12.5645 17.3473 12.5645C16.3028 12.5645 15.4561 13.4112 15.4561 14.4557C15.4561 15.5002 16.3028 16.347 17.3473 16.347Z" fill="white"/>
<path d="M20.1847 18.2389V19.6573C20.1843 19.7826 20.1344 19.9027 20.0458 19.9913C19.9572 20.0799 19.8372 20.1298 19.7119 20.1302H14.9838C14.8585 20.1298 14.7384 20.0799 14.6498 19.9913C14.5613 19.9027 14.5113 19.7826 14.511 19.6573V18.2389C14.5094 17.5398 14.7691 16.8653 15.2391 16.3477C15.504 16.6451 15.8289 16.8831 16.1923 17.0461C16.5557 17.209 16.9495 17.2933 17.3478 17.2933C17.7461 17.2933 18.1399 17.209 18.5034 17.0461C18.8668 16.8831 19.1916 16.6451 19.4566 16.3477C19.9266 16.8653 20.1863 17.5398 20.1847 18.2389Z" fill="white"/>
<path d="M17.3471 11.6189C17.2217 11.6189 17.1015 11.5691 17.0128 11.4804C16.9241 11.3917 16.8743 11.2715 16.8743 11.1461V8.78203C16.8739 8.40596 16.7243 8.04542 16.4584 7.7795C16.1925 7.51358 15.8319 7.36401 15.4559 7.36359H12.1462C12.0208 7.36359 11.9005 7.31378 11.8119 7.22511C11.7232 7.13644 11.6734 7.01618 11.6734 6.89078C11.6734 6.76538 11.7232 6.64512 11.8119 6.55645C11.9005 6.46778 12.0208 6.41797 12.1462 6.41797H15.4559C16.0826 6.41871 16.6835 6.66801 17.1267 7.1112C17.5699 7.55439 17.8192 8.15527 17.8199 8.78203V11.1461C17.8199 11.2715 17.7701 11.3917 17.6814 11.4804C17.5928 11.5691 17.4725 11.6189 17.3471 11.6189Z" fill="white"/>
<path d="M17.3475 11.6198C17.2854 11.6199 17.2239 11.6077 17.1666 11.5839C17.1092 11.5601 17.0571 11.5253 17.0133 11.4813L16.0676 10.5357C15.9815 10.4465 15.9338 10.327 15.9349 10.2031C15.936 10.0791 15.9857 9.96052 16.0734 9.87286C16.1611 9.7852 16.2796 9.73547 16.4036 9.73439C16.5276 9.73332 16.647 9.78097 16.7362 9.8671L17.3475 10.4784L17.9589 9.8671C18.0481 9.78097 18.1675 9.73332 18.2915 9.73439C18.4154 9.73547 18.534 9.7852 18.6217 9.87286C18.7093 9.96052 18.7591 10.0791 18.7601 10.2031C18.7612 10.327 18.7136 10.4465 18.6274 10.5357L17.6818 11.4813C17.638 11.5253 17.5859 11.5601 17.5285 11.5839C17.4711 11.6077 17.4096 11.6199 17.3475 11.6198Z" fill="white"/>
<path d="M13.0927 18.7107H9.78298C9.15621 18.71 8.55534 18.4607 8.11215 18.0175C7.66896 17.5743 7.41965 16.9734 7.41891 16.3466V13.9826C7.41891 13.8572 7.46873 13.7369 7.5574 13.6482C7.64607 13.5596 7.76633 13.5098 7.89173 13.5098C8.01712 13.5098 8.13739 13.5596 8.22606 13.6482C8.31473 13.7369 8.36454 13.8572 8.36454 13.9826V16.3466C8.36495 16.7227 8.51453 17.0832 8.78045 17.3492C9.04636 17.6151 9.40691 17.7647 9.78298 17.7651H13.0927C13.2181 17.7651 13.3383 17.8149 13.427 17.9036C13.5157 17.9922 13.5655 18.1125 13.5655 18.2379C13.5655 18.3633 13.5157 18.4835 13.427 18.5722C13.3383 18.6609 13.2181 18.7107 13.0927 18.7107Z" fill="white"/>
<path d="M8.83664 15.401C8.77455 15.4011 8.71305 15.3889 8.65568 15.3651C8.59831 15.3414 8.54621 15.3065 8.50237 15.2625L7.89102 14.6512L7.27967 15.2625C7.1905 15.3486 7.07107 15.3963 6.9471 15.3952C6.82313 15.3941 6.70454 15.3444 6.61688 15.2567C6.52921 15.1691 6.47949 15.0505 6.47841 14.9265C6.47733 14.8025 6.52499 14.6831 6.61112 14.5939L7.55674 13.6483C7.60063 13.6044 7.65274 13.5695 7.71009 13.5458C7.76745 13.522 7.82893 13.5098 7.89102 13.5098C7.95311 13.5098 8.01459 13.522 8.07195 13.5458C8.1293 13.5695 8.18141 13.6044 8.2253 13.6483L9.17092 14.5939C9.23703 14.6601 9.28204 14.7443 9.30028 14.836C9.31851 14.9277 9.30915 15.0228 9.27337 15.1091C9.23759 15.1955 9.17701 15.2694 9.09927 15.3213C9.02154 15.3733 8.93014 15.401 8.83664 15.401Z" fill="white"/>
</g>
<defs>
<clipPath id="clip0_68_4753">
<rect width="25.7276" height="25.7276" fill="white"/>
</clipPath>
</defs>
</svg>
