<svg width="26" height="26" viewBox="0 0 26 26" fill="none" xmlns="http://www.w3.org/2000/svg">
<g clip-path="url(#clip0_68_413)">
<rect width="25.7276" height="25.7276" rx="6.4319" fill="#15355E"/>
<path d="M13.1607 12.2255C14.1533 12.2255 15.0128 11.8695 15.7152 11.167C16.4175 10.4647 16.7735 9.6054 16.7735 8.61266C16.7735 7.6202 16.4175 6.76079 15.7151 6.05822C15.0126 5.35601 14.1532 5 13.1607 5C12.1679 5 11.3085 5.35601 10.6062 6.05834C9.90393 6.76067 9.54777 7.62012 9.54777 8.61266C9.54777 9.6054 9.9039 10.4648 10.6063 11.1672C11.3088 11.8694 12.1682 12.2255 13.1607 12.2255ZM19.4822 16.5342C19.4619 16.2419 19.421 15.923 19.3606 15.5864C19.2998 15.2472 19.2214 14.9265 19.1275 14.6334C19.0306 14.3305 18.8988 14.0314 18.7358 13.7447C18.5667 13.4472 18.368 13.1881 18.1451 12.9749C17.912 12.7518 17.6266 12.5725 17.2965 12.4417C16.9676 12.3116 16.6031 12.2457 16.2132 12.2457C16.0601 12.2457 15.912 12.3085 15.626 12.4947C15.4227 12.6271 15.2188 12.7585 15.0143 12.889C14.8179 13.0142 14.5517 13.1315 14.2229 13.2377C13.9021 13.3415 13.5764 13.3942 13.2549 13.3942C12.9335 13.3942 12.6079 13.3415 12.2868 13.2377C11.9584 13.1316 11.6922 13.0144 11.4959 12.8891C11.2682 12.7437 11.0623 12.6109 10.8836 12.4946C10.598 12.3084 10.4498 12.2455 10.2967 12.2455C9.90665 12.2455 9.54229 12.3116 9.21349 12.4418C8.88367 12.5724 8.59814 12.7517 8.3648 12.975C8.142 13.1883 7.94322 13.4472 7.77429 13.7447C7.61146 14.0314 7.47963 14.3304 7.38257 14.6336C7.28882 14.9266 7.21045 15.2472 7.14957 15.5864C7.08925 15.9226 7.04829 16.2416 7.02802 16.5345C7.00785 16.8293 6.99786 17.1248 6.99805 17.4203C6.99805 18.2033 7.24695 18.8372 7.73779 19.3046C8.22256 19.766 8.86398 20 9.64401 20H16.8666C17.6466 20 18.2878 19.7661 18.7727 19.3047C19.2636 18.8375 19.5125 18.2035 19.5125 17.4202C19.5124 17.1179 19.5022 16.8198 19.4822 16.5342Z" fill="white"/>
</g>
<defs>
<clipPath id="clip0_68_413">
<rect width="25.7276" height="25.7276" fill="white"/>
</clipPath>
</defs>
</svg>
