<svg width="22" height="20" viewBox="0 0 22 20" fill="none" xmlns="http://www.w3.org/2000/svg">
<path id="Vector" d="M18.8571 3.07692C18.8571 2.65383 19.2107 2.30769 19.6429 2.30769H22C22 1.69999 21.7486 1.10001 21.3086 0.676923C20.8764 0.246154 20.2636 0 19.6429 0H5.5C4.87927 0 4.26644 0.246154 3.83429 0.676923C3.39429 1.10001 3.14286 1.69999 3.14286 2.30769H5.5C5.93216 2.30769 6.28571 2.65383 6.28571 3.07692C6.28571 3.50001 5.93216 3.84615 5.5 3.84615H3.14286V6.8C4.10143 6.38462 5.17 6.15385 6.28571 6.15385C9.8213 6.15385 12.8229 8.46154 13.8049 11.6155C13.9071 11.5694 14.0249 11.5386 14.1428 11.5386H16.5C16.9321 11.5386 17.2857 11.8847 17.2857 12.3078C17.2857 12.7309 16.9321 13.077 16.5 13.077H14.1035C14.1271 13.3309 14.1428 13.5847 14.1428 13.8463C14.1428 14.377 14.0878 14.8924 13.9857 15.3847H19.6428C20.2635 15.3847 20.8764 15.1386 21.3085 14.7078C21.7485 14.2847 22 13.6848 22 13.077H19.6428C19.2107 13.077 18.8571 12.7309 18.8571 12.3078C18.8571 11.8847 19.2107 11.5386 19.6428 11.5386H22V10.7694H17.2857C15.5493 10.7694 14.1428 9.39242 14.1428 7.69243C14.1428 5.99244 15.5493 4.61551 17.2857 4.61551H22V3.84628H19.6428C19.2107 3.84628 18.8571 3.50001 18.8571 3.07692ZM11 3.84615H8.64286C8.2107 3.84615 7.85714 3.50001 7.85714 3.07692C7.85714 2.65383 8.2107 2.30769 8.64286 2.30769H11C11.4322 2.30769 11.7857 2.65383 11.7857 3.07692C11.7857 3.50001 11.4322 3.84615 11 3.84615ZM16.5 3.84615H14.1429C13.7107 3.84615 13.3571 3.50001 13.3571 3.07692C13.3571 2.65383 13.7107 2.30769 14.1429 2.30769H16.5C16.9322 2.30769 17.2857 2.65383 17.2857 3.07692C17.2857 3.50001 16.9322 3.84615 16.5 3.84615ZM17.2857 6.15385C16.4214 6.15385 15.7143 6.84615 15.7143 7.69231C15.7143 8.53846 16.4214 9.23077 17.2857 9.23077H22V6.15385H17.2857ZM17.2857 8.46154C16.8536 8.46154 16.5 8.1154 16.5 7.69231C16.5 7.26922 16.8536 6.92308 17.2857 6.92308C17.7179 6.92308 18.0714 7.26922 18.0714 7.69231C18.0714 8.1154 17.7179 8.46154 17.2857 8.46154ZM6.28571 7.69231C2.82078 7.69231 0 10.4539 0 13.8462C0 17.2384 2.82078 20 6.28571 20C9.75065 20 12.5714 17.2384 12.5714 13.8462C12.5714 10.4539 9.75065 7.69231 6.28571 7.69231ZM9.20078 12.8539L6.05792 15.9308C5.90078 16.077 5.70436 16.1539 5.50005 16.1539C5.29574 16.1539 5.09932 16.077 4.94218 15.9308L3.37075 14.3924C3.06431 14.0924 3.06431 13.6 3.37075 13.3001C3.67719 13.0001 4.18005 13 4.48647 13.3001L5.50002 14.3001L8.08496 11.7617C8.3914 11.4617 8.89426 11.4617 9.20068 11.7617C9.50709 12.0617 9.50722 12.5539 9.20078 12.8539Z" fill="#333333"/>
</svg>
