<svg width="15" height="16" viewBox="0 0 15 16" fill="none" xmlns="http://www.w3.org/2000/svg">
<path d="M8.08363 3.65047H9.79828L7.17383 0.889648V2.73715C7.17383 3.23764 7.57975 3.6505 8.0836 3.6505L8.08363 3.65047Z" fill="#15355E"/>
<path d="M5.23835 10.6144H2.19748C2.04352 10.6144 1.91756 10.4886 1.91756 10.3345C1.91756 10.1805 2.04352 10.0546 2.19748 10.0546H5.42378C5.60216 9.59975 5.8401 9.21474 6.1341 8.82984H2.19748C2.04352 8.82984 1.91756 8.70394 1.91756 8.54988C1.91756 8.39595 2.04352 8.26999 2.19748 8.26999H6.66601C7.50576 7.53512 8.61852 7.06631 9.83273 7.06631C9.94816 7.06631 10.0427 7.07675 10.1827 7.0873V4.21089H8.08312C7.27134 4.21089 6.6135 3.54607 6.6135 2.73773V0.466797H1.24573C0.552844 0.466797 0 1.03363 0 1.72997V12.4095C0 13.1059 0.552844 13.6587 1.24576 13.6587H5.46221C5.22082 13.0989 5.08785 12.469 5.08785 11.8112C5.0843 11.3983 5.14033 10.9993 5.23835 10.6144ZM2.19748 6.52038H5.74223C5.89619 6.52038 6.02216 6.64634 6.02216 6.8004C6.02216 6.95436 5.89619 7.08033 5.74223 7.08033H2.19748C2.04352 7.08033 1.91756 6.95436 1.91756 6.80043C1.91756 6.64634 2.04352 6.52041 2.19748 6.52041V6.52038Z" fill="#15355E"/>
<path d="M9.82994 7.63672C7.52404 7.63672 5.64844 9.5122 5.64844 11.8182C5.64844 14.1241 7.52404 15.9997 9.82994 15.9997C12.136 15.9997 14.0116 14.1241 14.0116 11.8182C14.0116 9.5122 12.136 7.63672 9.82994 7.63672ZM9.82309 11.5173C10.6664 11.5173 11.3486 12.2031 11.3486 13.0429C11.3486 13.7987 10.7993 14.4251 10.0785 14.5476V14.9534C10.0785 15.1075 9.95248 15.2335 9.79854 15.2335C9.64461 15.2335 9.51862 15.1075 9.51862 14.9534V14.5371C8.82228 14.3936 8.29743 13.7777 8.29743 13.0429C8.29743 12.8889 8.4234 12.763 8.57733 12.763C8.73126 12.763 8.85726 12.8889 8.85726 13.0429C8.85726 13.5748 9.29121 14.0087 9.82309 14.0087C10.3549 14.0087 10.7888 13.5747 10.7888 13.0429C10.7888 12.511 10.3549 12.0772 9.82309 12.0772C8.97979 12.0772 8.29741 11.3912 8.29741 10.5515C8.29741 9.81309 8.82228 9.19732 9.51862 9.05737V8.75991C9.51862 8.60586 9.64461 8.47989 9.79854 8.47989C9.95248 8.47989 10.0785 8.60586 10.0785 8.75991V9.04327C10.7993 9.16583 11.3486 9.79212 11.3486 10.548C11.3486 10.7019 11.2227 10.8279 11.0687 10.8279C10.9148 10.8279 10.7888 10.7019 10.7888 10.548C10.7888 10.0371 10.3899 9.61719 9.88601 9.58225C9.85804 9.59268 9.82652 9.5962 9.795 9.5962C9.76702 9.5962 9.74251 9.59268 9.71454 9.58567C9.23162 9.63816 8.8538 10.0476 8.8538 10.548C8.85726 11.0834 9.29109 11.5173 9.82309 11.5173Z" fill="#15355E"/>
</svg>
