<svg width="22" height="22" viewBox="0 0 22 22" fill="none" xmlns="http://www.w3.org/2000/svg">
<g id="Group">
<path id="Vector" d="M22 2.35714V7.07143C22 7.69658 21.7517 8.29613 21.3096 8.73818C20.8676 9.18023 20.268 9.42857 19.6429 9.42857V4.71429C19.6429 4.08913 19.3945 3.48958 18.9525 3.04753C18.5104 2.60548 17.9109 2.35714 17.2857 2.35714H4.71429C4.08913 2.35714 3.48958 2.60548 3.04753 3.04753C2.60548 3.48958 2.35714 4.08913 2.35714 4.71429V9.42857C1.73199 9.42857 1.13244 9.18023 0.690391 8.73818C0.248341 8.29613 0 7.69658 0 7.07143V2.35714C0 1.73199 0.248341 1.13244 0.690391 0.690391C1.13244 0.248341 1.73199 0 2.35714 0H19.6429C20.268 0 20.8676 0.248341 21.3096 0.690391C21.7517 1.13244 22 1.73199 22 2.35714ZM18.8571 4.71429C18.8571 4.92267 18.7744 5.12252 18.627 5.26987C18.4797 5.41722 18.2798 5.5 18.0714 5.5V19.6429C18.0714 20.268 17.8231 20.8676 17.381 21.3096C16.939 21.7517 16.3394 22 15.7143 22H6.28571C5.66056 22 5.06101 21.7517 4.61896 21.3096C4.17691 20.8676 3.92857 20.268 3.92857 19.6429V5.5C3.72019 5.5 3.52034 5.41722 3.37299 5.26987C3.22564 5.12252 3.14286 4.92267 3.14286 4.71429C3.14286 4.5059 3.22564 4.30605 3.37299 4.1587C3.52034 4.01135 3.72019 3.92857 3.92857 3.92857H18.0714C18.2798 3.92857 18.4797 4.01135 18.627 4.1587C18.7744 4.30605 18.8571 4.5059 18.8571 4.71429ZM9.74286 10.9214C9.74286 10.588 9.87531 10.2683 10.1111 10.0325C10.3468 9.79673 10.6666 9.66429 11 9.66429C11.3334 9.66429 11.6532 9.79673 11.8889 10.0325C12.1247 10.2683 12.2571 10.588 12.2571 10.9214C12.2571 11.1298 12.3399 11.3297 12.4873 11.477C12.6346 11.6244 12.8345 11.7071 13.0429 11.7071C13.2512 11.7071 13.4511 11.6244 13.5984 11.477C13.7458 11.3297 13.8286 11.1298 13.8286 10.9214C13.8267 10.3104 13.6266 9.71656 13.2581 9.22913C12.8897 8.74169 12.373 8.38706 11.7857 8.21857V7.85714C11.7857 7.64876 11.7029 7.44891 11.5556 7.30156C11.4082 7.15421 11.2084 7.07143 11 7.07143C10.7916 7.07143 10.5918 7.15421 10.4444 7.30156C10.2971 7.44891 10.2143 7.64876 10.2143 7.85714V8.21857C9.62698 8.38706 9.11026 8.74169 8.74185 9.22913C8.37344 9.71656 8.17327 10.3104 8.17143 10.9214C8.16608 11.445 8.31934 11.9578 8.61105 12.3926C8.90275 12.8273 9.31924 13.1636 9.80571 13.3571L11.6129 14.08C11.8038 14.1547 11.9676 14.2856 12.0826 14.4553C12.1977 14.625 12.2585 14.8257 12.2571 15.0307C12.2571 15.3641 12.1247 15.6839 11.8889 15.9196C11.6532 16.1554 11.3334 16.2879 11 16.2879C10.6666 16.2879 10.3468 16.1554 10.1111 15.9196C9.87531 15.6839 9.74286 15.3641 9.74286 15.0307C9.74286 14.8223 9.66008 14.6225 9.51273 14.4751C9.36538 14.3278 9.16553 14.245 8.95714 14.245C8.74876 14.245 8.54891 14.3278 8.40156 14.4751C8.25421 14.6225 8.17143 14.8223 8.17143 15.0307C8.17834 15.6377 8.38085 16.2262 8.74888 16.7089C9.11691 17.1916 9.63082 17.5427 10.2143 17.71V18.0714C10.2143 18.2798 10.2971 18.4797 10.4444 18.627C10.5918 18.7744 10.7916 18.8571 11 18.8571C11.2084 18.8571 11.4082 18.7744 11.5556 18.627C11.7029 18.4797 11.7857 18.2798 11.7857 18.0714V17.71C12.373 17.5415 12.8897 17.1869 13.2581 16.6994C13.6266 16.212 13.8267 15.6181 13.8286 15.0071C13.8339 14.4836 13.6807 13.9707 13.389 13.536C13.0972 13.1012 12.6808 12.765 12.1943 12.5714L10.3871 11.8486C10.1999 11.7754 10.0387 11.6481 9.92396 11.483C9.80923 11.3179 9.74619 11.1224 9.74286 10.9214Z" fill="#333333"/>
</g>
</svg>
