<svg width="17" height="19" viewBox="0 0 17 19" fill="none" xmlns="http://www.w3.org/2000/svg">
<path d="M9.48009 4.36289H11.491L8.41309 1.125V3.29175C8.41309 3.87871 8.88915 4.36292 9.48006 4.36292L9.48009 4.36289Z" fill="#333333"/>
<path d="M6.14353 12.53H2.5772C2.39663 12.53 2.2489 12.3824 2.2489 12.2017C2.2489 12.0212 2.39663 11.8734 2.5772 11.8734H6.36099C6.5702 11.34 6.84926 10.8885 7.19406 10.4371H2.5772C2.39663 10.4371 2.2489 10.2894 2.2489 10.1087C2.2489 9.9282 2.39663 9.78047 2.5772 9.78047H7.81789C8.80274 8.91862 10.1078 8.3688 11.5318 8.3688C11.6672 8.3688 11.7781 8.38104 11.9422 8.39342V5.01998H9.47986C8.52781 5.01998 7.7563 4.24028 7.7563 3.29225V0.628906H1.46099C0.648374 0.628906 0 1.29368 0 2.11035V14.6353C0 15.452 0.648374 16.1004 1.46102 16.1004H6.40607C6.12296 15.4438 5.96701 14.7051 5.96701 13.9336C5.96285 13.4494 6.02857 12.9814 6.14353 12.53ZM2.5772 7.72854H6.73447C6.91504 7.72854 7.06277 7.87627 7.06277 8.05694C7.06277 8.23751 6.91504 8.38524 6.73447 8.38524H2.5772C2.39663 8.38524 2.2489 8.23751 2.2489 8.05698C2.2489 7.87627 2.39663 7.72857 2.5772 7.72857V7.72854Z" fill="#333333"/>
<path d="M11.5271 9.03906C8.82274 9.03906 6.62305 11.2386 6.62305 13.9431C6.62305 16.6475 8.82274 18.8472 11.5271 18.8472C14.2316 18.8472 16.4313 16.6475 16.4313 13.9431C16.4313 11.2386 14.2316 9.03906 11.5271 9.03906ZM11.5191 13.5902C12.508 13.5902 13.3082 14.3945 13.3082 15.3794C13.3082 16.2658 12.664 17.0005 11.8186 17.1441V17.6201C11.8186 17.8008 11.6708 17.9485 11.4903 17.9485C11.3098 17.9485 11.162 17.8008 11.162 17.6201V17.1318C10.3453 16.9635 9.72978 16.2412 9.72978 15.3794C9.72978 15.1988 9.87751 15.0511 10.058 15.0511C10.2386 15.0511 10.3863 15.1988 10.3863 15.3794C10.3863 16.0033 10.8953 16.5121 11.5191 16.5121C12.1428 16.5121 12.6516 16.0031 12.6516 15.3794C12.6516 14.7556 12.1428 14.2468 11.5191 14.2468C10.5301 14.2468 9.72975 13.4423 9.72975 12.4575C9.72975 11.5915 10.3453 10.8693 11.162 10.7052V10.3563C11.162 10.1757 11.3098 10.0279 11.4903 10.0279C11.6708 10.0279 11.8186 10.1757 11.8186 10.3563V10.6887C12.664 10.8324 13.3082 11.5669 13.3082 12.4534C13.3082 12.6339 13.1606 12.7816 12.9799 12.7816C12.7994 12.7816 12.6516 12.6339 12.6516 12.4534C12.6516 11.8542 12.1838 11.3618 11.5929 11.3208C11.5601 11.333 11.5231 11.3371 11.4861 11.3371C11.4533 11.3371 11.4246 11.333 11.3918 11.3248C10.8254 11.3863 10.3823 11.8666 10.3823 12.4534C10.3863 13.0813 10.8951 13.5902 11.5191 13.5902Z" fill="#333333"/>
</svg>
