<svg width="119" height="150" viewBox="0 0 119 150" fill="none" xmlns="http://www.w3.org/2000/svg">
<path d="M103.449 150.002H15.5174C11.4019 150.002 7.45503 148.367 4.54495 145.457C1.63487 142.547 0 138.6 0 134.484V15.5174C0 11.4019 1.63487 7.45503 4.54495 4.54495C7.45503 1.63487 11.4019 0 15.5174 0H87.9321L118.967 31.0348V134.484C118.967 138.6 117.332 142.547 114.422 145.457C111.512 148.367 107.565 150.002 103.449 150.002Z" fill="#CFD2FC"/>
<path d="M20.6899 36.207H46.5523V67.2419H20.6899V36.207ZM0 108.622H118.967V134.484C118.967 138.6 117.332 142.546 114.422 145.457C111.512 148.367 107.565 150.001 103.449 150.001H15.5174C11.4019 150.001 7.45503 148.367 4.54495 145.457C1.63487 142.546 0 138.6 0 134.484V108.622Z" fill="#5153FF"/>
<path d="M118.969 31.0348H103.451C99.3358 31.0348 95.3889 29.4 92.4788 26.4899C89.5687 23.5798 87.9339 19.6329 87.9339 15.5174V0L118.969 31.0348ZM98.2788 49.1385H56.899C56.2131 49.1385 55.5553 48.866 55.0703 48.381C54.5853 47.896 54.3128 47.2382 54.3128 46.5523C54.3128 45.8664 54.5853 45.2085 55.0703 44.7235C55.5553 44.2385 56.2131 43.966 56.899 43.966H98.2788C98.9648 43.966 99.6226 44.2385 100.108 44.7235C100.593 45.2085 100.865 45.8664 100.865 46.5523C100.865 47.2382 100.593 47.896 100.108 48.381C99.6226 48.866 98.9648 49.1385 98.2788 49.1385ZM67.244 59.4835H56.899C56.2131 59.4835 55.5553 59.211 55.0703 58.726C54.5853 58.241 54.3128 57.5831 54.3128 56.8972C54.3128 56.2113 54.5853 55.5535 55.0703 55.0685C55.5553 54.5835 56.2131 54.311 56.899 54.311H67.244C67.9299 54.311 68.5877 54.5835 69.0727 55.0685C69.5577 55.5535 69.8302 56.2113 69.8302 56.8972C69.8302 57.5831 69.5577 58.241 69.0727 58.726C68.5877 59.211 67.9299 59.4835 67.244 59.4835ZM98.2788 69.8284H56.899C56.2131 69.8284 55.5553 69.5559 55.0703 69.0709C54.5853 68.5859 54.3128 67.9281 54.3128 67.2422C54.3128 66.5563 54.5853 65.8984 55.0703 65.4134C55.5553 64.9284 56.2131 64.6559 56.899 64.6559H98.2788C98.9648 64.6559 99.6226 64.9284 100.108 65.4134C100.593 65.8984 100.865 66.5563 100.865 67.2422C100.865 67.9281 100.593 68.5859 100.108 69.0709C99.6226 69.5559 98.9648 69.8284 98.2788 69.8284ZM80.1752 80.1734H20.6917C20.0058 80.1734 19.348 79.9009 18.863 79.4159C18.3779 78.9309 18.1055 78.273 18.1055 77.5871C18.1055 76.9012 18.3779 76.2434 18.863 75.7584C19.348 75.2734 20.0058 75.0009 20.6917 75.0009H80.1752C80.8611 75.0009 81.5189 75.2734 82.0039 75.7584C82.4889 76.2434 82.7614 76.9012 82.7614 77.5871C82.7614 78.273 82.4889 78.9309 82.0039 79.4159C81.5189 79.9009 80.8611 80.1734 80.1752 80.1734ZM98.2788 59.4835H77.5889C76.903 59.4835 76.2452 59.211 75.7602 58.726C75.2752 58.241 75.0027 57.5831 75.0027 56.8972C75.0027 56.2113 75.2752 55.5535 75.7602 55.0685C76.2452 54.5835 76.903 54.311 77.5889 54.311H98.2788C98.9648 54.311 99.6226 54.5835 100.108 55.0685C100.593 55.5535 100.865 56.2113 100.865 56.8972C100.865 57.5831 100.593 58.241 100.108 58.726C99.6226 59.211 98.9648 59.4835 98.2788 59.4835ZM98.2788 80.1734H90.5201C89.8342 80.1734 89.1764 79.9009 88.6914 79.4159C88.2064 78.9309 87.9339 78.273 87.9339 77.5871C87.9339 76.9012 88.2064 76.2434 88.6914 75.7584C89.1764 75.2734 89.8342 75.0009 90.5201 75.0009H98.2788C98.9648 75.0009 99.6226 75.2734 100.108 75.7584C100.593 76.2434 100.865 76.9012 100.865 77.5871C100.865 78.273 100.593 78.9309 100.108 79.4159C99.6226 79.9009 98.9648 80.1734 98.2788 80.1734ZM36.2091 90.5183H20.6917C20.0058 90.5183 19.348 90.2458 18.863 89.7608C18.3779 89.2758 18.1055 88.618 18.1055 87.9321C18.1055 87.2462 18.3779 86.5883 18.863 86.1033C19.348 85.6183 20.0058 85.3458 20.6917 85.3458H36.2091C36.895 85.3458 37.5529 85.6183 38.0379 86.1033C38.5229 86.5883 38.7954 87.2462 38.7954 87.9321C38.7954 88.618 38.5229 89.2758 38.0379 89.7608C37.5529 90.2458 36.895 90.5183 36.2091 90.5183ZM72.4165 90.5183H46.5541C45.8682 90.5183 45.2103 90.2458 44.7253 89.7608C44.2403 89.2758 43.9678 88.618 43.9678 87.9321C43.9678 87.2462 44.2403 86.5883 44.7253 86.1033C45.2103 85.6183 45.8682 85.3458 46.5541 85.3458H72.4165C73.1024 85.3458 73.7602 85.6183 74.2452 86.1033C74.7302 86.5883 75.0027 87.2462 75.0027 87.9321C75.0027 88.618 74.7302 89.2758 74.2452 89.7608C73.7602 90.2458 73.1024 90.5183 72.4165 90.5183ZM98.2788 90.5183H82.7614C82.0755 90.5183 81.4177 90.2458 80.9327 89.7608C80.4476 89.2758 80.1752 88.618 80.1752 87.9321C80.1752 87.2462 80.4476 86.5883 80.9327 86.1033C81.4177 85.6183 82.0755 85.3458 82.7614 85.3458H98.2788C98.9648 85.3458 99.6226 85.6183 100.108 86.1033C100.593 86.5883 100.865 87.2462 100.865 87.9321C100.865 88.618 100.593 89.2758 100.108 89.7608C99.6226 90.2458 98.9648 90.5183 98.2788 90.5183ZM77.5889 38.7936H56.899C56.2131 38.7936 55.5553 38.5211 55.0703 38.0361C54.5853 37.5511 54.3128 36.8932 54.3128 36.2073C54.3128 35.5214 54.5853 34.8636 55.0703 34.3786C55.5553 33.8936 56.2131 33.6211 56.899 33.6211H77.5889C78.2748 33.6211 78.9327 33.8936 79.4177 34.3786C79.9027 34.8636 80.1752 35.5214 80.1752 36.2073C80.1752 36.8932 79.9027 37.5511 79.4177 38.0361C78.9327 38.5211 78.2748 38.7936 77.5889 38.7936Z" fill="#8690FA"/>
<path d="M85.3422 116.383H74.9973C74.3114 116.383 73.6536 116.655 73.1685 117.14C72.6835 117.625 72.411 118.283 72.411 118.969V139.659C72.411 140.345 72.6835 141.003 73.1685 141.488C73.6536 141.973 74.3114 142.245 74.9973 142.245C75.6832 142.245 76.341 141.973 76.826 141.488C77.311 141.003 77.5835 140.345 77.5835 139.659V131.9H80.1698C80.8557 131.9 81.5135 131.628 81.9985 131.143C82.4835 130.658 82.756 130 82.756 129.314C82.756 128.628 82.4835 127.97 81.9985 127.485C81.5135 127 80.8557 126.728 80.1698 126.728H77.5835V121.555H85.3422C86.0281 121.555 86.686 121.283 87.171 120.798C87.656 120.313 87.9285 119.655 87.9285 118.969C87.9285 118.283 87.656 117.625 87.171 117.14C86.686 116.655 86.0281 116.383 85.3422 116.383ZM38.79 116.383H33.6175C32.9316 116.383 32.2738 116.655 31.7887 117.14C31.3037 117.625 31.0312 118.283 31.0312 118.969V139.659C31.0312 140.345 31.3037 141.003 31.7887 141.488C32.2738 141.973 32.9316 142.245 33.6175 142.245C34.3034 142.245 34.9612 141.973 35.4462 141.488C35.9312 141.003 36.2037 140.345 36.2037 139.659V131.9H38.79C40.8477 131.9 42.8212 131.083 44.2762 129.628C45.7312 128.173 46.5487 126.199 46.5487 124.142C46.5487 122.084 45.7312 120.11 44.2762 118.655C42.8212 117.2 40.8477 116.383 38.79 116.383ZM38.79 126.728H36.2037V121.555H38.79C39.4759 121.555 40.1337 121.828 40.6187 122.313C41.1037 122.798 41.3762 123.456 41.3762 124.142C41.3762 124.827 41.1037 125.485 40.6187 125.97C40.1337 126.455 39.4759 126.728 38.79 126.728ZM54.3074 116.383C53.6215 116.383 52.9637 116.655 52.4786 117.14C51.9936 117.625 51.7211 118.283 51.7211 118.969V139.659C51.7211 140.345 51.9936 141.003 52.4786 141.488C52.9637 141.973 53.6215 142.245 54.3074 142.245C57.737 142.245 61.026 140.883 63.4511 138.458C65.8762 136.033 67.2386 132.744 67.2386 129.314C67.2386 125.884 65.8762 122.595 63.4511 120.17C61.026 117.745 57.737 116.383 54.3074 116.383ZM56.8936 136.629V121.999C58.4067 122.533 59.7167 123.524 60.6434 124.834C61.57 126.144 62.0675 127.709 62.0675 129.314C62.0675 130.919 61.57 132.484 60.6434 133.794C59.7167 135.104 58.4067 136.095 56.8936 136.629Z" fill="white"/>
</svg>
