<svg width="19" height="20" viewBox="0 0 19 20" fill="none" xmlns="http://www.w3.org/2000/svg">
<path d="M18.2417 1.38865C17.9159 1.06245 17.4825 0.882812 17.0213 0.882812H10.4493C9.98823 0.882812 9.55478 1.06237 9.22876 1.38843L0.505695 10.1115C0.179562 10.4376 0 10.871 0 11.3319C0 11.7929 0.179635 12.2263 0.505695 12.5522L7.07757 19.1241C7.40352 19.4502 7.83693 19.6299 8.29792 19.6299C8.75887 19.6299 9.19229 19.4503 9.51838 19.1242L18.2414 10.4011C18.5675 10.0751 18.7471 9.64165 18.7471 9.18062V2.6086C18.7471 2.14736 18.5674 1.71391 18.2417 1.38865ZM9.37357 5.20258C10.3252 5.20258 11.0994 5.97678 11.0994 6.92838C11.0994 7.87997 10.3252 8.65417 9.37357 8.65417C8.42198 8.65417 7.64778 7.87997 7.64778 6.92838C7.64778 5.97678 8.42198 5.20258 9.37357 5.20258ZM9.37357 15.31C8.42198 15.31 7.64778 14.5358 7.64778 13.5842C7.64778 12.6326 8.42198 11.8585 9.37357 11.8585C10.3252 11.8585 11.0994 12.6326 11.0994 13.5842C11.0994 14.5358 10.3252 15.31 9.37357 15.31ZM12.9033 10.8055H5.84389C5.54057 10.8055 5.29466 10.5596 5.29466 10.2563C5.29466 9.95299 5.54057 9.70708 5.84389 9.70708H12.9033C13.2066 9.70708 13.4525 9.95299 13.4525 10.2563C13.4525 10.5596 13.2066 10.8055 12.9033 10.8055ZM15.2564 4.9227C14.9532 4.9227 14.7072 4.67664 14.7072 4.37347C14.7072 4.07029 14.9532 3.82424 15.2564 3.82424C15.5596 3.82424 15.8056 4.07029 15.8056 4.37347C15.8056 4.67664 15.5596 4.9227 15.2564 4.9227Z" fill="#333333"/>
</svg>
