<svg width="22" height="22" viewBox="0 0 22 22" fill="none" xmlns="http://www.w3.org/2000/svg">
<path id="Vector" d="M11 0C8.08358 0.00312781 5.2875 1.16606 3.22527 3.23362C1.16305 5.30119 0.00311973 8.10451 0 11.0285C0.603821 25.6593 21.3985 25.655 22 11.0285C21.9969 8.10451 20.837 5.30119 18.7747 3.23362C16.7125 1.16606 13.9164 0.00312781 11 0ZM3.46893 8.69281C3.12715 7.74292 3.17263 6.69624 3.5955 5.77975C4.01836 4.86325 4.78453 4.15082 5.72786 3.79695C5.77645 3.77743 5.82845 3.76787 5.88079 3.76884C5.93313 3.76981 5.98474 3.78129 6.03258 3.8026C6.08041 3.82391 6.12351 3.85461 6.15931 3.8929C6.19511 3.93119 6.22289 3.97629 6.24101 4.02553C6.25913 4.07476 6.26722 4.12714 6.26481 4.17957C6.2624 4.232 6.24952 4.28341 6.22696 4.33076C6.20439 4.37812 6.17258 4.42046 6.13342 4.45528C6.09425 4.4901 6.04852 4.51669 5.99893 4.53349C5.25026 4.81488 4.64237 5.38076 4.30703 6.10847C3.97169 6.83618 3.93593 7.66707 4.2075 8.42103C4.23903 8.51816 4.23178 8.62375 4.18727 8.71563C4.14276 8.8075 4.06445 8.87849 3.96882 8.91369C3.87318 8.94888 3.76766 8.94553 3.67444 8.90434C3.58121 8.86314 3.50755 8.78732 3.46893 8.69281ZM5.61786 7.89718C5.63933 7.95687 5.64623 8.02086 5.63796 8.08377C5.62969 8.14668 5.6065 8.20669 5.57033 8.25877C5.53416 8.31084 5.48607 8.35347 5.43009 8.38307C5.37411 8.41268 5.31186 8.4284 5.24857 8.42891C4.5375 8.35723 4.69896 6.86917 4.95 6.40834C5.12404 5.90378 6.35525 4.66268 6.75321 5.44728C6.78753 5.54553 6.78206 5.65335 6.738 5.7476C6.69393 5.84185 6.61477 5.91503 6.5175 5.95144C6.14149 6.09071 5.83577 6.37357 5.66719 6.73818C5.4986 7.10279 5.48087 7.51949 5.61786 7.89718ZM8.64286 17.295H5.31536C5.08758 17.2945 4.86499 17.2268 4.67536 17.1003C4.48573 16.9738 4.33747 16.7941 4.24906 16.5836C4.16065 16.3731 4.13601 16.1412 4.17823 15.9168C4.22044 15.6924 4.32763 15.4854 4.48643 15.3217C6.20321 13.5808 6.23857 11.9108 6.23857 11.895V9.57509C6.24019 8.57685 6.56293 7.60576 7.15885 6.80607C7.75478 6.00637 8.59209 5.42073 9.54643 5.13612V4.21446C9.54643 4.02308 9.58403 3.83357 9.65707 3.65676C9.73012 3.47995 9.83719 3.31929 9.97217 3.18396C10.1071 3.04864 10.2674 2.94129 10.4437 2.86805C10.6201 2.79482 10.8091 2.75712 11 2.75712C11.1909 2.75712 11.3799 2.79482 11.5563 2.86805C11.7326 2.94129 11.8929 3.04864 12.0278 3.18396C12.1628 3.31929 12.2699 3.47995 12.3429 3.65676C12.416 3.83357 12.4536 4.02308 12.4536 4.21446V5.13612C13.4079 5.42073 14.2452 6.00637 14.8411 6.80607C15.4371 7.60576 15.7598 8.57685 15.7614 9.57509V11.895C15.7614 11.9108 15.7968 13.5808 17.5136 15.3217C17.6724 15.4854 17.7796 15.6924 17.8218 15.9168C17.864 16.1412 17.8394 16.3731 17.7509 16.5836C17.6625 16.7941 17.5143 16.9738 17.3246 17.1003C17.135 17.2268 16.9124 17.2945 16.6846 17.295H13.3571C12.8904 19.9442 9.10879 19.9486 8.64286 17.295ZM16.335 6.73919C16.2529 6.55728 16.135 6.39379 15.9886 6.25846C15.8421 6.12313 15.67 6.01872 15.4825 5.95144C15.3846 5.9154 15.3049 5.84183 15.2611 5.74691C15.2172 5.652 15.2128 5.54351 15.2487 5.44531C15.2847 5.34712 15.3581 5.26726 15.4527 5.22331C15.5474 5.17936 15.6556 5.17492 15.7536 5.21096C16.325 5.42411 16.7893 5.85498 17.0454 6.40973C17.3014 6.96449 17.3285 7.59821 17.1207 8.17289C17.0842 8.27109 17.0104 8.35074 16.9153 8.39432C16.8203 8.4379 16.7119 8.44184 16.6139 8.40528C16.516 8.36872 16.4365 8.29465 16.3931 8.19936C16.3496 8.10407 16.3457 7.99538 16.3821 7.89718C16.4524 7.71091 16.4844 7.51234 16.4763 7.31337C16.4682 7.11439 16.4202 6.9191 16.335 6.73919ZM18.0282 8.92519C17.9304 8.88955 17.8506 8.81647 17.8064 8.72196C17.7622 8.62745 17.7572 8.51924 17.7925 8.42103C18.0641 7.66707 18.0283 6.83618 17.693 6.10847C17.3576 5.38076 16.7497 4.81488 16.0011 4.53349C15.9515 4.51669 15.9057 4.4901 15.8666 4.45528C15.8274 4.42046 15.7956 4.37812 15.773 4.33076C15.7505 4.28341 15.7376 4.232 15.7352 4.17957C15.7328 4.12714 15.7409 4.07476 15.759 4.02553C15.7771 3.97629 15.8049 3.93119 15.8407 3.8929C15.8765 3.85461 15.9196 3.82391 15.9674 3.8026C16.0153 3.78129 16.0669 3.76981 16.1192 3.76884C16.1716 3.76787 16.2236 3.77743 16.2721 3.79695C17.2182 4.14722 17.9872 4.85921 18.4106 5.77691C18.834 6.6946 18.8774 7.74315 18.5311 8.69281C18.4944 8.78993 18.4212 8.86872 18.3271 8.91219C18.233 8.95566 18.1257 8.96033 18.0282 8.92519ZM9.44429 17.295H12.5596C12.4694 17.6403 12.2675 17.9458 11.9857 18.1638C11.7039 18.3818 11.3579 18.5001 11.002 18.5001C10.646 18.5001 10.3 18.3818 10.0182 18.1638C9.73639 17.9458 9.53456 17.6403 9.44429 17.295ZM10.3321 4.97857V4.21446C10.3321 4.03687 10.4025 3.86656 10.5278 3.74099C10.653 3.61541 10.8229 3.54487 11 3.54487C11.1771 3.54487 11.347 3.61541 11.4722 3.74099C11.5975 3.86656 11.6679 4.03687 11.6679 4.21446V4.97857C11.4944 4.95814 11.32 4.94762 11.1454 4.94706C10.8739 4.94005 10.6023 4.95058 10.3321 4.97857ZM16.6846 16.5073H5.31536C5.24123 16.5073 5.16876 16.4853 5.10719 16.4439C5.04562 16.4025 4.99773 16.3437 4.96964 16.2749C4.94231 16.2082 4.93519 16.1349 4.94916 16.0641C4.96314 15.9934 4.99759 15.9283 5.04821 15.8771C7.00464 13.8919 7.02429 11.9777 7.02429 11.895V9.57509C7.02429 6.93061 9.54486 5.25153 11.9821 5.82934C12.831 6.02046 13.5898 6.49539 14.1338 7.1761C14.6779 7.85682 14.9747 8.70281 14.9757 9.57509V11.895C14.9757 11.9777 14.9954 13.8919 16.9518 15.8771C17.0024 15.9283 17.0369 15.9934 17.0508 16.0641C17.0648 16.1349 17.0577 16.2082 17.0304 16.2749C17.0023 16.3437 16.9544 16.4025 16.8928 16.4439C16.8312 16.4853 16.7588 16.5073 16.6846 16.5073Z" fill="#333333"/>
</svg>
