<svg width="23" height="24" viewBox="0 0 23 24" fill="none" xmlns="http://www.w3.org/2000/svg">
<g id="Group">
<path id="Vector" fill-rule="evenodd" clip-rule="evenodd" d="M20.1968 10.6789C20.198 10.617 20.1986 10.5549 20.1986 10.4927C20.1986 5.1359 15.8495 0.786885 10.4927 0.786885C5.13595 0.786885 0.786885 5.1359 0.786885 10.4927C0.786885 15.5949 4.73223 19.783 9.73603 20.1694C9.95253 20.1862 10.1147 20.3755 10.098 20.592C10.0899 20.696 10.0409 20.7926 9.96165 20.8605C9.88241 20.9283 9.77947 20.962 9.67544 20.954C4.26575 20.5362 0 16.0088 0 10.4927C0 4.70164 4.70164 0 10.4927 0C16.2838 0 20.9854 4.70164 20.9854 10.4927C20.9854 10.5438 20.9851 10.5949 20.9844 10.6458L21.4779 10.1114C21.5487 10.0348 21.647 9.98938 21.7513 9.98522C21.8555 9.98106 21.9571 10.0185 22.0338 10.0892C22.1104 10.16 22.1558 10.2583 22.16 10.3626C22.1641 10.4669 22.1267 10.5685 22.056 10.6452L20.8748 11.9243C20.8383 11.9638 20.7941 11.9954 20.745 12.0171C20.6958 12.0389 20.6427 12.0503 20.5889 12.0507C20.5351 12.0512 20.4818 12.0406 20.4323 12.0196C20.3828 11.9986 20.3381 11.9677 20.301 11.9288L19.1323 10.7024C19.0603 10.6268 19.0214 10.5258 19.0239 10.4215C19.0264 10.3172 19.0702 10.2182 19.1457 10.1461C19.2212 10.0742 19.3223 10.0352 19.4266 10.0377C19.5309 10.0402 19.6299 10.084 19.7019 10.1595L20.1968 10.6789ZM15.9433 5.47638C15.9433 5.62028 15.8622 5.74298 15.7399 5.85807C15.5597 6.02774 15.2966 6.17144 14.9762 6.29867C13.8895 6.73018 12.1907 6.9392 10.4928 6.9391C8.79482 6.93905 7.09593 6.72993 6.0093 6.29843C5.68884 6.1712 5.42577 6.02749 5.24552 5.85787C5.12326 5.74284 5.04212 5.62018 5.04212 5.47638C5.04212 5.36331 5.11589 5.26352 5.22064 5.16182C5.38653 5.00075 5.6309 4.85503 5.93503 4.72087C6.96251 4.26767 8.6221 3.98051 10.4927 3.98051C12.3638 3.98051 14.0233 4.26762 15.0507 4.72087C15.3547 4.85498 15.5991 5.00075 15.7649 5.16177C15.8696 5.26352 15.9433 5.36331 15.9433 5.47638ZM15.9433 8.89377C15.9433 9.03762 15.8622 9.16038 15.7399 9.27546C15.5597 9.44513 15.2966 9.58884 14.9762 9.71607C13.8895 10.1476 12.1907 10.3565 10.4928 10.3565C8.79482 10.3564 7.09593 10.1473 6.0093 9.71582C5.68884 9.58859 5.42577 9.44489 5.24552 9.27526C5.12326 9.16023 5.04212 9.03757 5.04212 8.89377V6.69103C5.081 6.71616 5.12047 6.74036 5.16049 6.76362C6.24457 7.39377 8.36705 7.72667 10.4927 7.72677C12.6184 7.72687 14.7409 7.39407 15.825 6.76382C15.865 6.74057 15.9045 6.71639 15.9433 6.69128V8.89377ZM10.8592 14.5579C10.8555 14.6761 10.8786 14.7937 10.9267 14.9017L11.1878 15.489C11.0361 15.7815 10.9096 16.0865 10.8097 16.4006L10.2101 16.6313C10.0919 16.6768 9.98646 16.7501 9.90268 16.8451C9.8189 16.94 9.75927 17.0538 9.72885 17.1767C8.29776 17.1231 6.93256 16.917 6.00925 16.5505C5.68884 16.4233 5.42572 16.2796 5.24548 16.11C5.12326 15.995 5.04212 15.8723 5.04212 15.7285V13.5258C5.08023 13.5504 5.11972 13.5746 5.16049 13.5983C6.24457 14.2285 8.3671 14.5612 10.4927 14.5612C10.6149 14.5612 10.7371 14.5601 10.8592 14.5579ZM15.9433 11.5243H15.5473C15.3884 11.5243 15.2332 11.5724 15.1022 11.6623C14.9711 11.7522 14.8704 11.8796 14.8132 12.0279L14.5812 12.6289C14.2675 12.7284 13.9628 12.8547 13.6706 13.0062L13.0833 12.7451C12.9379 12.6805 12.7764 12.6614 12.62 12.6904C12.4636 12.7194 12.3197 12.7952 12.2072 12.9077L11.3597 13.7552C11.0727 13.7675 10.7827 13.7735 10.4927 13.7735C8.79482 13.7735 7.09594 13.5645 6.00925 13.1331C5.68884 13.0059 5.42572 12.8622 5.24548 12.6926C5.12326 12.5776 5.04212 12.4549 5.04212 12.3112V10.1084C5.08023 10.1331 5.11972 10.1573 5.16049 10.181C6.24457 10.8112 8.36705 11.1441 10.4927 11.1442C12.6184 11.1442 14.7409 10.8115 15.825 10.1812C15.865 10.158 15.9045 10.1337 15.9433 10.1086V11.5243ZM17.5013 13.281C18.0172 13.4035 18.5102 13.6078 18.9616 13.8861L19.9107 13.4641L21.0286 14.582L20.6082 15.5311C20.8868 15.983 21.0911 16.4765 21.2133 16.993L22.1816 17.3657V18.947L21.2133 19.3197C21.0907 19.8357 20.8853 20.3277 20.6082 20.78L21.0286 21.7291L19.9107 22.847L18.9616 22.4266C18.5103 22.7052 18.0173 22.9095 17.5013 23.0318L17.1286 24H15.5473L15.1746 23.0318C14.6571 22.9091 14.165 22.7037 13.7128 22.4266L12.7636 22.847L11.6457 21.7291L12.0677 20.78C11.789 20.3293 11.5852 19.8357 11.461 19.3197L10.4927 18.947V17.3657L11.461 16.993C11.5845 16.4767 11.7893 15.9832 12.0677 15.5311L11.6457 14.582L12.7636 13.4641L13.7128 13.8861C14.1641 13.6078 14.6571 13.4035 15.1731 13.281L15.5473 12.3112H17.1286L17.5013 13.281ZM16.3372 15.3974C14.8132 15.3974 13.579 16.6316 13.579 18.1556C13.579 19.6796 14.8132 20.9154 16.3372 20.9154C17.8612 20.9154 19.097 19.6796 19.097 18.1556C19.097 16.6316 17.8612 15.3974 16.3372 15.3974Z" fill="#333333"/>
</g>
</svg>
