<svg width="20" height="19" viewBox="0 0 20 19" fill="none" xmlns="http://www.w3.org/2000/svg">
<path d="M17.8478 7.97109C17.7727 7.93988 17.6899 7.9317 17.6101 7.94758C17.5303 7.96347 17.457 8.00269 17.3995 8.0603L14.8595 10.5994C14.6876 10.7718 14.4684 10.8893 14.2296 10.9369L12.1726 11.3483C11.7628 11.4311 11.3482 11.3009 11.0581 11.0112C10.9143 10.8676 10.8082 10.6907 10.7494 10.4962C10.6905 10.3016 10.6806 10.0956 10.7206 9.89634L11.0835 8.08116H4.52543C4.47139 8.0812 4.41787 8.07058 4.36794 8.04992C4.31801 8.02925 4.27264 7.99895 4.23443 7.96074C4.19622 7.92253 4.16592 7.87716 4.14525 7.82723C4.12459 7.7773 4.11397 7.72378 4.11401 7.66974C4.11397 7.61571 4.12459 7.56219 4.14525 7.51226C4.16592 7.46233 4.19622 7.41696 4.23443 7.37875C4.27264 7.34054 4.31801 7.31024 4.36794 7.28957C4.41787 7.26891 4.47139 7.25829 4.52543 7.25833H11.4316C11.446 7.24248 11.4543 7.22254 11.4694 7.2073L13.0643 5.6127H4.52543C4.47139 5.61274 4.41787 5.60212 4.36794 5.58146C4.31801 5.56079 4.27264 5.53049 4.23443 5.49228C4.19622 5.45407 4.16592 5.4087 4.14525 5.35877C4.12459 5.30884 4.11397 5.25532 4.11401 5.20128C4.11397 5.14725 4.12459 5.09373 4.14525 5.0438C4.16592 4.99387 4.19622 4.9485 4.23443 4.91029C4.27264 4.87208 4.31801 4.84178 4.36794 4.82111C4.41787 4.80045 4.47139 4.78983 4.52543 4.78987H13.5763C13.6639 4.78987 13.7406 4.82327 13.8073 4.86986L16.477 2.20049C16.702 1.9751 16.9744 1.79791 17.287 1.67337C17.3567 1.64554 17.4175 1.59909 17.4627 1.53908C17.5079 1.47908 17.5358 1.40782 17.5433 1.33308C17.5511 1.25831 17.5382 1.18283 17.5061 1.11488C17.4739 1.04693 17.4237 0.989128 17.3609 0.94777C17.0901 0.769774 16.7775 0.675781 16.4562 0.675781H1.64563C0.738444 0.675897 0 1.41395 0 2.32152V18.3663C1.70267e-05 18.4476 0.024145 18.5271 0.0693359 18.5948C0.114527 18.6624 0.178753 18.7152 0.2539 18.7463C0.304541 18.7676 0.358345 18.7777 0.411378 18.7777C0.518253 18.7777 0.623508 18.7359 0.702266 18.6572L4.69579 14.6636H16.4562C17.3633 14.6636 18.1018 13.9256 18.1018 13.018V8.35114C18.1017 8.26979 18.0776 8.19028 18.0324 8.12263C17.9872 8.05499 17.923 8.00226 17.8478 7.97109ZM9.46227 10.5496H4.52543C4.47139 10.5496 4.41787 10.539 4.36794 10.5183C4.31801 10.4977 4.27264 10.4674 4.23443 10.4292C4.19622 10.391 4.16592 10.3456 4.14525 10.2957C4.12459 10.2457 4.11397 10.1922 4.11401 10.1382C4.11397 10.0841 4.12459 10.0306 4.14525 9.98068C4.16592 9.93075 4.19622 9.88538 4.23443 9.84717C4.27264 9.80896 4.31801 9.77866 4.36794 9.758C4.41787 9.73733 4.47139 9.72671 4.52543 9.72675H9.46227C9.5163 9.72671 9.56982 9.73733 9.61975 9.758C9.66968 9.77866 9.71505 9.80896 9.75326 9.84717C9.79147 9.88538 9.82178 9.93075 9.84244 9.98068C9.8631 10.0306 9.87372 10.0841 9.87368 10.1382C9.87372 10.1922 9.8631 10.2457 9.84244 10.2957C9.82178 10.3456 9.79147 10.391 9.75326 10.4292C9.71505 10.4674 9.66968 10.4977 9.61975 10.5183C9.56982 10.539 9.5163 10.5496 9.46227 10.5496Z" fill="#333333"/>
<path d="M18.1728 2.32031C17.7574 2.32031 17.3516 2.48867 17.0592 2.78152L12.0516 7.78829C11.9941 7.84563 11.9549 7.91877 11.9391 7.99841L11.5277 10.0562C11.5003 10.1912 11.5429 10.3306 11.6402 10.4278C11.7173 10.505 11.8219 10.5483 11.931 10.5484C11.9576 10.5484 11.9849 10.5456 12.0114 10.5403L14.0676 10.1289C14.1474 10.1132 14.2207 10.074 14.2781 10.0164L19.2865 5.00889V5.0085C19.5798 4.71522 19.7477 4.30944 19.7477 3.8952C19.7477 3.02663 19.0414 2.32031 18.1728 2.32031ZM17.5203 5.61149L16.4563 4.54748L17.0381 3.96575L18.1021 5.02983L17.5203 5.61149Z" fill="#333333"/>
</svg>
