<svg width="22" height="24" viewBox="0 0 22 24" fill="none" xmlns="http://www.w3.org/2000/svg">
<g id="Group">
<path id="Vector" d="M20.198 9.31445L19.9297 9.59349L19.7633 9.76252L20.0424 10.8465C20.045 10.8599 20.0424 10.8679 20.045 10.8813C20.0477 10.8974 20.0504 10.9162 20.0477 10.935C20.0477 10.9511 20.0424 10.9672 20.0397 10.9833C20.0343 11.0021 20.029 11.0155 20.0209 11.0316C20.0209 11.0343 20.0209 11.0369 20.0182 11.0396C20.0048 11.0611 19.9941 11.0852 19.9753 11.1067L16.7074 14.49C16.6027 14.5973 16.6027 14.7771 16.7074 14.8871C16.7584 14.9354 16.8254 14.9676 16.8952 14.9676C16.9676 14.9676 17.0347 14.938 17.083 14.8871L20.4931 11.3616C20.5119 11.3428 20.5199 11.3294 20.528 11.3187C20.5307 11.316 20.5334 11.3133 20.5334 11.3106C20.5387 11.2999 20.5468 11.2945 20.5548 11.2865C20.5602 11.2784 20.5629 11.2704 20.5709 11.2623C20.6353 11.1899 20.6595 11.0879 20.6353 10.994L20.198 9.31445Z" fill="#333333"/>
<path id="Vector_2" d="M16.8949 15.5144C16.6803 15.5144 16.479 15.4259 16.3261 15.2703C16.0149 14.9483 16.0149 14.4251 16.3261 14.1005L17.9493 12.4263V11.6375L9.50859 20.3626C9.49785 20.376 9.48176 20.3814 9.47102 20.3894C9.46029 20.3975 9.45493 20.4055 9.44688 20.4109L6.98387 21.7819C6.94363 21.8034 6.9007 21.8141 6.85509 21.8141C6.78533 21.8141 6.71826 21.7873 6.6646 21.7336L6.09848 21.1461C6.01531 21.0602 5.99653 20.9287 6.05019 20.8214L7.37828 18.2752C7.38096 18.2672 7.39169 18.2618 7.39706 18.2538C7.40511 18.2404 7.41047 18.2243 7.42389 18.2135L17.4637 7.83564L17.9493 7.33392V2.76207C17.9493 2.25766 17.5442 1.8418 17.0505 1.8418H14.8397C14.6841 2.74597 13.9168 3.43282 12.9911 3.43282H4.9582C4.03256 3.43282 3.26254 2.74329 3.10961 1.8418H0.898808C0.402452 1.84448 0 2.25766 0 2.76207V22.8042C0 23.3139 0.402452 23.7244 0.898808 23.7244H17.0505C17.5442 23.7244 17.9493 23.3139 17.9493 22.8042V14.7712L17.4664 15.2703C17.3135 15.4286 17.1122 15.5144 16.8949 15.5144ZM1.18321 7.22392L1.41126 6.98781C1.52395 6.86976 1.6742 6.80537 1.8325 6.80537C1.99348 6.80537 2.14372 6.86976 2.25641 6.98781L2.97814 7.73637L4.97698 5.65972C5.09235 5.54435 5.23992 5.47996 5.39822 5.47996C5.4009 5.47996 5.4009 5.47996 5.4009 5.47996C5.5592 5.47996 5.70944 5.54435 5.81945 5.65972L6.05019 5.90119C6.27824 6.1373 6.28093 6.52365 6.05287 6.76244H6.05019L3.39401 9.51521C3.28669 9.62789 3.1418 9.69497 2.98351 9.69765C2.81448 9.69497 2.6696 9.62789 2.55959 9.51252L1.18321 8.08516C0.949785 7.85442 0.949785 7.4627 1.18321 7.22392ZM5.60481 14.4278C5.8114 14.6451 5.8114 14.9966 5.60481 15.2086L5.22919 15.5976C5.12455 15.7049 4.98772 15.7586 4.8482 15.7586C4.71137 15.7586 4.57185 15.7049 4.46721 15.6003L3.6167 14.7202L2.76618 15.5976C2.66155 15.7049 2.52203 15.7586 2.38251 15.7586C2.24568 15.7586 2.10616 15.7049 2.00421 15.5976L1.62859 15.2086C1.422 14.9966 1.422 14.6451 1.6259 14.4278L2.48178 13.5478L1.62859 12.6651C1.422 12.4477 1.422 12.0963 1.62859 11.8843L2.00421 11.4953C2.2108 11.2806 2.55423 11.2806 2.76618 11.4926L3.6167 12.3726L4.46453 11.4953C4.67917 11.2806 5.01991 11.2806 5.22919 11.4953L5.60481 11.8843C5.8114 12.0963 5.8114 12.4477 5.60749 12.6651L4.75161 13.5478L5.60481 14.4278ZM2.98351 21.6075C2.81448 21.6048 2.66691 21.5378 2.55959 21.4224L1.18321 19.995C0.949785 19.7589 0.949785 19.3699 1.18321 19.1311L1.41126 18.895C1.52395 18.777 1.6742 18.7126 1.8325 18.7126C1.99348 18.7126 2.14372 18.7796 2.25641 18.8977L2.97814 19.6436L4.97698 17.5669C5.09235 17.4515 5.23992 17.3872 5.39822 17.3872C5.4009 17.3872 5.4009 17.3872 5.4009 17.3872C5.5592 17.3872 5.70944 17.4515 5.81945 17.5669L6.05019 17.8084C6.27824 18.0445 6.28093 18.4308 6.05287 18.6696H6.05019L3.39401 21.4224C3.28669 21.5378 3.1418 21.6048 2.98351 21.6075Z" fill="#333333"/>
<path id="Vector_3" d="M4.95869 2.88556H12.9916C13.7295 2.88556 14.3331 2.27115 14.3331 1.51186V1.48503C14.3331 0.72842 13.7295 0.111328 12.9916 0.111328H4.95869C4.21818 0.111328 3.61719 0.725737 3.61719 1.48503V1.51186C3.61719 2.27115 4.21818 2.88556 4.95869 2.88556Z" fill="#333333"/>
<path id="Vector_4" d="M2.94308 9.13476C2.95381 9.14549 2.96454 9.15086 2.98332 9.15086C2.99137 9.15086 3.0021 9.14549 3.01015 9.13745L5.66901 6.38199C5.69316 6.35516 5.69316 6.31224 5.66901 6.28809L5.43828 6.0493C5.42486 6.03589 5.40876 6.0332 5.39803 6.0332C5.3873 6.0332 5.37388 6.03589 5.35778 6.0493L3.16845 8.32181C3.06918 8.42645 2.88673 8.42645 2.78746 8.32181L1.87255 7.37203C1.85646 7.35861 1.84304 7.35593 1.83231 7.35593C1.82158 7.35593 1.80816 7.35861 1.79475 7.37203L1.56401 7.61081C1.53986 7.63496 1.53986 7.67789 1.56401 7.70204L2.94308 9.13476Z" fill="#333333"/>
<path id="Vector_5" d="M5.43828 17.9556C5.42486 17.9421 5.40876 17.9395 5.39803 17.9395C5.3873 17.9395 5.37388 17.9421 5.35778 17.9556L3.16845 20.2281C3.06918 20.3327 2.88673 20.3327 2.78746 20.2281L1.87255 19.2783C1.85646 19.2649 1.84304 19.2622 1.83231 19.2622C1.82426 19.2622 1.80816 19.2649 1.79475 19.2783L1.56401 19.5171C1.53986 19.5412 1.53986 19.5841 1.56401 19.6083L2.94308 21.041C2.95917 21.0544 2.98869 21.0652 3.00747 21.0437L5.66901 18.2882C5.69316 18.2614 5.69316 18.2185 5.66901 18.1943L5.43828 17.9556Z" fill="#333333"/>
<path id="Vector_6" d="M3.80738 12.9541C3.80738 12.9567 3.8047 12.9567 3.8047 12.9567C3.79128 12.9728 3.7725 12.9782 3.75641 12.9889C3.74299 12.997 3.73226 13.0104 3.71616 13.0158C3.70006 13.0238 3.6786 13.0238 3.65982 13.0265C3.6464 13.0292 3.6303 13.0346 3.61689 13.0346C3.59542 13.0346 3.57664 13.0292 3.55518 13.0238C3.54176 13.0211 3.52835 13.0211 3.51493 13.0158C3.49884 13.0077 3.48542 12.997 3.47201 12.9863C3.45591 12.9755 3.43981 12.9702 3.42639 12.9567C3.42639 12.9567 3.42639 12.9567 3.42639 12.9541L2.38539 11.8809L2.00977 12.2672L3.04541 13.3485C3.04809 13.3485 3.04809 13.3485 3.04809 13.3485C3.04809 13.3511 3.04809 13.3511 3.04809 13.3511C3.05882 13.3619 3.06419 13.378 3.07492 13.3887C3.08565 13.4048 3.09907 13.4209 3.10712 13.4397C3.11248 13.4558 3.11248 13.4719 3.11517 13.488C3.12053 13.5068 3.1259 13.5229 3.1259 13.5416C3.1259 13.5604 3.12053 13.5765 3.11517 13.5953C3.11248 13.6114 3.11248 13.6275 3.10712 13.6409C3.09907 13.6624 3.08297 13.6785 3.06955 13.6973C3.06151 13.708 3.05882 13.7187 3.04809 13.7295V13.7321L2.00977 14.8027L2.38539 15.1997L3.42639 14.1265C3.42639 14.1239 3.4264 14.1239 3.42908 14.1239C3.44249 14.1104 3.45591 14.1051 3.46932 14.097C3.48542 14.0863 3.49884 14.0729 3.51493 14.0648C3.52567 14.0621 3.5364 14.0621 3.54713 14.0595C3.57128 14.0541 3.59274 14.046 3.61689 14.046C3.63299 14.046 3.64908 14.0514 3.66518 14.0568C3.68396 14.0595 3.70006 14.0595 3.71616 14.0648C3.73226 14.0729 3.74299 14.0836 3.75641 14.0917C3.7725 14.1024 3.79128 14.1104 3.8047 14.1239C3.8047 14.1239 3.8047 14.1239 3.80738 14.1265L4.84571 15.1997L5.22401 14.8134L4.18569 13.7321V13.7295H4.183C4.17495 13.7187 4.16959 13.708 4.16422 13.6973C4.15081 13.6785 4.13471 13.6624 4.12666 13.6409C4.12129 13.6275 4.12129 13.6114 4.11593 13.5953C4.11325 13.5765 4.1052 13.5604 4.1052 13.5416C4.1052 13.5229 4.11325 13.5068 4.11593 13.4907C4.11861 13.4719 4.11861 13.4558 4.12666 13.4397C4.13203 13.4209 4.14812 13.4075 4.15886 13.3887C4.16691 13.378 4.17227 13.3619 4.183 13.3511H4.18569C4.18569 13.3511 4.18569 13.3511 4.18569 13.3485L5.22401 12.2779L4.84839 11.8809L3.80738 12.9541Z" fill="#333333"/>
<path id="Vector_7" d="M18.9818 9.79094L17.6537 8.41992L7.99219 18.4061L9.31759 19.7798L18.9818 9.79094Z" fill="#333333"/>
<path id="Vector_8" d="M6.61914 20.9016L6.90622 21.2021L8.87824 20.1021L7.67893 18.8652L6.61914 20.9016Z" fill="#333333"/>
<path id="Vector_9" d="M21.724 5.57835C21.3699 5.21347 20.7555 5.21347 20.4013 5.57835L18.0322 8.02794L19.3576 9.40164L21.724 6.95474C22.0916 6.57643 22.0916 5.95934 21.724 5.57835Z" fill="#333333"/>
</g>
</svg>
