<svg width="14" height="14" viewBox="0 0 14 14" fill="none" xmlns="http://www.w3.org/2000/svg">
<path d="M6.01976 4.28738L7 3.88097L7.98027 4.28738C8.04513 4.31418 8.11577 4.32393 8.18546 4.3157C8.25515 4.30747 8.32157 4.28153 8.3784 4.24035C8.43513 4.19902 8.48033 4.14383 8.50968 4.08006C8.53902 4.01629 8.55153 3.94606 8.54601 3.87608L8.46261 2.81823L9.15195 2.01119C9.19752 1.95784 9.22863 1.89369 9.24233 1.82488C9.25602 1.75607 9.25183 1.6849 9.23015 1.61818C9.20853 1.55136 9.17009 1.49123 9.11851 1.44358C9.06694 1.39592 9.00397 1.36233 8.93566 1.34605L7.90398 1.09826L7.34973 0.193296C7.20218 -0.0644456 6.79779 -0.0644183 6.65027 0.193296L6.09602 1.09826L5.06434 1.34605C4.99603 1.36233 4.93306 1.39592 4.88148 1.44358C4.82991 1.49123 4.79147 1.55136 4.76985 1.61818C4.74817 1.6849 4.74398 1.75607 4.75767 1.82488C4.77137 1.89369 4.80248 1.95784 4.84805 2.01119L5.53739 2.81823L5.45399 3.87608C5.44847 3.94606 5.46097 4.01629 5.49032 4.08006C5.51966 4.14383 5.56486 4.19902 5.6216 4.24035C5.67842 4.28155 5.74485 4.30751 5.81455 4.31574C5.88425 4.32398 5.9549 4.31421 6.01976 4.28738ZM13.9799 3.23173C13.9583 3.16491 13.9199 3.10478 13.8683 3.05713C13.8167 3.00947 13.7538 2.97588 13.6854 2.9596L12.6538 2.71181L12.0995 1.80685C12.0628 1.74702 12.0114 1.6976 11.9502 1.66332C11.889 1.62903 11.82 1.61103 11.7498 1.61103C11.6796 1.61103 11.6106 1.62903 11.5494 1.66332C11.4882 1.6976 11.4367 1.74702 11.4001 1.80685L10.8458 2.71181L9.81413 2.9596C9.74582 2.97588 9.68285 3.00947 9.63127 3.05713C9.5797 3.10478 9.54125 3.16491 9.51964 3.23173C9.49796 3.29845 9.49377 3.36962 9.50746 3.43843C9.52115 3.50724 9.55227 3.57139 9.59784 3.62474L10.2872 4.43179L10.2038 5.48963C10.1983 5.55961 10.2108 5.62984 10.2401 5.69361C10.2695 5.75739 10.3147 5.81257 10.3714 5.8539C10.4282 5.89512 10.4946 5.92108 10.5643 5.92931C10.634 5.93755 10.7047 5.92778 10.7695 5.90093L11.7498 5.49452L12.7301 5.90093C12.7949 5.92774 12.8656 5.93748 12.9352 5.92925C13.0049 5.92102 13.0714 5.89508 13.1282 5.8539C13.1849 5.81257 13.2301 5.75738 13.2595 5.69361C13.2888 5.62984 13.3013 5.55961 13.2958 5.48963L13.2124 4.43179L13.9017 3.62474C13.9473 3.57139 13.9784 3.50724 13.9921 3.43843C14.0058 3.36962 14.0016 3.29845 13.9799 3.23173ZM3.38743 5.93213C3.47275 5.93213 3.55724 5.90561 3.62861 5.85393C3.68535 5.8126 3.73054 5.75741 3.75989 5.69364C3.78923 5.62987 3.80174 5.55964 3.79622 5.48966L3.71282 4.43181L4.40216 3.62476C4.44773 3.57142 4.47885 3.50727 4.49254 3.43846C4.50623 3.36965 4.50204 3.29848 4.48036 3.23175C4.45875 3.16494 4.4203 3.10481 4.36873 3.05715C4.31715 3.0095 4.25418 2.97591 4.18587 2.95963L3.15419 2.71184L2.59994 1.80687C2.56326 1.74705 2.51185 1.69763 2.45062 1.66334C2.38939 1.62906 2.32039 1.61106 2.25021 1.61106C2.18004 1.61106 2.11103 1.62906 2.0498 1.66334C1.98857 1.69763 1.93716 1.74705 1.90049 1.80687L1.34623 2.71184L0.314552 2.95963C0.246243 2.97591 0.183272 3.0095 0.131696 3.05715C0.0801212 3.10481 0.0416767 3.16494 0.0200606 3.23175C-0.00161522 3.29848 -0.00580761 3.36965 0.00788449 3.43846C0.0215766 3.50727 0.0526951 3.57142 0.0982636 3.62476L0.787598 4.43181L0.7042 5.48966C0.698678 5.55964 0.711186 5.62987 0.74053 5.69364C0.769874 5.75741 0.815075 5.8126 0.871816 5.85393C0.928624 5.89514 0.995049 5.92111 1.06475 5.92934C1.13445 5.93757 1.20509 5.9278 1.26994 5.90096L2.25021 5.49455L3.23048 5.90096C3.28107 5.92174 3.33439 5.93213 3.38743 5.93213ZM11.8283 9.86615L11.343 12.6478C11.221 13.3443 10.6165 13.8523 9.90964 13.8523H7.11047C6.91674 13.8521 6.72492 13.8141 6.54582 13.7402C6.36836 13.6664 6.20512 13.5586 6.06703 13.4203C6.05856 13.4118 6.04981 13.4033 6.04106 13.3949V8.77432L6.05965 8.76776C6.25447 8.69785 6.43073 8.58435 6.57498 8.43593C6.71924 8.28751 6.82767 8.10808 6.89199 7.91135L7.13672 7.12823L7.46648 6.07304C7.56355 5.77636 7.88238 5.61476 8.17933 5.71183C8.72293 5.88901 9.06855 6.39432 9.06855 6.93655C9.06855 7.06944 9.04777 7.20452 9.00402 7.33741L8.63652 8.54326H10.7166C11.4176 8.54326 11.9492 9.17572 11.8283 9.86615ZM4.813 14H2.91439C2.68916 14 2.50659 13.8174 2.50659 13.5922V8.67509C2.50659 8.44986 2.68916 8.26728 2.91439 8.26728H4.813C5.03823 8.26728 5.2208 8.44986 5.2208 8.67509V13.5922C5.2208 13.8174 5.03823 14 4.813 14Z" fill="#15355E"/>
</svg>
