<svg width="18" height="19" viewBox="0 0 18 19" fill="none" xmlns="http://www.w3.org/2000/svg">
<path d="M17.6143 3.63729C17.2758 2.10875 15.794 0.708533 14.2613 0.411123C13.3276 0.224451 10.7226 -0.0061653 8.99965 0.0128183C7.27671 -0.0061653 4.67173 0.224451 3.73802 0.411123C2.20527 0.708533 0.723487 2.10875 0.384946 3.63729C0.192297 4.56537 0.00281239 5.82814 0 7.55178C0.00281239 9.27542 0.192297 10.5378 0.384946 11.4659C0.723487 12.9945 2.20527 14.3947 3.73802 14.6921C4.24214 14.793 5.23351 14.9065 6.3103 14.9867C6.43229 15.1783 6.56447 15.3822 6.70755 15.5984C7.27882 16.4635 7.71614 17.0664 8.0473 17.4865C8.59853 18.1858 9.40112 18.1858 9.95235 17.4865C10.2835 17.0664 10.7205 16.4635 11.2921 15.5984C11.4352 15.3818 11.567 15.1783 11.6893 14.9867C12.7661 14.9065 13.7575 14.793 14.262 14.6921C15.7947 14.3947 17.2765 12.9945 17.6151 11.4659C17.8077 10.5378 17.9972 9.27542 18 7.55178C17.9972 5.82814 17.8077 4.56573 17.6151 3.63764L17.6143 3.63729ZM9.99348 12.7776C9.95551 12.9916 9.76145 13.1857 9.54736 13.2237C9.41764 13.2451 9.24081 13.2655 8.9993 13.2659C8.75813 13.2659 8.5813 13.2455 8.45123 13.2237C8.23714 13.1857 8.04308 12.9916 8.00512 12.7776C7.98367 12.6478 7.96328 12.471 7.96293 12.2295C7.96293 11.9883 7.98332 11.8115 8.00512 11.6814C8.04308 11.4673 8.23714 11.2733 8.45123 11.2353C8.58095 11.2139 8.75778 11.1935 8.9993 11.1931C9.24046 11.1931 9.41729 11.2135 9.54736 11.2353C9.76145 11.2733 9.95551 11.4673 9.99348 11.6814C10.0149 11.8111 10.0353 11.988 10.0357 12.2295C10.0357 12.4707 10.0153 12.6475 9.99348 12.7776ZM12.1337 7.01954C11.8623 7.40343 11.4556 7.75392 10.8537 8.12199C10.0919 8.59166 9.96992 8.78466 9.96992 9.16258V9.31199C9.96992 9.84774 9.534 10.2837 8.99824 10.2837C8.46248 10.2837 8.02656 9.84774 8.02656 9.31199V8.96571C8.02656 8.51995 8.138 8.14168 8.36721 7.80947C8.58939 7.48745 8.92231 7.20129 9.41623 6.90774C10.3264 6.37233 10.493 6.07176 10.493 5.67275C10.493 5.17144 10.0659 4.84732 9.40534 4.84732C8.68115 4.84732 8.20972 5.17637 8.00406 5.82568C7.86836 6.25386 7.47182 6.54143 7.01762 6.54143C6.9923 6.54143 6.96699 6.54038 6.94168 6.53862C6.62107 6.51542 6.33385 6.34913 6.15386 6.08231C5.97563 5.81829 5.92887 5.49381 6.02555 5.19183C6.24702 4.50139 6.67169 3.92696 7.25351 3.53041C7.8427 3.12895 8.58693 2.91696 9.40498 2.91696C10.223 2.91696 11.0432 3.18801 11.6254 3.68017C12.2244 4.18676 12.5545 4.88493 12.5545 5.64674C12.5545 6.16984 12.4171 6.61912 12.1337 7.01954Z" fill="#333333"/>
</svg>
