<svg width="18" height="19" viewBox="0 0 18 19" fill="none" xmlns="http://www.w3.org/2000/svg">
<mask id="mask0_3859_4124" style="mask-type:luminance" maskUnits="userSpaceOnUse" x="0" y="0" width="18" height="19">
<path d="M18 0.71875H0V18.7187H18V0.71875Z" fill="white"/>
<path d="M17.9999 9.71878C17.9999 14.6893 13.9705 18.7188 8.99997 18.7188C4.02942 18.7188 0 14.6893 0 9.71878C0 4.74823 4.02942 0.718803 8.99997 0.718803C13.9705 0.718803 17.9999 4.74823 17.9999 9.71878Z" fill="white"/>
<path d="M5.7902 10.8247V11.6367H2.97134V10.9954L4.32647 9.7282C4.61612 9.45922 4.6575 9.2937 4.6575 9.14373C4.6575 8.91096 4.50232 8.77132 4.192 8.77132C3.92822 8.77132 3.69029 8.89029 3.54544 9.12302L2.78516 8.6989C3.05927 8.24376 3.57132 7.94378 4.28509 7.94378C5.1178 7.94378 5.69194 8.37307 5.69194 9.04543C5.69194 9.39717 5.59367 9.71783 5.07642 10.1937L4.39369 10.8247H5.7902Z" fill="black"/>
<path d="M9.58171 10.9437H9.04382V11.6367H8.04556V10.9437H6.13184V10.2764L7.75591 8.01616H8.81622L7.34212 10.1316H8.0766V9.51614H9.04382V10.1316H9.58171V10.9437Z" fill="black"/>
<path d="M11.3455 7.28403H12.2196L10.5128 12.1562H9.63867L11.3455 7.28403Z" fill="black"/>
<path d="M15.2147 8.01616V8.65752L13.9372 11.6367H12.82L14.0406 8.8282H13.089V9.3868H12.2148V8.01616H15.2147Z" fill="black"/>
</mask>
<g mask="url(#mask0_3859_4124)">
<mask id="mask1_3859_4124" style="mask-type:luminance" maskUnits="userSpaceOnUse" x="0" y="0" width="18" height="19">
<path d="M0 0.718803H17.9999V18.7188H0V0.718803Z" fill="white"/>
</mask>
<g mask="url(#mask1_3859_4124)">
<path d="M17.9999 9.71878C17.9999 14.6893 13.9705 18.7188 8.99997 18.7188C4.02942 18.7188 0 14.6893 0 9.71878C0 4.74823 4.02942 0.718803 8.99997 0.718803C13.9705 0.718803 17.9999 4.74823 17.9999 9.71878Z" fill="#333333"/>
</g>
</g>
</svg>
