<svg width="48" height="34" viewBox="0 0 48 34" fill="none" xmlns="http://www.w3.org/2000/svg">
<path fill-rule="evenodd" clip-rule="evenodd" d="M45.8107 30.5741H35.4069V29.8871C35.4069 29.588 35.4779 29.3024 35.4096 29.0254C35.0795 25.3437 33.7381 21.916 31.1941 19.2156C31.9781 19.2242 32.7557 19.2021 33.4592 19.2021C35.8059 19.2021 37.9067 17.605 39.3979 15.8562C44.9355 17.2145 47.5365 20.6562 47.9253 24.9946C47.9696 25.1732 48 25.3572 48 25.5498V28.3169C48 29.5628 47.0197 30.5741 45.8107 30.5741ZM33.488 16.6496C29.8283 16.6496 26.504 11.834 26.504 7.63384C26.504 3.43418 29.8288 0.0301242 33.488 0.0301242C37.1477 0.0301242 40.4213 3.43418 40.4213 7.63384C40.4213 11.8335 37.1477 16.6496 33.488 16.6496ZM16.4149 19.143C12.2757 19.143 8.80213 13.3499 8.80213 8.59997C8.80213 3.85 12.2757 0 16.4149 0C20.5541 0 24.0277 3.85 24.0277 8.59997C24.0272 13.3499 20.5536 19.143 16.4149 19.143ZM9.57867 17.7814C11.2699 19.824 13.6795 21.6826 16.3824 21.6826C19.0363 21.6826 21.4123 19.8762 23.0987 17.8982C29.3616 19.434 32.3035 23.327 32.7429 28.2335C32.7925 28.4353 32.8272 28.6434 32.8272 28.8608V30.5499C32.8272 31.9603 31.7189 33.1035 30.3515 33.1035H2.47573C1.1088 33.1035 0 31.9603 0 30.5499V28.8608C0 28.8123 0.0112 28.7666 0.0138667 28.7187H0.0106667C0.0154667 28.6294 0.0330666 28.5471 0.0394666 28.4584C0.0453333 28.4191 0.0448 28.3777 0.0522667 28.339C0.4352 23.2544 2.84693 19.2409 9.57867 17.7814Z" fill="#3ABC37"/>
</svg>
