<svg width="38" height="37" viewBox="0 0 38 37" fill="none" xmlns="http://www.w3.org/2000/svg">
<path d="M19.8583 24.6832C20.9494 24.3205 21.7441 23.3014 21.7441 22.0901C21.7441 20.8789 20.9494 19.8604 19.8583 19.4971V24.6832Z" fill="#FF4E6E"/>
<path d="M16.256 14.8875C16.256 16.0988 17.0507 17.1167 18.1418 17.4794V12.2944C17.0507 12.6572 16.256 13.6756 16.256 14.8875Z" fill="#FF4E6E"/>
<path d="M18.9959 7.00338H18.9942H18.9919C23.5001 4 18.5056 4.68824 18.3431 4.5L16.6695 4.77364C10.406 5.87449 5.72734 11.4011 5.71246 17.8151C5.71246 23.5007 9.29538 28.5472 14.628 30.4056C16.0309 30.8943 17.5014 31.142 18.9999 31.142C26.3265 31.142 32.2874 25.1777 32.2874 17.8465C32.2874 11.4131 27.6071 5.87105 21.3269 4.76562L19.6453 4.5C19.4817 4.68882 19.2454 7.00338 18.9959 7.00338ZM23.4606 14.8879H21.744C21.744 13.6766 20.9493 12.6581 19.8582 12.2954V17.7155C21.9083 18.1172 23.4606 19.9252 23.4606 22.0909C23.4606 24.2565 21.9083 26.0652 19.8582 26.4663V28.0168H18.1417V26.4663C16.0916 26.0646 14.5393 24.2565 14.5393 22.0909H16.2558C16.2558 23.3022 17.0506 24.3212 18.1417 24.684V19.2627C16.0916 18.861 14.5393 17.0529 14.5393 14.8879C14.5393 12.7222 16.0916 10.9136 18.1417 10.5125V8.96191H19.8582V10.5125C21.9083 10.9136 23.4606 12.7222 23.4606 14.8879Z" fill="#FF4E6E"/>
<path d="M25.4569 0.000571854L22.6092 3.28654C29.2018 4.91607 34.004 10.9233 34.004 17.8471C34.004 26.1246 27.273 32.8591 19 32.8591C17.3092 32.8591 15.6488 32.5793 14.0639 32.0271C8.0424 29.929 3.99603 24.2302 3.99603 17.8471C4.01205 10.9095 8.81654 4.91951 15.3931 3.29626L12.5385 0C5.01964 2.71208 0 9.80983 0 17.8557C0 28.3326 8.52302 36.8562 19 36.8562C29.477 36.8562 38 28.3326 38 17.8557C38 9.80411 32.9787 2.70693 25.4569 0.000571854Z" fill="#FF4E6E"/>
</svg>
