<svg width="18" height="19" viewBox="0 0 18 19" fill="none" xmlns="http://www.w3.org/2000/svg">
<path d="M14.2611 10.3616C14.3932 10.7366 14.6381 11.0615 14.9623 11.2917C15.2864 11.5219 15.6739 11.6461 16.0714 11.6473C17.1347 11.6473 18 10.782 18 9.71875C18 8.65546 17.1347 7.79018 16.0714 7.79018C15.6739 7.79136 15.2864 7.91558 14.9623 8.14579C14.6381 8.376 14.3932 8.70091 14.2611 9.07589H13.5V3.29018H14.2611C14.3932 3.66516 14.6381 3.99007 14.9623 4.22028C15.2864 4.45049 15.6739 4.57471 16.0714 4.57589C17.1347 4.57589 18 3.71061 18 2.64732C18 1.58404 17.1347 0.71875 16.0714 0.71875C15.6739 0.719931 15.2864 0.844154 14.9623 1.07436C14.6381 1.30457 14.3932 1.62948 14.2611 2.00446H12.8571C12.6866 2.00446 12.5231 2.07219 12.4026 2.19275C12.282 2.31331 12.2143 2.47683 12.2143 2.64732V9.07589H10.9286V10.3616H12.2143V16.7902C12.2143 16.9607 12.282 17.1242 12.4026 17.2447C12.5231 17.3653 12.6866 17.433 12.8571 17.433H14.2611C14.3932 17.808 14.6381 18.1329 14.9623 18.3631C15.2864 18.5933 15.6739 18.7176 16.0714 18.7188C17.1347 18.7188 18 17.8535 18 16.7902C18 15.7269 17.1347 14.8616 16.0714 14.8616C15.6739 14.8628 15.2864 14.987 14.9623 15.2172C14.6381 15.4474 14.3932 15.7723 14.2611 16.1473H13.5V10.3616H14.2611ZM5.46429 9.28482V14.8616L9.89614 12.8816C10.0119 12.832 10.1105 12.7495 10.1797 12.6444C10.249 12.5392 10.2858 12.4161 10.2857 12.2902V7.14732L10.2851 7.14218L5.46429 9.28482ZM5.39614 4.62796C5.31617 4.5934 5.22998 4.57556 5.14286 4.57556C5.05574 4.57556 4.96954 4.5934 4.88957 4.62796C4.88957 4.62796 0.356143 6.57904 0.338143 6.58868L5.14286 8.72425L9.94757 6.58868C9.92957 6.57904 5.39614 4.62796 5.39614 4.62796ZM2.54367e-07 7.14732V12.2902C-0.000111718 12.4161 0.0367464 12.5392 0.106001 12.6444C0.175255 12.7495 0.273857 12.832 0.389572 12.8816L4.82143 14.8616V9.28482L0.000643065 7.14218L2.54367e-07 7.14732Z" fill="#333333"/>
</svg>
