<svg width="23" height="22" viewBox="0 0 23 22" fill="none" xmlns="http://www.w3.org/2000/svg">
<g id="Group 1171275971">
<path id="Vector" d="M11.2804 7.55274C10.8273 7.55186 10.3784 7.64052 9.95968 7.81362C9.54092 7.98673 9.1605 8.24088 8.84027 8.56146C8.51896 8.88128 8.26431 9.26168 8.09108 9.68062C7.91784 10.0996 7.82947 10.5487 7.83108 11.0021C7.82953 11.4553 7.91794 11.9044 8.09117 12.3232C8.2644 12.7421 8.51901 13.1224 8.84027 13.4422C9.4879 14.0885 10.3655 14.4514 11.2804 14.4514C12.1953 14.4514 13.0729 14.0885 13.7205 13.4422C14.3712 12.7915 14.7297 11.9251 14.7297 11.0021C14.7297 10.079 14.3716 9.21257 13.7205 8.56146C13.4003 8.24088 13.0199 7.98673 12.6011 7.81362C12.1824 7.64052 11.7335 7.55186 11.2804 7.55274ZM11.2682 10.768H11.2813C11.5854 10.7686 11.8772 10.8882 12.0942 11.1012C12.3111 11.3143 12.4361 11.6038 12.4422 11.9078C12.4455 12.0604 12.4185 12.2122 12.3629 12.3543C12.3072 12.4964 12.2239 12.6261 12.1178 12.7358C11.9526 12.9076 11.7433 13.0204 11.5144 13.0673V13.2344C11.5144 13.2964 11.4898 13.356 11.4459 13.3999C11.402 13.4437 11.3425 13.4684 11.2804 13.4684C11.2183 13.4684 11.1588 13.4437 11.1149 13.3999C11.071 13.356 11.0464 13.2964 11.0464 13.2344V13.0677C10.8309 13.0241 10.6325 12.9199 10.4744 12.7672C10.3642 12.6617 10.2761 12.5353 10.215 12.3956C10.154 12.2558 10.1212 12.1053 10.1186 11.9527C10.118 11.922 10.1234 11.8914 10.1346 11.8628C10.1458 11.8342 10.1625 11.808 10.1838 11.7859C10.2051 11.7637 10.2306 11.7459 10.2588 11.7336C10.2869 11.7213 10.3172 11.7146 10.348 11.714C10.4645 11.7215 10.5839 11.8142 10.5867 11.9434C10.59 12.1287 10.6658 12.3015 10.7992 12.4302C10.9293 12.5552 11.0992 12.624 11.2795 12.624H11.2935C11.3847 12.6225 11.4746 12.6029 11.5582 12.5664C11.6417 12.53 11.7172 12.4773 11.7803 12.4115C11.9095 12.2776 11.9778 12.1021 11.9741 11.9167C11.9726 11.8255 11.953 11.7356 11.9166 11.652C11.8801 11.5685 11.8274 11.493 11.7616 11.4299C11.6963 11.3665 11.619 11.3168 11.5343 11.2835C11.4497 11.2502 11.3592 11.2341 11.2682 11.2361H11.2673C10.9615 11.2322 10.6696 11.108 10.4546 10.8905C10.2397 10.673 10.119 10.3796 10.1186 10.0738C10.1186 9.51308 10.5174 9.04406 11.0464 8.93546V8.76929C11.0464 8.70722 11.071 8.64769 11.1149 8.6038C11.1588 8.55991 11.2183 8.53525 11.2804 8.53525C11.3425 8.53525 11.402 8.55991 11.4459 8.6038C11.4898 8.64769 11.5144 8.70722 11.5144 8.76929V8.93546C11.7764 8.98969 12.0116 9.13249 12.1806 9.33982C12.3495 9.54716 12.4419 9.80638 12.4422 10.0738C12.4422 10.1359 12.4175 10.1954 12.3736 10.2393C12.3297 10.2832 12.2702 10.3079 12.2081 10.3079C12.1461 10.3079 12.0865 10.2832 12.0426 10.2393C11.9988 10.1954 11.9741 10.1359 11.9741 10.0738C11.9741 9.69095 11.6628 9.37968 11.2804 9.37968C10.898 9.37968 10.5867 9.69095 10.5867 10.0738C10.5867 10.4521 10.8909 10.761 11.2682 10.768Z" fill="#333333"/>
<path id="Vector_2" d="M18.3718 9.56438L16.9137 9.35936C16.832 9.34861 16.7548 9.31595 16.6902 9.26486C16.6256 9.21376 16.576 9.14614 16.5467 9.06915C16.4942 8.92616 16.4356 8.78545 16.3712 8.6474C16.3369 8.57211 16.3237 8.48894 16.3331 8.40675C16.3424 8.32456 16.3738 8.24644 16.4241 8.18072L17.3111 7.00255C17.3782 6.91333 17.4108 6.80288 17.403 6.69151C17.3952 6.58014 17.3474 6.47534 17.2685 6.39638L15.8853 5.01319C15.8062 4.93421 15.7013 4.88645 15.5899 4.87871C15.4784 4.87097 15.3679 4.90377 15.2787 4.97106L14.1014 5.85855C14.0357 5.90893 13.9575 5.94046 13.8752 5.94978C13.7929 5.9591 13.7096 5.94585 13.6343 5.91145C13.4957 5.84641 13.3543 5.78738 13.2107 5.73451C13.1337 5.70522 13.066 5.65565 13.0149 5.59104C12.9639 5.52643 12.9312 5.4492 12.9204 5.36753L12.7168 3.91038C12.7014 3.7997 12.6464 3.69834 12.5621 3.62497C12.4778 3.5516 12.3699 3.51116 12.2581 3.51111H10.302C10.1902 3.51116 10.0822 3.5516 9.99795 3.62497C9.91366 3.69834 9.85872 3.7997 9.84325 3.91038L9.63964 5.36753C9.62888 5.4492 9.59623 5.52643 9.54513 5.59104C9.49404 5.65565 9.42641 5.70522 9.34942 5.73451C9.20525 5.78787 9.06389 5.84685 8.92581 5.91145C8.85047 5.94585 8.76719 5.9591 8.6849 5.94978C8.6026 5.94046 8.52439 5.90893 8.45866 5.85855L7.28142 4.97106C7.19222 4.90377 7.0817 4.87097 6.97023 4.87871C6.85875 4.88645 6.75383 4.93421 6.67478 5.01319L5.29159 6.39638C5.21273 6.4754 5.16505 6.58023 5.15731 6.6916C5.14957 6.80297 5.18229 6.91339 5.24946 7.00255L6.13602 8.18119C6.23712 8.31506 6.26006 8.49481 6.18938 8.64694C6.12478 8.78502 6.06627 8.92592 6.01338 9.07009C5.98419 9.14731 5.93461 9.21517 5.8699 9.26645C5.80519 9.31772 5.72779 9.35048 5.64593 9.36123L4.18878 9.56485C4.0781 9.58032 3.97674 9.63526 3.90337 9.71955C3.83 9.80385 3.78956 9.91182 3.78951 10.0236V11.9774C3.78955 12.089 3.82992 12.197 3.90319 12.2812C3.97647 12.3655 4.07772 12.4205 4.18832 12.4361L5.6464 12.6411C5.8121 12.6645 5.95534 12.7745 6.01338 12.9313C6.06627 13.0755 6.12525 13.2169 6.18985 13.3549C6.22425 13.4303 6.2375 13.5136 6.22818 13.5958C6.21886 13.6781 6.18733 13.7563 6.13695 13.8221L5.24946 14.9998C5.18223 15.089 5.14951 15.1996 5.15733 15.3111C5.16516 15.4225 5.21301 15.5274 5.29206 15.6064L6.67478 16.9877C6.7538 17.0666 6.85863 17.1143 6.97 17.122C7.08137 17.1298 7.19179 17.097 7.28095 17.0299L8.45725 16.1438C8.52283 16.0935 8.60085 16.0619 8.68297 16.0525C8.76509 16.0431 8.84822 16.0562 8.92346 16.0904C9.06249 16.156 9.20432 16.2149 9.34942 16.2678C9.50623 16.3254 9.61623 16.4691 9.63964 16.6353L9.84325 18.092C9.85872 18.2026 9.91366 18.304 9.99795 18.3774C10.0822 18.4507 10.1902 18.4912 10.302 18.4912H12.2576C12.3694 18.4912 12.4774 18.4507 12.5617 18.3774C12.646 18.304 12.7009 18.2026 12.7164 18.092L12.92 16.6353C12.9307 16.5535 12.9633 16.4762 13.0144 16.4115C13.0655 16.3468 13.1331 16.2972 13.2102 16.2678C13.3553 16.2149 13.4971 16.1555 13.6361 16.0904C13.7114 16.0562 13.7945 16.0431 13.8766 16.0525C13.9588 16.0619 14.0368 16.0935 14.1024 16.1438L15.2787 17.0299C15.3678 17.097 15.4782 17.1298 15.5896 17.122C15.701 17.1143 15.8058 17.0666 15.8848 16.9877L17.2675 15.6064C17.3465 15.5274 17.3943 15.4225 17.402 15.311C17.4098 15.1995 17.377 15.089 17.3097 14.9998L16.4227 13.8221C16.3723 13.7563 16.3407 13.6781 16.3314 13.5958C16.3221 13.5136 16.3354 13.4303 16.3698 13.3549C16.4344 13.2169 16.4933 13.0755 16.5462 12.9313C16.5755 12.8543 16.6251 12.7867 16.6897 12.7356C16.7543 12.6845 16.8315 12.6519 16.9132 12.6411L18.3713 12.4361C18.4819 12.4205 18.5831 12.3655 18.6564 12.2812C18.7297 12.197 18.7701 12.089 18.7701 11.9774V10.0231C18.7701 9.91142 18.7297 9.80351 18.6564 9.71922C18.5831 9.63494 18.4819 9.57995 18.3713 9.56438H18.3718ZM14.0513 13.7725C13.2874 14.5364 12.2838 14.9183 11.2803 14.9183C10.2767 14.9183 9.27312 14.5364 8.50921 13.7725C8.14432 13.4094 7.85508 12.9775 7.65823 12.5018C7.46138 12.0262 7.36083 11.5162 7.3624 11.0014C7.3624 9.95289 7.7701 8.96898 8.50921 8.22987C10.0375 6.70157 12.524 6.70157 14.0513 8.22987C14.4162 8.593 14.7054 9.02489 14.9023 9.50054C15.0991 9.97619 15.1997 10.4862 15.1981 11.0009C15.1981 12.0494 14.7904 13.0338 14.0513 13.7725ZM4.31236 2.64328L4.31142 2.64702C4.29791 2.70744 4.3087 2.77075 4.34145 2.82329C4.3742 2.87583 4.42629 2.91339 4.48649 2.92787L6.16364 3.31779C6.22406 3.3313 6.28737 3.32051 6.33991 3.28776C6.39245 3.25501 6.43001 3.20292 6.44449 3.14272C6.45852 3.08233 6.44802 3.01884 6.41528 2.96618C6.38255 2.91353 6.33026 2.87601 6.26989 2.86187L4.98968 2.56464C6.80674 1.20792 9.01259 0.472744 11.2803 0.468085C13.6731 0.468085 16.015 1.29191 17.8742 2.78745C17.8982 2.80672 17.9257 2.82108 17.9552 2.82971C17.9847 2.83834 18.0157 2.84107 18.0463 2.83774C18.0768 2.83442 18.1065 2.8251 18.1334 2.81033C18.1604 2.79555 18.1842 2.77561 18.2035 2.75164C18.2228 2.72767 18.2371 2.70013 18.2457 2.67061C18.2544 2.64109 18.2571 2.61015 18.2538 2.57957C18.2505 2.549 18.2411 2.51937 18.2264 2.49239C18.2116 2.46542 18.1917 2.44161 18.1677 2.42234C16.2137 0.855992 13.7846 0.00166233 11.2803 0C9.00825 0.00450985 6.79309 0.710747 4.93772 2.02213L5.15725 1.0766C5.17134 1.01608 5.16081 0.952437 5.12798 0.899679C5.09515 0.846922 5.04271 0.809367 4.98219 0.795277C4.92167 0.781186 4.85803 0.791715 4.80527 0.824546C4.75251 0.857376 4.71496 0.90982 4.70087 0.97034L4.35261 2.47149C4.33495 2.49607 4.32234 2.52391 4.31551 2.5534C4.30868 2.58289 4.3073 2.61343 4.31236 2.64328ZM20.2067 4.58864L21.2907 4.84047C21.3513 4.85456 21.4149 4.84403 21.4677 4.8112C21.5204 4.77837 21.558 4.72592 21.5721 4.6654C21.5862 4.60488 21.5756 4.54124 21.5428 4.48849C21.51 4.43573 21.4575 4.39818 21.397 4.38409L19.7198 3.99557C19.6595 3.98205 19.5962 3.99277 19.5437 4.02543C19.4912 4.05808 19.4536 4.11006 19.439 4.17017L19.0495 5.84685C19.0355 5.90731 19.046 5.97089 19.0788 6.0236C19.1115 6.07632 19.1639 6.11385 19.2244 6.12794C19.2848 6.14203 19.3484 6.13152 19.4011 6.09874C19.4538 6.06595 19.4914 6.01356 19.5055 5.95311L19.7751 4.79132C21.104 6.58802 21.8184 8.76524 21.8122 11C21.8122 13.4284 21.0099 15.7089 19.4928 17.5939C19.4539 17.6423 19.4358 17.7042 19.4425 17.766C19.4492 17.8277 19.4802 17.8843 19.5286 17.9232C19.5771 17.9621 19.6389 17.9802 19.7007 17.9735C19.7625 17.9668 19.819 17.9358 19.8579 17.8874C21.4424 15.9182 22.2803 13.5366 22.2803 11C22.2803 8.66379 21.5599 6.46238 20.2067 4.58864ZM3.29146 15.8751C3.23081 15.8635 3.16801 15.8758 3.11625 15.9095C3.06449 15.9432 3.0278 15.9956 3.01389 16.0558L2.77236 17.1932C1.45141 15.3991 0.741871 13.228 0.748359 11C0.748359 8.57345 1.55066 6.29434 3.06772 4.40889C3.10664 4.36048 3.12473 4.29858 3.11802 4.23683C3.1113 4.17507 3.08033 4.11852 3.03191 4.0796C2.9835 4.04068 2.9216 4.02258 2.85985 4.0293C2.79809 4.03602 2.74153 4.06699 2.70261 4.1154C1.11815 6.08511 0.280273 8.46579 0.280273 11C0.280273 13.3493 1.00768 15.561 2.37261 17.4399L1.24968 17.2012C1.18914 17.1894 1.1264 17.2015 1.07463 17.2351C1.02286 17.2686 0.986111 17.3209 0.972103 17.3809C0.96564 17.411 0.965162 17.442 0.970698 17.4723C0.976234 17.5025 0.987675 17.5314 1.00437 17.5572C1.02106 17.583 1.04268 17.6053 1.06798 17.6228C1.09329 17.6402 1.12178 17.6525 1.15185 17.659L2.83602 18.0171C2.86615 18.0237 2.89731 18.0243 2.92768 18.0188C2.95804 18.0133 2.987 18.0018 3.01288 17.985C3.03876 17.9681 3.06103 17.9463 3.0784 17.9208C3.09577 17.8953 3.10789 17.8666 3.11406 17.8364L3.47168 16.1527C3.48458 16.092 3.47284 16.0286 3.43905 15.9766C3.40525 15.9245 3.35217 15.888 3.29146 15.8751ZM18.1387 19.1353L16.4634 18.7445C16.4029 18.7304 16.3392 18.7409 16.2865 18.7737C16.2337 18.8066 16.1962 18.859 16.1821 18.9195C16.168 18.9801 16.1785 19.0437 16.2113 19.0964C16.2442 19.1492 16.2966 19.1868 16.3571 19.2009L17.5217 19.4723C15.7135 20.8058 13.527 21.5273 11.2803 21.5319C8.88271 21.5304 6.55711 20.7126 4.68636 19.213C4.66239 19.1938 4.63485 19.1794 4.60533 19.1708C4.57581 19.1621 4.54487 19.1594 4.51429 19.1627C4.45254 19.1694 4.39598 19.2004 4.35706 19.2488C4.31814 19.2972 4.30005 19.3591 4.30677 19.4209C4.31348 19.4827 4.34445 19.5392 4.39287 19.5781C6.34695 21.1443 8.77603 21.9984 11.2803 22C13.5898 22 15.8483 21.2576 17.7108 19.9137L17.4581 20.9492C17.4487 20.9796 17.4457 21.0117 17.4492 21.0434C17.4527 21.0751 17.4627 21.1057 17.4785 21.1334C17.4942 21.1612 17.5155 21.1853 17.541 21.2045C17.5664 21.2237 17.5955 21.2375 17.6265 21.2451C17.6575 21.2526 17.6897 21.2537 17.7211 21.2484C17.7526 21.243 17.7826 21.2313 17.8093 21.2139C17.8361 21.1966 17.859 21.1739 17.8766 21.1474C17.8943 21.1209 17.9064 21.091 17.9121 21.0596L18.3128 19.419C18.32 19.389 18.3211 19.3578 18.3163 19.3273C18.3114 19.2968 18.3006 19.2676 18.2844 19.2413C18.2682 19.215 18.247 19.1921 18.222 19.174C18.197 19.1559 18.1687 19.1425 18.1387 19.1353Z" fill="#333333"/>
</g>
</svg>
