<svg width="26" height="26" viewBox="0 0 26 26" fill="none" xmlns="http://www.w3.org/2000/svg">
<g clip-path="url(#clip0_68_424)">
<rect width="25.7276" height="25.7276" rx="6.4319" fill="#15355E"/>
<path d="M12.5 5C8.36425 5 5 8.36425 5 12.5C5 16.6357 8.36425 20 12.5 20C16.6357 20 20 16.6357 20 12.5C20 8.36425 16.6357 5 12.5 5ZM13.6846 16.0343C13.5293 16.1104 13.3672 16.1671 13.2031 16.213V16.9522C13.2031 17.3409 12.8887 17.6553 12.5 17.6553C12.1113 17.6553 11.7969 17.3409 11.7969 16.9522V16.2442C11.2803 16.1339 10.7656 15.8985 10.2891 15.5313C9.98145 15.294 9.92483 14.8526 10.1621 14.545C10.3994 14.2383 10.8408 14.1807 11.1484 14.418C12.0732 15.1319 12.7969 14.9034 13.0645 14.7716C13.417 14.5987 13.5781 14.3282 13.5781 14.1495C13.5781 13.7608 13.2608 13.5684 12.5498 13.2823C12.4238 13.2315 12.3067 13.1837 12.2041 13.1368C12.1348 13.1045 12.0508 13.0713 11.958 13.0352C11.3272 12.7842 10.0157 12.2608 10.0157 10.8497C10.0157 10.0928 10.5254 9.35356 11.3155 8.96489C11.4707 8.88872 11.6328 8.83208 11.7969 8.78618V8.04595C11.7969 7.65728 12.1114 7.34283 12.5 7.34283C12.8887 7.34283 13.2032 7.65728 13.2032 8.04595V8.75493C13.7198 8.86528 14.2344 9.09965 14.711 9.46783C15.0186 9.70513 15.0752 10.1465 14.8379 10.4542C14.6006 10.7618 14.1592 10.8184 13.8516 10.5811C12.9278 9.86723 12.2041 10.0958 11.9356 10.2276C11.583 10.4004 11.4219 10.6709 11.4219 10.8497C11.4219 11.2374 11.7783 11.4502 12.4795 11.7295C12.5986 11.7774 12.7061 11.8204 12.7959 11.8623C12.8779 11.9004 12.9727 11.9375 13.0733 11.9786C13.7412 12.2461 14.9844 12.7452 14.9844 14.1504C14.9844 14.9073 14.4746 15.6465 13.6846 16.0352L13.6846 16.0343Z" fill="white"/>
</g>
<defs>
<clipPath id="clip0_68_424">
<rect width="25.7276" height="25.7276" fill="white"/>
</clipPath>
</defs>
</svg>
