<svg width="140" height="141" viewBox="0 0 140 141" fill="none" xmlns="http://www.w3.org/2000/svg">
<rect x="0.5" y="1.12158" width="139" height="139" rx="69.5" fill="#15355E" fill-opacity="0.2"/>
<rect x="0.5" y="1.12158" width="139" height="139" rx="69.5" stroke="#15355E"/>
<path fill-rule="evenodd" clip-rule="evenodd" d="M41.2018 105.606H110.198C111.205 105.603 112.17 105.201 112.882 104.489C113.595 103.777 113.996 102.812 114 101.805V45.5258C113.997 44.5184 113.596 43.5531 112.883 42.8408C112.171 42.1284 111.206 41.727 110.198 41.7241H41.2018C40.1949 41.7272 39.2303 42.1288 38.5188 42.8413C37.8073 43.5537 37.407 44.5189 37.4053 45.5258V101.805C37.4079 102.811 37.8085 103.776 38.5198 104.488C39.2311 105.201 40.1952 105.602 41.2018 105.606Z" fill="#EAF6FF"/>
<path fill-rule="evenodd" clip-rule="evenodd" d="M41.207 105.606H110.198C111.205 105.603 112.17 105.201 112.882 104.489C113.595 103.777 113.996 102.812 114 101.805V88.5164H37.4053V101.805C37.4081 102.812 37.8096 103.777 38.5219 104.49C39.2343 105.202 40.1996 105.603 41.207 105.606Z" fill="#4E7490"/>
<path fill-rule="evenodd" clip-rule="evenodd" d="M45.4939 94.9326H105.905C106.47 94.9337 107.011 95.1581 107.411 95.5569C107.811 95.9558 108.037 96.4966 108.039 97.0613C108.037 97.6265 107.811 98.168 107.412 98.5677C107.012 98.9674 106.47 99.1929 105.905 99.1951H45.4939C44.9292 99.1927 44.3884 98.9669 43.9895 98.5672C43.5907 98.1674 43.3663 97.626 43.3652 97.0613C43.3665 96.4971 43.5911 95.9564 43.9901 95.5574C44.389 95.1585 44.9297 94.9338 45.4939 94.9326Z" fill="#FFBA57"/>
<path fill-rule="evenodd" clip-rule="evenodd" d="M58.1214 93.9759V100.152C58.1202 100.716 57.8954 101.257 57.4963 101.656C57.0972 102.055 56.5563 102.279 55.992 102.28C55.4274 102.279 54.886 102.055 54.4862 101.656C54.0865 101.257 53.8608 100.716 53.8584 100.152V93.9759C53.8605 93.4106 54.086 92.8691 54.4857 92.4694C54.8853 92.0697 55.4268 91.8442 55.992 91.842C56.5568 91.8444 57.0977 92.0701 57.4966 92.4699C57.8954 92.8697 58.1199 93.4111 58.1209 93.9759H58.1214Z" fill="#FA4655"/>
<path fill-rule="evenodd" clip-rule="evenodd" d="M50.6787 55.8289C50.6787 55.0791 50.8264 54.3366 51.1134 53.6438C51.4003 52.951 51.8209 52.3215 52.3511 51.7913C52.8814 51.2611 53.5108 50.8405 54.2036 50.5535C54.8964 50.2666 55.6389 50.1189 56.3887 50.1189C57.1386 50.1189 57.8811 50.2666 58.5739 50.5535C59.2666 50.8405 59.8961 51.2611 60.4263 51.7913C60.9565 52.3215 61.3771 52.951 61.6641 53.6438C61.951 54.3366 62.0987 55.0791 62.0987 55.8289C62.0987 66.2321 50.6787 66.2321 50.6787 55.8289Z" fill="#FFCCBC"/>
<path fill-rule="evenodd" clip-rule="evenodd" d="M62.474 72.548C62.479 77.4917 62.5943 82.9915 62.7445 88.5162H49.8318L50.1322 74.9223L46.6763 80.9078C45.1638 83.5224 41.1215 81.2935 42.6742 78.5987C44.2672 75.8439 46.491 69.7281 48.9002 68.0001C50.1525 67.0984 51.8303 66.8982 53.328 66.798C56.0577 66.6177 58.9079 66.6978 61.6476 66.7028C62.1027 66.6966 62.548 66.8351 62.9195 67.0981L67.6976 70.4039L73.573 67.013C76.1975 65.5005 78.5016 69.4974 75.8819 71.0099L69.2759 75.3688C68.7511 75.6609 68.1335 75.7381 67.5529 75.5842L62.474 72.548Z" fill="#57A3FF"/>
<path fill-rule="evenodd" clip-rule="evenodd" d="M82.3391 46.8035H106.421C106.948 46.8059 107.451 47.0163 107.823 47.3889C108.195 47.7615 108.404 48.2659 108.405 48.7921V66.9685C108.404 67.4942 108.194 67.9979 107.823 68.3696C107.451 68.7413 106.947 68.9507 106.421 68.9519H82.3391C81.8134 68.9507 81.3096 68.7414 80.9378 68.3697C80.5661 67.998 80.3567 67.4942 80.3555 66.9685V48.7916C80.3565 48.2653 80.5657 47.7609 80.9373 47.3883C81.3089 47.0158 81.8128 46.8053 82.3391 46.803V46.8035Z" fill="#FA4655"/>
<path fill-rule="evenodd" clip-rule="evenodd" d="M101.487 57.8775L95.627 61.2636L89.7666 64.6445V51.1106L95.627 54.4967L101.487 57.8775Z" fill="#EAF6FF"/>
<path d="M80.3558 75.1283C80.0276 75.1283 79.7128 74.9979 79.4807 74.7659C79.2486 74.5338 79.1183 74.219 79.1183 73.8908C79.1183 73.5626 79.2486 73.2478 79.4807 73.0158C79.7128 72.7837 80.0276 72.6533 80.3558 72.6533H108.406C108.734 72.6533 109.049 72.7837 109.281 73.0158C109.513 73.2478 109.643 73.5626 109.643 73.8908C109.643 74.219 109.513 74.5338 109.281 74.7659C109.049 74.9979 108.734 75.1283 108.406 75.1283H80.3558ZM80.3558 83.984C80.1924 83.9859 80.0303 83.9554 79.8788 83.8942C79.7273 83.833 79.5895 83.7424 79.4733 83.6275C79.3571 83.5127 79.2648 83.3759 79.2018 83.2252C79.1389 83.0744 79.1064 82.9127 79.1064 82.7493C79.1064 82.5859 79.1389 82.4242 79.2018 82.2734C79.2648 82.1227 79.3571 81.9859 79.4733 81.8711C79.5895 81.7562 79.7273 81.6656 79.8788 81.6044C80.0303 81.5432 80.1924 81.5127 80.3558 81.5147H84.4636C84.6269 81.5127 84.789 81.5432 84.9405 81.6044C85.092 81.6656 85.2299 81.7562 85.3461 81.8711C85.4623 81.9859 85.5545 82.1227 85.6175 82.2734C85.6805 82.4242 85.7129 82.5859 85.7129 82.7493C85.7129 82.9127 85.6805 83.0744 85.6175 83.2252C85.5545 83.3759 85.4623 83.5127 85.3461 83.6275C85.2299 83.7424 85.092 83.833 84.9405 83.8942C84.789 83.9554 84.6269 83.9859 84.4636 83.984H80.3558ZM87.9698 83.984C87.6449 83.9801 87.3345 83.8484 87.1061 83.6172C86.8777 83.3861 86.7496 83.0743 86.7496 82.7493C86.7496 82.4244 86.8777 82.1125 87.1061 81.8814C87.3345 81.6503 87.6449 81.5185 87.9698 81.5147H108.406C108.569 81.5127 108.731 81.5432 108.883 81.6044C109.034 81.6656 109.172 81.7562 109.288 81.8711C109.404 81.9859 109.497 82.1227 109.56 82.2734C109.623 82.4242 109.655 82.5859 109.655 82.7493C109.655 82.9127 109.623 83.0744 109.56 83.2252C109.497 83.3759 109.404 83.5127 109.288 83.6275C109.172 83.7424 109.034 83.833 108.883 83.8942C108.731 83.9554 108.569 83.9859 108.406 83.984H87.9698ZM80.3558 79.5561C80.0276 79.5561 79.7128 79.4258 79.4807 79.1937C79.2486 78.9616 79.1183 78.6469 79.1183 78.3186C79.1183 77.9904 79.2486 77.6757 79.4807 77.4436C79.7128 77.2115 80.0276 77.0811 80.3558 77.0811H99.2291C99.5573 77.0811 99.8721 77.2115 100.104 77.4436C100.336 77.6757 100.467 77.9904 100.467 78.3186C100.467 78.6469 100.336 78.9616 100.104 79.1937C99.8721 79.4258 99.5573 79.5561 99.2291 79.5561H80.3558ZM102.735 79.5561C102.407 79.5561 102.092 79.4258 101.86 79.1937C101.628 78.9616 101.498 78.6469 101.498 78.3186C101.498 77.9904 101.628 77.6757 101.86 77.4436C102.092 77.2115 102.407 77.0811 102.735 77.0811H108.405C108.733 77.0811 109.048 77.2115 109.28 77.4436C109.512 77.6757 109.643 77.9904 109.643 78.3186C109.643 78.6469 109.512 78.9616 109.28 79.1937C109.048 79.4258 108.733 79.5561 108.405 79.5561H102.735Z" fill="#D3DDE6"/>
<path fill-rule="evenodd" clip-rule="evenodd" d="M47.2023 48.6963C46.9615 49.7146 46.5572 50.6872 46.0052 51.5762L46.5562 52.4979L47.2324 53.6249C46.5754 54.4871 45.8055 55.257 44.9434 55.9139L43.8164 55.2378L42.8953 54.6868C42.0063 55.2388 41.0337 55.6431 40.0154 55.8839L39.75 56.9258L39.4295 58.1976C38.3574 58.3446 37.2703 58.3446 36.1982 58.1976L35.8775 56.9258L35.6121 55.8839C34.5937 55.6431 33.6211 55.2388 32.732 54.6868L31.8104 55.2378L30.6835 55.9139C29.8212 55.2571 29.0512 54.4871 28.3943 53.6249L29.0704 52.4979L29.6204 51.5762C29.0684 50.6872 28.6642 49.7146 28.4235 48.6963L27.3816 48.4307L26.1102 48.1096C25.9633 47.0376 25.9633 45.9505 26.1102 44.8784L27.3821 44.5577L28.424 44.2923C28.665 43.2743 29.0693 42.3021 29.6213 41.4134L29.0713 40.4918L28.3943 39.3648C29.051 38.5024 29.821 37.7323 30.6833 37.0753L31.8103 37.7515L32.7319 38.3025C33.6198 37.7483 34.5928 37.3438 35.612 37.1054L35.8773 36.0635L36.198 34.7916C37.2701 34.6447 38.3572 34.6447 39.4293 34.7916L39.75 36.064L40.0155 37.1059C41.0346 37.3444 42.0075 37.7488 42.8953 38.303L43.8171 37.752L44.944 37.0758C45.8063 37.7327 46.5762 38.5026 47.2331 39.3648L46.5562 40.4918L46.0052 41.4134C46.5572 42.3025 46.9615 43.2751 47.2023 44.2935L48.2442 44.5589L49.5161 44.8796C49.663 45.9517 49.663 47.0388 49.5161 48.1109L48.2442 48.4314L47.2023 48.6963Z" fill="#8D9CA8"/>
<path fill-rule="evenodd" clip-rule="evenodd" d="M42.8893 46.4924C42.8898 47.4964 42.5926 48.478 42.0352 49.3132C41.4778 50.1483 40.6853 50.7993 39.7578 51.184C38.8304 51.5687 37.8098 51.6698 36.8249 51.4744C35.8401 51.279 34.9353 50.7959 34.225 50.0863C33.5146 49.3767 33.0307 48.4724 32.8344 47.4877C32.638 46.5031 32.738 45.4823 33.1218 44.5545C33.5056 43.6267 34.1559 42.8336 34.9905 42.2753C35.825 41.7171 36.8064 41.4189 37.8104 41.4185C39.1565 41.4185 40.4476 41.9529 41.4 42.9043C42.3523 43.8557 42.888 45.1462 42.8893 46.4924Z" fill="#EAF6FF"/>
<path fill-rule="evenodd" clip-rule="evenodd" d="M40.9018 88.5165V55.6287C40.6109 55.729 40.315 55.8142 40.0153 55.8841L39.7503 56.926L39.4297 58.1978C38.8935 58.2703 38.353 58.3071 37.8119 58.308C37.6766 58.3072 37.5414 58.3038 37.4062 58.2979V88.5165H40.9018Z" fill="#D3DDE6"/>
<path fill-rule="evenodd" clip-rule="evenodd" d="M40.9017 88.5164H37.4053V101.805C37.4081 102.812 37.8096 103.777 38.5219 104.49C39.2343 105.202 40.1996 105.603 41.207 105.606H44.7031C43.696 105.603 42.7312 105.201 42.0191 104.489C41.307 103.777 40.9054 102.812 40.9017 101.805V88.5164Z" fill="#3F5E75"/>
<path fill-rule="evenodd" clip-rule="evenodd" d="M34.2503 46.4924C34.2504 45.2776 34.6862 44.1031 35.4784 43.1823C36.2706 42.2614 37.3669 41.6551 38.568 41.4736C38.3175 41.4373 38.0648 41.4188 37.8117 41.4185C36.5012 41.4187 35.2416 41.926 34.2967 42.8341C33.3518 43.7422 32.7948 44.9806 32.7423 46.2901C32.6899 47.5996 33.1461 48.8785 34.0155 49.8592C34.8848 50.8399 36.0998 51.4463 37.4061 51.5513C37.5414 51.5613 37.6767 51.5713 37.8117 51.5713C38.065 51.5718 38.318 51.5517 38.568 51.5113C38.1686 51.4542 37.7781 51.3465 37.406 51.1907C36.4725 50.8099 35.6738 50.1596 35.1117 49.3227C34.5497 48.4859 34.2498 47.5005 34.2503 46.4924Z" fill="#D3DDE6"/>
<path fill-rule="evenodd" clip-rule="evenodd" d="M37.3596 55.8841C36.3412 55.6432 35.3685 55.239 34.4795 54.687L33.6431 55.1878C34.2716 55.4918 34.9318 55.7253 35.6116 55.8841L35.877 56.926L36.1977 58.1979C36.593 58.2479 36.994 58.2838 37.4048 58.2979C37.5399 58.3038 37.6751 58.3072 37.8104 58.308C38.106 58.308 38.3965 58.2979 38.687 58.2737C38.4365 58.2587 38.1911 58.2285 37.9457 58.1985L37.6251 56.9267L37.4048 56.0501L37.3596 55.8841ZM34.4795 38.3032C35.3674 37.749 36.3404 37.3446 37.3596 37.1061L37.6251 36.0642L37.9457 34.7923C38.1911 34.7623 38.4365 34.7322 38.687 34.7172C38.3965 34.6921 38.106 34.6829 37.8104 34.6829C37.271 34.684 36.7322 34.7208 36.1977 34.793L35.877 36.0649L35.6116 37.1068C34.9318 37.2656 34.2716 37.499 33.6431 37.8029L34.4795 38.3032ZM31.6951 55.3081C31.1272 54.7975 30.6093 54.234 30.1482 53.6251L30.8194 52.4982L31.3694 51.5764C30.8165 50.6883 30.4134 49.7154 30.1763 48.6965L29.1345 48.4309L27.8626 48.1104C27.7088 47.0388 27.7088 45.9507 27.8626 44.8791L29.1345 44.5584L30.1763 44.2943C30.4133 43.2752 30.8163 42.302 31.3691 41.4136L30.8191 40.492L30.147 39.3651C30.608 38.7562 31.126 38.1926 31.6939 37.6821L30.6829 37.0755C29.8206 37.7325 29.0507 38.5026 28.3939 39.3651L29.0701 40.492L29.6201 41.4136C29.0684 42.3029 28.6644 43.2757 28.424 44.2943L27.3821 44.5596L26.1102 44.8803C25.9633 45.9524 25.9633 47.0395 26.1102 48.1116L27.3821 48.4321L28.424 48.6977C28.6647 49.716 29.0689 50.6886 29.6209 51.5776L29.0709 52.4994L28.3948 53.6263C29.0517 54.4886 29.8216 55.2585 30.6838 55.9154L31.6951 55.3081Z" fill="#7F8C97"/>
<path fill-rule="evenodd" clip-rule="evenodd" d="M44.372 78.5988C45.9647 75.844 48.1836 69.7282 50.5928 68.0002C51.85 67.0985 53.5229 66.8983 55.0256 66.7981C56.1876 66.718 57.3698 66.6929 58.5619 66.6829C56.8088 66.6728 55.0457 66.6829 53.3277 66.7981C51.8299 66.8983 50.1521 67.0985 48.8998 68.0002C46.4907 69.7282 44.2668 75.844 42.6738 78.5988C41.4168 80.7727 43.811 82.6459 45.5785 81.9096C44.3764 81.4538 43.5049 80.0964 44.3714 78.5988H44.372Z" fill="#4E93E6"/>
<path fill-rule="evenodd" clip-rule="evenodd" d="M50.0623 74.9226L49.832 88.5165H51.525L51.8254 71.8672L50.0623 74.9226Z" fill="#4E93E6"/>
<path fill-rule="evenodd" clip-rule="evenodd" d="M52.4767 55.8288C52.4813 54.4711 52.9674 53.1591 53.8487 52.1263C54.73 51.0935 55.9492 50.4069 57.2892 50.1888C56.9909 50.1427 56.6896 50.1192 56.3877 50.1187C54.8747 50.1231 53.4249 50.7261 52.355 51.796C51.2851 52.866 50.6821 54.3158 50.6777 55.8288C50.6777 61.5789 54.1688 64.1484 57.2892 63.5422C54.7649 63.0515 52.4767 60.482 52.4767 55.8288Z" fill="#FFAB91"/>
<path fill-rule="evenodd" clip-rule="evenodd" d="M84.2775 66.9685V48.7916C84.2785 48.2654 84.4876 47.7609 84.8592 47.3883C85.2308 47.0158 85.7347 46.8053 86.2609 46.803H82.3391C81.8128 46.8053 81.3089 47.0158 80.9373 47.3883C80.5657 47.7609 80.3565 48.2653 80.3555 48.7916V66.9685C80.3567 67.4942 80.5661 67.998 80.9378 68.3697C81.3096 68.7414 81.8134 68.9507 82.3391 68.9519H86.2609C85.7352 68.9507 85.2314 68.7414 84.8597 68.3697C84.488 67.998 84.2787 67.4942 84.2775 66.9685Z" fill="#E13F4D"/>
</svg>
