<svg width="24" height="28" viewBox="0 0 24 28" fill="none" xmlns="http://www.w3.org/2000/svg">
<path d="M4.84519 7.64244C4.84519 5.84334 5.56012 4.117 6.83241 2.84478C8.1047 1.57255 9.83144 0.85791 11.6309 0.85791C13.4304 0.85791 15.157 1.57271 16.4294 2.84478C17.7019 4.11685 18.4166 5.84328 18.4166 7.64244C18.4166 9.44161 17.7017 11.1679 16.4294 12.4401C15.1571 13.7123 13.4304 14.427 11.6309 14.427C9.8315 14.4246 8.10734 13.7098 6.83489 12.4377C5.56257 11.1656 4.84765 9.44155 4.84519 7.64244ZM23.2076 24.9307C22.1122 19.9683 17.2446 16.3653 11.6309 16.3653C6.01714 16.3653 1.14945 19.9683 0.0541307 24.9307C-0.0997572 25.6431 0.0783649 26.3869 0.538821 26.9515C1.09259 27.619 1.91655 28.0018 2.78294 27.9958H20.479C21.3442 28.0019 22.1669 27.6178 22.7195 26.9515C23.1812 26.3881 23.3603 25.6443 23.2076 24.9307Z" fill="#002C9C"/>
</svg>
