<svg width="22" height="14" viewBox="0 0 22 14" fill="none" xmlns="http://www.w3.org/2000/svg">
<path d="M5.69499 7.24936C7.69685 7.24936 9.31967 5.62653 9.31967 3.62468C9.31967 1.62282 7.69685 0 5.69499 0C3.69314 0 2.07031 1.62282 2.07031 3.62468C2.07031 5.62653 3.69314 7.24936 5.69499 7.24936Z" fill="#333333"/>
<path d="M16.0519 7.24936C18.0538 7.24936 19.6766 5.62653 19.6766 3.62468C19.6766 1.62282 18.0538 0 16.0519 0C14.0501 0 12.4272 1.62282 12.4272 3.62468C12.4272 5.62653 14.0501 7.24936 16.0519 7.24936Z" fill="#333333"/>
<path fill-rule="evenodd" clip-rule="evenodd" d="M11.3919 11.9098V12.9455C11.3919 13.0827 11.3375 13.2147 11.2401 13.3116C11.1433 13.4089 11.0113 13.4633 10.874 13.4633H0.517811C0.380591 13.4633 0.248549 13.4089 0.151718 13.3116C0.0543698 13.2147 0 13.0827 0 12.9455V11.9098C0 9.90798 1.62282 8.28516 3.62468 8.28516C4.95753 8.28516 6.43432 8.28516 7.76717 8.28516C9.76903 8.28516 11.3919 9.90798 11.3919 11.9098Z" fill="#333333"/>
<path fill-rule="evenodd" clip-rule="evenodd" d="M12.3373 13.4633H21.2292C21.3664 13.4633 21.4985 13.4089 21.5953 13.3116C21.6926 13.2147 21.747 13.0827 21.747 12.9455V11.9098C21.747 9.90798 20.1242 8.28516 18.1223 8.28516C16.7895 8.28516 15.3127 8.28516 13.9798 8.28516C13.0514 8.28516 12.2048 8.63416 11.5637 9.20789C12.1069 9.97011 12.4264 10.9027 12.4264 11.9098V12.9455C12.4264 13.1236 12.3958 13.2986 12.3373 13.4633Z" fill="#333333"/>
</svg>
