<svg width="140" height="141" viewBox="0 0 140 141" fill="none" xmlns="http://www.w3.org/2000/svg">
<rect x="0.5" y="1.20264" width="139" height="139" rx="69.5" fill="#15355E" fill-opacity="0.2"/>
<rect x="0.5" y="1.20264" width="139" height="139" rx="69.5" stroke="#15355E"/>
<path fill-rule="evenodd" clip-rule="evenodd" d="M40.1836 89.9741H50.4654V106.8H40.1836V89.9741Z" fill="#05E39C"/>
<path fill-rule="evenodd" clip-rule="evenodd" d="M56.6348 78.5073H66.9166V106.8H56.6348V78.5073Z" fill="#FFE177"/>
<path fill-rule="evenodd" clip-rule="evenodd" d="M73.085 85.7598H83.3667V106.8H73.085V85.7598Z" fill="#2FB1D4"/>
<path fill-rule="evenodd" clip-rule="evenodd" d="M89.5352 72.718H99.8169V106.8H89.5352V72.718Z" fill="#FF5A5A"/>
<path d="M45.3241 82.5306C47.5769 82.5306 49.4032 80.7044 49.4032 78.4516C49.4032 76.1988 47.5769 74.3726 45.3241 74.3726C43.0714 74.3726 41.2451 76.1988 41.2451 78.4516C41.2451 80.7044 43.0714 82.5306 45.3241 82.5306Z" fill="#05E39C"/>
<path d="M65.7793 64.3131C66.2053 62.101 64.7573 59.9623 62.5452 59.5363C60.333 59.1103 58.1944 60.5583 57.7684 62.7704C57.3424 64.9826 58.7904 67.1212 61.0025 67.5472C63.2146 67.9732 65.3533 66.5252 65.7793 64.3131Z" fill="#FFE177"/>
<path d="M78.5714 77.4979C80.8152 77.2965 82.4708 75.3143 82.2694 73.0705C82.068 70.8268 80.0857 69.1711 77.842 69.3726C75.5982 69.574 73.9426 71.5562 74.144 73.8C74.3455 76.0437 76.3277 77.6994 78.5714 77.4979Z" fill="#2FB1D4"/>
<path d="M96.2507 61.7395C98.3323 60.8781 99.3215 58.4923 98.4601 56.4107C97.5987 54.3291 95.213 53.34 93.1314 54.2013C91.0498 55.0627 90.0606 57.4485 90.922 59.5301C91.7833 61.6117 94.1691 62.6008 96.2507 61.7395Z" fill="#FF5A5A"/>
<path d="M45.5739 57.9481C52.0199 57.9481 57.2454 52.7225 57.2454 46.2765C57.2454 39.8305 52.0199 34.605 45.5739 34.605C39.1279 34.605 33.9023 39.8305 33.9023 46.2765C33.9023 52.7225 39.1279 57.9481 45.5739 57.9481Z" fill="#2FB1D4"/>
<path fill-rule="evenodd" clip-rule="evenodd" d="M45.5742 34.605C52.0206 34.605 57.2458 39.8301 57.2458 46.2765H45.5742V34.605Z" fill="#FF5A5A"/>
<path fill-rule="evenodd" clip-rule="evenodd" d="M57.2458 46.2766C57.2428 49.8969 55.5612 53.4645 52.3997 55.7447L45.5742 46.2766H49.4818H57.2458Z" fill="#FFE177"/>
<path fill-rule="evenodd" clip-rule="evenodd" d="M68.6572 37.6704H76.1971V43.3828H68.6572V37.6704Z" fill="#2FB1D4"/>
<path fill-rule="evenodd" clip-rule="evenodd" d="M68.6572 47.8123H76.1971V53.5247H68.6572V47.8123Z" fill="#FF5A5A"/>
<path fill-rule="evenodd" clip-rule="evenodd" d="M69.5593 48.7147H75.2943V52.6223H69.5593V48.7147ZM68.6569 54.4271H76.1968C76.6946 54.4271 77.0992 54.0226 77.0992 53.5247V47.8123C77.0992 47.3144 76.6946 46.9098 76.1968 46.9098H68.6569C68.1575 46.9098 67.7544 47.3144 67.7544 47.8123V53.5247C67.7544 54.0226 68.1575 54.4271 68.6569 54.4271ZM79.5192 52.5726C79.5192 52.0748 79.9238 51.6702 80.4217 51.6702H85.367C85.8649 51.6702 86.2695 52.0748 86.2695 52.5726C86.2695 53.072 85.8649 53.4751 85.367 53.4751H80.4217C79.9238 53.4751 79.5192 53.072 79.5192 52.5726ZM79.5192 48.7628C79.5192 48.2635 79.9238 47.8604 80.4217 47.8604H91.7864C92.2857 47.8604 92.6888 48.2635 92.6888 48.7628C92.6888 49.2607 92.2857 49.6653 91.7864 49.6653H80.4217C79.9238 49.6653 79.5192 49.2607 79.5192 48.7628ZM69.5593 38.5728H75.2943V42.4804H69.5593V38.5728ZM68.6569 44.2852H76.1968C76.6946 44.2852 77.0992 43.8806 77.0992 43.3828V37.6704C77.0992 37.1725 76.6946 36.7679 76.1968 36.7679H68.6569C68.1575 36.7679 67.7544 37.1725 67.7544 37.6704V43.3828C67.7544 43.8806 68.1575 44.2852 68.6569 44.2852ZM79.5192 42.4322C79.5192 41.9344 79.9238 41.5298 80.4217 41.5298H85.367C85.8649 41.5298 86.2695 41.9344 86.2695 42.4322C86.2695 42.9301 85.8649 43.3347 85.367 43.3347H80.4217C79.9238 43.3347 79.5192 42.9301 79.5192 42.4322ZM79.5192 38.6209C79.5192 38.1216 79.9238 37.7185 80.4217 37.7185H91.7864C92.2857 37.7185 92.6888 38.1231 92.6888 38.6209C92.6888 39.1188 92.2857 39.5234 91.7864 39.5234H80.4217C79.9238 39.5234 79.5192 39.1203 79.5192 38.6209ZM44.6715 35.5481V46.2766C44.6715 46.4721 44.7347 46.6556 44.843 46.8045H44.8415L51.115 55.5071C49.443 56.516 47.5268 57.0481 45.574 57.0457C39.6359 57.0457 34.8049 52.2147 34.8049 46.2766C34.8049 40.6424 39.1546 36.0084 44.6715 35.5481ZM46.4764 35.5451V45.3742H56.3055C55.8708 40.1536 51.697 35.9798 46.4764 35.5451ZM52.5769 54.4482C54.6661 52.6554 56.0603 50.0789 56.3025 47.1791H47.3367L52.5769 54.4482ZM45.574 58.8506C52.5077 58.8506 58.148 53.2104 58.148 46.2766C58.148 39.3429 52.5077 33.7026 45.574 33.7026C38.6402 33.7026 33 39.3429 33 46.2766C33 53.2104 38.6402 58.8506 45.574 58.8506ZM61.7743 60.3682C63.5265 60.3682 64.9524 61.7941 64.9524 63.5448C64.9524 65.2955 63.5265 66.7214 61.7743 66.7214C60.0235 66.7214 58.5977 65.2955 58.5977 63.5448C58.5977 61.7941 60.0235 60.3682 61.7743 60.3682ZM45.3243 81.6282C43.5736 81.6282 42.1477 80.2023 42.1477 78.4516C42.1477 76.7008 43.5736 75.275 45.3243 75.275C47.0765 75.275 48.5024 76.7008 48.5024 78.4516C48.5024 80.2038 47.0765 81.6282 45.3243 81.6282ZM78.2257 70.2559C79.9765 70.2559 81.4023 71.6818 81.4023 73.4325C81.4023 75.1847 79.9765 76.6091 78.2257 76.6091C76.4735 76.6091 75.0476 75.1847 75.0476 73.4325C75.0476 71.6818 76.4735 70.2559 78.2257 70.2559ZM94.6757 54.8107C96.4264 54.8107 97.8523 56.2365 97.8523 57.9873C97.8523 59.7395 96.4264 61.1639 94.6757 61.1639C92.9235 61.1639 91.4976 59.7395 91.4976 57.9873C91.4976 56.2365 92.9235 54.8107 94.6757 54.8107ZM57.5403 66.1649C57.0506 65.3788 56.7915 64.4709 56.7928 63.5448C56.7928 60.7984 59.0278 58.5633 61.7743 58.5633C64.5222 58.5633 66.7572 60.7984 66.7572 63.5448C66.7572 64.16 66.6429 64.7511 66.4384 65.2955L74.4941 70.1371C75.4071 69.1038 76.7412 68.4511 78.2257 68.4511C79.3297 68.4511 80.351 68.812 81.1767 69.4227L90.4884 60.6811C89.9684 59.8789 89.6921 58.9432 89.6927 57.9873C89.6927 55.2393 91.9278 53.0058 94.6757 53.0058C97.4221 53.0058 99.6572 55.2409 99.6572 57.9873C99.6572 60.7352 97.4221 62.9687 94.6757 62.9687C93.5702 62.9687 92.5504 62.6078 91.7232 61.9971L82.4131 70.7387C82.9319 71.5413 83.2077 72.4768 83.2072 73.4325C83.2072 76.1789 80.9722 78.414 78.2257 78.414C75.4778 78.414 73.2428 76.1789 73.2428 73.4325C73.2428 72.8174 73.3556 72.2263 73.5616 71.6818L65.5059 66.8402C64.5929 67.8735 63.2588 68.5263 61.7743 68.5263C60.6387 68.5263 59.5919 68.1442 58.7526 67.5005L49.5598 75.8315C50.0489 76.6179 50.3078 77.5255 50.3073 78.4516C50.3073 81.1995 48.0722 83.433 45.3243 83.433C42.5779 83.433 40.3428 81.198 40.3428 78.4516C40.3428 75.7052 42.5779 73.4701 45.3243 73.4701C46.4614 73.4701 47.5082 73.8521 48.3475 74.4944L57.5403 66.1649ZM41.0874 90.8767H49.5628V105.898H41.0874V90.8767ZM57.5373 79.4097V105.898H66.0127V79.4097H57.5373ZM73.9873 86.6623H82.4627V105.898H73.9873V86.6623ZM90.4372 73.6205V105.898H98.9126V73.6205H90.4372ZM106.098 105.898H100.718V72.7181C100.718 72.2202 100.314 71.8156 99.8151 71.8156H89.5348C89.0354 71.8156 88.6324 72.2202 88.6324 72.7181V105.898H84.2676V85.7598C84.2676 85.262 83.8645 84.8574 83.3651 84.8574H73.0848C72.5855 84.8574 72.1824 85.262 72.1824 85.7598V105.898H67.8176V78.5072C67.8176 78.0094 67.4145 77.6048 66.9152 77.6048H56.6349C56.1355 77.6048 55.7324 78.0094 55.7324 78.5072V105.898H51.3676V89.9742C51.3676 89.4749 50.9646 89.0718 50.4652 89.0718H40.1849C39.6856 89.0718 39.2825 89.4749 39.2825 89.9742V105.898H33.9024C33.4046 105.898 33 106.302 33 106.8C33 107.298 33.4046 107.703 33.9024 107.703H106.098C106.595 107.703 107 107.298 107 106.8C107 106.302 106.595 105.898 106.098 105.898Z" fill="#222124"/>
</svg>
